G04 #@! TF.GenerationSoftware,KiCad,Pcbnew,5.1.7*
G04 #@! TF.CreationDate,2020-10-22T00:02:30+01:00*
G04 #@! TF.ProjectId,rc2014-icecore,72633230-3134-42d6-9963-65636f72652e,1*
G04 #@! TF.SameCoordinates,Original*
G04 #@! TF.FileFunction,Legend,Bot*
G04 #@! TF.FilePolarity,Positive*
%FSLAX46Y46*%
G04 Gerber Fmt 4.6, Leading zero omitted, Abs format (unit mm)*
G04 Created by KiCad (PCBNEW 5.1.7) date 2020-10-22 00:02:30*
%MOMM*%
%LPD*%
G01*
G04 APERTURE LIST*
%ADD10C,0.254000*%
%ADD11C,0.010000*%
G04 APERTURE END LIST*
D10*
X111011909Y-142182547D02*
X110955061Y-142125700D01*
X110841366Y-142068852D01*
X110557128Y-142068852D01*
X110443433Y-142125700D01*
X110386585Y-142182547D01*
X110329738Y-142296242D01*
X110329738Y-142409938D01*
X110386585Y-142580480D01*
X111068757Y-143262652D01*
X110329738Y-143262652D01*
X109590719Y-142068852D02*
X109477023Y-142068852D01*
X109363328Y-142125700D01*
X109306480Y-142182547D01*
X109249633Y-142296242D01*
X109192785Y-142523633D01*
X109192785Y-142807871D01*
X109249633Y-143035261D01*
X109306480Y-143148957D01*
X109363328Y-143205804D01*
X109477023Y-143262652D01*
X109590719Y-143262652D01*
X109704414Y-143205804D01*
X109761261Y-143148957D01*
X109818109Y-143035261D01*
X109874957Y-142807871D01*
X109874957Y-142523633D01*
X109818109Y-142296242D01*
X109761261Y-142182547D01*
X109704414Y-142125700D01*
X109590719Y-142068852D01*
X108738004Y-142182547D02*
X108681157Y-142125700D01*
X108567461Y-142068852D01*
X108283223Y-142068852D01*
X108169528Y-142125700D01*
X108112680Y-142182547D01*
X108055833Y-142296242D01*
X108055833Y-142409938D01*
X108112680Y-142580480D01*
X108794852Y-143262652D01*
X108055833Y-143262652D01*
X107316814Y-142068852D02*
X107203119Y-142068852D01*
X107089423Y-142125700D01*
X107032576Y-142182547D01*
X106975728Y-142296242D01*
X106918880Y-142523633D01*
X106918880Y-142807871D01*
X106975728Y-143035261D01*
X107032576Y-143148957D01*
X107089423Y-143205804D01*
X107203119Y-143262652D01*
X107316814Y-143262652D01*
X107430509Y-143205804D01*
X107487357Y-143148957D01*
X107544204Y-143035261D01*
X107601052Y-142807871D01*
X107601052Y-142523633D01*
X107544204Y-142296242D01*
X107487357Y-142182547D01*
X107430509Y-142125700D01*
X107316814Y-142068852D01*
X105497690Y-142637328D02*
X105099757Y-142637328D01*
X104929214Y-143262652D02*
X105497690Y-143262652D01*
X105497690Y-142068852D01*
X104929214Y-142068852D01*
X103905957Y-143262652D02*
X103905957Y-142068852D01*
X103905957Y-143205804D02*
X104019652Y-143262652D01*
X104247042Y-143262652D01*
X104360738Y-143205804D01*
X104417585Y-143148957D01*
X104474433Y-143035261D01*
X104474433Y-142694176D01*
X104417585Y-142580480D01*
X104360738Y-142523633D01*
X104247042Y-142466785D01*
X104019652Y-142466785D01*
X103905957Y-142523633D01*
X102029985Y-142637328D02*
X101859442Y-142694176D01*
X101802595Y-142751023D01*
X101745747Y-142864719D01*
X101745747Y-143035261D01*
X101802595Y-143148957D01*
X101859442Y-143205804D01*
X101973138Y-143262652D01*
X102427919Y-143262652D01*
X102427919Y-142068852D01*
X102029985Y-142068852D01*
X101916290Y-142125700D01*
X101859442Y-142182547D01*
X101802595Y-142296242D01*
X101802595Y-142409938D01*
X101859442Y-142523633D01*
X101916290Y-142580480D01*
X102029985Y-142637328D01*
X102427919Y-142637328D01*
X101234119Y-143262652D02*
X101234119Y-142466785D01*
X101234119Y-142694176D02*
X101177271Y-142580480D01*
X101120423Y-142523633D01*
X101006728Y-142466785D01*
X100893033Y-142466785D01*
X100495100Y-143262652D02*
X100495100Y-142466785D01*
X100495100Y-142068852D02*
X100551947Y-142125700D01*
X100495100Y-142182547D01*
X100438252Y-142125700D01*
X100495100Y-142068852D01*
X100495100Y-142182547D01*
X99926623Y-142466785D02*
X99926623Y-143262652D01*
X99926623Y-142580480D02*
X99869776Y-142523633D01*
X99756080Y-142466785D01*
X99585538Y-142466785D01*
X99471842Y-142523633D01*
X99414995Y-142637328D01*
X99414995Y-143262652D01*
X98334890Y-143262652D02*
X98334890Y-142068852D01*
X98334890Y-143205804D02*
X98448585Y-143262652D01*
X98675976Y-143262652D01*
X98789671Y-143205804D01*
X98846519Y-143148957D01*
X98903366Y-143035261D01*
X98903366Y-142694176D01*
X98846519Y-142580480D01*
X98789671Y-142523633D01*
X98675976Y-142466785D01*
X98448585Y-142466785D01*
X98334890Y-142523633D01*
X97595871Y-143262652D02*
X97709566Y-143205804D01*
X97766414Y-143092109D01*
X97766414Y-142068852D01*
X96686309Y-143205804D02*
X96800004Y-143262652D01*
X97027395Y-143262652D01*
X97141090Y-143205804D01*
X97197938Y-143092109D01*
X97197938Y-142637328D01*
X97141090Y-142523633D01*
X97027395Y-142466785D01*
X96800004Y-142466785D01*
X96686309Y-142523633D01*
X96629461Y-142637328D01*
X96629461Y-142751023D01*
X97197938Y-142864719D01*
X96231528Y-142466785D02*
X95947290Y-143262652D01*
X95663052Y-142466785D02*
X95947290Y-143262652D01*
X96060985Y-143546890D01*
X96117833Y-143603738D01*
X96231528Y-143660585D01*
X110554709Y-139952185D02*
X110554709Y-140918595D01*
X110611557Y-141032290D01*
X110668404Y-141089138D01*
X110782100Y-141145985D01*
X110952642Y-141145985D01*
X111066338Y-141089138D01*
X110554709Y-140691204D02*
X110668404Y-140748052D01*
X110895795Y-140748052D01*
X111009490Y-140691204D01*
X111066338Y-140634357D01*
X111123185Y-140520661D01*
X111123185Y-140179576D01*
X111066338Y-140065880D01*
X111009490Y-140009033D01*
X110895795Y-139952185D01*
X110668404Y-139952185D01*
X110554709Y-140009033D01*
X109986233Y-140748052D02*
X109986233Y-139952185D01*
X109986233Y-139554252D02*
X110043080Y-139611100D01*
X109986233Y-139667947D01*
X109929385Y-139611100D01*
X109986233Y-139554252D01*
X109986233Y-139667947D01*
X109588300Y-139952185D02*
X109133519Y-139952185D01*
X109417757Y-139554252D02*
X109417757Y-140577509D01*
X109360909Y-140691204D01*
X109247214Y-140748052D01*
X109133519Y-140748052D01*
X108735585Y-140748052D02*
X108735585Y-139554252D01*
X108223957Y-140748052D02*
X108223957Y-140122728D01*
X108280804Y-140009033D01*
X108394500Y-139952185D01*
X108565042Y-139952185D01*
X108678738Y-140009033D01*
X108735585Y-140065880D01*
X107143852Y-139952185D02*
X107143852Y-140748052D01*
X107655480Y-139952185D02*
X107655480Y-140577509D01*
X107598633Y-140691204D01*
X107484938Y-140748052D01*
X107314395Y-140748052D01*
X107200700Y-140691204D01*
X107143852Y-140634357D01*
X106575376Y-140748052D02*
X106575376Y-139554252D01*
X106575376Y-140009033D02*
X106461680Y-139952185D01*
X106234290Y-139952185D01*
X106120595Y-140009033D01*
X106063747Y-140065880D01*
X106006900Y-140179576D01*
X106006900Y-140520661D01*
X106063747Y-140634357D01*
X106120595Y-140691204D01*
X106234290Y-140748052D01*
X106461680Y-140748052D01*
X106575376Y-140691204D01*
X105495271Y-140634357D02*
X105438423Y-140691204D01*
X105495271Y-140748052D01*
X105552119Y-140691204D01*
X105495271Y-140634357D01*
X105495271Y-140748052D01*
X104415166Y-140691204D02*
X104528861Y-140748052D01*
X104756252Y-140748052D01*
X104869947Y-140691204D01*
X104926795Y-140634357D01*
X104983642Y-140520661D01*
X104983642Y-140179576D01*
X104926795Y-140065880D01*
X104869947Y-140009033D01*
X104756252Y-139952185D01*
X104528861Y-139952185D01*
X104415166Y-140009033D01*
X103732995Y-140748052D02*
X103846690Y-140691204D01*
X103903538Y-140634357D01*
X103960385Y-140520661D01*
X103960385Y-140179576D01*
X103903538Y-140065880D01*
X103846690Y-140009033D01*
X103732995Y-139952185D01*
X103562452Y-139952185D01*
X103448757Y-140009033D01*
X103391909Y-140065880D01*
X103335061Y-140179576D01*
X103335061Y-140520661D01*
X103391909Y-140634357D01*
X103448757Y-140691204D01*
X103562452Y-140748052D01*
X103732995Y-140748052D01*
X102823433Y-140748052D02*
X102823433Y-139952185D01*
X102823433Y-140065880D02*
X102766585Y-140009033D01*
X102652890Y-139952185D01*
X102482347Y-139952185D01*
X102368652Y-140009033D01*
X102311804Y-140122728D01*
X102311804Y-140748052D01*
X102311804Y-140122728D02*
X102254957Y-140009033D01*
X102141261Y-139952185D01*
X101970719Y-139952185D01*
X101857023Y-140009033D01*
X101800176Y-140122728D01*
X101800176Y-140748052D01*
X100378985Y-139497404D02*
X101402242Y-141032290D01*
X99526271Y-140691204D02*
X99639966Y-140748052D01*
X99867357Y-140748052D01*
X99981052Y-140691204D01*
X100037900Y-140577509D01*
X100037900Y-140122728D01*
X99981052Y-140009033D01*
X99867357Y-139952185D01*
X99639966Y-139952185D01*
X99526271Y-140009033D01*
X99469423Y-140122728D01*
X99469423Y-140236423D01*
X100037900Y-140350119D01*
X98787252Y-140748052D02*
X98900947Y-140691204D01*
X98957795Y-140577509D01*
X98957795Y-139554252D01*
X97877690Y-140691204D02*
X97991385Y-140748052D01*
X98218776Y-140748052D01*
X98332471Y-140691204D01*
X98389319Y-140577509D01*
X98389319Y-140122728D01*
X98332471Y-140009033D01*
X98218776Y-139952185D01*
X97991385Y-139952185D01*
X97877690Y-140009033D01*
X97820842Y-140122728D01*
X97820842Y-140236423D01*
X98389319Y-140350119D01*
X96797585Y-140691204D02*
X96911280Y-140748052D01*
X97138671Y-140748052D01*
X97252366Y-140691204D01*
X97309214Y-140634357D01*
X97366061Y-140520661D01*
X97366061Y-140179576D01*
X97309214Y-140065880D01*
X97252366Y-140009033D01*
X97138671Y-139952185D01*
X96911280Y-139952185D01*
X96797585Y-140009033D01*
X96456500Y-139952185D02*
X96001719Y-139952185D01*
X96285957Y-139554252D02*
X96285957Y-140577509D01*
X96229109Y-140691204D01*
X96115414Y-140748052D01*
X96001719Y-140748052D01*
X95603785Y-140748052D02*
X95603785Y-139952185D01*
X95603785Y-140179576D02*
X95546938Y-140065880D01*
X95490090Y-140009033D01*
X95376395Y-139952185D01*
X95262700Y-139952185D01*
X94864766Y-140748052D02*
X94864766Y-139952185D01*
X94864766Y-139554252D02*
X94921614Y-139611100D01*
X94864766Y-139667947D01*
X94807919Y-139611100D01*
X94864766Y-139554252D01*
X94864766Y-139667947D01*
X94466833Y-139952185D02*
X94012052Y-139952185D01*
X94296290Y-140748052D02*
X94296290Y-139724795D01*
X94239442Y-139611100D01*
X94125747Y-139554252D01*
X94012052Y-139554252D01*
X93614119Y-140748052D02*
X93614119Y-139952185D01*
X93614119Y-139554252D02*
X93670966Y-139611100D01*
X93614119Y-139667947D01*
X93557271Y-139611100D01*
X93614119Y-139554252D01*
X93614119Y-139667947D01*
X92590861Y-140691204D02*
X92704557Y-140748052D01*
X92931947Y-140748052D01*
X93045642Y-140691204D01*
X93102490Y-140577509D01*
X93102490Y-140122728D01*
X93045642Y-140009033D01*
X92931947Y-139952185D01*
X92704557Y-139952185D01*
X92590861Y-140009033D01*
X92534014Y-140122728D01*
X92534014Y-140236423D01*
X93102490Y-140350119D01*
X91510757Y-140748052D02*
X91510757Y-139554252D01*
X91510757Y-140691204D02*
X91624452Y-140748052D01*
X91851842Y-140748052D01*
X91965538Y-140691204D01*
X92022385Y-140634357D01*
X92079233Y-140520661D01*
X92079233Y-140179576D01*
X92022385Y-140065880D01*
X91965538Y-140009033D01*
X91851842Y-139952185D01*
X91624452Y-139952185D01*
X91510757Y-140009033D01*
X90089566Y-139497404D02*
X91112823Y-141032290D01*
X89691633Y-140748052D02*
X89691633Y-139952185D01*
X89691633Y-140179576D02*
X89634785Y-140065880D01*
X89577938Y-140009033D01*
X89464242Y-139952185D01*
X89350547Y-139952185D01*
X88440985Y-140691204D02*
X88554680Y-140748052D01*
X88782071Y-140748052D01*
X88895766Y-140691204D01*
X88952614Y-140634357D01*
X89009461Y-140520661D01*
X89009461Y-140179576D01*
X88952614Y-140065880D01*
X88895766Y-140009033D01*
X88782071Y-139952185D01*
X88554680Y-139952185D01*
X88440985Y-140009033D01*
X87986204Y-139667947D02*
X87929357Y-139611100D01*
X87815661Y-139554252D01*
X87531423Y-139554252D01*
X87417728Y-139611100D01*
X87360880Y-139667947D01*
X87304033Y-139781642D01*
X87304033Y-139895338D01*
X87360880Y-140065880D01*
X88043052Y-140748052D01*
X87304033Y-140748052D01*
X86565014Y-139554252D02*
X86451319Y-139554252D01*
X86337623Y-139611100D01*
X86280776Y-139667947D01*
X86223928Y-139781642D01*
X86167080Y-140009033D01*
X86167080Y-140293271D01*
X86223928Y-140520661D01*
X86280776Y-140634357D01*
X86337623Y-140691204D01*
X86451319Y-140748052D01*
X86565014Y-140748052D01*
X86678709Y-140691204D01*
X86735557Y-140634357D01*
X86792404Y-140520661D01*
X86849252Y-140293271D01*
X86849252Y-140009033D01*
X86792404Y-139781642D01*
X86735557Y-139667947D01*
X86678709Y-139611100D01*
X86565014Y-139554252D01*
X85030128Y-140748052D02*
X85712300Y-140748052D01*
X85371214Y-140748052D02*
X85371214Y-139554252D01*
X85484909Y-139724795D01*
X85598604Y-139838490D01*
X85712300Y-139895338D01*
X84006871Y-139952185D02*
X84006871Y-140748052D01*
X84291109Y-139497404D02*
X84575347Y-140350119D01*
X83836328Y-140350119D01*
X83381547Y-140293271D02*
X82471985Y-140293271D01*
X81903509Y-140748052D02*
X81903509Y-139554252D01*
X81903509Y-140009033D02*
X81789814Y-139952185D01*
X81562423Y-139952185D01*
X81448728Y-140009033D01*
X81391880Y-140065880D01*
X81335033Y-140179576D01*
X81335033Y-140520661D01*
X81391880Y-140634357D01*
X81448728Y-140691204D01*
X81562423Y-140748052D01*
X81789814Y-140748052D01*
X81903509Y-140691204D01*
X80652861Y-140748052D02*
X80766557Y-140691204D01*
X80823404Y-140577509D01*
X80823404Y-139554252D01*
X79686452Y-140748052D02*
X79686452Y-140122728D01*
X79743300Y-140009033D01*
X79856995Y-139952185D01*
X80084385Y-139952185D01*
X80198080Y-140009033D01*
X79686452Y-140691204D02*
X79800147Y-140748052D01*
X80084385Y-140748052D01*
X80198080Y-140691204D01*
X80254928Y-140577509D01*
X80254928Y-140463814D01*
X80198080Y-140350119D01*
X80084385Y-140293271D01*
X79800147Y-140293271D01*
X79686452Y-140236423D01*
X78606347Y-140691204D02*
X78720042Y-140748052D01*
X78947433Y-140748052D01*
X79061128Y-140691204D01*
X79117976Y-140634357D01*
X79174823Y-140520661D01*
X79174823Y-140179576D01*
X79117976Y-140065880D01*
X79061128Y-140009033D01*
X78947433Y-139952185D01*
X78720042Y-139952185D01*
X78606347Y-140009033D01*
X78094719Y-140748052D02*
X78094719Y-139554252D01*
X77981023Y-140293271D02*
X77639938Y-140748052D01*
X77639938Y-139952185D02*
X78094719Y-140406966D01*
X76673528Y-140691204D02*
X76787223Y-140748052D01*
X77014614Y-140748052D01*
X77128309Y-140691204D01*
X77185157Y-140577509D01*
X77185157Y-140122728D01*
X77128309Y-140009033D01*
X77014614Y-139952185D01*
X76787223Y-139952185D01*
X76673528Y-140009033D01*
X76616680Y-140122728D01*
X76616680Y-140236423D01*
X77185157Y-140350119D01*
X75593423Y-140748052D02*
X75593423Y-139554252D01*
X75593423Y-140691204D02*
X75707119Y-140748052D01*
X75934509Y-140748052D01*
X76048204Y-140691204D01*
X76105052Y-140634357D01*
X76161900Y-140520661D01*
X76161900Y-140179576D01*
X76105052Y-140065880D01*
X76048204Y-140009033D01*
X75934509Y-139952185D01*
X75707119Y-139952185D01*
X75593423Y-140009033D01*
X74513319Y-139952185D02*
X74513319Y-140918595D01*
X74570166Y-141032290D01*
X74627014Y-141089138D01*
X74740709Y-141145985D01*
X74911252Y-141145985D01*
X75024947Y-141089138D01*
X74513319Y-140691204D02*
X74627014Y-140748052D01*
X74854404Y-140748052D01*
X74968100Y-140691204D01*
X75024947Y-140634357D01*
X75081795Y-140520661D01*
X75081795Y-140179576D01*
X75024947Y-140065880D01*
X74968100Y-140009033D01*
X74854404Y-139952185D01*
X74627014Y-139952185D01*
X74513319Y-140009033D01*
X73490061Y-140691204D02*
X73603757Y-140748052D01*
X73831147Y-140748052D01*
X73944842Y-140691204D01*
X74001690Y-140577509D01*
X74001690Y-140122728D01*
X73944842Y-140009033D01*
X73831147Y-139952185D01*
X73603757Y-139952185D01*
X73490061Y-140009033D01*
X73433214Y-140122728D01*
X73433214Y-140236423D01*
X74001690Y-140350119D01*
D11*
G36*
X115776186Y-138997731D02*
G01*
X115692365Y-139442355D01*
X115383080Y-139569853D01*
X115073794Y-139697351D01*
X114702754Y-139445046D01*
X114598843Y-139374796D01*
X114504913Y-139312072D01*
X114425348Y-139259738D01*
X114364530Y-139220657D01*
X114326843Y-139197693D01*
X114316579Y-139192742D01*
X114298090Y-139205476D01*
X114258580Y-139240682D01*
X114202478Y-139293862D01*
X114134213Y-139360518D01*
X114058214Y-139436154D01*
X113978908Y-139516272D01*
X113900725Y-139596374D01*
X113828093Y-139671964D01*
X113765441Y-139738545D01*
X113717197Y-139791618D01*
X113687790Y-139826687D01*
X113680759Y-139838423D01*
X113690877Y-139860060D01*
X113719241Y-139907462D01*
X113762871Y-139975993D01*
X113818782Y-140061015D01*
X113883994Y-140157893D01*
X113921781Y-140213150D01*
X113990657Y-140314048D01*
X114051860Y-140405099D01*
X114102422Y-140481770D01*
X114139372Y-140539528D01*
X114159742Y-140573843D01*
X114162803Y-140581054D01*
X114155864Y-140601548D01*
X114136949Y-140649313D01*
X114108913Y-140717632D01*
X114074609Y-140799789D01*
X114036891Y-140889070D01*
X113998613Y-140978758D01*
X113962630Y-141062138D01*
X113931794Y-141132494D01*
X113908961Y-141183110D01*
X113896983Y-141207271D01*
X113896276Y-141208222D01*
X113877469Y-141212836D01*
X113827382Y-141223128D01*
X113751207Y-141238087D01*
X113654135Y-141256701D01*
X113541357Y-141277959D01*
X113475558Y-141290218D01*
X113355050Y-141313162D01*
X113246203Y-141334995D01*
X113154524Y-141354522D01*
X113085519Y-141370548D01*
X113044696Y-141381879D01*
X113036489Y-141385474D01*
X113028452Y-141409806D01*
X113021967Y-141464759D01*
X113017030Y-141543908D01*
X113013636Y-141640826D01*
X113011782Y-141749087D01*
X113011462Y-141862265D01*
X113012673Y-141973935D01*
X113015410Y-142077668D01*
X113019669Y-142167041D01*
X113025445Y-142235626D01*
X113032733Y-142276997D01*
X113037105Y-142285610D01*
X113063236Y-142295933D01*
X113118607Y-142310692D01*
X113195893Y-142328152D01*
X113287770Y-142346580D01*
X113319842Y-142352541D01*
X113474476Y-142380866D01*
X113596625Y-142403676D01*
X113690327Y-142421880D01*
X113759616Y-142436383D01*
X113808529Y-142448092D01*
X113841103Y-142457915D01*
X113861372Y-142466756D01*
X113873374Y-142475524D01*
X113875053Y-142477257D01*
X113891816Y-142505171D01*
X113917386Y-142559495D01*
X113949212Y-142633577D01*
X113984740Y-142720765D01*
X114021417Y-142814408D01*
X114056689Y-142907852D01*
X114088004Y-142994447D01*
X114112807Y-143067540D01*
X114128546Y-143120478D01*
X114132668Y-143146611D01*
X114132324Y-143147526D01*
X114118359Y-143168886D01*
X114086678Y-143215884D01*
X114040609Y-143283627D01*
X113983482Y-143367223D01*
X113918627Y-143461782D01*
X113900157Y-143488654D01*
X113834301Y-143586075D01*
X113776350Y-143674963D01*
X113729462Y-143750212D01*
X113696793Y-143806720D01*
X113681500Y-143839381D01*
X113680759Y-143843393D01*
X113693608Y-143864484D01*
X113729112Y-143906264D01*
X113782707Y-143964245D01*
X113849829Y-144033935D01*
X113925913Y-144110845D01*
X114006396Y-144190483D01*
X114086713Y-144268361D01*
X114162301Y-144339986D01*
X114228595Y-144400870D01*
X114281031Y-144446521D01*
X114315045Y-144472450D01*
X114324455Y-144476683D01*
X114346357Y-144466712D01*
X114391200Y-144439820D01*
X114451679Y-144400536D01*
X114498211Y-144368917D01*
X114582525Y-144310898D01*
X114682374Y-144242584D01*
X114782527Y-144174379D01*
X114836373Y-144137875D01*
X115018629Y-144014600D01*
X115171619Y-144097320D01*
X115241318Y-144133559D01*
X115300586Y-144161726D01*
X115340689Y-144177791D01*
X115350897Y-144180026D01*
X115363171Y-144163522D01*
X115387387Y-144116882D01*
X115421737Y-144044409D01*
X115464412Y-143950406D01*
X115513606Y-143839174D01*
X115567510Y-143715015D01*
X115624316Y-143582232D01*
X115682218Y-143445127D01*
X115739407Y-143308002D01*
X115794076Y-143175158D01*
X115844416Y-143050898D01*
X115888620Y-142939525D01*
X115924881Y-142845339D01*
X115951391Y-142772644D01*
X115966342Y-142725741D01*
X115968746Y-142709633D01*
X115949689Y-142689086D01*
X115907964Y-142655733D01*
X115852294Y-142616502D01*
X115847622Y-142613399D01*
X115703736Y-142498223D01*
X115587717Y-142363853D01*
X115500570Y-142214584D01*
X115443301Y-142054713D01*
X115416914Y-141888537D01*
X115422415Y-141720352D01*
X115460810Y-141554455D01*
X115533105Y-141395142D01*
X115554374Y-141360287D01*
X115665004Y-141219537D01*
X115795698Y-141106514D01*
X115941936Y-141021803D01*
X116099192Y-140965994D01*
X116262943Y-140939674D01*
X116428667Y-140943430D01*
X116591838Y-140977850D01*
X116747935Y-141043523D01*
X116892433Y-141141035D01*
X116937131Y-141180613D01*
X117050888Y-141304503D01*
X117133782Y-141434924D01*
X117190644Y-141581115D01*
X117222313Y-141725888D01*
X117230131Y-141888660D01*
X117204062Y-142052240D01*
X117146755Y-142211098D01*
X117060856Y-142359706D01*
X116949014Y-142492535D01*
X116813877Y-142604056D01*
X116796117Y-142615811D01*
X116739850Y-142654308D01*
X116697077Y-142687663D01*
X116676628Y-142708960D01*
X116676331Y-142709633D01*
X116680721Y-142732671D01*
X116698124Y-142784957D01*
X116726732Y-142862190D01*
X116764735Y-142960068D01*
X116810326Y-143074291D01*
X116861697Y-143200558D01*
X116917038Y-143334567D01*
X116974542Y-143472018D01*
X117032399Y-143608608D01*
X117088802Y-143740037D01*
X117141942Y-143862005D01*
X117190010Y-143970209D01*
X117231199Y-144060349D01*
X117263699Y-144128123D01*
X117285703Y-144169230D01*
X117294564Y-144180026D01*
X117321640Y-144171619D01*
X117372303Y-144149072D01*
X117437817Y-144116413D01*
X117473841Y-144097320D01*
X117626832Y-144014600D01*
X117809088Y-144137875D01*
X117902125Y-144201028D01*
X118003985Y-144270527D01*
X118099438Y-144335965D01*
X118147250Y-144368917D01*
X118214495Y-144414073D01*
X118271436Y-144449857D01*
X118310646Y-144471738D01*
X118323381Y-144476363D01*
X118341917Y-144463885D01*
X118382941Y-144429052D01*
X118442475Y-144375478D01*
X118516542Y-144306783D01*
X118601165Y-144226581D01*
X118654685Y-144175086D01*
X118748319Y-144083086D01*
X118829241Y-144000799D01*
X118894177Y-143931745D01*
X118939858Y-143879444D01*
X118963011Y-143847416D01*
X118965232Y-143840916D01*
X118954924Y-143816194D01*
X118926439Y-143766205D01*
X118882937Y-143696012D01*
X118827577Y-143610675D01*
X118763520Y-143515256D01*
X118745303Y-143488654D01*
X118678927Y-143391967D01*
X118619378Y-143304917D01*
X118569984Y-143232395D01*
X118534075Y-143179293D01*
X118514981Y-143150503D01*
X118513136Y-143147526D01*
X118515895Y-143124582D01*
X118530538Y-143074136D01*
X118554513Y-143002841D01*
X118585266Y-142917347D01*
X118620244Y-142824307D01*
X118656893Y-142730374D01*
X118692661Y-142642199D01*
X118724994Y-142566434D01*
X118751338Y-142509731D01*
X118769142Y-142478743D01*
X118770407Y-142477257D01*
X118781294Y-142468401D01*
X118799682Y-142459643D01*
X118829606Y-142450077D01*
X118875103Y-142438796D01*
X118940209Y-142424893D01*
X119028961Y-142407463D01*
X119145393Y-142385598D01*
X119293542Y-142358391D01*
X119325618Y-142352541D01*
X119420686Y-142334174D01*
X119503565Y-142316205D01*
X119566930Y-142300369D01*
X119603458Y-142288400D01*
X119608356Y-142285610D01*
X119616427Y-142260872D01*
X119622987Y-142205590D01*
X119628033Y-142126189D01*
X119631559Y-142029096D01*
X119633561Y-141920738D01*
X119634036Y-141807540D01*
X119632977Y-141695928D01*
X119630382Y-141592329D01*
X119626246Y-141503168D01*
X119620563Y-141434872D01*
X119613331Y-141393866D01*
X119608971Y-141385474D01*
X119584698Y-141377008D01*
X119529426Y-141363235D01*
X119448662Y-141345350D01*
X119347912Y-141324548D01*
X119232683Y-141302023D01*
X119169902Y-141290218D01*
X119050787Y-141267951D01*
X118944565Y-141247779D01*
X118856427Y-141230715D01*
X118791566Y-141217769D01*
X118755174Y-141209955D01*
X118749184Y-141208222D01*
X118739061Y-141188690D01*
X118717662Y-141141643D01*
X118687839Y-141073803D01*
X118652445Y-140991891D01*
X118614332Y-140902628D01*
X118576353Y-140812735D01*
X118541360Y-140728935D01*
X118512206Y-140657947D01*
X118491743Y-140606494D01*
X118482823Y-140581297D01*
X118482657Y-140580196D01*
X118492769Y-140560319D01*
X118521117Y-140514577D01*
X118564723Y-140447517D01*
X118620606Y-140363684D01*
X118685787Y-140267626D01*
X118723679Y-140212450D01*
X118792725Y-140111281D01*
X118854050Y-140019430D01*
X118904663Y-139941544D01*
X118941571Y-139882269D01*
X118961782Y-139846251D01*
X118964701Y-139838177D01*
X118952153Y-139819384D01*
X118917463Y-139779257D01*
X118865063Y-139722293D01*
X118799384Y-139652985D01*
X118724856Y-139575831D01*
X118645913Y-139495325D01*
X118566983Y-139415963D01*
X118492500Y-139342240D01*
X118426894Y-139278652D01*
X118374596Y-139229694D01*
X118340039Y-139199861D01*
X118328478Y-139192742D01*
X118309654Y-139202753D01*
X118264631Y-139230878D01*
X118197787Y-139274254D01*
X118113499Y-139330018D01*
X118016144Y-139395306D01*
X117942707Y-139445046D01*
X117571667Y-139697351D01*
X116953095Y-139442355D01*
X116869275Y-138997731D01*
X116785454Y-138553107D01*
X115860006Y-138553107D01*
X115776186Y-138997731D01*
G37*
X115776186Y-138997731D02*
X115692365Y-139442355D01*
X115383080Y-139569853D01*
X115073794Y-139697351D01*
X114702754Y-139445046D01*
X114598843Y-139374796D01*
X114504913Y-139312072D01*
X114425348Y-139259738D01*
X114364530Y-139220657D01*
X114326843Y-139197693D01*
X114316579Y-139192742D01*
X114298090Y-139205476D01*
X114258580Y-139240682D01*
X114202478Y-139293862D01*
X114134213Y-139360518D01*
X114058214Y-139436154D01*
X113978908Y-139516272D01*
X113900725Y-139596374D01*
X113828093Y-139671964D01*
X113765441Y-139738545D01*
X113717197Y-139791618D01*
X113687790Y-139826687D01*
X113680759Y-139838423D01*
X113690877Y-139860060D01*
X113719241Y-139907462D01*
X113762871Y-139975993D01*
X113818782Y-140061015D01*
X113883994Y-140157893D01*
X113921781Y-140213150D01*
X113990657Y-140314048D01*
X114051860Y-140405099D01*
X114102422Y-140481770D01*
X114139372Y-140539528D01*
X114159742Y-140573843D01*
X114162803Y-140581054D01*
X114155864Y-140601548D01*
X114136949Y-140649313D01*
X114108913Y-140717632D01*
X114074609Y-140799789D01*
X114036891Y-140889070D01*
X113998613Y-140978758D01*
X113962630Y-141062138D01*
X113931794Y-141132494D01*
X113908961Y-141183110D01*
X113896983Y-141207271D01*
X113896276Y-141208222D01*
X113877469Y-141212836D01*
X113827382Y-141223128D01*
X113751207Y-141238087D01*
X113654135Y-141256701D01*
X113541357Y-141277959D01*
X113475558Y-141290218D01*
X113355050Y-141313162D01*
X113246203Y-141334995D01*
X113154524Y-141354522D01*
X113085519Y-141370548D01*
X113044696Y-141381879D01*
X113036489Y-141385474D01*
X113028452Y-141409806D01*
X113021967Y-141464759D01*
X113017030Y-141543908D01*
X113013636Y-141640826D01*
X113011782Y-141749087D01*
X113011462Y-141862265D01*
X113012673Y-141973935D01*
X113015410Y-142077668D01*
X113019669Y-142167041D01*
X113025445Y-142235626D01*
X113032733Y-142276997D01*
X113037105Y-142285610D01*
X113063236Y-142295933D01*
X113118607Y-142310692D01*
X113195893Y-142328152D01*
X113287770Y-142346580D01*
X113319842Y-142352541D01*
X113474476Y-142380866D01*
X113596625Y-142403676D01*
X113690327Y-142421880D01*
X113759616Y-142436383D01*
X113808529Y-142448092D01*
X113841103Y-142457915D01*
X113861372Y-142466756D01*
X113873374Y-142475524D01*
X113875053Y-142477257D01*
X113891816Y-142505171D01*
X113917386Y-142559495D01*
X113949212Y-142633577D01*
X113984740Y-142720765D01*
X114021417Y-142814408D01*
X114056689Y-142907852D01*
X114088004Y-142994447D01*
X114112807Y-143067540D01*
X114128546Y-143120478D01*
X114132668Y-143146611D01*
X114132324Y-143147526D01*
X114118359Y-143168886D01*
X114086678Y-143215884D01*
X114040609Y-143283627D01*
X113983482Y-143367223D01*
X113918627Y-143461782D01*
X113900157Y-143488654D01*
X113834301Y-143586075D01*
X113776350Y-143674963D01*
X113729462Y-143750212D01*
X113696793Y-143806720D01*
X113681500Y-143839381D01*
X113680759Y-143843393D01*
X113693608Y-143864484D01*
X113729112Y-143906264D01*
X113782707Y-143964245D01*
X113849829Y-144033935D01*
X113925913Y-144110845D01*
X114006396Y-144190483D01*
X114086713Y-144268361D01*
X114162301Y-144339986D01*
X114228595Y-144400870D01*
X114281031Y-144446521D01*
X114315045Y-144472450D01*
X114324455Y-144476683D01*
X114346357Y-144466712D01*
X114391200Y-144439820D01*
X114451679Y-144400536D01*
X114498211Y-144368917D01*
X114582525Y-144310898D01*
X114682374Y-144242584D01*
X114782527Y-144174379D01*
X114836373Y-144137875D01*
X115018629Y-144014600D01*
X115171619Y-144097320D01*
X115241318Y-144133559D01*
X115300586Y-144161726D01*
X115340689Y-144177791D01*
X115350897Y-144180026D01*
X115363171Y-144163522D01*
X115387387Y-144116882D01*
X115421737Y-144044409D01*
X115464412Y-143950406D01*
X115513606Y-143839174D01*
X115567510Y-143715015D01*
X115624316Y-143582232D01*
X115682218Y-143445127D01*
X115739407Y-143308002D01*
X115794076Y-143175158D01*
X115844416Y-143050898D01*
X115888620Y-142939525D01*
X115924881Y-142845339D01*
X115951391Y-142772644D01*
X115966342Y-142725741D01*
X115968746Y-142709633D01*
X115949689Y-142689086D01*
X115907964Y-142655733D01*
X115852294Y-142616502D01*
X115847622Y-142613399D01*
X115703736Y-142498223D01*
X115587717Y-142363853D01*
X115500570Y-142214584D01*
X115443301Y-142054713D01*
X115416914Y-141888537D01*
X115422415Y-141720352D01*
X115460810Y-141554455D01*
X115533105Y-141395142D01*
X115554374Y-141360287D01*
X115665004Y-141219537D01*
X115795698Y-141106514D01*
X115941936Y-141021803D01*
X116099192Y-140965994D01*
X116262943Y-140939674D01*
X116428667Y-140943430D01*
X116591838Y-140977850D01*
X116747935Y-141043523D01*
X116892433Y-141141035D01*
X116937131Y-141180613D01*
X117050888Y-141304503D01*
X117133782Y-141434924D01*
X117190644Y-141581115D01*
X117222313Y-141725888D01*
X117230131Y-141888660D01*
X117204062Y-142052240D01*
X117146755Y-142211098D01*
X117060856Y-142359706D01*
X116949014Y-142492535D01*
X116813877Y-142604056D01*
X116796117Y-142615811D01*
X116739850Y-142654308D01*
X116697077Y-142687663D01*
X116676628Y-142708960D01*
X116676331Y-142709633D01*
X116680721Y-142732671D01*
X116698124Y-142784957D01*
X116726732Y-142862190D01*
X116764735Y-142960068D01*
X116810326Y-143074291D01*
X116861697Y-143200558D01*
X116917038Y-143334567D01*
X116974542Y-143472018D01*
X117032399Y-143608608D01*
X117088802Y-143740037D01*
X117141942Y-143862005D01*
X117190010Y-143970209D01*
X117231199Y-144060349D01*
X117263699Y-144128123D01*
X117285703Y-144169230D01*
X117294564Y-144180026D01*
X117321640Y-144171619D01*
X117372303Y-144149072D01*
X117437817Y-144116413D01*
X117473841Y-144097320D01*
X117626832Y-144014600D01*
X117809088Y-144137875D01*
X117902125Y-144201028D01*
X118003985Y-144270527D01*
X118099438Y-144335965D01*
X118147250Y-144368917D01*
X118214495Y-144414073D01*
X118271436Y-144449857D01*
X118310646Y-144471738D01*
X118323381Y-144476363D01*
X118341917Y-144463885D01*
X118382941Y-144429052D01*
X118442475Y-144375478D01*
X118516542Y-144306783D01*
X118601165Y-144226581D01*
X118654685Y-144175086D01*
X118748319Y-144083086D01*
X118829241Y-144000799D01*
X118894177Y-143931745D01*
X118939858Y-143879444D01*
X118963011Y-143847416D01*
X118965232Y-143840916D01*
X118954924Y-143816194D01*
X118926439Y-143766205D01*
X118882937Y-143696012D01*
X118827577Y-143610675D01*
X118763520Y-143515256D01*
X118745303Y-143488654D01*
X118678927Y-143391967D01*
X118619378Y-143304917D01*
X118569984Y-143232395D01*
X118534075Y-143179293D01*
X118514981Y-143150503D01*
X118513136Y-143147526D01*
X118515895Y-143124582D01*
X118530538Y-143074136D01*
X118554513Y-143002841D01*
X118585266Y-142917347D01*
X118620244Y-142824307D01*
X118656893Y-142730374D01*
X118692661Y-142642199D01*
X118724994Y-142566434D01*
X118751338Y-142509731D01*
X118769142Y-142478743D01*
X118770407Y-142477257D01*
X118781294Y-142468401D01*
X118799682Y-142459643D01*
X118829606Y-142450077D01*
X118875103Y-142438796D01*
X118940209Y-142424893D01*
X119028961Y-142407463D01*
X119145393Y-142385598D01*
X119293542Y-142358391D01*
X119325618Y-142352541D01*
X119420686Y-142334174D01*
X119503565Y-142316205D01*
X119566930Y-142300369D01*
X119603458Y-142288400D01*
X119608356Y-142285610D01*
X119616427Y-142260872D01*
X119622987Y-142205590D01*
X119628033Y-142126189D01*
X119631559Y-142029096D01*
X119633561Y-141920738D01*
X119634036Y-141807540D01*
X119632977Y-141695928D01*
X119630382Y-141592329D01*
X119626246Y-141503168D01*
X119620563Y-141434872D01*
X119613331Y-141393866D01*
X119608971Y-141385474D01*
X119584698Y-141377008D01*
X119529426Y-141363235D01*
X119448662Y-141345350D01*
X119347912Y-141324548D01*
X119232683Y-141302023D01*
X119169902Y-141290218D01*
X119050787Y-141267951D01*
X118944565Y-141247779D01*
X118856427Y-141230715D01*
X118791566Y-141217769D01*
X118755174Y-141209955D01*
X118749184Y-141208222D01*
X118739061Y-141188690D01*
X118717662Y-141141643D01*
X118687839Y-141073803D01*
X118652445Y-140991891D01*
X118614332Y-140902628D01*
X118576353Y-140812735D01*
X118541360Y-140728935D01*
X118512206Y-140657947D01*
X118491743Y-140606494D01*
X118482823Y-140581297D01*
X118482657Y-140580196D01*
X118492769Y-140560319D01*
X118521117Y-140514577D01*
X118564723Y-140447517D01*
X118620606Y-140363684D01*
X118685787Y-140267626D01*
X118723679Y-140212450D01*
X118792725Y-140111281D01*
X118854050Y-140019430D01*
X118904663Y-139941544D01*
X118941571Y-139882269D01*
X118961782Y-139846251D01*
X118964701Y-139838177D01*
X118952153Y-139819384D01*
X118917463Y-139779257D01*
X118865063Y-139722293D01*
X118799384Y-139652985D01*
X118724856Y-139575831D01*
X118645913Y-139495325D01*
X118566983Y-139415963D01*
X118492500Y-139342240D01*
X118426894Y-139278652D01*
X118374596Y-139229694D01*
X118340039Y-139199861D01*
X118328478Y-139192742D01*
X118309654Y-139202753D01*
X118264631Y-139230878D01*
X118197787Y-139274254D01*
X118113499Y-139330018D01*
X118016144Y-139395306D01*
X117942707Y-139445046D01*
X117571667Y-139697351D01*
X116953095Y-139442355D01*
X116869275Y-138997731D01*
X116785454Y-138553107D01*
X115860006Y-138553107D01*
X115776186Y-138997731D01*
G36*
X102972116Y-117535774D02*
G01*
X102836714Y-117583453D01*
X102773746Y-117695470D01*
X102756171Y-117898460D01*
X102755700Y-117970300D01*
X102765827Y-118201642D01*
X102814235Y-118335006D01*
X102927964Y-118397026D01*
X103134057Y-118414336D01*
X103206994Y-118414800D01*
X103581200Y-118414800D01*
X103581200Y-117525800D01*
X103206994Y-117525800D01*
X102972116Y-117535774D01*
G37*
X102972116Y-117535774D02*
X102836714Y-117583453D01*
X102773746Y-117695470D01*
X102756171Y-117898460D01*
X102755700Y-117970300D01*
X102765827Y-118201642D01*
X102814235Y-118335006D01*
X102927964Y-118397026D01*
X103134057Y-118414336D01*
X103206994Y-118414800D01*
X103581200Y-118414800D01*
X103581200Y-117525800D01*
X103206994Y-117525800D01*
X102972116Y-117535774D01*
G36*
X87865095Y-119086634D02*
G01*
X87621578Y-119171655D01*
X87431148Y-119284174D01*
X87279653Y-119408927D01*
X87238045Y-119459108D01*
X87140370Y-119608179D01*
X86632552Y-119354991D01*
X86149311Y-119158559D01*
X85702729Y-119065284D01*
X85302140Y-119073633D01*
X84956878Y-119182073D01*
X84676278Y-119389071D01*
X84469676Y-119693095D01*
X84461118Y-119711558D01*
X84423986Y-119805373D01*
X84395456Y-119914236D01*
X84374404Y-120055427D01*
X84359706Y-120246226D01*
X84350239Y-120503910D01*
X84344880Y-120845759D01*
X84342504Y-121289053D01*
X84342095Y-121542175D01*
X84340700Y-123113800D01*
X85028806Y-123113800D01*
X85049878Y-121669175D01*
X85058862Y-121160181D01*
X85071652Y-120762464D01*
X85091948Y-120460302D01*
X85123448Y-120237973D01*
X85169850Y-120079753D01*
X85234852Y-119969920D01*
X85322154Y-119892751D01*
X85435453Y-119832524D01*
X85487117Y-119810385D01*
X85737345Y-119759042D01*
X86050542Y-119770605D01*
X86382408Y-119839991D01*
X86653439Y-119944219D01*
X86965928Y-120097550D01*
X86936386Y-123113800D01*
X87706200Y-123113800D01*
X87706438Y-121700925D01*
X87707354Y-121236058D01*
X87710839Y-120880295D01*
X87718261Y-120615743D01*
X87730991Y-120424512D01*
X87750396Y-120288710D01*
X87777847Y-120190446D01*
X87814711Y-120111829D01*
X87830040Y-120085727D01*
X87951187Y-119928239D01*
X88081175Y-119815440D01*
X88092424Y-119809004D01*
X88277460Y-119760729D01*
X88538503Y-119755555D01*
X88833695Y-119789292D01*
X89121176Y-119857751D01*
X89309575Y-119930824D01*
X89611200Y-120077129D01*
X89611200Y-123113800D01*
X90373200Y-123113800D01*
X90373200Y-119113300D01*
X90060625Y-119113300D01*
X89871555Y-119119355D01*
X89768500Y-119152525D01*
X89710561Y-119235319D01*
X89678684Y-119323480D01*
X89609318Y-119533660D01*
X89172201Y-119316685D01*
X88703739Y-119132391D01*
X88263791Y-119055310D01*
X87865095Y-119086634D01*
G37*
X87865095Y-119086634D02*
X87621578Y-119171655D01*
X87431148Y-119284174D01*
X87279653Y-119408927D01*
X87238045Y-119459108D01*
X87140370Y-119608179D01*
X86632552Y-119354991D01*
X86149311Y-119158559D01*
X85702729Y-119065284D01*
X85302140Y-119073633D01*
X84956878Y-119182073D01*
X84676278Y-119389071D01*
X84469676Y-119693095D01*
X84461118Y-119711558D01*
X84423986Y-119805373D01*
X84395456Y-119914236D01*
X84374404Y-120055427D01*
X84359706Y-120246226D01*
X84350239Y-120503910D01*
X84344880Y-120845759D01*
X84342504Y-121289053D01*
X84342095Y-121542175D01*
X84340700Y-123113800D01*
X85028806Y-123113800D01*
X85049878Y-121669175D01*
X85058862Y-121160181D01*
X85071652Y-120762464D01*
X85091948Y-120460302D01*
X85123448Y-120237973D01*
X85169850Y-120079753D01*
X85234852Y-119969920D01*
X85322154Y-119892751D01*
X85435453Y-119832524D01*
X85487117Y-119810385D01*
X85737345Y-119759042D01*
X86050542Y-119770605D01*
X86382408Y-119839991D01*
X86653439Y-119944219D01*
X86965928Y-120097550D01*
X86936386Y-123113800D01*
X87706200Y-123113800D01*
X87706438Y-121700925D01*
X87707354Y-121236058D01*
X87710839Y-120880295D01*
X87718261Y-120615743D01*
X87730991Y-120424512D01*
X87750396Y-120288710D01*
X87777847Y-120190446D01*
X87814711Y-120111829D01*
X87830040Y-120085727D01*
X87951187Y-119928239D01*
X88081175Y-119815440D01*
X88092424Y-119809004D01*
X88277460Y-119760729D01*
X88538503Y-119755555D01*
X88833695Y-119789292D01*
X89121176Y-119857751D01*
X89309575Y-119930824D01*
X89611200Y-120077129D01*
X89611200Y-123113800D01*
X90373200Y-123113800D01*
X90373200Y-119113300D01*
X90060625Y-119113300D01*
X89871555Y-119119355D01*
X89768500Y-119152525D01*
X89710561Y-119235319D01*
X89678684Y-119323480D01*
X89609318Y-119533660D01*
X89172201Y-119316685D01*
X88703739Y-119132391D01*
X88263791Y-119055310D01*
X87865095Y-119086634D01*
G36*
X94056200Y-120537916D02*
G01*
X94053441Y-120965238D01*
X94045702Y-121355366D01*
X94033793Y-121687878D01*
X94018525Y-121942353D01*
X94000708Y-122098369D01*
X93993104Y-122128487D01*
X93863539Y-122301199D01*
X93643642Y-122413205D01*
X93355917Y-122462083D01*
X93022870Y-122445409D01*
X92667005Y-122360762D01*
X92484575Y-122290898D01*
X92151200Y-122145660D01*
X92151200Y-119113300D01*
X91389200Y-119113300D01*
X91389200Y-123113800D01*
X91701776Y-123113800D01*
X91890675Y-123107868D01*
X91993715Y-123074678D01*
X92051971Y-122991137D01*
X92085567Y-122898013D01*
X92156784Y-122682226D01*
X92550867Y-122879187D01*
X92784539Y-122985083D01*
X92996374Y-123048737D01*
X93239913Y-123082597D01*
X93484700Y-123096270D01*
X93863465Y-123095264D01*
X94126540Y-123059126D01*
X94214950Y-123028522D01*
X94390249Y-122923293D01*
X94522613Y-122809179D01*
X94608361Y-122699974D01*
X94675673Y-122576345D01*
X94726747Y-122422110D01*
X94763781Y-122221087D01*
X94788971Y-121957093D01*
X94804516Y-121613948D01*
X94812613Y-121175469D01*
X94815413Y-120653175D01*
X94818200Y-119113300D01*
X94056200Y-119113300D01*
X94056200Y-120537916D01*
G37*
X94056200Y-120537916D02*
X94053441Y-120965238D01*
X94045702Y-121355366D01*
X94033793Y-121687878D01*
X94018525Y-121942353D01*
X94000708Y-122098369D01*
X93993104Y-122128487D01*
X93863539Y-122301199D01*
X93643642Y-122413205D01*
X93355917Y-122462083D01*
X93022870Y-122445409D01*
X92667005Y-122360762D01*
X92484575Y-122290898D01*
X92151200Y-122145660D01*
X92151200Y-119113300D01*
X91389200Y-119113300D01*
X91389200Y-123113800D01*
X91701776Y-123113800D01*
X91890675Y-123107868D01*
X91993715Y-123074678D01*
X92051971Y-122991137D01*
X92085567Y-122898013D01*
X92156784Y-122682226D01*
X92550867Y-122879187D01*
X92784539Y-122985083D01*
X92996374Y-123048737D01*
X93239913Y-123082597D01*
X93484700Y-123096270D01*
X93863465Y-123095264D01*
X94126540Y-123059126D01*
X94214950Y-123028522D01*
X94390249Y-122923293D01*
X94522613Y-122809179D01*
X94608361Y-122699974D01*
X94675673Y-122576345D01*
X94726747Y-122422110D01*
X94763781Y-122221087D01*
X94788971Y-121957093D01*
X94804516Y-121613948D01*
X94812613Y-121175469D01*
X94815413Y-120653175D01*
X94818200Y-119113300D01*
X94056200Y-119113300D01*
X94056200Y-120537916D01*
G36*
X99295095Y-119086634D02*
G01*
X99051578Y-119171655D01*
X98861148Y-119284174D01*
X98709653Y-119408927D01*
X98668045Y-119459108D01*
X98570370Y-119608179D01*
X98062552Y-119354991D01*
X97579311Y-119158559D01*
X97132729Y-119065284D01*
X96732140Y-119073633D01*
X96386878Y-119182073D01*
X96106278Y-119389071D01*
X95899676Y-119693095D01*
X95891118Y-119711558D01*
X95853986Y-119805373D01*
X95825456Y-119914236D01*
X95804404Y-120055427D01*
X95789706Y-120246226D01*
X95780239Y-120503910D01*
X95774880Y-120845759D01*
X95772504Y-121289053D01*
X95772095Y-121542175D01*
X95770700Y-123113800D01*
X96458806Y-123113800D01*
X96479878Y-121669175D01*
X96488862Y-121160181D01*
X96501652Y-120762464D01*
X96521948Y-120460302D01*
X96553448Y-120237973D01*
X96599850Y-120079753D01*
X96664852Y-119969920D01*
X96752154Y-119892751D01*
X96865453Y-119832524D01*
X96917117Y-119810385D01*
X97167345Y-119759042D01*
X97480542Y-119770605D01*
X97812408Y-119839991D01*
X98083439Y-119944219D01*
X98395928Y-120097550D01*
X98366386Y-123113800D01*
X99136200Y-123113800D01*
X99136438Y-121700925D01*
X99137354Y-121236058D01*
X99140839Y-120880295D01*
X99148261Y-120615743D01*
X99160991Y-120424512D01*
X99180396Y-120288710D01*
X99207847Y-120190446D01*
X99244711Y-120111829D01*
X99260040Y-120085727D01*
X99381187Y-119928239D01*
X99511175Y-119815440D01*
X99522424Y-119809004D01*
X99707460Y-119760729D01*
X99968503Y-119755555D01*
X100263695Y-119789292D01*
X100551176Y-119857751D01*
X100739575Y-119930824D01*
X101041200Y-120077129D01*
X101041200Y-123113800D01*
X101803200Y-123113800D01*
X101803200Y-119113300D01*
X101490625Y-119113300D01*
X101301555Y-119119355D01*
X101198500Y-119152525D01*
X101140561Y-119235319D01*
X101108684Y-119323480D01*
X101039318Y-119533660D01*
X100602201Y-119316685D01*
X100133739Y-119132391D01*
X99693791Y-119055310D01*
X99295095Y-119086634D01*
G37*
X99295095Y-119086634D02*
X99051578Y-119171655D01*
X98861148Y-119284174D01*
X98709653Y-119408927D01*
X98668045Y-119459108D01*
X98570370Y-119608179D01*
X98062552Y-119354991D01*
X97579311Y-119158559D01*
X97132729Y-119065284D01*
X96732140Y-119073633D01*
X96386878Y-119182073D01*
X96106278Y-119389071D01*
X95899676Y-119693095D01*
X95891118Y-119711558D01*
X95853986Y-119805373D01*
X95825456Y-119914236D01*
X95804404Y-120055427D01*
X95789706Y-120246226D01*
X95780239Y-120503910D01*
X95774880Y-120845759D01*
X95772504Y-121289053D01*
X95772095Y-121542175D01*
X95770700Y-123113800D01*
X96458806Y-123113800D01*
X96479878Y-121669175D01*
X96488862Y-121160181D01*
X96501652Y-120762464D01*
X96521948Y-120460302D01*
X96553448Y-120237973D01*
X96599850Y-120079753D01*
X96664852Y-119969920D01*
X96752154Y-119892751D01*
X96865453Y-119832524D01*
X96917117Y-119810385D01*
X97167345Y-119759042D01*
X97480542Y-119770605D01*
X97812408Y-119839991D01*
X98083439Y-119944219D01*
X98395928Y-120097550D01*
X98366386Y-123113800D01*
X99136200Y-123113800D01*
X99136438Y-121700925D01*
X99137354Y-121236058D01*
X99140839Y-120880295D01*
X99148261Y-120615743D01*
X99160991Y-120424512D01*
X99180396Y-120288710D01*
X99207847Y-120190446D01*
X99244711Y-120111829D01*
X99260040Y-120085727D01*
X99381187Y-119928239D01*
X99511175Y-119815440D01*
X99522424Y-119809004D01*
X99707460Y-119760729D01*
X99968503Y-119755555D01*
X100263695Y-119789292D01*
X100551176Y-119857751D01*
X100739575Y-119930824D01*
X101041200Y-120077129D01*
X101041200Y-123113800D01*
X101803200Y-123113800D01*
X101803200Y-119113300D01*
X101490625Y-119113300D01*
X101301555Y-119119355D01*
X101198500Y-119152525D01*
X101140561Y-119235319D01*
X101108684Y-119323480D01*
X101039318Y-119533660D01*
X100602201Y-119316685D01*
X100133739Y-119132391D01*
X99693791Y-119055310D01*
X99295095Y-119086634D01*
G36*
X102819200Y-123113800D02*
G01*
X103581200Y-123113800D01*
X103581200Y-119113300D01*
X102819200Y-119113300D01*
X102819200Y-123113800D01*
G37*
X102819200Y-123113800D02*
X103581200Y-123113800D01*
X103581200Y-119113300D01*
X102819200Y-119113300D01*
X102819200Y-123113800D01*
G36*
X105617261Y-121150212D02*
G01*
X105063376Y-121925631D01*
X104854449Y-122217475D01*
X104658737Y-122489686D01*
X104494226Y-122717332D01*
X104378901Y-122875479D01*
X104352800Y-122910715D01*
X104196107Y-123120381D01*
X104599316Y-123101215D01*
X105002525Y-123082050D01*
X105497846Y-122383722D01*
X105683259Y-122126126D01*
X105844468Y-121909275D01*
X105966553Y-121752724D01*
X106034591Y-121676022D01*
X106041309Y-121671641D01*
X106092227Y-121716367D01*
X106198182Y-121848549D01*
X106344922Y-122049206D01*
X106518194Y-122299361D01*
X106565700Y-122369969D01*
X107041950Y-123082050D01*
X107832714Y-123119782D01*
X106434106Y-121076106D01*
X106575033Y-120872578D01*
X106663463Y-120746394D01*
X106807567Y-120542460D01*
X106989211Y-120286375D01*
X107190258Y-120003738D01*
X107244081Y-119928207D01*
X107432499Y-119661446D01*
X107591231Y-119432044D01*
X107707096Y-119259418D01*
X107766910Y-119162985D01*
X107772200Y-119150332D01*
X107714633Y-119130841D01*
X107565552Y-119118450D01*
X107407075Y-119115874D01*
X107041950Y-119118449D01*
X106533950Y-119845026D01*
X106348096Y-120107259D01*
X106187182Y-120327556D01*
X106065337Y-120487083D01*
X105996686Y-120567006D01*
X105988124Y-120572701D01*
X105941164Y-120523177D01*
X105838440Y-120386530D01*
X105693718Y-120181913D01*
X105520768Y-119928476D01*
X105463945Y-119843550D01*
X104977592Y-119113300D01*
X104223281Y-119113300D01*
X105617261Y-121150212D01*
G37*
X105617261Y-121150212D02*
X105063376Y-121925631D01*
X104854449Y-122217475D01*
X104658737Y-122489686D01*
X104494226Y-122717332D01*
X104378901Y-122875479D01*
X104352800Y-122910715D01*
X104196107Y-123120381D01*
X104599316Y-123101215D01*
X105002525Y-123082050D01*
X105497846Y-122383722D01*
X105683259Y-122126126D01*
X105844468Y-121909275D01*
X105966553Y-121752724D01*
X106034591Y-121676022D01*
X106041309Y-121671641D01*
X106092227Y-121716367D01*
X106198182Y-121848549D01*
X106344922Y-122049206D01*
X106518194Y-122299361D01*
X106565700Y-122369969D01*
X107041950Y-123082050D01*
X107832714Y-123119782D01*
X106434106Y-121076106D01*
X106575033Y-120872578D01*
X106663463Y-120746394D01*
X106807567Y-120542460D01*
X106989211Y-120286375D01*
X107190258Y-120003738D01*
X107244081Y-119928207D01*
X107432499Y-119661446D01*
X107591231Y-119432044D01*
X107707096Y-119259418D01*
X107766910Y-119162985D01*
X107772200Y-119150332D01*
X107714633Y-119130841D01*
X107565552Y-119118450D01*
X107407075Y-119115874D01*
X107041950Y-119118449D01*
X106533950Y-119845026D01*
X106348096Y-120107259D01*
X106187182Y-120327556D01*
X106065337Y-120487083D01*
X105996686Y-120567006D01*
X105988124Y-120572701D01*
X105941164Y-120523177D01*
X105838440Y-120386530D01*
X105693718Y-120181913D01*
X105520768Y-119928476D01*
X105463945Y-119843550D01*
X104977592Y-119113300D01*
X104223281Y-119113300D01*
X105617261Y-121150212D01*
G36*
X109693297Y-119087041D02*
G01*
X109369235Y-119107771D01*
X109127168Y-119150120D01*
X108944748Y-119220470D01*
X108799625Y-119325203D01*
X108669451Y-119470700D01*
X108644693Y-119503306D01*
X108575611Y-119613891D01*
X108521251Y-119749388D01*
X108479926Y-119925364D01*
X108449949Y-120157386D01*
X108429633Y-120461021D01*
X108417290Y-120851835D01*
X108411234Y-121345395D01*
X108409966Y-121669175D01*
X108407200Y-123113800D01*
X108724700Y-123113800D01*
X108905826Y-123103120D01*
X109020783Y-123075814D01*
X109042200Y-123054433D01*
X109063095Y-122955821D01*
X109106665Y-122825512D01*
X109161121Y-122710188D01*
X109226632Y-122699070D01*
X109322197Y-122754940D01*
X109596576Y-122892671D01*
X109937096Y-123001974D01*
X110306354Y-123076847D01*
X110666945Y-123111286D01*
X110981466Y-123099287D01*
X111174630Y-123052277D01*
X111330639Y-122945802D01*
X111495490Y-122770267D01*
X111629032Y-122573785D01*
X111684583Y-122441239D01*
X111713432Y-122211803D01*
X111708446Y-121931486D01*
X111703852Y-121892276D01*
X110947200Y-121892276D01*
X110929501Y-122166239D01*
X110865978Y-122352092D01*
X110740998Y-122485087D01*
X110661450Y-122536557D01*
X110490179Y-122581105D01*
X110234237Y-122579981D01*
X109926283Y-122536121D01*
X109598976Y-122452460D01*
X109550200Y-122436650D01*
X109200950Y-122320050D01*
X109200950Y-121177050D01*
X109518450Y-121156266D01*
X109763493Y-121151956D01*
X110055626Y-121163004D01*
X110241718Y-121178147D01*
X110558106Y-121233995D01*
X110768303Y-121334710D01*
X110890285Y-121498488D01*
X110942030Y-121743529D01*
X110947200Y-121892276D01*
X111703852Y-121892276D01*
X111674820Y-121644513D01*
X111617753Y-121395109D01*
X111542441Y-121227498D01*
X111541852Y-121226704D01*
X111409384Y-121070068D01*
X111265085Y-120955280D01*
X111086361Y-120875375D01*
X110850621Y-120823388D01*
X110535273Y-120792356D01*
X110117724Y-120775313D01*
X110074075Y-120774220D01*
X109169200Y-120752391D01*
X109170137Y-120456720D01*
X109191704Y-120179420D01*
X109263471Y-119968268D01*
X109399007Y-119815236D01*
X109611885Y-119712295D01*
X109915673Y-119651416D01*
X110323943Y-119624572D01*
X110582075Y-119621398D01*
X111391700Y-119621300D01*
X111391700Y-119400259D01*
X111382787Y-119291602D01*
X111345269Y-119210750D01*
X111262981Y-119153645D01*
X111119756Y-119116231D01*
X110899428Y-119094450D01*
X110585831Y-119084245D01*
X110162798Y-119081561D01*
X110121700Y-119081550D01*
X109693297Y-119087041D01*
G37*
X109693297Y-119087041D02*
X109369235Y-119107771D01*
X109127168Y-119150120D01*
X108944748Y-119220470D01*
X108799625Y-119325203D01*
X108669451Y-119470700D01*
X108644693Y-119503306D01*
X108575611Y-119613891D01*
X108521251Y-119749388D01*
X108479926Y-119925364D01*
X108449949Y-120157386D01*
X108429633Y-120461021D01*
X108417290Y-120851835D01*
X108411234Y-121345395D01*
X108409966Y-121669175D01*
X108407200Y-123113800D01*
X108724700Y-123113800D01*
X108905826Y-123103120D01*
X109020783Y-123075814D01*
X109042200Y-123054433D01*
X109063095Y-122955821D01*
X109106665Y-122825512D01*
X109161121Y-122710188D01*
X109226632Y-122699070D01*
X109322197Y-122754940D01*
X109596576Y-122892671D01*
X109937096Y-123001974D01*
X110306354Y-123076847D01*
X110666945Y-123111286D01*
X110981466Y-123099287D01*
X111174630Y-123052277D01*
X111330639Y-122945802D01*
X111495490Y-122770267D01*
X111629032Y-122573785D01*
X111684583Y-122441239D01*
X111713432Y-122211803D01*
X111708446Y-121931486D01*
X111703852Y-121892276D01*
X110947200Y-121892276D01*
X110929501Y-122166239D01*
X110865978Y-122352092D01*
X110740998Y-122485087D01*
X110661450Y-122536557D01*
X110490179Y-122581105D01*
X110234237Y-122579981D01*
X109926283Y-122536121D01*
X109598976Y-122452460D01*
X109550200Y-122436650D01*
X109200950Y-122320050D01*
X109200950Y-121177050D01*
X109518450Y-121156266D01*
X109763493Y-121151956D01*
X110055626Y-121163004D01*
X110241718Y-121178147D01*
X110558106Y-121233995D01*
X110768303Y-121334710D01*
X110890285Y-121498488D01*
X110942030Y-121743529D01*
X110947200Y-121892276D01*
X111703852Y-121892276D01*
X111674820Y-121644513D01*
X111617753Y-121395109D01*
X111542441Y-121227498D01*
X111541852Y-121226704D01*
X111409384Y-121070068D01*
X111265085Y-120955280D01*
X111086361Y-120875375D01*
X110850621Y-120823388D01*
X110535273Y-120792356D01*
X110117724Y-120775313D01*
X110074075Y-120774220D01*
X109169200Y-120752391D01*
X109170137Y-120456720D01*
X109191704Y-120179420D01*
X109263471Y-119968268D01*
X109399007Y-119815236D01*
X109611885Y-119712295D01*
X109915673Y-119651416D01*
X110323943Y-119624572D01*
X110582075Y-119621398D01*
X111391700Y-119621300D01*
X111391700Y-119400259D01*
X111382787Y-119291602D01*
X111345269Y-119210750D01*
X111262981Y-119153645D01*
X111119756Y-119116231D01*
X110899428Y-119094450D01*
X110585831Y-119084245D01*
X110162798Y-119081561D01*
X110121700Y-119081550D01*
X109693297Y-119087041D01*
G36*
X116059095Y-119086634D02*
G01*
X115815578Y-119171655D01*
X115625148Y-119284174D01*
X115473653Y-119408927D01*
X115432045Y-119459108D01*
X115334370Y-119608179D01*
X114826552Y-119354991D01*
X114343311Y-119158559D01*
X113896729Y-119065284D01*
X113496140Y-119073633D01*
X113150878Y-119182073D01*
X112870278Y-119389071D01*
X112663676Y-119693095D01*
X112655118Y-119711558D01*
X112617986Y-119805373D01*
X112589456Y-119914236D01*
X112568404Y-120055427D01*
X112553706Y-120246226D01*
X112544239Y-120503910D01*
X112538880Y-120845759D01*
X112536504Y-121289053D01*
X112536095Y-121542175D01*
X112534700Y-123113800D01*
X113222806Y-123113800D01*
X113243878Y-121669175D01*
X113252862Y-121160181D01*
X113265652Y-120762464D01*
X113285948Y-120460302D01*
X113317448Y-120237973D01*
X113363850Y-120079753D01*
X113428852Y-119969920D01*
X113516154Y-119892751D01*
X113629453Y-119832524D01*
X113681117Y-119810385D01*
X113931345Y-119759042D01*
X114244542Y-119770605D01*
X114576408Y-119839991D01*
X114847439Y-119944219D01*
X115159928Y-120097550D01*
X115130386Y-123113800D01*
X115900200Y-123113800D01*
X115900438Y-121700925D01*
X115901354Y-121236058D01*
X115904839Y-120880295D01*
X115912261Y-120615743D01*
X115924991Y-120424512D01*
X115944396Y-120288710D01*
X115971847Y-120190446D01*
X116008711Y-120111829D01*
X116024040Y-120085727D01*
X116145187Y-119928239D01*
X116275175Y-119815440D01*
X116286424Y-119809004D01*
X116471460Y-119760729D01*
X116732503Y-119755555D01*
X117027695Y-119789292D01*
X117315176Y-119857751D01*
X117503575Y-119930824D01*
X117805200Y-120077129D01*
X117805200Y-123113800D01*
X118567200Y-123113800D01*
X118567200Y-119113300D01*
X118254625Y-119113300D01*
X118065555Y-119119355D01*
X117962500Y-119152525D01*
X117904561Y-119235319D01*
X117872684Y-119323480D01*
X117803318Y-119533660D01*
X117366201Y-119316685D01*
X116897739Y-119132391D01*
X116457791Y-119055310D01*
X116059095Y-119086634D01*
G37*
X116059095Y-119086634D02*
X115815578Y-119171655D01*
X115625148Y-119284174D01*
X115473653Y-119408927D01*
X115432045Y-119459108D01*
X115334370Y-119608179D01*
X114826552Y-119354991D01*
X114343311Y-119158559D01*
X113896729Y-119065284D01*
X113496140Y-119073633D01*
X113150878Y-119182073D01*
X112870278Y-119389071D01*
X112663676Y-119693095D01*
X112655118Y-119711558D01*
X112617986Y-119805373D01*
X112589456Y-119914236D01*
X112568404Y-120055427D01*
X112553706Y-120246226D01*
X112544239Y-120503910D01*
X112538880Y-120845759D01*
X112536504Y-121289053D01*
X112536095Y-121542175D01*
X112534700Y-123113800D01*
X113222806Y-123113800D01*
X113243878Y-121669175D01*
X113252862Y-121160181D01*
X113265652Y-120762464D01*
X113285948Y-120460302D01*
X113317448Y-120237973D01*
X113363850Y-120079753D01*
X113428852Y-119969920D01*
X113516154Y-119892751D01*
X113629453Y-119832524D01*
X113681117Y-119810385D01*
X113931345Y-119759042D01*
X114244542Y-119770605D01*
X114576408Y-119839991D01*
X114847439Y-119944219D01*
X115159928Y-120097550D01*
X115130386Y-123113800D01*
X115900200Y-123113800D01*
X115900438Y-121700925D01*
X115901354Y-121236058D01*
X115904839Y-120880295D01*
X115912261Y-120615743D01*
X115924991Y-120424512D01*
X115944396Y-120288710D01*
X115971847Y-120190446D01*
X116008711Y-120111829D01*
X116024040Y-120085727D01*
X116145187Y-119928239D01*
X116275175Y-119815440D01*
X116286424Y-119809004D01*
X116471460Y-119760729D01*
X116732503Y-119755555D01*
X117027695Y-119789292D01*
X117315176Y-119857751D01*
X117503575Y-119930824D01*
X117805200Y-120077129D01*
X117805200Y-123113800D01*
X118567200Y-123113800D01*
X118567200Y-119113300D01*
X118254625Y-119113300D01*
X118065555Y-119119355D01*
X117962500Y-119152525D01*
X117904561Y-119235319D01*
X117872684Y-119323480D01*
X117803318Y-119533660D01*
X117366201Y-119316685D01*
X116897739Y-119132391D01*
X116457791Y-119055310D01*
X116059095Y-119086634D01*
G36*
X104559616Y-127441774D02*
G01*
X104424214Y-127489453D01*
X104361246Y-127601470D01*
X104343671Y-127804460D01*
X104343200Y-127876300D01*
X104353327Y-128107642D01*
X104401735Y-128241006D01*
X104515464Y-128303026D01*
X104721557Y-128320336D01*
X104794494Y-128320800D01*
X105168700Y-128320800D01*
X105168700Y-127431800D01*
X104794494Y-127431800D01*
X104559616Y-127441774D01*
G37*
X104559616Y-127441774D02*
X104424214Y-127489453D01*
X104361246Y-127601470D01*
X104343671Y-127804460D01*
X104343200Y-127876300D01*
X104353327Y-128107642D01*
X104401735Y-128241006D01*
X104515464Y-128303026D01*
X104721557Y-128320336D01*
X104794494Y-128320800D01*
X105168700Y-128320800D01*
X105168700Y-127431800D01*
X104794494Y-127431800D01*
X104559616Y-127441774D01*
G36*
X102438200Y-129019300D02*
G01*
X101358700Y-129019300D01*
X101358700Y-129654300D01*
X102438200Y-129654300D01*
X102437846Y-130717925D01*
X102434311Y-131217626D01*
X102419818Y-131605586D01*
X102387978Y-131896982D01*
X102332399Y-132106991D01*
X102246692Y-132250789D01*
X102124467Y-132343553D01*
X101959334Y-132400461D01*
X101744902Y-132436688D01*
X101712452Y-132440746D01*
X101390450Y-132480050D01*
X101351398Y-133019800D01*
X101847174Y-133018405D01*
X102216076Y-132999023D01*
X102497310Y-132939571D01*
X102609100Y-132896177D01*
X102853225Y-132734172D01*
X103005975Y-132519102D01*
X103050461Y-132422376D01*
X103083598Y-132317886D01*
X103107033Y-132185971D01*
X103122413Y-132006970D01*
X103131386Y-131761223D01*
X103135599Y-131429069D01*
X103136698Y-130990847D01*
X103136700Y-130958579D01*
X103136700Y-129654300D01*
X103771700Y-129654300D01*
X103771700Y-129401050D01*
X103764108Y-129239093D01*
X103717441Y-129159169D01*
X103595863Y-129120405D01*
X103513439Y-129106503D01*
X103267806Y-129036933D01*
X103127090Y-128914405D01*
X103074586Y-128722521D01*
X103073200Y-128674377D01*
X103064147Y-128476916D01*
X103041559Y-128239636D01*
X103032819Y-128170912D01*
X102992438Y-127876300D01*
X102438200Y-127876300D01*
X102438200Y-129019300D01*
G37*
X102438200Y-129019300D02*
X101358700Y-129019300D01*
X101358700Y-129654300D01*
X102438200Y-129654300D01*
X102437846Y-130717925D01*
X102434311Y-131217626D01*
X102419818Y-131605586D01*
X102387978Y-131896982D01*
X102332399Y-132106991D01*
X102246692Y-132250789D01*
X102124467Y-132343553D01*
X101959334Y-132400461D01*
X101744902Y-132436688D01*
X101712452Y-132440746D01*
X101390450Y-132480050D01*
X101351398Y-133019800D01*
X101847174Y-133018405D01*
X102216076Y-132999023D01*
X102497310Y-132939571D01*
X102609100Y-132896177D01*
X102853225Y-132734172D01*
X103005975Y-132519102D01*
X103050461Y-132422376D01*
X103083598Y-132317886D01*
X103107033Y-132185971D01*
X103122413Y-132006970D01*
X103131386Y-131761223D01*
X103135599Y-131429069D01*
X103136698Y-130990847D01*
X103136700Y-130958579D01*
X103136700Y-129654300D01*
X103771700Y-129654300D01*
X103771700Y-129401050D01*
X103764108Y-129239093D01*
X103717441Y-129159169D01*
X103595863Y-129120405D01*
X103513439Y-129106503D01*
X103267806Y-129036933D01*
X103127090Y-128914405D01*
X103074586Y-128722521D01*
X103073200Y-128674377D01*
X103064147Y-128476916D01*
X103041559Y-128239636D01*
X103032819Y-128170912D01*
X102992438Y-127876300D01*
X102438200Y-127876300D01*
X102438200Y-129019300D01*
G36*
X104406700Y-133019800D02*
G01*
X105168700Y-133019800D01*
X105168700Y-129019300D01*
X104406700Y-129019300D01*
X104406700Y-133019800D01*
G37*
X104406700Y-133019800D02*
X105168700Y-133019800D01*
X105168700Y-129019300D01*
X104406700Y-129019300D01*
X104406700Y-133019800D01*
G36*
X106615509Y-129716099D02*
G01*
X106610710Y-130332935D01*
X106605965Y-130835355D01*
X106600515Y-131235941D01*
X106593600Y-131547274D01*
X106584459Y-131781937D01*
X106572333Y-131952510D01*
X106556462Y-132071576D01*
X106536087Y-132151716D01*
X106510447Y-132205511D01*
X106478783Y-132245543D01*
X106461688Y-132263097D01*
X106281502Y-132372031D01*
X106033063Y-132431806D01*
X105740200Y-132464816D01*
X105740200Y-133019800D01*
X106137075Y-133014342D01*
X106381810Y-133002608D01*
X106601577Y-132977960D01*
X106715399Y-132954508D01*
X106993281Y-132806539D01*
X107217336Y-132544545D01*
X107254827Y-132480199D01*
X107281755Y-132418203D01*
X107304031Y-132331307D01*
X107322226Y-132207185D01*
X107336913Y-132033509D01*
X107348664Y-131797953D01*
X107358050Y-131488190D01*
X107365644Y-131091891D01*
X107372017Y-130596731D01*
X107377741Y-129990382D01*
X107379320Y-129797175D01*
X107399190Y-127304800D01*
X106633568Y-127304800D01*
X106615509Y-129716099D01*
G37*
X106615509Y-129716099D02*
X106610710Y-130332935D01*
X106605965Y-130835355D01*
X106600515Y-131235941D01*
X106593600Y-131547274D01*
X106584459Y-131781937D01*
X106572333Y-131952510D01*
X106556462Y-132071576D01*
X106536087Y-132151716D01*
X106510447Y-132205511D01*
X106478783Y-132245543D01*
X106461688Y-132263097D01*
X106281502Y-132372031D01*
X106033063Y-132431806D01*
X105740200Y-132464816D01*
X105740200Y-133019800D01*
X106137075Y-133014342D01*
X106381810Y-133002608D01*
X106601577Y-132977960D01*
X106715399Y-132954508D01*
X106993281Y-132806539D01*
X107217336Y-132544545D01*
X107254827Y-132480199D01*
X107281755Y-132418203D01*
X107304031Y-132331307D01*
X107322226Y-132207185D01*
X107336913Y-132033509D01*
X107348664Y-131797953D01*
X107358050Y-131488190D01*
X107365644Y-131091891D01*
X107372017Y-130596731D01*
X107377741Y-129990382D01*
X107379320Y-129797175D01*
X107399190Y-127304800D01*
X106633568Y-127304800D01*
X106615509Y-129716099D01*
G36*
X109566297Y-128993041D02*
G01*
X109242235Y-129013771D01*
X109000168Y-129056120D01*
X108817748Y-129126470D01*
X108672625Y-129231203D01*
X108542451Y-129376700D01*
X108517693Y-129409306D01*
X108448611Y-129519891D01*
X108394251Y-129655388D01*
X108352926Y-129831364D01*
X108322949Y-130063386D01*
X108302633Y-130367021D01*
X108290290Y-130757835D01*
X108284234Y-131251395D01*
X108282966Y-131575175D01*
X108280200Y-133019800D01*
X108597700Y-133019800D01*
X108778826Y-133009120D01*
X108893783Y-132981814D01*
X108915200Y-132960433D01*
X108936095Y-132861821D01*
X108979665Y-132731512D01*
X109034121Y-132616188D01*
X109099632Y-132605070D01*
X109195197Y-132660940D01*
X109469576Y-132798671D01*
X109810096Y-132907974D01*
X110179354Y-132982847D01*
X110539945Y-133017286D01*
X110854466Y-133005287D01*
X111047630Y-132958277D01*
X111203639Y-132851802D01*
X111368490Y-132676267D01*
X111502032Y-132479785D01*
X111557583Y-132347239D01*
X111586432Y-132117803D01*
X111581446Y-131837486D01*
X111576852Y-131798276D01*
X110820200Y-131798276D01*
X110802501Y-132072239D01*
X110738978Y-132258092D01*
X110613998Y-132391087D01*
X110534450Y-132442557D01*
X110363179Y-132487105D01*
X110107237Y-132485981D01*
X109799283Y-132442121D01*
X109471976Y-132358460D01*
X109423200Y-132342650D01*
X109073950Y-132226050D01*
X109073950Y-131083050D01*
X109391450Y-131062266D01*
X109636493Y-131057956D01*
X109928626Y-131069004D01*
X110114718Y-131084147D01*
X110431106Y-131139995D01*
X110641303Y-131240710D01*
X110763285Y-131404488D01*
X110815030Y-131649529D01*
X110820200Y-131798276D01*
X111576852Y-131798276D01*
X111547820Y-131550513D01*
X111490753Y-131301109D01*
X111415441Y-131133498D01*
X111414852Y-131132704D01*
X111282384Y-130976068D01*
X111138085Y-130861280D01*
X110959361Y-130781375D01*
X110723621Y-130729388D01*
X110408273Y-130698356D01*
X109990724Y-130681313D01*
X109947075Y-130680220D01*
X109042200Y-130658391D01*
X109043137Y-130362720D01*
X109064704Y-130085420D01*
X109136471Y-129874268D01*
X109272007Y-129721236D01*
X109484885Y-129618295D01*
X109788673Y-129557416D01*
X110196943Y-129530572D01*
X110455075Y-129527398D01*
X111264700Y-129527300D01*
X111264700Y-129306259D01*
X111255787Y-129197602D01*
X111218269Y-129116750D01*
X111135981Y-129059645D01*
X110992756Y-129022231D01*
X110772428Y-129000450D01*
X110458831Y-128990245D01*
X110035798Y-128987561D01*
X109994700Y-128987550D01*
X109566297Y-128993041D01*
G37*
X109566297Y-128993041D02*
X109242235Y-129013771D01*
X109000168Y-129056120D01*
X108817748Y-129126470D01*
X108672625Y-129231203D01*
X108542451Y-129376700D01*
X108517693Y-129409306D01*
X108448611Y-129519891D01*
X108394251Y-129655388D01*
X108352926Y-129831364D01*
X108322949Y-130063386D01*
X108302633Y-130367021D01*
X108290290Y-130757835D01*
X108284234Y-131251395D01*
X108282966Y-131575175D01*
X108280200Y-133019800D01*
X108597700Y-133019800D01*
X108778826Y-133009120D01*
X108893783Y-132981814D01*
X108915200Y-132960433D01*
X108936095Y-132861821D01*
X108979665Y-132731512D01*
X109034121Y-132616188D01*
X109099632Y-132605070D01*
X109195197Y-132660940D01*
X109469576Y-132798671D01*
X109810096Y-132907974D01*
X110179354Y-132982847D01*
X110539945Y-133017286D01*
X110854466Y-133005287D01*
X111047630Y-132958277D01*
X111203639Y-132851802D01*
X111368490Y-132676267D01*
X111502032Y-132479785D01*
X111557583Y-132347239D01*
X111586432Y-132117803D01*
X111581446Y-131837486D01*
X111576852Y-131798276D01*
X110820200Y-131798276D01*
X110802501Y-132072239D01*
X110738978Y-132258092D01*
X110613998Y-132391087D01*
X110534450Y-132442557D01*
X110363179Y-132487105D01*
X110107237Y-132485981D01*
X109799283Y-132442121D01*
X109471976Y-132358460D01*
X109423200Y-132342650D01*
X109073950Y-132226050D01*
X109073950Y-131083050D01*
X109391450Y-131062266D01*
X109636493Y-131057956D01*
X109928626Y-131069004D01*
X110114718Y-131084147D01*
X110431106Y-131139995D01*
X110641303Y-131240710D01*
X110763285Y-131404488D01*
X110815030Y-131649529D01*
X110820200Y-131798276D01*
X111576852Y-131798276D01*
X111547820Y-131550513D01*
X111490753Y-131301109D01*
X111415441Y-131133498D01*
X111414852Y-131132704D01*
X111282384Y-130976068D01*
X111138085Y-130861280D01*
X110959361Y-130781375D01*
X110723621Y-130729388D01*
X110408273Y-130698356D01*
X109990724Y-130681313D01*
X109947075Y-130680220D01*
X109042200Y-130658391D01*
X109043137Y-130362720D01*
X109064704Y-130085420D01*
X109136471Y-129874268D01*
X109272007Y-129721236D01*
X109484885Y-129618295D01*
X109788673Y-129557416D01*
X110196943Y-129530572D01*
X110455075Y-129527398D01*
X111264700Y-129527300D01*
X111264700Y-129306259D01*
X111255787Y-129197602D01*
X111218269Y-129116750D01*
X111135981Y-129059645D01*
X110992756Y-129022231D01*
X110772428Y-129000450D01*
X110458831Y-128990245D01*
X110035798Y-128987561D01*
X109994700Y-128987550D01*
X109566297Y-128993041D01*
G36*
X113620783Y-128965142D02*
G01*
X113278089Y-129016572D01*
X112927589Y-129128105D01*
X112672526Y-129304449D01*
X112503547Y-129558169D01*
X112411301Y-129901831D01*
X112387107Y-130213775D01*
X112413459Y-130585444D01*
X112516475Y-130867553D01*
X112703341Y-131076850D01*
X112780297Y-131130113D01*
X112882607Y-131186784D01*
X112993886Y-131227349D01*
X113138372Y-131255217D01*
X113340305Y-131273797D01*
X113623925Y-131286498D01*
X113955711Y-131295412D01*
X114900472Y-131317274D01*
X114862627Y-131636818D01*
X114819859Y-131893770D01*
X114749472Y-132088092D01*
X114634805Y-132229179D01*
X114459197Y-132326428D01*
X114205986Y-132389234D01*
X113858513Y-132426993D01*
X113423700Y-132448300D01*
X112502950Y-132480050D01*
X112502950Y-132702300D01*
X112510929Y-132839804D01*
X112557611Y-132911607D01*
X112677113Y-132949368D01*
X112788700Y-132967468D01*
X113063386Y-132995692D01*
X113398174Y-133010639D01*
X113760149Y-133013007D01*
X114116395Y-133003495D01*
X114433997Y-132982801D01*
X114680041Y-132951622D01*
X114788950Y-132925045D01*
X115071729Y-132764213D01*
X115312324Y-132510742D01*
X115481623Y-132198316D01*
X115518832Y-132080551D01*
X115596781Y-131658070D01*
X115631349Y-131192580D01*
X115626760Y-130876752D01*
X114902869Y-130876752D01*
X114091618Y-130849745D01*
X113754577Y-130836996D01*
X113520799Y-130822201D01*
X113366572Y-130800931D01*
X113268181Y-130768755D01*
X113201913Y-130721242D01*
X113161534Y-130675983D01*
X113070684Y-130477860D01*
X113045651Y-130222909D01*
X113088260Y-129964000D01*
X113133188Y-129854009D01*
X113281111Y-129674822D01*
X113509658Y-129568275D01*
X113833616Y-129528015D01*
X113893463Y-129527300D01*
X114253314Y-129553679D01*
X114515531Y-129642477D01*
X114695142Y-129808186D01*
X114807175Y-130065295D01*
X114866660Y-130428294D01*
X114870141Y-130469032D01*
X114902869Y-130876752D01*
X115626760Y-130876752D01*
X115624441Y-130717152D01*
X115577963Y-130264856D01*
X115493821Y-129868764D01*
X115373921Y-129561945D01*
X115373662Y-129561472D01*
X115175884Y-129325801D01*
X114881002Y-129142948D01*
X114509722Y-129018299D01*
X114082747Y-128957235D01*
X113620783Y-128965142D01*
G37*
X113620783Y-128965142D02*
X113278089Y-129016572D01*
X112927589Y-129128105D01*
X112672526Y-129304449D01*
X112503547Y-129558169D01*
X112411301Y-129901831D01*
X112387107Y-130213775D01*
X112413459Y-130585444D01*
X112516475Y-130867553D01*
X112703341Y-131076850D01*
X112780297Y-131130113D01*
X112882607Y-131186784D01*
X112993886Y-131227349D01*
X113138372Y-131255217D01*
X113340305Y-131273797D01*
X113623925Y-131286498D01*
X113955711Y-131295412D01*
X114900472Y-131317274D01*
X114862627Y-131636818D01*
X114819859Y-131893770D01*
X114749472Y-132088092D01*
X114634805Y-132229179D01*
X114459197Y-132326428D01*
X114205986Y-132389234D01*
X113858513Y-132426993D01*
X113423700Y-132448300D01*
X112502950Y-132480050D01*
X112502950Y-132702300D01*
X112510929Y-132839804D01*
X112557611Y-132911607D01*
X112677113Y-132949368D01*
X112788700Y-132967468D01*
X113063386Y-132995692D01*
X113398174Y-133010639D01*
X113760149Y-133013007D01*
X114116395Y-133003495D01*
X114433997Y-132982801D01*
X114680041Y-132951622D01*
X114788950Y-132925045D01*
X115071729Y-132764213D01*
X115312324Y-132510742D01*
X115481623Y-132198316D01*
X115518832Y-132080551D01*
X115596781Y-131658070D01*
X115631349Y-131192580D01*
X115626760Y-130876752D01*
X114902869Y-130876752D01*
X114091618Y-130849745D01*
X113754577Y-130836996D01*
X113520799Y-130822201D01*
X113366572Y-130800931D01*
X113268181Y-130768755D01*
X113201913Y-130721242D01*
X113161534Y-130675983D01*
X113070684Y-130477860D01*
X113045651Y-130222909D01*
X113088260Y-129964000D01*
X113133188Y-129854009D01*
X113281111Y-129674822D01*
X113509658Y-129568275D01*
X113833616Y-129528015D01*
X113893463Y-129527300D01*
X114253314Y-129553679D01*
X114515531Y-129642477D01*
X114695142Y-129808186D01*
X114807175Y-130065295D01*
X114866660Y-130428294D01*
X114870141Y-130469032D01*
X114902869Y-130876752D01*
X115626760Y-130876752D01*
X115624441Y-130717152D01*
X115577963Y-130264856D01*
X115493821Y-129868764D01*
X115373921Y-129561945D01*
X115373662Y-129561472D01*
X115175884Y-129325801D01*
X114881002Y-129142948D01*
X114509722Y-129018299D01*
X114082747Y-128957235D01*
X113620783Y-128965142D01*
G36*
X116185950Y-128987550D02*
G01*
X116149004Y-129749550D01*
X116580227Y-129754099D01*
X116974981Y-129792083D01*
X117298358Y-129906634D01*
X117590029Y-130112692D01*
X117630575Y-130149679D01*
X117805200Y-130313060D01*
X117805200Y-133019800D01*
X118567200Y-133019800D01*
X118567200Y-129019300D01*
X118249700Y-129019300D01*
X118031638Y-129034709D01*
X117936445Y-129080891D01*
X117931846Y-129098675D01*
X117915511Y-129208203D01*
X117875574Y-129378365D01*
X117864654Y-129418739D01*
X117797815Y-129659428D01*
X117478090Y-129371968D01*
X117125784Y-129117824D01*
X116765398Y-128985896D01*
X116419862Y-128968092D01*
X116185950Y-128987550D01*
G37*
X116185950Y-128987550D02*
X116149004Y-129749550D01*
X116580227Y-129754099D01*
X116974981Y-129792083D01*
X117298358Y-129906634D01*
X117590029Y-130112692D01*
X117630575Y-130149679D01*
X117805200Y-130313060D01*
X117805200Y-133019800D01*
X118567200Y-133019800D01*
X118567200Y-129019300D01*
X118249700Y-129019300D01*
X118031638Y-129034709D01*
X117936445Y-129080891D01*
X117931846Y-129098675D01*
X117915511Y-129208203D01*
X117875574Y-129378365D01*
X117864654Y-129418739D01*
X117797815Y-129659428D01*
X117478090Y-129371968D01*
X117125784Y-129117824D01*
X116765398Y-128985896D01*
X116419862Y-128968092D01*
X116185950Y-128987550D01*
G36*
X97106065Y-129222756D02*
G01*
X97369472Y-130192044D01*
X97602570Y-131044604D01*
X97807130Y-131786594D01*
X97984920Y-132424167D01*
X98137712Y-132963480D01*
X98267276Y-133410688D01*
X98375382Y-133771945D01*
X98463800Y-134053407D01*
X98534300Y-134261230D01*
X98588653Y-134401568D01*
X98606909Y-134441496D01*
X98781657Y-134797800D01*
X99085929Y-134797800D01*
X99262134Y-134794829D01*
X99370722Y-134787266D01*
X99387716Y-134781925D01*
X99370520Y-134718525D01*
X99325002Y-134555309D01*
X99257435Y-134314656D01*
X99174091Y-134018947D01*
X99142981Y-133908800D01*
X98900731Y-133051550D01*
X99066091Y-133014548D01*
X99365982Y-132905436D01*
X99626057Y-132734299D01*
X99758681Y-132592133D01*
X99808462Y-132517037D01*
X99855787Y-132430620D01*
X99905632Y-132318339D01*
X99962975Y-132165651D01*
X100032793Y-131958012D01*
X100120062Y-131680879D01*
X100229759Y-131319709D01*
X100366862Y-130859959D01*
X100465714Y-130526125D01*
X100582343Y-130132922D01*
X100688423Y-129777642D01*
X100778156Y-129479515D01*
X100845742Y-129257773D01*
X100885384Y-129131645D01*
X100891736Y-129113250D01*
X100889851Y-129061388D01*
X100818904Y-129032526D01*
X100656126Y-129020870D01*
X100524119Y-129019688D01*
X100120450Y-129020076D01*
X99747417Y-130369063D01*
X99631472Y-130781669D01*
X99519220Y-131168922D01*
X99417444Y-131508345D01*
X99332926Y-131777461D01*
X99272450Y-131953793D01*
X99259010Y-131987592D01*
X99154815Y-132162669D01*
X99021318Y-132300439D01*
X98888296Y-132377735D01*
X98785530Y-132371388D01*
X98776072Y-132363338D01*
X98748575Y-132293208D01*
X98692521Y-132116975D01*
X98612754Y-131851065D01*
X98514118Y-131511905D01*
X98401457Y-131115920D01*
X98281446Y-130686148D01*
X97828910Y-129051050D01*
X97439118Y-129032256D01*
X97049326Y-129013463D01*
X97106065Y-129222756D01*
G37*
X97106065Y-129222756D02*
X97369472Y-130192044D01*
X97602570Y-131044604D01*
X97807130Y-131786594D01*
X97984920Y-132424167D01*
X98137712Y-132963480D01*
X98267276Y-133410688D01*
X98375382Y-133771945D01*
X98463800Y-134053407D01*
X98534300Y-134261230D01*
X98588653Y-134401568D01*
X98606909Y-134441496D01*
X98781657Y-134797800D01*
X99085929Y-134797800D01*
X99262134Y-134794829D01*
X99370722Y-134787266D01*
X99387716Y-134781925D01*
X99370520Y-134718525D01*
X99325002Y-134555309D01*
X99257435Y-134314656D01*
X99174091Y-134018947D01*
X99142981Y-133908800D01*
X98900731Y-133051550D01*
X99066091Y-133014548D01*
X99365982Y-132905436D01*
X99626057Y-132734299D01*
X99758681Y-132592133D01*
X99808462Y-132517037D01*
X99855787Y-132430620D01*
X99905632Y-132318339D01*
X99962975Y-132165651D01*
X100032793Y-131958012D01*
X100120062Y-131680879D01*
X100229759Y-131319709D01*
X100366862Y-130859959D01*
X100465714Y-130526125D01*
X100582343Y-130132922D01*
X100688423Y-129777642D01*
X100778156Y-129479515D01*
X100845742Y-129257773D01*
X100885384Y-129131645D01*
X100891736Y-129113250D01*
X100889851Y-129061388D01*
X100818904Y-129032526D01*
X100656126Y-129020870D01*
X100524119Y-129019688D01*
X100120450Y-129020076D01*
X99747417Y-130369063D01*
X99631472Y-130781669D01*
X99519220Y-131168922D01*
X99417444Y-131508345D01*
X99332926Y-131777461D01*
X99272450Y-131953793D01*
X99259010Y-131987592D01*
X99154815Y-132162669D01*
X99021318Y-132300439D01*
X98888296Y-132377735D01*
X98785530Y-132371388D01*
X98776072Y-132363338D01*
X98748575Y-132293208D01*
X98692521Y-132116975D01*
X98612754Y-131851065D01*
X98514118Y-131511905D01*
X98401457Y-131115920D01*
X98281446Y-130686148D01*
X97828910Y-129051050D01*
X97439118Y-129032256D01*
X97049326Y-129013463D01*
X97106065Y-129222756D01*
M02*
