M48
; DRILL file {KiCad 5.1.7} date Wed Oct 21 23:58:51 2020
; FORMAT={-:-/ absolute / inch / decimal}
; #@! TF.CreationDate,2020-10-21T23:58:51+01:00
; #@! TF.GenerationSoftware,Kicad,Pcbnew,5.1.7
FMAT,2
INCH
T1C0.0130
T2C0.0394
T3C0.0984
%
G90
G05
T1
X2.8113Y-6.0891
X3.073Y-6.1062
X3.1926Y-5.8803
X3.1996Y-5.8246
X3.285Y-5.8495
X3.3171Y-6.0835
X3.4123Y-6.1394
X3.4194Y-6.0841
X3.436Y-5.9407
X3.4646Y-5.9571
X3.505Y-5.9655
X3.5245Y-6.1225
X3.5452Y-5.9739
X3.546Y-5.78
X3.671Y-5.802
X3.768Y-5.9951
X3.7895Y-6.1088
X3.8164Y-6.0816
X3.821Y-4.396
X3.822Y-5.803
X3.828Y-4.558
X3.8287Y-5.9396
X3.8758Y-5.968
X3.893Y-5.937
X3.9082Y-5.7527
X3.969Y-5.755
X3.969Y-5.939
X3.987Y-6.116
X4.023Y-6.183
X4.412Y-5.449
X4.518Y-4.518
X4.519Y-4.401
X4.591Y-4.184
X4.6398Y-5.2885
X4.7261Y-4.7948
T2
X4.99Y-4.46
X4.99Y-4.56
X4.99Y-4.66
X4.99Y-4.76
X4.99Y-4.86
X4.99Y-4.96
X4.99Y-5.06
X4.99Y-5.16
X4.99Y-5.26
X4.99Y-5.36
X4.99Y-5.46
X4.99Y-5.56
X4.99Y-5.66
X4.99Y-5.76
X4.99Y-5.86
X5.09Y-4.46
X5.09Y-4.56
X5.09Y-4.66
X5.09Y-4.76
X5.09Y-4.86
X5.09Y-4.96
X5.09Y-5.06
X5.09Y-5.16
X5.09Y-5.26
X5.09Y-5.36
X5.09Y-5.46
X5.09Y-5.56
X5.09Y-5.66
X5.09Y-5.76
X5.09Y-5.86
X2.58Y-6.25
X2.58Y-6.35
X2.68Y-6.25
X2.68Y-6.35
X2.78Y-6.25
X2.78Y-6.35
X2.88Y-6.25
X2.88Y-6.35
X2.98Y-6.25
X2.98Y-6.35
X3.08Y-6.25
X3.08Y-6.35
X3.18Y-6.25
X3.18Y-6.35
X3.28Y-6.25
X3.28Y-6.35
X3.38Y-6.25
X3.38Y-6.35
X3.48Y-6.25
X3.48Y-6.35
X3.58Y-6.25
X3.58Y-6.35
X3.68Y-6.25
X3.68Y-6.35
X3.78Y-6.25
X3.78Y-6.35
X3.88Y-6.25
X3.88Y-6.35
X3.98Y-6.25
X3.98Y-6.35
X4.08Y-6.25
X4.08Y-6.35
X4.18Y-6.25
X4.18Y-6.35
X4.28Y-6.25
X4.28Y-6.35
X4.38Y-6.25
X4.38Y-6.35
X4.48Y-6.25
X4.48Y-6.35
X4.58Y-6.25
X4.58Y-6.35
X4.68Y-6.25
X4.68Y-6.35
X4.78Y-6.25
X4.78Y-6.35
X4.88Y-6.25
X4.88Y-6.35
X4.98Y-6.25
X4.98Y-6.35
X2.445Y-4.863
X2.445Y-4.963
X2.445Y-5.063
X2.445Y-5.163
X2.445Y-5.263
X2.445Y-5.363
X2.445Y-5.463
X2.445Y-5.563
X2.445Y-5.663
X2.445Y-5.763
X2.445Y-5.863
X2.445Y-5.963
X2.445Y-6.063
X2.545Y-4.863
X2.545Y-4.963
X2.545Y-5.063
X2.545Y-5.163
X2.545Y-5.263
X2.545Y-5.363
X2.545Y-5.463
X2.545Y-5.563
X2.545Y-5.663
X2.545Y-5.763
X2.545Y-5.863
X2.545Y-5.963
X2.545Y-6.063
T3
X3.0342Y-4.2192
X3.0342Y-5.9908
X4.8058Y-4.2192
X4.8058Y-5.9908
T0
M30
