M48
; DRILL file {KiCad 5.1.7} date Thu Oct 22 00:39:16 2020
; FORMAT={-:-/ absolute / inch / decimal}
; #@! TF.CreationDate,2020-10-22T00:39:16+01:00
; #@! TF.GenerationSoftware,Kicad,Pcbnew,5.1.7
FMAT,2
INCH
T1C0.0130
T2C0.0394
%
G90
G05
T1
X2.625Y-6.01
X2.935Y-6.17
X3.215Y-6.065
X3.535Y-6.239
X3.6962Y-5.8304
X3.735Y-5.887
X3.865Y-6.065
X3.97Y-6.255
X4.015Y-6.065
X4.0554Y-5.9992
X4.1079Y-5.9995
X4.17Y-6.12
X4.525Y-6.12
X4.6499Y-5.9995
X4.6824Y-5.9936
X4.6941Y-5.8239
X4.7173Y-5.7926
X4.7387Y-6.0254
X4.7421Y-5.8921
X4.7629Y-5.999
X4.83Y-6.11
X4.88Y-5.88
X5.17Y-6.07
X5.2952Y-5.9989
X5.3192Y-5.8768
X5.475Y-6.1
X5.81Y-6.1
X6.175Y-6.09
T2
X2.58Y-5.655
X2.58Y-5.755
X2.68Y-5.655
X2.68Y-5.755
X2.78Y-5.655
X2.78Y-5.755
X2.88Y-5.655
X2.88Y-5.755
X2.98Y-5.655
X2.98Y-5.755
X3.08Y-5.655
X3.08Y-5.755
X3.18Y-5.655
X3.18Y-5.755
X3.28Y-5.655
X3.28Y-5.755
X3.38Y-5.655
X3.38Y-5.755
X3.48Y-5.655
X3.48Y-5.755
X3.58Y-5.655
X3.58Y-5.755
X3.68Y-5.655
X3.68Y-5.755
X3.78Y-5.655
X3.78Y-5.755
X3.88Y-5.655
X3.88Y-5.755
X3.98Y-5.655
X3.98Y-5.755
X4.08Y-5.655
X4.08Y-5.755
X4.18Y-5.655
X4.18Y-5.755
X4.28Y-5.655
X4.28Y-5.755
X4.38Y-5.655
X4.38Y-5.755
X4.48Y-5.655
X4.48Y-5.755
X4.58Y-5.655
X4.58Y-5.755
X4.68Y-5.655
X4.68Y-5.755
X4.78Y-5.655
X4.78Y-5.755
X4.88Y-5.655
X4.88Y-5.755
X4.98Y-5.655
X4.98Y-5.755
X5.64Y-5.965
X5.64Y-6.065
X5.64Y-6.165
X5.28Y-5.735
X5.38Y-5.735
X2.43Y-6.43
X2.53Y-6.43
X2.63Y-6.43
X2.73Y-6.43
X2.83Y-6.43
X2.93Y-6.43
X3.03Y-6.43
X3.13Y-6.43
X3.23Y-6.43
X3.33Y-6.43
X3.43Y-6.43
X3.53Y-6.43
X3.63Y-6.43
X3.73Y-6.43
X3.83Y-6.43
X3.93Y-6.43
X4.03Y-6.43
X4.13Y-6.43
X4.23Y-6.43
X4.33Y-6.43
X4.43Y-6.43
X4.53Y-6.43
X4.63Y-6.43
X4.73Y-6.43
X4.83Y-6.43
X4.93Y-6.43
X5.03Y-6.43
X5.13Y-6.43
X5.23Y-6.43
X5.33Y-6.43
X5.43Y-6.43
X5.53Y-6.43
X5.63Y-6.43
X5.73Y-6.43
X5.83Y-6.43
X5.93Y-6.43
X6.03Y-6.43
X6.13Y-6.43
X6.23Y-6.43
X4.03Y-6.33
X4.13Y-6.33
X4.23Y-6.33
X4.33Y-6.33
X4.43Y-6.33
X4.53Y-6.33
X4.63Y-6.33
X4.73Y-6.33
X4.83Y-6.33
X4.93Y-6.33
T0
M30
