G04 #@! TF.GenerationSoftware,KiCad,Pcbnew,5.1.7*
G04 #@! TF.CreationDate,2020-10-22T00:39:11+01:00*
G04 #@! TF.ProjectId,rc2014-icecore,72633230-3134-42d6-9963-65636f72652e,1*
G04 #@! TF.SameCoordinates,Original*
G04 #@! TF.FileFunction,Soldermask,Top*
G04 #@! TF.FilePolarity,Negative*
%FSLAX46Y46*%
G04 Gerber Fmt 4.6, Leading zero omitted, Abs format (unit mm)*
G04 Created by KiCad (PCBNEW 5.1.7) date 2020-10-22 00:39:11*
%MOMM*%
%LPD*%
G01*
G04 APERTURE LIST*
%ADD10O,2.100000X2.100000*%
G04 APERTURE END LIST*
G36*
G01*
X117036000Y-151999000D02*
X116636000Y-151999000D01*
G75*
G02*
X116436000Y-151799000I0J200000D01*
G01*
X116436000Y-150324000D01*
G75*
G02*
X116636000Y-150124000I200000J0D01*
G01*
X117036000Y-150124000D01*
G75*
G02*
X117236000Y-150324000I0J-200000D01*
G01*
X117236000Y-151799000D01*
G75*
G02*
X117036000Y-151999000I-200000J0D01*
G01*
G37*
G36*
G01*
X117686000Y-151999000D02*
X117286000Y-151999000D01*
G75*
G02*
X117086000Y-151799000I0J200000D01*
G01*
X117086000Y-150324000D01*
G75*
G02*
X117286000Y-150124000I200000J0D01*
G01*
X117686000Y-150124000D01*
G75*
G02*
X117886000Y-150324000I0J-200000D01*
G01*
X117886000Y-151799000D01*
G75*
G02*
X117686000Y-151999000I-200000J0D01*
G01*
G37*
G36*
G01*
X118336000Y-151999000D02*
X117936000Y-151999000D01*
G75*
G02*
X117736000Y-151799000I0J200000D01*
G01*
X117736000Y-150324000D01*
G75*
G02*
X117936000Y-150124000I200000J0D01*
G01*
X118336000Y-150124000D01*
G75*
G02*
X118536000Y-150324000I0J-200000D01*
G01*
X118536000Y-151799000D01*
G75*
G02*
X118336000Y-151999000I-200000J0D01*
G01*
G37*
G36*
G01*
X118986000Y-151999000D02*
X118586000Y-151999000D01*
G75*
G02*
X118386000Y-151799000I0J200000D01*
G01*
X118386000Y-150324000D01*
G75*
G02*
X118586000Y-150124000I200000J0D01*
G01*
X118986000Y-150124000D01*
G75*
G02*
X119186000Y-150324000I0J-200000D01*
G01*
X119186000Y-151799000D01*
G75*
G02*
X118986000Y-151999000I-200000J0D01*
G01*
G37*
G36*
G01*
X119636000Y-151999000D02*
X119236000Y-151999000D01*
G75*
G02*
X119036000Y-151799000I0J200000D01*
G01*
X119036000Y-150324000D01*
G75*
G02*
X119236000Y-150124000I200000J0D01*
G01*
X119636000Y-150124000D01*
G75*
G02*
X119836000Y-150324000I0J-200000D01*
G01*
X119836000Y-151799000D01*
G75*
G02*
X119636000Y-151999000I-200000J0D01*
G01*
G37*
G36*
G01*
X120286000Y-151999000D02*
X119886000Y-151999000D01*
G75*
G02*
X119686000Y-151799000I0J200000D01*
G01*
X119686000Y-150324000D01*
G75*
G02*
X119886000Y-150124000I200000J0D01*
G01*
X120286000Y-150124000D01*
G75*
G02*
X120486000Y-150324000I0J-200000D01*
G01*
X120486000Y-151799000D01*
G75*
G02*
X120286000Y-151999000I-200000J0D01*
G01*
G37*
G36*
G01*
X120936000Y-151999000D02*
X120536000Y-151999000D01*
G75*
G02*
X120336000Y-151799000I0J200000D01*
G01*
X120336000Y-150324000D01*
G75*
G02*
X120536000Y-150124000I200000J0D01*
G01*
X120936000Y-150124000D01*
G75*
G02*
X121136000Y-150324000I0J-200000D01*
G01*
X121136000Y-151799000D01*
G75*
G02*
X120936000Y-151999000I-200000J0D01*
G01*
G37*
G36*
G01*
X121586000Y-151999000D02*
X121186000Y-151999000D01*
G75*
G02*
X120986000Y-151799000I0J200000D01*
G01*
X120986000Y-150324000D01*
G75*
G02*
X121186000Y-150124000I200000J0D01*
G01*
X121586000Y-150124000D01*
G75*
G02*
X121786000Y-150324000I0J-200000D01*
G01*
X121786000Y-151799000D01*
G75*
G02*
X121586000Y-151999000I-200000J0D01*
G01*
G37*
G36*
G01*
X122236000Y-151999000D02*
X121836000Y-151999000D01*
G75*
G02*
X121636000Y-151799000I0J200000D01*
G01*
X121636000Y-150324000D01*
G75*
G02*
X121836000Y-150124000I200000J0D01*
G01*
X122236000Y-150124000D01*
G75*
G02*
X122436000Y-150324000I0J-200000D01*
G01*
X122436000Y-151799000D01*
G75*
G02*
X122236000Y-151999000I-200000J0D01*
G01*
G37*
G36*
G01*
X122886000Y-151999000D02*
X122486000Y-151999000D01*
G75*
G02*
X122286000Y-151799000I0J200000D01*
G01*
X122286000Y-150324000D01*
G75*
G02*
X122486000Y-150124000I200000J0D01*
G01*
X122886000Y-150124000D01*
G75*
G02*
X123086000Y-150324000I0J-200000D01*
G01*
X123086000Y-151799000D01*
G75*
G02*
X122886000Y-151999000I-200000J0D01*
G01*
G37*
G36*
G01*
X122886000Y-157724000D02*
X122486000Y-157724000D01*
G75*
G02*
X122286000Y-157524000I0J200000D01*
G01*
X122286000Y-156049000D01*
G75*
G02*
X122486000Y-155849000I200000J0D01*
G01*
X122886000Y-155849000D01*
G75*
G02*
X123086000Y-156049000I0J-200000D01*
G01*
X123086000Y-157524000D01*
G75*
G02*
X122886000Y-157724000I-200000J0D01*
G01*
G37*
G36*
G01*
X122236000Y-157724000D02*
X121836000Y-157724000D01*
G75*
G02*
X121636000Y-157524000I0J200000D01*
G01*
X121636000Y-156049000D01*
G75*
G02*
X121836000Y-155849000I200000J0D01*
G01*
X122236000Y-155849000D01*
G75*
G02*
X122436000Y-156049000I0J-200000D01*
G01*
X122436000Y-157524000D01*
G75*
G02*
X122236000Y-157724000I-200000J0D01*
G01*
G37*
G36*
G01*
X121586000Y-157724000D02*
X121186000Y-157724000D01*
G75*
G02*
X120986000Y-157524000I0J200000D01*
G01*
X120986000Y-156049000D01*
G75*
G02*
X121186000Y-155849000I200000J0D01*
G01*
X121586000Y-155849000D01*
G75*
G02*
X121786000Y-156049000I0J-200000D01*
G01*
X121786000Y-157524000D01*
G75*
G02*
X121586000Y-157724000I-200000J0D01*
G01*
G37*
G36*
G01*
X120936000Y-157724000D02*
X120536000Y-157724000D01*
G75*
G02*
X120336000Y-157524000I0J200000D01*
G01*
X120336000Y-156049000D01*
G75*
G02*
X120536000Y-155849000I200000J0D01*
G01*
X120936000Y-155849000D01*
G75*
G02*
X121136000Y-156049000I0J-200000D01*
G01*
X121136000Y-157524000D01*
G75*
G02*
X120936000Y-157724000I-200000J0D01*
G01*
G37*
G36*
G01*
X120286000Y-157724000D02*
X119886000Y-157724000D01*
G75*
G02*
X119686000Y-157524000I0J200000D01*
G01*
X119686000Y-156049000D01*
G75*
G02*
X119886000Y-155849000I200000J0D01*
G01*
X120286000Y-155849000D01*
G75*
G02*
X120486000Y-156049000I0J-200000D01*
G01*
X120486000Y-157524000D01*
G75*
G02*
X120286000Y-157724000I-200000J0D01*
G01*
G37*
G36*
G01*
X119636000Y-157724000D02*
X119236000Y-157724000D01*
G75*
G02*
X119036000Y-157524000I0J200000D01*
G01*
X119036000Y-156049000D01*
G75*
G02*
X119236000Y-155849000I200000J0D01*
G01*
X119636000Y-155849000D01*
G75*
G02*
X119836000Y-156049000I0J-200000D01*
G01*
X119836000Y-157524000D01*
G75*
G02*
X119636000Y-157724000I-200000J0D01*
G01*
G37*
G36*
G01*
X118986000Y-157724000D02*
X118586000Y-157724000D01*
G75*
G02*
X118386000Y-157524000I0J200000D01*
G01*
X118386000Y-156049000D01*
G75*
G02*
X118586000Y-155849000I200000J0D01*
G01*
X118986000Y-155849000D01*
G75*
G02*
X119186000Y-156049000I0J-200000D01*
G01*
X119186000Y-157524000D01*
G75*
G02*
X118986000Y-157724000I-200000J0D01*
G01*
G37*
G36*
G01*
X118336000Y-157724000D02*
X117936000Y-157724000D01*
G75*
G02*
X117736000Y-157524000I0J200000D01*
G01*
X117736000Y-156049000D01*
G75*
G02*
X117936000Y-155849000I200000J0D01*
G01*
X118336000Y-155849000D01*
G75*
G02*
X118536000Y-156049000I0J-200000D01*
G01*
X118536000Y-157524000D01*
G75*
G02*
X118336000Y-157724000I-200000J0D01*
G01*
G37*
G36*
G01*
X117686000Y-157724000D02*
X117286000Y-157724000D01*
G75*
G02*
X117086000Y-157524000I0J200000D01*
G01*
X117086000Y-156049000D01*
G75*
G02*
X117286000Y-155849000I200000J0D01*
G01*
X117686000Y-155849000D01*
G75*
G02*
X117886000Y-156049000I0J-200000D01*
G01*
X117886000Y-157524000D01*
G75*
G02*
X117686000Y-157724000I-200000J0D01*
G01*
G37*
G36*
G01*
X117036000Y-157724000D02*
X116636000Y-157724000D01*
G75*
G02*
X116436000Y-157524000I0J200000D01*
G01*
X116436000Y-156049000D01*
G75*
G02*
X116636000Y-155849000I200000J0D01*
G01*
X117036000Y-155849000D01*
G75*
G02*
X117236000Y-156049000I0J-200000D01*
G01*
X117236000Y-157524000D01*
G75*
G02*
X117036000Y-157724000I-200000J0D01*
G01*
G37*
G36*
G01*
X100272000Y-157724000D02*
X99872000Y-157724000D01*
G75*
G02*
X99672000Y-157524000I0J200000D01*
G01*
X99672000Y-156049000D01*
G75*
G02*
X99872000Y-155849000I200000J0D01*
G01*
X100272000Y-155849000D01*
G75*
G02*
X100472000Y-156049000I0J-200000D01*
G01*
X100472000Y-157524000D01*
G75*
G02*
X100272000Y-157724000I-200000J0D01*
G01*
G37*
G36*
G01*
X100922000Y-157724000D02*
X100522000Y-157724000D01*
G75*
G02*
X100322000Y-157524000I0J200000D01*
G01*
X100322000Y-156049000D01*
G75*
G02*
X100522000Y-155849000I200000J0D01*
G01*
X100922000Y-155849000D01*
G75*
G02*
X101122000Y-156049000I0J-200000D01*
G01*
X101122000Y-157524000D01*
G75*
G02*
X100922000Y-157724000I-200000J0D01*
G01*
G37*
G36*
G01*
X101572000Y-157724000D02*
X101172000Y-157724000D01*
G75*
G02*
X100972000Y-157524000I0J200000D01*
G01*
X100972000Y-156049000D01*
G75*
G02*
X101172000Y-155849000I200000J0D01*
G01*
X101572000Y-155849000D01*
G75*
G02*
X101772000Y-156049000I0J-200000D01*
G01*
X101772000Y-157524000D01*
G75*
G02*
X101572000Y-157724000I-200000J0D01*
G01*
G37*
G36*
G01*
X102222000Y-157724000D02*
X101822000Y-157724000D01*
G75*
G02*
X101622000Y-157524000I0J200000D01*
G01*
X101622000Y-156049000D01*
G75*
G02*
X101822000Y-155849000I200000J0D01*
G01*
X102222000Y-155849000D01*
G75*
G02*
X102422000Y-156049000I0J-200000D01*
G01*
X102422000Y-157524000D01*
G75*
G02*
X102222000Y-157724000I-200000J0D01*
G01*
G37*
G36*
G01*
X102872000Y-157724000D02*
X102472000Y-157724000D01*
G75*
G02*
X102272000Y-157524000I0J200000D01*
G01*
X102272000Y-156049000D01*
G75*
G02*
X102472000Y-155849000I200000J0D01*
G01*
X102872000Y-155849000D01*
G75*
G02*
X103072000Y-156049000I0J-200000D01*
G01*
X103072000Y-157524000D01*
G75*
G02*
X102872000Y-157724000I-200000J0D01*
G01*
G37*
G36*
G01*
X103522000Y-157724000D02*
X103122000Y-157724000D01*
G75*
G02*
X102922000Y-157524000I0J200000D01*
G01*
X102922000Y-156049000D01*
G75*
G02*
X103122000Y-155849000I200000J0D01*
G01*
X103522000Y-155849000D01*
G75*
G02*
X103722000Y-156049000I0J-200000D01*
G01*
X103722000Y-157524000D01*
G75*
G02*
X103522000Y-157724000I-200000J0D01*
G01*
G37*
G36*
G01*
X104172000Y-157724000D02*
X103772000Y-157724000D01*
G75*
G02*
X103572000Y-157524000I0J200000D01*
G01*
X103572000Y-156049000D01*
G75*
G02*
X103772000Y-155849000I200000J0D01*
G01*
X104172000Y-155849000D01*
G75*
G02*
X104372000Y-156049000I0J-200000D01*
G01*
X104372000Y-157524000D01*
G75*
G02*
X104172000Y-157724000I-200000J0D01*
G01*
G37*
G36*
G01*
X104822000Y-157724000D02*
X104422000Y-157724000D01*
G75*
G02*
X104222000Y-157524000I0J200000D01*
G01*
X104222000Y-156049000D01*
G75*
G02*
X104422000Y-155849000I200000J0D01*
G01*
X104822000Y-155849000D01*
G75*
G02*
X105022000Y-156049000I0J-200000D01*
G01*
X105022000Y-157524000D01*
G75*
G02*
X104822000Y-157724000I-200000J0D01*
G01*
G37*
G36*
G01*
X105472000Y-157724000D02*
X105072000Y-157724000D01*
G75*
G02*
X104872000Y-157524000I0J200000D01*
G01*
X104872000Y-156049000D01*
G75*
G02*
X105072000Y-155849000I200000J0D01*
G01*
X105472000Y-155849000D01*
G75*
G02*
X105672000Y-156049000I0J-200000D01*
G01*
X105672000Y-157524000D01*
G75*
G02*
X105472000Y-157724000I-200000J0D01*
G01*
G37*
G36*
G01*
X106122000Y-157724000D02*
X105722000Y-157724000D01*
G75*
G02*
X105522000Y-157524000I0J200000D01*
G01*
X105522000Y-156049000D01*
G75*
G02*
X105722000Y-155849000I200000J0D01*
G01*
X106122000Y-155849000D01*
G75*
G02*
X106322000Y-156049000I0J-200000D01*
G01*
X106322000Y-157524000D01*
G75*
G02*
X106122000Y-157724000I-200000J0D01*
G01*
G37*
G36*
G01*
X106122000Y-151999000D02*
X105722000Y-151999000D01*
G75*
G02*
X105522000Y-151799000I0J200000D01*
G01*
X105522000Y-150324000D01*
G75*
G02*
X105722000Y-150124000I200000J0D01*
G01*
X106122000Y-150124000D01*
G75*
G02*
X106322000Y-150324000I0J-200000D01*
G01*
X106322000Y-151799000D01*
G75*
G02*
X106122000Y-151999000I-200000J0D01*
G01*
G37*
G36*
G01*
X105472000Y-151999000D02*
X105072000Y-151999000D01*
G75*
G02*
X104872000Y-151799000I0J200000D01*
G01*
X104872000Y-150324000D01*
G75*
G02*
X105072000Y-150124000I200000J0D01*
G01*
X105472000Y-150124000D01*
G75*
G02*
X105672000Y-150324000I0J-200000D01*
G01*
X105672000Y-151799000D01*
G75*
G02*
X105472000Y-151999000I-200000J0D01*
G01*
G37*
G36*
G01*
X104822000Y-151999000D02*
X104422000Y-151999000D01*
G75*
G02*
X104222000Y-151799000I0J200000D01*
G01*
X104222000Y-150324000D01*
G75*
G02*
X104422000Y-150124000I200000J0D01*
G01*
X104822000Y-150124000D01*
G75*
G02*
X105022000Y-150324000I0J-200000D01*
G01*
X105022000Y-151799000D01*
G75*
G02*
X104822000Y-151999000I-200000J0D01*
G01*
G37*
G36*
G01*
X104172000Y-151999000D02*
X103772000Y-151999000D01*
G75*
G02*
X103572000Y-151799000I0J200000D01*
G01*
X103572000Y-150324000D01*
G75*
G02*
X103772000Y-150124000I200000J0D01*
G01*
X104172000Y-150124000D01*
G75*
G02*
X104372000Y-150324000I0J-200000D01*
G01*
X104372000Y-151799000D01*
G75*
G02*
X104172000Y-151999000I-200000J0D01*
G01*
G37*
G36*
G01*
X103522000Y-151999000D02*
X103122000Y-151999000D01*
G75*
G02*
X102922000Y-151799000I0J200000D01*
G01*
X102922000Y-150324000D01*
G75*
G02*
X103122000Y-150124000I200000J0D01*
G01*
X103522000Y-150124000D01*
G75*
G02*
X103722000Y-150324000I0J-200000D01*
G01*
X103722000Y-151799000D01*
G75*
G02*
X103522000Y-151999000I-200000J0D01*
G01*
G37*
G36*
G01*
X102872000Y-151999000D02*
X102472000Y-151999000D01*
G75*
G02*
X102272000Y-151799000I0J200000D01*
G01*
X102272000Y-150324000D01*
G75*
G02*
X102472000Y-150124000I200000J0D01*
G01*
X102872000Y-150124000D01*
G75*
G02*
X103072000Y-150324000I0J-200000D01*
G01*
X103072000Y-151799000D01*
G75*
G02*
X102872000Y-151999000I-200000J0D01*
G01*
G37*
G36*
G01*
X102222000Y-151999000D02*
X101822000Y-151999000D01*
G75*
G02*
X101622000Y-151799000I0J200000D01*
G01*
X101622000Y-150324000D01*
G75*
G02*
X101822000Y-150124000I200000J0D01*
G01*
X102222000Y-150124000D01*
G75*
G02*
X102422000Y-150324000I0J-200000D01*
G01*
X102422000Y-151799000D01*
G75*
G02*
X102222000Y-151999000I-200000J0D01*
G01*
G37*
G36*
G01*
X101572000Y-151999000D02*
X101172000Y-151999000D01*
G75*
G02*
X100972000Y-151799000I0J200000D01*
G01*
X100972000Y-150324000D01*
G75*
G02*
X101172000Y-150124000I200000J0D01*
G01*
X101572000Y-150124000D01*
G75*
G02*
X101772000Y-150324000I0J-200000D01*
G01*
X101772000Y-151799000D01*
G75*
G02*
X101572000Y-151999000I-200000J0D01*
G01*
G37*
G36*
G01*
X100922000Y-151999000D02*
X100522000Y-151999000D01*
G75*
G02*
X100322000Y-151799000I0J200000D01*
G01*
X100322000Y-150324000D01*
G75*
G02*
X100522000Y-150124000I200000J0D01*
G01*
X100922000Y-150124000D01*
G75*
G02*
X101122000Y-150324000I0J-200000D01*
G01*
X101122000Y-151799000D01*
G75*
G02*
X100922000Y-151999000I-200000J0D01*
G01*
G37*
G36*
G01*
X100272000Y-151999000D02*
X99872000Y-151999000D01*
G75*
G02*
X99672000Y-151799000I0J200000D01*
G01*
X99672000Y-150324000D01*
G75*
G02*
X99872000Y-150124000I200000J0D01*
G01*
X100272000Y-150124000D01*
G75*
G02*
X100472000Y-150324000I0J-200000D01*
G01*
X100472000Y-151799000D01*
G75*
G02*
X100272000Y-151999000I-200000J0D01*
G01*
G37*
G36*
G01*
X67506000Y-157724000D02*
X67106000Y-157724000D01*
G75*
G02*
X66906000Y-157524000I0J200000D01*
G01*
X66906000Y-156049000D01*
G75*
G02*
X67106000Y-155849000I200000J0D01*
G01*
X67506000Y-155849000D01*
G75*
G02*
X67706000Y-156049000I0J-200000D01*
G01*
X67706000Y-157524000D01*
G75*
G02*
X67506000Y-157724000I-200000J0D01*
G01*
G37*
G36*
G01*
X68156000Y-157724000D02*
X67756000Y-157724000D01*
G75*
G02*
X67556000Y-157524000I0J200000D01*
G01*
X67556000Y-156049000D01*
G75*
G02*
X67756000Y-155849000I200000J0D01*
G01*
X68156000Y-155849000D01*
G75*
G02*
X68356000Y-156049000I0J-200000D01*
G01*
X68356000Y-157524000D01*
G75*
G02*
X68156000Y-157724000I-200000J0D01*
G01*
G37*
G36*
G01*
X68806000Y-157724000D02*
X68406000Y-157724000D01*
G75*
G02*
X68206000Y-157524000I0J200000D01*
G01*
X68206000Y-156049000D01*
G75*
G02*
X68406000Y-155849000I200000J0D01*
G01*
X68806000Y-155849000D01*
G75*
G02*
X69006000Y-156049000I0J-200000D01*
G01*
X69006000Y-157524000D01*
G75*
G02*
X68806000Y-157724000I-200000J0D01*
G01*
G37*
G36*
G01*
X69456000Y-157724000D02*
X69056000Y-157724000D01*
G75*
G02*
X68856000Y-157524000I0J200000D01*
G01*
X68856000Y-156049000D01*
G75*
G02*
X69056000Y-155849000I200000J0D01*
G01*
X69456000Y-155849000D01*
G75*
G02*
X69656000Y-156049000I0J-200000D01*
G01*
X69656000Y-157524000D01*
G75*
G02*
X69456000Y-157724000I-200000J0D01*
G01*
G37*
G36*
G01*
X70106000Y-157724000D02*
X69706000Y-157724000D01*
G75*
G02*
X69506000Y-157524000I0J200000D01*
G01*
X69506000Y-156049000D01*
G75*
G02*
X69706000Y-155849000I200000J0D01*
G01*
X70106000Y-155849000D01*
G75*
G02*
X70306000Y-156049000I0J-200000D01*
G01*
X70306000Y-157524000D01*
G75*
G02*
X70106000Y-157724000I-200000J0D01*
G01*
G37*
G36*
G01*
X70756000Y-157724000D02*
X70356000Y-157724000D01*
G75*
G02*
X70156000Y-157524000I0J200000D01*
G01*
X70156000Y-156049000D01*
G75*
G02*
X70356000Y-155849000I200000J0D01*
G01*
X70756000Y-155849000D01*
G75*
G02*
X70956000Y-156049000I0J-200000D01*
G01*
X70956000Y-157524000D01*
G75*
G02*
X70756000Y-157724000I-200000J0D01*
G01*
G37*
G36*
G01*
X71406000Y-157724000D02*
X71006000Y-157724000D01*
G75*
G02*
X70806000Y-157524000I0J200000D01*
G01*
X70806000Y-156049000D01*
G75*
G02*
X71006000Y-155849000I200000J0D01*
G01*
X71406000Y-155849000D01*
G75*
G02*
X71606000Y-156049000I0J-200000D01*
G01*
X71606000Y-157524000D01*
G75*
G02*
X71406000Y-157724000I-200000J0D01*
G01*
G37*
G36*
G01*
X72056000Y-157724000D02*
X71656000Y-157724000D01*
G75*
G02*
X71456000Y-157524000I0J200000D01*
G01*
X71456000Y-156049000D01*
G75*
G02*
X71656000Y-155849000I200000J0D01*
G01*
X72056000Y-155849000D01*
G75*
G02*
X72256000Y-156049000I0J-200000D01*
G01*
X72256000Y-157524000D01*
G75*
G02*
X72056000Y-157724000I-200000J0D01*
G01*
G37*
G36*
G01*
X72706000Y-157724000D02*
X72306000Y-157724000D01*
G75*
G02*
X72106000Y-157524000I0J200000D01*
G01*
X72106000Y-156049000D01*
G75*
G02*
X72306000Y-155849000I200000J0D01*
G01*
X72706000Y-155849000D01*
G75*
G02*
X72906000Y-156049000I0J-200000D01*
G01*
X72906000Y-157524000D01*
G75*
G02*
X72706000Y-157724000I-200000J0D01*
G01*
G37*
G36*
G01*
X73356000Y-157724000D02*
X72956000Y-157724000D01*
G75*
G02*
X72756000Y-157524000I0J200000D01*
G01*
X72756000Y-156049000D01*
G75*
G02*
X72956000Y-155849000I200000J0D01*
G01*
X73356000Y-155849000D01*
G75*
G02*
X73556000Y-156049000I0J-200000D01*
G01*
X73556000Y-157524000D01*
G75*
G02*
X73356000Y-157724000I-200000J0D01*
G01*
G37*
G36*
G01*
X73356000Y-151999000D02*
X72956000Y-151999000D01*
G75*
G02*
X72756000Y-151799000I0J200000D01*
G01*
X72756000Y-150324000D01*
G75*
G02*
X72956000Y-150124000I200000J0D01*
G01*
X73356000Y-150124000D01*
G75*
G02*
X73556000Y-150324000I0J-200000D01*
G01*
X73556000Y-151799000D01*
G75*
G02*
X73356000Y-151999000I-200000J0D01*
G01*
G37*
G36*
G01*
X72706000Y-151999000D02*
X72306000Y-151999000D01*
G75*
G02*
X72106000Y-151799000I0J200000D01*
G01*
X72106000Y-150324000D01*
G75*
G02*
X72306000Y-150124000I200000J0D01*
G01*
X72706000Y-150124000D01*
G75*
G02*
X72906000Y-150324000I0J-200000D01*
G01*
X72906000Y-151799000D01*
G75*
G02*
X72706000Y-151999000I-200000J0D01*
G01*
G37*
G36*
G01*
X72056000Y-151999000D02*
X71656000Y-151999000D01*
G75*
G02*
X71456000Y-151799000I0J200000D01*
G01*
X71456000Y-150324000D01*
G75*
G02*
X71656000Y-150124000I200000J0D01*
G01*
X72056000Y-150124000D01*
G75*
G02*
X72256000Y-150324000I0J-200000D01*
G01*
X72256000Y-151799000D01*
G75*
G02*
X72056000Y-151999000I-200000J0D01*
G01*
G37*
G36*
G01*
X71406000Y-151999000D02*
X71006000Y-151999000D01*
G75*
G02*
X70806000Y-151799000I0J200000D01*
G01*
X70806000Y-150324000D01*
G75*
G02*
X71006000Y-150124000I200000J0D01*
G01*
X71406000Y-150124000D01*
G75*
G02*
X71606000Y-150324000I0J-200000D01*
G01*
X71606000Y-151799000D01*
G75*
G02*
X71406000Y-151999000I-200000J0D01*
G01*
G37*
G36*
G01*
X70756000Y-151999000D02*
X70356000Y-151999000D01*
G75*
G02*
X70156000Y-151799000I0J200000D01*
G01*
X70156000Y-150324000D01*
G75*
G02*
X70356000Y-150124000I200000J0D01*
G01*
X70756000Y-150124000D01*
G75*
G02*
X70956000Y-150324000I0J-200000D01*
G01*
X70956000Y-151799000D01*
G75*
G02*
X70756000Y-151999000I-200000J0D01*
G01*
G37*
G36*
G01*
X70106000Y-151999000D02*
X69706000Y-151999000D01*
G75*
G02*
X69506000Y-151799000I0J200000D01*
G01*
X69506000Y-150324000D01*
G75*
G02*
X69706000Y-150124000I200000J0D01*
G01*
X70106000Y-150124000D01*
G75*
G02*
X70306000Y-150324000I0J-200000D01*
G01*
X70306000Y-151799000D01*
G75*
G02*
X70106000Y-151999000I-200000J0D01*
G01*
G37*
G36*
G01*
X69456000Y-151999000D02*
X69056000Y-151999000D01*
G75*
G02*
X68856000Y-151799000I0J200000D01*
G01*
X68856000Y-150324000D01*
G75*
G02*
X69056000Y-150124000I200000J0D01*
G01*
X69456000Y-150124000D01*
G75*
G02*
X69656000Y-150324000I0J-200000D01*
G01*
X69656000Y-151799000D01*
G75*
G02*
X69456000Y-151999000I-200000J0D01*
G01*
G37*
G36*
G01*
X68806000Y-151999000D02*
X68406000Y-151999000D01*
G75*
G02*
X68206000Y-151799000I0J200000D01*
G01*
X68206000Y-150324000D01*
G75*
G02*
X68406000Y-150124000I200000J0D01*
G01*
X68806000Y-150124000D01*
G75*
G02*
X69006000Y-150324000I0J-200000D01*
G01*
X69006000Y-151799000D01*
G75*
G02*
X68806000Y-151999000I-200000J0D01*
G01*
G37*
G36*
G01*
X68156000Y-151999000D02*
X67756000Y-151999000D01*
G75*
G02*
X67556000Y-151799000I0J200000D01*
G01*
X67556000Y-150324000D01*
G75*
G02*
X67756000Y-150124000I200000J0D01*
G01*
X68156000Y-150124000D01*
G75*
G02*
X68356000Y-150324000I0J-200000D01*
G01*
X68356000Y-151799000D01*
G75*
G02*
X68156000Y-151999000I-200000J0D01*
G01*
G37*
G36*
G01*
X67506000Y-151999000D02*
X67106000Y-151999000D01*
G75*
G02*
X66906000Y-151799000I0J200000D01*
G01*
X66906000Y-150324000D01*
G75*
G02*
X67106000Y-150124000I200000J0D01*
G01*
X67506000Y-150124000D01*
G75*
G02*
X67706000Y-150324000I0J-200000D01*
G01*
X67706000Y-151799000D01*
G75*
G02*
X67506000Y-151999000I-200000J0D01*
G01*
G37*
G36*
G01*
X83762000Y-151999000D02*
X83362000Y-151999000D01*
G75*
G02*
X83162000Y-151799000I0J200000D01*
G01*
X83162000Y-150324000D01*
G75*
G02*
X83362000Y-150124000I200000J0D01*
G01*
X83762000Y-150124000D01*
G75*
G02*
X83962000Y-150324000I0J-200000D01*
G01*
X83962000Y-151799000D01*
G75*
G02*
X83762000Y-151999000I-200000J0D01*
G01*
G37*
G36*
G01*
X84412000Y-151999000D02*
X84012000Y-151999000D01*
G75*
G02*
X83812000Y-151799000I0J200000D01*
G01*
X83812000Y-150324000D01*
G75*
G02*
X84012000Y-150124000I200000J0D01*
G01*
X84412000Y-150124000D01*
G75*
G02*
X84612000Y-150324000I0J-200000D01*
G01*
X84612000Y-151799000D01*
G75*
G02*
X84412000Y-151999000I-200000J0D01*
G01*
G37*
G36*
G01*
X85062000Y-151999000D02*
X84662000Y-151999000D01*
G75*
G02*
X84462000Y-151799000I0J200000D01*
G01*
X84462000Y-150324000D01*
G75*
G02*
X84662000Y-150124000I200000J0D01*
G01*
X85062000Y-150124000D01*
G75*
G02*
X85262000Y-150324000I0J-200000D01*
G01*
X85262000Y-151799000D01*
G75*
G02*
X85062000Y-151999000I-200000J0D01*
G01*
G37*
G36*
G01*
X85712000Y-151999000D02*
X85312000Y-151999000D01*
G75*
G02*
X85112000Y-151799000I0J200000D01*
G01*
X85112000Y-150324000D01*
G75*
G02*
X85312000Y-150124000I200000J0D01*
G01*
X85712000Y-150124000D01*
G75*
G02*
X85912000Y-150324000I0J-200000D01*
G01*
X85912000Y-151799000D01*
G75*
G02*
X85712000Y-151999000I-200000J0D01*
G01*
G37*
G36*
G01*
X86362000Y-151999000D02*
X85962000Y-151999000D01*
G75*
G02*
X85762000Y-151799000I0J200000D01*
G01*
X85762000Y-150324000D01*
G75*
G02*
X85962000Y-150124000I200000J0D01*
G01*
X86362000Y-150124000D01*
G75*
G02*
X86562000Y-150324000I0J-200000D01*
G01*
X86562000Y-151799000D01*
G75*
G02*
X86362000Y-151999000I-200000J0D01*
G01*
G37*
G36*
G01*
X87012000Y-151999000D02*
X86612000Y-151999000D01*
G75*
G02*
X86412000Y-151799000I0J200000D01*
G01*
X86412000Y-150324000D01*
G75*
G02*
X86612000Y-150124000I200000J0D01*
G01*
X87012000Y-150124000D01*
G75*
G02*
X87212000Y-150324000I0J-200000D01*
G01*
X87212000Y-151799000D01*
G75*
G02*
X87012000Y-151999000I-200000J0D01*
G01*
G37*
G36*
G01*
X87662000Y-151999000D02*
X87262000Y-151999000D01*
G75*
G02*
X87062000Y-151799000I0J200000D01*
G01*
X87062000Y-150324000D01*
G75*
G02*
X87262000Y-150124000I200000J0D01*
G01*
X87662000Y-150124000D01*
G75*
G02*
X87862000Y-150324000I0J-200000D01*
G01*
X87862000Y-151799000D01*
G75*
G02*
X87662000Y-151999000I-200000J0D01*
G01*
G37*
G36*
G01*
X88312000Y-151999000D02*
X87912000Y-151999000D01*
G75*
G02*
X87712000Y-151799000I0J200000D01*
G01*
X87712000Y-150324000D01*
G75*
G02*
X87912000Y-150124000I200000J0D01*
G01*
X88312000Y-150124000D01*
G75*
G02*
X88512000Y-150324000I0J-200000D01*
G01*
X88512000Y-151799000D01*
G75*
G02*
X88312000Y-151999000I-200000J0D01*
G01*
G37*
G36*
G01*
X88962000Y-151999000D02*
X88562000Y-151999000D01*
G75*
G02*
X88362000Y-151799000I0J200000D01*
G01*
X88362000Y-150324000D01*
G75*
G02*
X88562000Y-150124000I200000J0D01*
G01*
X88962000Y-150124000D01*
G75*
G02*
X89162000Y-150324000I0J-200000D01*
G01*
X89162000Y-151799000D01*
G75*
G02*
X88962000Y-151999000I-200000J0D01*
G01*
G37*
G36*
G01*
X89612000Y-151999000D02*
X89212000Y-151999000D01*
G75*
G02*
X89012000Y-151799000I0J200000D01*
G01*
X89012000Y-150324000D01*
G75*
G02*
X89212000Y-150124000I200000J0D01*
G01*
X89612000Y-150124000D01*
G75*
G02*
X89812000Y-150324000I0J-200000D01*
G01*
X89812000Y-151799000D01*
G75*
G02*
X89612000Y-151999000I-200000J0D01*
G01*
G37*
G36*
G01*
X89612000Y-157724000D02*
X89212000Y-157724000D01*
G75*
G02*
X89012000Y-157524000I0J200000D01*
G01*
X89012000Y-156049000D01*
G75*
G02*
X89212000Y-155849000I200000J0D01*
G01*
X89612000Y-155849000D01*
G75*
G02*
X89812000Y-156049000I0J-200000D01*
G01*
X89812000Y-157524000D01*
G75*
G02*
X89612000Y-157724000I-200000J0D01*
G01*
G37*
G36*
G01*
X88962000Y-157724000D02*
X88562000Y-157724000D01*
G75*
G02*
X88362000Y-157524000I0J200000D01*
G01*
X88362000Y-156049000D01*
G75*
G02*
X88562000Y-155849000I200000J0D01*
G01*
X88962000Y-155849000D01*
G75*
G02*
X89162000Y-156049000I0J-200000D01*
G01*
X89162000Y-157524000D01*
G75*
G02*
X88962000Y-157724000I-200000J0D01*
G01*
G37*
G36*
G01*
X88312000Y-157724000D02*
X87912000Y-157724000D01*
G75*
G02*
X87712000Y-157524000I0J200000D01*
G01*
X87712000Y-156049000D01*
G75*
G02*
X87912000Y-155849000I200000J0D01*
G01*
X88312000Y-155849000D01*
G75*
G02*
X88512000Y-156049000I0J-200000D01*
G01*
X88512000Y-157524000D01*
G75*
G02*
X88312000Y-157724000I-200000J0D01*
G01*
G37*
G36*
G01*
X87662000Y-157724000D02*
X87262000Y-157724000D01*
G75*
G02*
X87062000Y-157524000I0J200000D01*
G01*
X87062000Y-156049000D01*
G75*
G02*
X87262000Y-155849000I200000J0D01*
G01*
X87662000Y-155849000D01*
G75*
G02*
X87862000Y-156049000I0J-200000D01*
G01*
X87862000Y-157524000D01*
G75*
G02*
X87662000Y-157724000I-200000J0D01*
G01*
G37*
G36*
G01*
X87012000Y-157724000D02*
X86612000Y-157724000D01*
G75*
G02*
X86412000Y-157524000I0J200000D01*
G01*
X86412000Y-156049000D01*
G75*
G02*
X86612000Y-155849000I200000J0D01*
G01*
X87012000Y-155849000D01*
G75*
G02*
X87212000Y-156049000I0J-200000D01*
G01*
X87212000Y-157524000D01*
G75*
G02*
X87012000Y-157724000I-200000J0D01*
G01*
G37*
G36*
G01*
X86362000Y-157724000D02*
X85962000Y-157724000D01*
G75*
G02*
X85762000Y-157524000I0J200000D01*
G01*
X85762000Y-156049000D01*
G75*
G02*
X85962000Y-155849000I200000J0D01*
G01*
X86362000Y-155849000D01*
G75*
G02*
X86562000Y-156049000I0J-200000D01*
G01*
X86562000Y-157524000D01*
G75*
G02*
X86362000Y-157724000I-200000J0D01*
G01*
G37*
G36*
G01*
X85712000Y-157724000D02*
X85312000Y-157724000D01*
G75*
G02*
X85112000Y-157524000I0J200000D01*
G01*
X85112000Y-156049000D01*
G75*
G02*
X85312000Y-155849000I200000J0D01*
G01*
X85712000Y-155849000D01*
G75*
G02*
X85912000Y-156049000I0J-200000D01*
G01*
X85912000Y-157524000D01*
G75*
G02*
X85712000Y-157724000I-200000J0D01*
G01*
G37*
G36*
G01*
X85062000Y-157724000D02*
X84662000Y-157724000D01*
G75*
G02*
X84462000Y-157524000I0J200000D01*
G01*
X84462000Y-156049000D01*
G75*
G02*
X84662000Y-155849000I200000J0D01*
G01*
X85062000Y-155849000D01*
G75*
G02*
X85262000Y-156049000I0J-200000D01*
G01*
X85262000Y-157524000D01*
G75*
G02*
X85062000Y-157724000I-200000J0D01*
G01*
G37*
G36*
G01*
X84412000Y-157724000D02*
X84012000Y-157724000D01*
G75*
G02*
X83812000Y-157524000I0J200000D01*
G01*
X83812000Y-156049000D01*
G75*
G02*
X84012000Y-155849000I200000J0D01*
G01*
X84412000Y-155849000D01*
G75*
G02*
X84612000Y-156049000I0J-200000D01*
G01*
X84612000Y-157524000D01*
G75*
G02*
X84412000Y-157724000I-200000J0D01*
G01*
G37*
G36*
G01*
X83762000Y-157724000D02*
X83362000Y-157724000D01*
G75*
G02*
X83162000Y-157524000I0J200000D01*
G01*
X83162000Y-156049000D01*
G75*
G02*
X83362000Y-155849000I200000J0D01*
G01*
X83762000Y-155849000D01*
G75*
G02*
X83962000Y-156049000I0J-200000D01*
G01*
X83962000Y-157524000D01*
G75*
G02*
X83762000Y-157724000I-200000J0D01*
G01*
G37*
G36*
G01*
X133419000Y-157724000D02*
X133019000Y-157724000D01*
G75*
G02*
X132819000Y-157524000I0J200000D01*
G01*
X132819000Y-156049000D01*
G75*
G02*
X133019000Y-155849000I200000J0D01*
G01*
X133419000Y-155849000D01*
G75*
G02*
X133619000Y-156049000I0J-200000D01*
G01*
X133619000Y-157524000D01*
G75*
G02*
X133419000Y-157724000I-200000J0D01*
G01*
G37*
G36*
G01*
X134069000Y-157724000D02*
X133669000Y-157724000D01*
G75*
G02*
X133469000Y-157524000I0J200000D01*
G01*
X133469000Y-156049000D01*
G75*
G02*
X133669000Y-155849000I200000J0D01*
G01*
X134069000Y-155849000D01*
G75*
G02*
X134269000Y-156049000I0J-200000D01*
G01*
X134269000Y-157524000D01*
G75*
G02*
X134069000Y-157724000I-200000J0D01*
G01*
G37*
G36*
G01*
X134719000Y-157724000D02*
X134319000Y-157724000D01*
G75*
G02*
X134119000Y-157524000I0J200000D01*
G01*
X134119000Y-156049000D01*
G75*
G02*
X134319000Y-155849000I200000J0D01*
G01*
X134719000Y-155849000D01*
G75*
G02*
X134919000Y-156049000I0J-200000D01*
G01*
X134919000Y-157524000D01*
G75*
G02*
X134719000Y-157724000I-200000J0D01*
G01*
G37*
G36*
G01*
X135369000Y-157724000D02*
X134969000Y-157724000D01*
G75*
G02*
X134769000Y-157524000I0J200000D01*
G01*
X134769000Y-156049000D01*
G75*
G02*
X134969000Y-155849000I200000J0D01*
G01*
X135369000Y-155849000D01*
G75*
G02*
X135569000Y-156049000I0J-200000D01*
G01*
X135569000Y-157524000D01*
G75*
G02*
X135369000Y-157724000I-200000J0D01*
G01*
G37*
G36*
G01*
X136019000Y-157724000D02*
X135619000Y-157724000D01*
G75*
G02*
X135419000Y-157524000I0J200000D01*
G01*
X135419000Y-156049000D01*
G75*
G02*
X135619000Y-155849000I200000J0D01*
G01*
X136019000Y-155849000D01*
G75*
G02*
X136219000Y-156049000I0J-200000D01*
G01*
X136219000Y-157524000D01*
G75*
G02*
X136019000Y-157724000I-200000J0D01*
G01*
G37*
G36*
G01*
X136669000Y-157724000D02*
X136269000Y-157724000D01*
G75*
G02*
X136069000Y-157524000I0J200000D01*
G01*
X136069000Y-156049000D01*
G75*
G02*
X136269000Y-155849000I200000J0D01*
G01*
X136669000Y-155849000D01*
G75*
G02*
X136869000Y-156049000I0J-200000D01*
G01*
X136869000Y-157524000D01*
G75*
G02*
X136669000Y-157724000I-200000J0D01*
G01*
G37*
G36*
G01*
X137319000Y-157724000D02*
X136919000Y-157724000D01*
G75*
G02*
X136719000Y-157524000I0J200000D01*
G01*
X136719000Y-156049000D01*
G75*
G02*
X136919000Y-155849000I200000J0D01*
G01*
X137319000Y-155849000D01*
G75*
G02*
X137519000Y-156049000I0J-200000D01*
G01*
X137519000Y-157524000D01*
G75*
G02*
X137319000Y-157724000I-200000J0D01*
G01*
G37*
G36*
G01*
X137969000Y-157724000D02*
X137569000Y-157724000D01*
G75*
G02*
X137369000Y-157524000I0J200000D01*
G01*
X137369000Y-156049000D01*
G75*
G02*
X137569000Y-155849000I200000J0D01*
G01*
X137969000Y-155849000D01*
G75*
G02*
X138169000Y-156049000I0J-200000D01*
G01*
X138169000Y-157524000D01*
G75*
G02*
X137969000Y-157724000I-200000J0D01*
G01*
G37*
G36*
G01*
X138619000Y-157724000D02*
X138219000Y-157724000D01*
G75*
G02*
X138019000Y-157524000I0J200000D01*
G01*
X138019000Y-156049000D01*
G75*
G02*
X138219000Y-155849000I200000J0D01*
G01*
X138619000Y-155849000D01*
G75*
G02*
X138819000Y-156049000I0J-200000D01*
G01*
X138819000Y-157524000D01*
G75*
G02*
X138619000Y-157724000I-200000J0D01*
G01*
G37*
G36*
G01*
X139269000Y-157724000D02*
X138869000Y-157724000D01*
G75*
G02*
X138669000Y-157524000I0J200000D01*
G01*
X138669000Y-156049000D01*
G75*
G02*
X138869000Y-155849000I200000J0D01*
G01*
X139269000Y-155849000D01*
G75*
G02*
X139469000Y-156049000I0J-200000D01*
G01*
X139469000Y-157524000D01*
G75*
G02*
X139269000Y-157724000I-200000J0D01*
G01*
G37*
G36*
G01*
X139269000Y-151999000D02*
X138869000Y-151999000D01*
G75*
G02*
X138669000Y-151799000I0J200000D01*
G01*
X138669000Y-150324000D01*
G75*
G02*
X138869000Y-150124000I200000J0D01*
G01*
X139269000Y-150124000D01*
G75*
G02*
X139469000Y-150324000I0J-200000D01*
G01*
X139469000Y-151799000D01*
G75*
G02*
X139269000Y-151999000I-200000J0D01*
G01*
G37*
G36*
G01*
X138619000Y-151999000D02*
X138219000Y-151999000D01*
G75*
G02*
X138019000Y-151799000I0J200000D01*
G01*
X138019000Y-150324000D01*
G75*
G02*
X138219000Y-150124000I200000J0D01*
G01*
X138619000Y-150124000D01*
G75*
G02*
X138819000Y-150324000I0J-200000D01*
G01*
X138819000Y-151799000D01*
G75*
G02*
X138619000Y-151999000I-200000J0D01*
G01*
G37*
G36*
G01*
X137969000Y-151999000D02*
X137569000Y-151999000D01*
G75*
G02*
X137369000Y-151799000I0J200000D01*
G01*
X137369000Y-150324000D01*
G75*
G02*
X137569000Y-150124000I200000J0D01*
G01*
X137969000Y-150124000D01*
G75*
G02*
X138169000Y-150324000I0J-200000D01*
G01*
X138169000Y-151799000D01*
G75*
G02*
X137969000Y-151999000I-200000J0D01*
G01*
G37*
G36*
G01*
X137319000Y-151999000D02*
X136919000Y-151999000D01*
G75*
G02*
X136719000Y-151799000I0J200000D01*
G01*
X136719000Y-150324000D01*
G75*
G02*
X136919000Y-150124000I200000J0D01*
G01*
X137319000Y-150124000D01*
G75*
G02*
X137519000Y-150324000I0J-200000D01*
G01*
X137519000Y-151799000D01*
G75*
G02*
X137319000Y-151999000I-200000J0D01*
G01*
G37*
G36*
G01*
X136669000Y-151999000D02*
X136269000Y-151999000D01*
G75*
G02*
X136069000Y-151799000I0J200000D01*
G01*
X136069000Y-150324000D01*
G75*
G02*
X136269000Y-150124000I200000J0D01*
G01*
X136669000Y-150124000D01*
G75*
G02*
X136869000Y-150324000I0J-200000D01*
G01*
X136869000Y-151799000D01*
G75*
G02*
X136669000Y-151999000I-200000J0D01*
G01*
G37*
G36*
G01*
X136019000Y-151999000D02*
X135619000Y-151999000D01*
G75*
G02*
X135419000Y-151799000I0J200000D01*
G01*
X135419000Y-150324000D01*
G75*
G02*
X135619000Y-150124000I200000J0D01*
G01*
X136019000Y-150124000D01*
G75*
G02*
X136219000Y-150324000I0J-200000D01*
G01*
X136219000Y-151799000D01*
G75*
G02*
X136019000Y-151999000I-200000J0D01*
G01*
G37*
G36*
G01*
X135369000Y-151999000D02*
X134969000Y-151999000D01*
G75*
G02*
X134769000Y-151799000I0J200000D01*
G01*
X134769000Y-150324000D01*
G75*
G02*
X134969000Y-150124000I200000J0D01*
G01*
X135369000Y-150124000D01*
G75*
G02*
X135569000Y-150324000I0J-200000D01*
G01*
X135569000Y-151799000D01*
G75*
G02*
X135369000Y-151999000I-200000J0D01*
G01*
G37*
G36*
G01*
X134719000Y-151999000D02*
X134319000Y-151999000D01*
G75*
G02*
X134119000Y-151799000I0J200000D01*
G01*
X134119000Y-150324000D01*
G75*
G02*
X134319000Y-150124000I200000J0D01*
G01*
X134719000Y-150124000D01*
G75*
G02*
X134919000Y-150324000I0J-200000D01*
G01*
X134919000Y-151799000D01*
G75*
G02*
X134719000Y-151999000I-200000J0D01*
G01*
G37*
G36*
G01*
X134069000Y-151999000D02*
X133669000Y-151999000D01*
G75*
G02*
X133469000Y-151799000I0J200000D01*
G01*
X133469000Y-150324000D01*
G75*
G02*
X133669000Y-150124000I200000J0D01*
G01*
X134069000Y-150124000D01*
G75*
G02*
X134269000Y-150324000I0J-200000D01*
G01*
X134269000Y-151799000D01*
G75*
G02*
X134069000Y-151999000I-200000J0D01*
G01*
G37*
G36*
G01*
X133419000Y-151999000D02*
X133019000Y-151999000D01*
G75*
G02*
X132819000Y-151799000I0J200000D01*
G01*
X132819000Y-150324000D01*
G75*
G02*
X133019000Y-150124000I200000J0D01*
G01*
X133419000Y-150124000D01*
G75*
G02*
X133619000Y-150324000I0J-200000D01*
G01*
X133619000Y-151799000D01*
G75*
G02*
X133419000Y-151999000I-200000J0D01*
G01*
G37*
G36*
G01*
X147217750Y-152296000D02*
X147930250Y-152296000D01*
G75*
G02*
X148249000Y-152614750I0J-318750D01*
G01*
X148249000Y-153252250D01*
G75*
G02*
X147930250Y-153571000I-318750J0D01*
G01*
X147217750Y-153571000D01*
G75*
G02*
X146899000Y-153252250I0J318750D01*
G01*
X146899000Y-152614750D01*
G75*
G02*
X147217750Y-152296000I318750J0D01*
G01*
G37*
G36*
G01*
X147217750Y-150721000D02*
X147930250Y-150721000D01*
G75*
G02*
X148249000Y-151039750I0J-318750D01*
G01*
X148249000Y-151677250D01*
G75*
G02*
X147930250Y-151996000I-318750J0D01*
G01*
X147217750Y-151996000D01*
G75*
G02*
X146899000Y-151677250I0J318750D01*
G01*
X146899000Y-151039750D01*
G75*
G02*
X147217750Y-150721000I318750J0D01*
G01*
G37*
G36*
G01*
X156488750Y-150721000D02*
X157201250Y-150721000D01*
G75*
G02*
X157520000Y-151039750I0J-318750D01*
G01*
X157520000Y-151677250D01*
G75*
G02*
X157201250Y-151996000I-318750J0D01*
G01*
X156488750Y-151996000D01*
G75*
G02*
X156170000Y-151677250I0J318750D01*
G01*
X156170000Y-151039750D01*
G75*
G02*
X156488750Y-150721000I318750J0D01*
G01*
G37*
G36*
G01*
X156488750Y-152296000D02*
X157201250Y-152296000D01*
G75*
G02*
X157520000Y-152614750I0J-318750D01*
G01*
X157520000Y-153252250D01*
G75*
G02*
X157201250Y-153571000I-318750J0D01*
G01*
X156488750Y-153571000D01*
G75*
G02*
X156170000Y-153252250I0J318750D01*
G01*
X156170000Y-152614750D01*
G75*
G02*
X156488750Y-152296000I318750J0D01*
G01*
G37*
G36*
G01*
X65048750Y-152042000D02*
X65761250Y-152042000D01*
G75*
G02*
X66080000Y-152360750I0J-318750D01*
G01*
X66080000Y-152998250D01*
G75*
G02*
X65761250Y-153317000I-318750J0D01*
G01*
X65048750Y-153317000D01*
G75*
G02*
X64730000Y-152998250I0J318750D01*
G01*
X64730000Y-152360750D01*
G75*
G02*
X65048750Y-152042000I318750J0D01*
G01*
G37*
G36*
G01*
X65048750Y-150467000D02*
X65761250Y-150467000D01*
G75*
G02*
X66080000Y-150785750I0J-318750D01*
G01*
X66080000Y-151423250D01*
G75*
G02*
X65761250Y-151742000I-318750J0D01*
G01*
X65048750Y-151742000D01*
G75*
G02*
X64730000Y-151423250I0J318750D01*
G01*
X64730000Y-150785750D01*
G75*
G02*
X65048750Y-150467000I318750J0D01*
G01*
G37*
G36*
G01*
X81304750Y-150467000D02*
X82017250Y-150467000D01*
G75*
G02*
X82336000Y-150785750I0J-318750D01*
G01*
X82336000Y-151423250D01*
G75*
G02*
X82017250Y-151742000I-318750J0D01*
G01*
X81304750Y-151742000D01*
G75*
G02*
X80986000Y-151423250I0J318750D01*
G01*
X80986000Y-150785750D01*
G75*
G02*
X81304750Y-150467000I318750J0D01*
G01*
G37*
G36*
G01*
X81304750Y-152042000D02*
X82017250Y-152042000D01*
G75*
G02*
X82336000Y-152360750I0J-318750D01*
G01*
X82336000Y-152998250D01*
G75*
G02*
X82017250Y-153317000I-318750J0D01*
G01*
X81304750Y-153317000D01*
G75*
G02*
X80986000Y-152998250I0J318750D01*
G01*
X80986000Y-152360750D01*
G75*
G02*
X81304750Y-152042000I318750J0D01*
G01*
G37*
G36*
G01*
X97814750Y-152042000D02*
X98527250Y-152042000D01*
G75*
G02*
X98846000Y-152360750I0J-318750D01*
G01*
X98846000Y-152998250D01*
G75*
G02*
X98527250Y-153317000I-318750J0D01*
G01*
X97814750Y-153317000D01*
G75*
G02*
X97496000Y-152998250I0J318750D01*
G01*
X97496000Y-152360750D01*
G75*
G02*
X97814750Y-152042000I318750J0D01*
G01*
G37*
G36*
G01*
X97814750Y-150467000D02*
X98527250Y-150467000D01*
G75*
G02*
X98846000Y-150785750I0J-318750D01*
G01*
X98846000Y-151423250D01*
G75*
G02*
X98527250Y-151742000I-318750J0D01*
G01*
X97814750Y-151742000D01*
G75*
G02*
X97496000Y-151423250I0J318750D01*
G01*
X97496000Y-150785750D01*
G75*
G02*
X97814750Y-150467000I318750J0D01*
G01*
G37*
G36*
G01*
X114578750Y-150467000D02*
X115291250Y-150467000D01*
G75*
G02*
X115610000Y-150785750I0J-318750D01*
G01*
X115610000Y-151423250D01*
G75*
G02*
X115291250Y-151742000I-318750J0D01*
G01*
X114578750Y-151742000D01*
G75*
G02*
X114260000Y-151423250I0J318750D01*
G01*
X114260000Y-150785750D01*
G75*
G02*
X114578750Y-150467000I318750J0D01*
G01*
G37*
G36*
G01*
X114578750Y-152042000D02*
X115291250Y-152042000D01*
G75*
G02*
X115610000Y-152360750I0J-318750D01*
G01*
X115610000Y-152998250D01*
G75*
G02*
X115291250Y-153317000I-318750J0D01*
G01*
X114578750Y-153317000D01*
G75*
G02*
X114260000Y-152998250I0J318750D01*
G01*
X114260000Y-152360750D01*
G75*
G02*
X114578750Y-152042000I318750J0D01*
G01*
G37*
G36*
G01*
X130961750Y-152042000D02*
X131674250Y-152042000D01*
G75*
G02*
X131993000Y-152360750I0J-318750D01*
G01*
X131993000Y-152998250D01*
G75*
G02*
X131674250Y-153317000I-318750J0D01*
G01*
X130961750Y-153317000D01*
G75*
G02*
X130643000Y-152998250I0J318750D01*
G01*
X130643000Y-152360750D01*
G75*
G02*
X130961750Y-152042000I318750J0D01*
G01*
G37*
G36*
G01*
X130961750Y-150467000D02*
X131674250Y-150467000D01*
G75*
G02*
X131993000Y-150785750I0J-318750D01*
G01*
X131993000Y-151423250D01*
G75*
G02*
X131674250Y-151742000I-318750J0D01*
G01*
X130961750Y-151742000D01*
G75*
G02*
X130643000Y-151423250I0J318750D01*
G01*
X130643000Y-150785750D01*
G75*
G02*
X130961750Y-150467000I318750J0D01*
G01*
G37*
G36*
G01*
X142206000Y-152361000D02*
X142206000Y-150661000D01*
G75*
G02*
X142406000Y-150461000I200000J0D01*
G01*
X144106000Y-150461000D01*
G75*
G02*
X144306000Y-150661000I0J-200000D01*
G01*
X144306000Y-152361000D01*
G75*
G02*
X144106000Y-152561000I-200000J0D01*
G01*
X142406000Y-152561000D01*
G75*
G02*
X142206000Y-152361000I0J200000D01*
G01*
G37*
D10*
X143256000Y-154051000D03*
X143256000Y-156591000D03*
G36*
G01*
X150246000Y-156484000D02*
X154046000Y-156484000D01*
G75*
G02*
X154246000Y-156684000I0J-200000D01*
G01*
X154246000Y-158684000D01*
G75*
G02*
X154046000Y-158884000I-200000J0D01*
G01*
X150246000Y-158884000D01*
G75*
G02*
X150046000Y-158684000I0J200000D01*
G01*
X150046000Y-156684000D01*
G75*
G02*
X150246000Y-156484000I200000J0D01*
G01*
G37*
G36*
G01*
X151396000Y-150184000D02*
X152896000Y-150184000D01*
G75*
G02*
X153096000Y-150384000I0J-200000D01*
G01*
X153096000Y-152384000D01*
G75*
G02*
X152896000Y-152584000I-200000J0D01*
G01*
X151396000Y-152584000D01*
G75*
G02*
X151196000Y-152384000I0J200000D01*
G01*
X151196000Y-150384000D01*
G75*
G02*
X151396000Y-150184000I200000J0D01*
G01*
G37*
G36*
G01*
X149096000Y-150184000D02*
X150596000Y-150184000D01*
G75*
G02*
X150796000Y-150384000I0J-200000D01*
G01*
X150796000Y-152384000D01*
G75*
G02*
X150596000Y-152584000I-200000J0D01*
G01*
X149096000Y-152584000D01*
G75*
G02*
X148896000Y-152384000I0J200000D01*
G01*
X148896000Y-150384000D01*
G75*
G02*
X149096000Y-150184000I200000J0D01*
G01*
G37*
G36*
G01*
X153696000Y-150184000D02*
X155196000Y-150184000D01*
G75*
G02*
X155396000Y-150384000I0J-200000D01*
G01*
X155396000Y-152384000D01*
G75*
G02*
X155196000Y-152584000I-200000J0D01*
G01*
X153696000Y-152584000D01*
G75*
G02*
X153496000Y-152384000I0J200000D01*
G01*
X153496000Y-150384000D01*
G75*
G02*
X153696000Y-150184000I200000J0D01*
G01*
G37*
G36*
G01*
X103212000Y-161832000D02*
X101512000Y-161832000D01*
G75*
G02*
X101312000Y-161632000I0J200000D01*
G01*
X101312000Y-159932000D01*
G75*
G02*
X101512000Y-159732000I200000J0D01*
G01*
X103212000Y-159732000D01*
G75*
G02*
X103412000Y-159932000I0J-200000D01*
G01*
X103412000Y-161632000D01*
G75*
G02*
X103212000Y-161832000I-200000J0D01*
G01*
G37*
X104902000Y-160782000D03*
X107442000Y-160782000D03*
X109982000Y-160782000D03*
X112522000Y-160782000D03*
X115062000Y-160782000D03*
X117602000Y-160782000D03*
X120142000Y-160782000D03*
X122682000Y-160782000D03*
X125222000Y-160782000D03*
G36*
G01*
X62572000Y-164372000D02*
X60872000Y-164372000D01*
G75*
G02*
X60672000Y-164172000I0J200000D01*
G01*
X60672000Y-162472000D01*
G75*
G02*
X60872000Y-162272000I200000J0D01*
G01*
X62572000Y-162272000D01*
G75*
G02*
X62772000Y-162472000I0J-200000D01*
G01*
X62772000Y-164172000D01*
G75*
G02*
X62572000Y-164372000I-200000J0D01*
G01*
G37*
X64262000Y-163322000D03*
X66802000Y-163322000D03*
X69342000Y-163322000D03*
X71882000Y-163322000D03*
X74422000Y-163322000D03*
X76962000Y-163322000D03*
X79502000Y-163322000D03*
X82042000Y-163322000D03*
X84582000Y-163322000D03*
X87122000Y-163322000D03*
X89662000Y-163322000D03*
X92202000Y-163322000D03*
X94742000Y-163322000D03*
X97282000Y-163322000D03*
X99822000Y-163322000D03*
X102362000Y-163322000D03*
X104902000Y-163322000D03*
X107442000Y-163322000D03*
X109982000Y-163322000D03*
X112522000Y-163322000D03*
X115062000Y-163322000D03*
X117602000Y-163322000D03*
X120142000Y-163322000D03*
X122682000Y-163322000D03*
X125222000Y-163322000D03*
X127762000Y-163322000D03*
X130302000Y-163322000D03*
X132842000Y-163322000D03*
X135382000Y-163322000D03*
X137922000Y-163322000D03*
X140462000Y-163322000D03*
X143002000Y-163322000D03*
X145542000Y-163322000D03*
X148082000Y-163322000D03*
X150622000Y-163322000D03*
X153162000Y-163322000D03*
X155702000Y-163322000D03*
X158242000Y-163322000D03*
G36*
G01*
X65634250Y-157635000D02*
X64921750Y-157635000D01*
G75*
G02*
X64603000Y-157316250I0J318750D01*
G01*
X64603000Y-156678750D01*
G75*
G02*
X64921750Y-156360000I318750J0D01*
G01*
X65634250Y-156360000D01*
G75*
G02*
X65953000Y-156678750I0J-318750D01*
G01*
X65953000Y-157316250D01*
G75*
G02*
X65634250Y-157635000I-318750J0D01*
G01*
G37*
G36*
G01*
X65634250Y-156060000D02*
X64921750Y-156060000D01*
G75*
G02*
X64603000Y-155741250I0J318750D01*
G01*
X64603000Y-155103750D01*
G75*
G02*
X64921750Y-154785000I318750J0D01*
G01*
X65634250Y-154785000D01*
G75*
G02*
X65953000Y-155103750I0J-318750D01*
G01*
X65953000Y-155741250D01*
G75*
G02*
X65634250Y-156060000I-318750J0D01*
G01*
G37*
G36*
G01*
X66382000Y-144687000D02*
X64682000Y-144687000D01*
G75*
G02*
X64482000Y-144487000I0J200000D01*
G01*
X64482000Y-142787000D01*
G75*
G02*
X64682000Y-142587000I200000J0D01*
G01*
X66382000Y-142587000D01*
G75*
G02*
X66582000Y-142787000I0J-200000D01*
G01*
X66582000Y-144487000D01*
G75*
G02*
X66382000Y-144687000I-200000J0D01*
G01*
G37*
X65532000Y-146177000D03*
X68072000Y-143637000D03*
X68072000Y-146177000D03*
X70612000Y-143637000D03*
X70612000Y-146177000D03*
X73152000Y-143637000D03*
X73152000Y-146177000D03*
X75692000Y-143637000D03*
X75692000Y-146177000D03*
X78232000Y-143637000D03*
X78232000Y-146177000D03*
X80772000Y-143637000D03*
X80772000Y-146177000D03*
X83312000Y-143637000D03*
X83312000Y-146177000D03*
X85852000Y-143637000D03*
X85852000Y-146177000D03*
X88392000Y-143637000D03*
X88392000Y-146177000D03*
X90932000Y-143637000D03*
X90932000Y-146177000D03*
X93472000Y-143637000D03*
X93472000Y-146177000D03*
X96012000Y-143637000D03*
X96012000Y-146177000D03*
X98552000Y-143637000D03*
X98552000Y-146177000D03*
X101092000Y-143637000D03*
X101092000Y-146177000D03*
X103632000Y-143637000D03*
X103632000Y-146177000D03*
X106172000Y-143637000D03*
X106172000Y-146177000D03*
X108712000Y-143637000D03*
X108712000Y-146177000D03*
X111252000Y-143637000D03*
X111252000Y-146177000D03*
X113792000Y-143637000D03*
X113792000Y-146177000D03*
X116332000Y-143637000D03*
X116332000Y-146177000D03*
X118872000Y-143637000D03*
X118872000Y-146177000D03*
X121412000Y-143637000D03*
X121412000Y-146177000D03*
X123952000Y-143637000D03*
X123952000Y-146177000D03*
X126492000Y-143637000D03*
X126492000Y-146177000D03*
G36*
G01*
X134962000Y-146719000D02*
X133262000Y-146719000D01*
G75*
G02*
X133062000Y-146519000I0J200000D01*
G01*
X133062000Y-144819000D01*
G75*
G02*
X133262000Y-144619000I200000J0D01*
G01*
X134962000Y-144619000D01*
G75*
G02*
X135162000Y-144819000I0J-200000D01*
G01*
X135162000Y-146519000D01*
G75*
G02*
X134962000Y-146719000I-200000J0D01*
G01*
G37*
X136652000Y-145669000D03*
M02*
