G04 #@! TF.GenerationSoftware,KiCad,Pcbnew,5.1.7*
G04 #@! TF.CreationDate,2020-10-22T00:02:30+01:00*
G04 #@! TF.ProjectId,rc2014-icecore,72633230-3134-42d6-9963-65636f72652e,1*
G04 #@! TF.SameCoordinates,Original*
G04 #@! TF.FileFunction,Copper,L1,Top*
G04 #@! TF.FilePolarity,Positive*
%FSLAX46Y46*%
G04 Gerber Fmt 4.6, Leading zero omitted, Abs format (unit mm)*
G04 Created by KiCad (PCBNEW 5.1.7) date 2020-10-22 00:02:30*
%MOMM*%
%LPD*%
G01*
G04 APERTURE LIST*
G04 #@! TA.AperFunction,ComponentPad*
%ADD10C,3.516000*%
G04 #@! TD*
G04 #@! TA.AperFunction,SMDPad,CuDef*
%ADD11R,0.635000X1.905000*%
G04 #@! TD*
G04 #@! TA.AperFunction,ComponentPad*
%ADD12R,1.700000X1.700000*%
G04 #@! TD*
G04 #@! TA.AperFunction,ComponentPad*
%ADD13O,1.700000X1.700000*%
G04 #@! TD*
G04 #@! TA.AperFunction,ViaPad*
%ADD14C,0.685800*%
G04 #@! TD*
G04 #@! TA.AperFunction,Conductor*
%ADD15C,0.254000*%
G04 #@! TD*
G04 #@! TA.AperFunction,Conductor*
%ADD16C,0.381000*%
G04 #@! TD*
G04 APERTURE END LIST*
D10*
X77068000Y-107167000D03*
X122068000Y-107167000D03*
X77068000Y-152167000D03*
X122068000Y-152167000D03*
D11*
X84328000Y-106262000D03*
X85598000Y-106262000D03*
X86868000Y-106262000D03*
X88138000Y-106262000D03*
X89408000Y-106262000D03*
X90678000Y-106262000D03*
X91948000Y-106262000D03*
X93218000Y-106262000D03*
X94488000Y-106262000D03*
X95758000Y-106262000D03*
X97028000Y-106262000D03*
X98298000Y-106262000D03*
X99568000Y-106262000D03*
X100838000Y-106262000D03*
X102108000Y-106262000D03*
X103378000Y-106262000D03*
X104648000Y-106262000D03*
X105918000Y-106262000D03*
X107188000Y-106262000D03*
X108458000Y-106262000D03*
X109728000Y-106262000D03*
X110998000Y-106262000D03*
X112268000Y-106262000D03*
X113538000Y-106262000D03*
X114808000Y-106262000D03*
X84328000Y-110072000D03*
X85598000Y-110072000D03*
X86868000Y-110072000D03*
X88138000Y-110072000D03*
X89408000Y-110072000D03*
X90678000Y-110072000D03*
X91948000Y-110072000D03*
X93218000Y-110072000D03*
X94488000Y-110072000D03*
X95758000Y-110072000D03*
X97028000Y-110072000D03*
X98298000Y-110072000D03*
X99568000Y-110072000D03*
X100838000Y-110072000D03*
X102108000Y-110072000D03*
X103378000Y-110072000D03*
X104648000Y-110072000D03*
X105918000Y-110072000D03*
X107188000Y-110072000D03*
X108458000Y-110072000D03*
X109728000Y-110072000D03*
X110998000Y-110072000D03*
X112268000Y-110072000D03*
X113538000Y-110072000D03*
X114808000Y-110072000D03*
X84328000Y-149262000D03*
X85598000Y-149262000D03*
X86868000Y-149262000D03*
X88138000Y-149262000D03*
X89408000Y-149262000D03*
X90678000Y-149262000D03*
X91948000Y-149262000D03*
X93218000Y-149262000D03*
X94488000Y-149262000D03*
X95758000Y-149262000D03*
X97028000Y-149262000D03*
X98298000Y-149262000D03*
X99568000Y-149262000D03*
X100838000Y-149262000D03*
X102108000Y-149262000D03*
X103378000Y-149262000D03*
X104648000Y-149262000D03*
X105918000Y-149262000D03*
X107188000Y-149262000D03*
X108458000Y-149262000D03*
X109728000Y-149262000D03*
X110998000Y-149262000D03*
X112268000Y-149262000D03*
X113538000Y-149262000D03*
X114808000Y-149262000D03*
X84328000Y-153072000D03*
X85598000Y-153072000D03*
X86868000Y-153072000D03*
X88138000Y-153072000D03*
X89408000Y-153072000D03*
X90678000Y-153072000D03*
X91948000Y-153072000D03*
X93218000Y-153072000D03*
X94488000Y-153072000D03*
X95758000Y-153072000D03*
X97028000Y-153072000D03*
X98298000Y-153072000D03*
X99568000Y-153072000D03*
X100838000Y-153072000D03*
X102108000Y-153072000D03*
X103378000Y-153072000D03*
X104648000Y-153072000D03*
X105918000Y-153072000D03*
X107188000Y-153072000D03*
X108458000Y-153072000D03*
X109728000Y-153072000D03*
X110998000Y-153072000D03*
X112268000Y-153072000D03*
X113538000Y-153072000D03*
X114808000Y-153072000D03*
D12*
X65532000Y-161290000D03*
D13*
X65532000Y-158750000D03*
X68072000Y-161290000D03*
X68072000Y-158750000D03*
X70612000Y-161290000D03*
X70612000Y-158750000D03*
X73152000Y-161290000D03*
X73152000Y-158750000D03*
X75692000Y-161290000D03*
X75692000Y-158750000D03*
X78232000Y-161290000D03*
X78232000Y-158750000D03*
X80772000Y-161290000D03*
X80772000Y-158750000D03*
X83312000Y-161290000D03*
X83312000Y-158750000D03*
X85852000Y-161290000D03*
X85852000Y-158750000D03*
X88392000Y-161290000D03*
X88392000Y-158750000D03*
X90932000Y-161290000D03*
X90932000Y-158750000D03*
X93472000Y-161290000D03*
X93472000Y-158750000D03*
X96012000Y-161290000D03*
X96012000Y-158750000D03*
X98552000Y-161290000D03*
X98552000Y-158750000D03*
X101092000Y-161290000D03*
X101092000Y-158750000D03*
X103632000Y-161290000D03*
X103632000Y-158750000D03*
X106172000Y-161290000D03*
X106172000Y-158750000D03*
X108712000Y-161290000D03*
X108712000Y-158750000D03*
X111252000Y-161290000D03*
X111252000Y-158750000D03*
X113792000Y-161290000D03*
X113792000Y-158750000D03*
X116332000Y-161290000D03*
X116332000Y-158750000D03*
X118872000Y-161290000D03*
X118872000Y-158750000D03*
X121412000Y-161290000D03*
X121412000Y-158750000D03*
X123952000Y-161290000D03*
X123952000Y-158750000D03*
X126492000Y-161290000D03*
X126492000Y-158750000D03*
D12*
X126746000Y-148844000D03*
D13*
X129286000Y-148844000D03*
X126746000Y-146304000D03*
X129286000Y-146304000D03*
X126746000Y-143764000D03*
X129286000Y-143764000D03*
X126746000Y-141224000D03*
X129286000Y-141224000D03*
X126746000Y-138684000D03*
X129286000Y-138684000D03*
X126746000Y-136144000D03*
X129286000Y-136144000D03*
X126746000Y-133604000D03*
X129286000Y-133604000D03*
X126746000Y-131064000D03*
X129286000Y-131064000D03*
X126746000Y-128524000D03*
X129286000Y-128524000D03*
X126746000Y-125984000D03*
X129286000Y-125984000D03*
X126746000Y-123444000D03*
X129286000Y-123444000D03*
X126746000Y-120904000D03*
X129286000Y-120904000D03*
X126746000Y-118364000D03*
X129286000Y-118364000D03*
X126746000Y-115824000D03*
X129286000Y-115824000D03*
X126746000Y-113284000D03*
X129286000Y-113284000D03*
D12*
X64643000Y-154000000D03*
D13*
X62103000Y-154000000D03*
X64643000Y-151460000D03*
X62103000Y-151460000D03*
X64643000Y-148920000D03*
X62103000Y-148920000D03*
X64643000Y-146380000D03*
X62103000Y-146380000D03*
X64643000Y-143840000D03*
X62103000Y-143840000D03*
X64643000Y-141300000D03*
X62103000Y-141300000D03*
X64643000Y-138760000D03*
X62103000Y-138760000D03*
X64643000Y-136220000D03*
X62103000Y-136220000D03*
X64643000Y-133680000D03*
X62103000Y-133680000D03*
X64643000Y-131140000D03*
X62103000Y-131140000D03*
X64643000Y-128600000D03*
X62103000Y-128600000D03*
X64643000Y-126060000D03*
X62103000Y-126060000D03*
X64643000Y-123520000D03*
X62103000Y-123520000D03*
D14*
X84255600Y-154519900D03*
X116611400Y-106273600D03*
X112064800Y-138404600D03*
X101269800Y-155346400D03*
X86853700Y-154537300D03*
X86673100Y-155939600D03*
X78054000Y-155097400D03*
X71407900Y-154664400D03*
X97231200Y-115773200D03*
X97053400Y-111658400D03*
X99268236Y-146118853D03*
X100812591Y-146178218D03*
X120043070Y-121786750D03*
X81091600Y-149359800D03*
X81269800Y-147945800D03*
X97078802Y-147396200D03*
X97249655Y-150866354D03*
X98882200Y-150799800D03*
X98444311Y-151587896D03*
X100812600Y-150850600D03*
X83438600Y-148577341D03*
X89027000Y-151522632D03*
X88001571Y-151310133D03*
X87274286Y-150893412D03*
X95707201Y-152274491D03*
X96935392Y-154472299D03*
X96254366Y-155163666D03*
X93243400Y-147370800D03*
X90068400Y-146812000D03*
X90047204Y-151735873D03*
X89521401Y-155512399D03*
X102184200Y-157048200D03*
X117851800Y-134328500D03*
X114757200Y-114757200D03*
X114782600Y-111785400D03*
D15*
X64643000Y-123520000D02*
X63308700Y-124854300D01*
X63308700Y-124854300D02*
X63308700Y-129099400D01*
X63308700Y-129099400D02*
X62103000Y-130305100D01*
X62103000Y-130305100D02*
X62103000Y-131140000D01*
X62103000Y-138760000D02*
X62103000Y-139594900D01*
X62103000Y-139594900D02*
X63308700Y-140800600D01*
X63308700Y-140800600D02*
X63308700Y-142505700D01*
X63308700Y-142505700D02*
X64643000Y-143840000D01*
X62103000Y-148920000D02*
X62103000Y-148085100D01*
X62103000Y-148085100D02*
X63308700Y-146879400D01*
X63308700Y-146879400D02*
X63308700Y-145174300D01*
X63308700Y-145174300D02*
X64643000Y-143840000D01*
X114808000Y-106262000D02*
X116599800Y-106262000D01*
X116599800Y-106262000D02*
X116611400Y-106273600D01*
X84328000Y-154447500D02*
X84255600Y-154519900D01*
X84328000Y-153072000D02*
X84328000Y-154447500D01*
X122068000Y-152167000D02*
X122068000Y-148407800D01*
X122068000Y-148407800D02*
X112064800Y-138404600D01*
D16*
X100838000Y-154914600D02*
X101269800Y-155346400D01*
X100838000Y-153072000D02*
X100838000Y-154914600D01*
D15*
X86853700Y-154537300D02*
X86853700Y-154024500D01*
X86853700Y-154024500D02*
X86853700Y-153897500D01*
X86853700Y-153897500D02*
X86868000Y-153072000D01*
X87757000Y-155194000D02*
X88138000Y-154813000D01*
X88138000Y-154813000D02*
X88138000Y-153072000D01*
X86673100Y-155939600D02*
X87418700Y-155194000D01*
X87418700Y-155194000D02*
X87757000Y-155194000D01*
X84328000Y-107278000D02*
X84328000Y-106262000D01*
X84328000Y-107442000D02*
X84328000Y-107278000D01*
X63863400Y-158058800D02*
X64840800Y-157081400D01*
X64809000Y-160387400D02*
X63863400Y-159441800D01*
X65532000Y-161290000D02*
X64809000Y-160567000D01*
X63863400Y-159441800D02*
X63863400Y-158058800D01*
X64809000Y-160567000D02*
X64809000Y-160387400D01*
X64840800Y-157081400D02*
X65812600Y-157081400D01*
X65812600Y-157081400D02*
X67296800Y-155597200D01*
X67296800Y-155597200D02*
X67296800Y-148984200D01*
X67296800Y-148984200D02*
X83494700Y-132786300D01*
X83494700Y-108275300D02*
X84328000Y-107442000D01*
X83494700Y-132786300D02*
X83494700Y-108275300D01*
X68262200Y-149228550D02*
X84734411Y-132756340D01*
X65532000Y-158750000D02*
X68262200Y-156019800D01*
X84963000Y-112207750D02*
X84963000Y-108585000D01*
X84734411Y-132756340D02*
X84734411Y-112436339D01*
X85598000Y-107950000D02*
X85598000Y-106262000D01*
X84963000Y-108585000D02*
X85598000Y-107950000D01*
X68262200Y-156019800D02*
X68262200Y-149228550D01*
X84734411Y-112436339D02*
X84963000Y-112207750D01*
X69406300Y-160084300D02*
X69406300Y-149233950D01*
X85547233Y-133093020D02*
X85547233Y-112773018D01*
X86233000Y-112087250D02*
X86233000Y-108712000D01*
X69406300Y-149233950D02*
X85547233Y-133093020D01*
X70612000Y-161290000D02*
X69406300Y-160084300D01*
X86868000Y-108077000D02*
X86868000Y-106262000D01*
X86233000Y-108712000D02*
X86868000Y-108077000D01*
X85547233Y-112773018D02*
X86233000Y-112087250D01*
X87503000Y-108585000D02*
X88138000Y-107950000D01*
X87503000Y-111966752D02*
X87503000Y-108585000D01*
X86360055Y-133429700D02*
X86360055Y-113109697D01*
X70612000Y-158750000D02*
X72106500Y-157255500D01*
X88138000Y-107950000D02*
X88138000Y-106262000D01*
X72106500Y-157255500D02*
X72106500Y-147683252D01*
X86360055Y-113109697D02*
X87503000Y-111966752D01*
X72106500Y-147683252D02*
X86360055Y-133429700D01*
X89408000Y-107823000D02*
X89408000Y-106262000D01*
X88773000Y-111846254D02*
X88773000Y-108458000D01*
X87172877Y-133766380D02*
X87172877Y-113446377D01*
X73506200Y-147433054D02*
X87172877Y-133766380D01*
X74357700Y-158250600D02*
X73506200Y-157399100D01*
X74357700Y-159955700D02*
X74357700Y-158250600D01*
X75692000Y-161290000D02*
X74357700Y-159955700D01*
X73506200Y-157399100D02*
X73506200Y-147433054D01*
X88773000Y-108458000D02*
X89408000Y-107823000D01*
X87172877Y-113446377D02*
X88773000Y-111846254D01*
X64632700Y-156578900D02*
X65632400Y-156578900D01*
X63360900Y-157850700D02*
X64632700Y-156578900D01*
X65632400Y-156578900D02*
X66814100Y-155397200D01*
X63360900Y-161321900D02*
X63360900Y-157850700D01*
X75692000Y-159584900D02*
X76897700Y-160790600D01*
X64534700Y-162495700D02*
X63360900Y-161321900D01*
X76897700Y-160790600D02*
X76897700Y-161789400D01*
X90475800Y-104953800D02*
X90678000Y-105156000D01*
X76191400Y-162495700D02*
X64534700Y-162495700D01*
X66814100Y-155397200D02*
X66814100Y-122002900D01*
X76897700Y-161789400D02*
X76191400Y-162495700D01*
X75692000Y-158750000D02*
X75692000Y-159584900D01*
X66814100Y-122002900D02*
X83863200Y-104953800D01*
X83863200Y-104953800D02*
X90475800Y-104953800D01*
X90678000Y-105156000D02*
X90678000Y-106262000D01*
X88392110Y-114076890D02*
X91313000Y-111156000D01*
X79437700Y-159955700D02*
X79437700Y-158250600D01*
X80772000Y-161290000D02*
X79437700Y-159955700D01*
X74954300Y-147709207D02*
X88392110Y-134271400D01*
X74954300Y-153767200D02*
X74954300Y-147709207D01*
X79437700Y-158250600D02*
X74954300Y-153767200D01*
X88392110Y-134271400D02*
X88392110Y-114076890D01*
X91313000Y-111156000D02*
X91313000Y-108331000D01*
X91313000Y-108331000D02*
X91948000Y-107696000D01*
X91948000Y-107696000D02*
X91948000Y-106262000D01*
X89204932Y-134608080D02*
X89204932Y-114534068D01*
X89204932Y-114534068D02*
X92583000Y-111156000D01*
X92583000Y-108458000D02*
X93218000Y-107823000D01*
X79664400Y-153487000D02*
X79664400Y-151091500D01*
X78944900Y-150372000D02*
X78944900Y-144868109D01*
X78054000Y-155097400D02*
X79664400Y-153487000D01*
X79664400Y-151091500D02*
X78944900Y-150372000D01*
X78944900Y-144868109D02*
X89204932Y-134608080D01*
X92583000Y-111156000D02*
X92583000Y-108458000D01*
X93218000Y-107823000D02*
X93218000Y-106262000D01*
X79910300Y-145052211D02*
X90017754Y-134944760D01*
X90017754Y-115235846D02*
X93853000Y-111400600D01*
X94488000Y-107950000D02*
X94488000Y-106262000D01*
X85852000Y-161290000D02*
X84517700Y-159955700D01*
X90017754Y-134944760D02*
X90017754Y-115235846D01*
X84517700Y-159955700D02*
X84517700Y-158250600D01*
X84517700Y-158250600D02*
X80629800Y-154362700D01*
X80629800Y-154362700D02*
X80629800Y-150691700D01*
X80629800Y-150691700D02*
X79910300Y-149972200D01*
X79910300Y-149972200D02*
X79910300Y-145052211D01*
X93853000Y-111400600D02*
X93853000Y-108585000D01*
X93853000Y-108585000D02*
X94488000Y-107950000D01*
X95758000Y-107823000D02*
X95758000Y-106262000D01*
X95123000Y-108458000D02*
X95758000Y-107823000D01*
X94894411Y-114773140D02*
X95123000Y-114544551D01*
X82599699Y-151840099D02*
X80467200Y-149707600D01*
X84869021Y-151840099D02*
X82599699Y-151840099D01*
X84924901Y-151895979D02*
X84869021Y-151840099D01*
X84924901Y-157822901D02*
X84924901Y-151895979D01*
X90690702Y-146866048D02*
X94894411Y-142662340D01*
X90367106Y-147434302D02*
X90690702Y-147110706D01*
X95123000Y-114544551D02*
X95123000Y-108458000D01*
X85852000Y-158750000D02*
X84924901Y-157822901D01*
X80467200Y-149707600D02*
X80467200Y-147548600D01*
X80467200Y-147548600D02*
X80873591Y-147142209D01*
X80873591Y-147142209D02*
X89452201Y-147142209D01*
X94894411Y-142662340D02*
X94894411Y-114773140D01*
X90690702Y-147110706D02*
X90690702Y-146866048D01*
X89452201Y-147142209D02*
X89744294Y-147434302D01*
X89744294Y-147434302D02*
X90367106Y-147434302D01*
X98298000Y-107823000D02*
X98298000Y-106262000D01*
X97688400Y-108432600D02*
X98298000Y-107823000D01*
X96113644Y-115278159D02*
X97688400Y-113703403D01*
X97688400Y-113703403D02*
X97688400Y-108432600D01*
X96113644Y-143167360D02*
X96113644Y-115278159D01*
X93865702Y-145415301D02*
X96113644Y-143167360D01*
X90932000Y-157546750D02*
X93853000Y-154625750D01*
X93865702Y-147669506D02*
X93865702Y-145415301D01*
X90932000Y-158750000D02*
X90932000Y-157546750D01*
X93853000Y-154625750D02*
X93853000Y-147682208D01*
X93853000Y-147682208D02*
X93865702Y-147669506D01*
X122617700Y-161789400D02*
X122617700Y-158250600D01*
X121428700Y-162978400D02*
X122617700Y-161789400D01*
X122617700Y-158250600D02*
X115481200Y-151114100D01*
X104051099Y-105216099D02*
X103610000Y-104775000D01*
X96012000Y-161290000D02*
X97700400Y-162978400D01*
X99848500Y-104775000D02*
X99568000Y-105055500D01*
X115481200Y-151114100D02*
X115481200Y-148162200D01*
X115481200Y-148162200D02*
X104051099Y-136732099D01*
X97700400Y-162978400D02*
X121428700Y-162978400D01*
X104051099Y-136732099D02*
X104051099Y-105216099D01*
X99568000Y-105055500D02*
X99568000Y-106262000D01*
X103610000Y-104775000D02*
X99848500Y-104775000D01*
X99349246Y-151828513D02*
X100164901Y-151012858D01*
X96012000Y-157737251D02*
X98933000Y-154816251D01*
X100203000Y-145876629D02*
X100203000Y-108458000D01*
X100164901Y-151012858D02*
X100164901Y-145914728D01*
X98933000Y-152041559D02*
X99146046Y-151828513D01*
X100203000Y-108458000D02*
X100838000Y-107823000D01*
X100164901Y-145914728D02*
X100203000Y-145876629D01*
X96012000Y-158750000D02*
X96012000Y-157737251D01*
X98933000Y-154816251D02*
X98933000Y-152041559D01*
X100838000Y-107823000D02*
X100838000Y-106262000D01*
X99146046Y-151828513D02*
X99349246Y-151828513D01*
X102781099Y-108165901D02*
X103378000Y-107569000D01*
X104013000Y-147428828D02*
X102781099Y-146196927D01*
X104013000Y-150771557D02*
X104013000Y-147428828D01*
X102781099Y-152003458D02*
X104013000Y-150771557D01*
X101403408Y-158750000D02*
X102836979Y-157316429D01*
X103378000Y-107569000D02*
X103378000Y-106262000D01*
X101092000Y-158750000D02*
X101403408Y-158750000D01*
X102781099Y-154248021D02*
X102781099Y-152003458D01*
X102836979Y-157316429D02*
X102836979Y-154303901D01*
X102781099Y-146196927D02*
X102781099Y-108165901D01*
X102836979Y-154303901D02*
X102781099Y-154248021D01*
X105283000Y-108483400D02*
X104648000Y-107848400D01*
X104648000Y-106897000D02*
X104648000Y-106262000D01*
X105283000Y-120089100D02*
X105283000Y-108483400D01*
X119033100Y-133839200D02*
X105283000Y-120089100D01*
X104648000Y-107848400D02*
X104648000Y-106897000D01*
X128451100Y-143764000D02*
X127245400Y-142558300D01*
X129286000Y-143764000D02*
X128451100Y-143764000D01*
X127245400Y-142558300D02*
X126375200Y-142558300D01*
X126375200Y-142558300D02*
X119033100Y-135216200D01*
X119033100Y-135216200D02*
X119033100Y-133839200D01*
X105918000Y-107442000D02*
X105918000Y-106262000D01*
X105918000Y-107797600D02*
X105918000Y-107442000D01*
X106553000Y-108432600D02*
X105918000Y-107797600D01*
X106553000Y-119993800D02*
X106553000Y-108432600D01*
X119998500Y-133439300D02*
X106553000Y-119993800D01*
X127245400Y-140018300D02*
X126375200Y-140018300D01*
X128451100Y-141224000D02*
X127245400Y-140018300D01*
X129286000Y-141224000D02*
X128451100Y-141224000D01*
X126375200Y-140018300D02*
X119998500Y-133641600D01*
X119998500Y-133641600D02*
X119998500Y-133439300D01*
X107188000Y-107746800D02*
X107188000Y-106262000D01*
X107823000Y-108381800D02*
X107188000Y-107746800D01*
X128451100Y-138684000D02*
X127245400Y-137478300D01*
X107823000Y-118926100D02*
X107823000Y-108381800D01*
X129286000Y-138684000D02*
X128451100Y-138684000D01*
X127245400Y-137478300D02*
X126375200Y-137478300D01*
X126375200Y-137478300D02*
X107823000Y-118926100D01*
X108458000Y-107848400D02*
X108458000Y-106897000D01*
X109093000Y-108483400D02*
X108458000Y-107848400D01*
X109093000Y-115116100D02*
X109093000Y-108483400D01*
X127951700Y-134809700D02*
X127951700Y-133104600D01*
X108458000Y-106897000D02*
X108458000Y-106262000D01*
X129286000Y-136144000D02*
X127951700Y-134809700D01*
X127951700Y-133104600D02*
X127245400Y-132398300D01*
X127245400Y-132398300D02*
X126375200Y-132398300D01*
X126375200Y-132398300D02*
X109093000Y-115116100D01*
X126746000Y-115824000D02*
X123015700Y-115824000D01*
X110210478Y-107950978D02*
X109728000Y-107468500D01*
X109728000Y-107468500D02*
X109728000Y-106262000D01*
X115142678Y-107950978D02*
X110210478Y-107950978D01*
X123015700Y-115824000D02*
X115142678Y-107950978D01*
X125169646Y-113284000D02*
X126746000Y-113284000D01*
X116915745Y-105030099D02*
X125169646Y-113284000D01*
X111023401Y-105030099D02*
X116915745Y-105030099D01*
X110998000Y-105055500D02*
X111023401Y-105030099D01*
X110998000Y-106262000D02*
X110998000Y-105055500D01*
X109093000Y-105178000D02*
X109279000Y-104992000D01*
X110363000Y-105178000D02*
X110363000Y-107346000D01*
X128080300Y-117029700D02*
X123538700Y-117029700D01*
X129286000Y-115824000D02*
X128080300Y-117029700D01*
X110177000Y-104992000D02*
X110363000Y-105178000D01*
X109279000Y-104992000D02*
X110177000Y-104992000D01*
X110536300Y-107519300D02*
X112217200Y-107519300D01*
X109093000Y-107495300D02*
X109093000Y-105178000D01*
X112268000Y-107468500D02*
X112268000Y-106262000D01*
X112217200Y-107519300D02*
X112268000Y-107468500D01*
X109955089Y-108357389D02*
X109093000Y-107495300D01*
X123538700Y-117029700D02*
X114866389Y-108357389D01*
X110363000Y-107346000D02*
X110536300Y-107519300D01*
X114866389Y-108357389D02*
X109955089Y-108357389D01*
X113538000Y-107315000D02*
X113538000Y-106262000D01*
X128080300Y-114489700D02*
X122364000Y-114489700D01*
X129286000Y-113284000D02*
X128080300Y-114489700D01*
X122364000Y-114489700D02*
X115393600Y-107519300D01*
X115393600Y-107519300D02*
X113742300Y-107519300D01*
X113742300Y-107519300D02*
X113538000Y-107315000D01*
X66529300Y-160084300D02*
X65175200Y-160084300D01*
X65036700Y-157554200D02*
X66022400Y-157554200D01*
X67779500Y-149136500D02*
X84328000Y-132588000D01*
X67735000Y-161290000D02*
X66529300Y-160084300D01*
X67779500Y-155797100D02*
X67779500Y-149136500D01*
X68072000Y-161290000D02*
X67735000Y-161290000D01*
X64336200Y-158254700D02*
X65036700Y-157554200D01*
X84328000Y-132588000D02*
X84328000Y-110072000D01*
X65175200Y-160084300D02*
X64336200Y-159245300D01*
X66022400Y-157554200D02*
X67779500Y-155797100D01*
X64336200Y-159245300D02*
X64336200Y-158254700D01*
X85598000Y-112147500D02*
X85598000Y-110072000D01*
X85140822Y-132924680D02*
X85140822Y-112604679D01*
X68072000Y-158750000D02*
X68072000Y-156869900D01*
X85140822Y-112604679D02*
X85598000Y-112147500D01*
X68744900Y-149320600D02*
X85140822Y-132924680D01*
X68072000Y-156869900D02*
X68744900Y-156197000D01*
X68744900Y-156197000D02*
X68744900Y-149320600D01*
X71407900Y-147807101D02*
X85953644Y-133261360D01*
X85953644Y-133261360D02*
X85953644Y-112941357D01*
X85953644Y-112941357D02*
X86868000Y-112027001D01*
X71407900Y-154664400D02*
X71407900Y-147807101D01*
X86868000Y-112027001D02*
X86868000Y-110072000D01*
X88138000Y-111906503D02*
X88138000Y-110072000D01*
X86766466Y-113278037D02*
X88138000Y-111906503D01*
X86766466Y-133598040D02*
X86766466Y-113278037D01*
X73023500Y-147341003D02*
X86766466Y-133598040D01*
X73023500Y-158621500D02*
X73023500Y-147341003D01*
X73152000Y-158750000D02*
X73023500Y-158621500D01*
X73988900Y-147525105D02*
X87579288Y-133934720D01*
X89408000Y-111786005D02*
X89408000Y-110072000D01*
X73988900Y-155341800D02*
X73988900Y-147525105D01*
X87579288Y-133934720D02*
X87579288Y-113614717D01*
X76897700Y-158250600D02*
X73988900Y-155341800D01*
X78232000Y-161290000D02*
X76897700Y-159955700D01*
X87579288Y-113614717D02*
X89408000Y-111786005D01*
X76897700Y-159955700D02*
X76897700Y-158250600D01*
X87985699Y-113783057D02*
X90678000Y-111090756D01*
X87985699Y-134103060D02*
X87985699Y-113783057D01*
X74471600Y-147617156D02*
X87985699Y-134103060D01*
X74471600Y-154989600D02*
X74471600Y-147617156D01*
X78232000Y-158750000D02*
X74471600Y-154989600D01*
X90678000Y-111090756D02*
X90678000Y-110072000D01*
X91948000Y-111149600D02*
X91948000Y-110072000D01*
X78462200Y-150572000D02*
X78462200Y-144776058D01*
X83312000Y-161290000D02*
X81977700Y-159955700D01*
X81977700Y-158250600D02*
X81271400Y-157544300D01*
X77355400Y-154808000D02*
X77764600Y-154398800D01*
X88798521Y-134439740D02*
X88798521Y-114299079D01*
X78462200Y-144776058D02*
X88798521Y-134439740D01*
X81977700Y-159955700D02*
X81977700Y-158250600D01*
X81271400Y-157544300D02*
X79512900Y-157544300D01*
X79512900Y-157544300D02*
X77355400Y-155386800D01*
X77355400Y-155386800D02*
X77355400Y-154808000D01*
X77764600Y-154398800D02*
X77825400Y-154398800D01*
X77825400Y-154398800D02*
X79181700Y-153042500D01*
X79181700Y-153042500D02*
X79181700Y-151291500D01*
X79181700Y-151291500D02*
X78462200Y-150572000D01*
X88798521Y-114299079D02*
X91948000Y-111149600D01*
X80147100Y-155585100D02*
X80147100Y-150891600D01*
X79427600Y-150172100D02*
X79427600Y-144960160D01*
X93218000Y-111149600D02*
X93218000Y-110072000D01*
X89611343Y-134776420D02*
X89611343Y-114756257D01*
X79427600Y-144960160D02*
X89611343Y-134776420D01*
X80147100Y-150891600D02*
X79427600Y-150172100D01*
X89611343Y-114756257D02*
X93218000Y-111149600D01*
X83312000Y-158750000D02*
X80147100Y-155585100D01*
X95758000Y-114484301D02*
X95758000Y-110072000D01*
X88392000Y-158750000D02*
X92583000Y-154559000D01*
X95300822Y-114941480D02*
X95758000Y-114484301D01*
X95300822Y-142830680D02*
X95300822Y-114941480D01*
X92583000Y-154559000D02*
X92583000Y-145548501D01*
X92583000Y-145548501D02*
X95300822Y-142830680D01*
X97053400Y-110097400D02*
X97028000Y-110072000D01*
X97053400Y-111658400D02*
X97053400Y-110097400D01*
X97231200Y-116258133D02*
X97231200Y-115773200D01*
X97231200Y-146253200D02*
X97231200Y-116258133D01*
X98018600Y-147768478D02*
X98018600Y-147040600D01*
X96393000Y-151988000D02*
X96847396Y-151533604D01*
X96393000Y-154104112D02*
X96393000Y-151988000D01*
X98018600Y-147040600D02*
X97231200Y-146253200D01*
X96847396Y-151533604D02*
X97504983Y-151533604D01*
X97504983Y-151533604D02*
X97880293Y-151158294D01*
X97701099Y-148085979D02*
X98018600Y-147768478D01*
X97880293Y-151158294D02*
X97880293Y-150617215D01*
X93472000Y-161290000D02*
X94677700Y-160084300D01*
X97880293Y-150617215D02*
X97701099Y-150438021D01*
X94677700Y-155819412D02*
X96393000Y-154104112D01*
X94677700Y-160084300D02*
X94677700Y-155819412D01*
X97701099Y-150438021D02*
X97701099Y-148085979D01*
X95084901Y-147529293D02*
X96393000Y-146221194D01*
X93472000Y-156156252D02*
X95084901Y-154543351D01*
X96393000Y-146221194D02*
X96393000Y-143462755D01*
X96520055Y-115446499D02*
X98298000Y-113668554D01*
X98298000Y-113668554D02*
X98298000Y-110072000D01*
X93472000Y-158750000D02*
X93472000Y-156156252D01*
X95084901Y-154543351D02*
X95084901Y-147529293D01*
X96393000Y-143462755D02*
X96520055Y-143335700D01*
X96520055Y-143335700D02*
X96520055Y-115446499D01*
X99568000Y-110072000D02*
X99568000Y-145819089D01*
X99568000Y-145819089D02*
X99268236Y-146118853D01*
X100838000Y-146152809D02*
X100812591Y-146178218D01*
X100838000Y-110072000D02*
X100838000Y-146152809D01*
X103632000Y-158750000D02*
X103632000Y-154537000D01*
X103378000Y-111278500D02*
X103378000Y-110072000D01*
X105244901Y-148085979D02*
X103378000Y-146219078D01*
X103378000Y-146219078D02*
X103378000Y-111278500D01*
X105244901Y-150438021D02*
X105244901Y-148085979D01*
X104013000Y-151669922D02*
X105244901Y-150438021D01*
X103632000Y-154537000D02*
X104013000Y-154156000D01*
X104013000Y-154156000D02*
X104013000Y-151669922D01*
X104648000Y-112395000D02*
X104648000Y-110072000D01*
X104648000Y-120136700D02*
X104648000Y-112395000D01*
X118550400Y-134039100D02*
X104648000Y-120136700D01*
X126746000Y-143764000D02*
X118550400Y-135568400D01*
X118550400Y-135568400D02*
X118550400Y-134039100D01*
X105918000Y-110707000D02*
X105918000Y-110072000D01*
X119515800Y-133639200D02*
X105918000Y-120041400D01*
X126746000Y-141224000D02*
X119515800Y-133993800D01*
X105918000Y-120041400D02*
X105918000Y-110707000D01*
X119515800Y-133993800D02*
X119515800Y-133639200D01*
X107188000Y-111633000D02*
X107188000Y-110072000D01*
X126746000Y-138684000D02*
X107188000Y-119126000D01*
X107188000Y-119126000D02*
X107188000Y-111633000D01*
X108458000Y-112141000D02*
X108458000Y-110072000D01*
X126746000Y-136144000D02*
X108458000Y-117856000D01*
X108458000Y-117856000D02*
X108458000Y-112141000D01*
X109728000Y-110072000D02*
X109728000Y-111471680D01*
X109728000Y-111471680D02*
X120043070Y-121786750D01*
X111099579Y-108763921D02*
X110998000Y-108865500D01*
X114160300Y-108993200D02*
X113931021Y-108763921D01*
X120440194Y-118364000D02*
X114160299Y-112084105D01*
X126746000Y-118364000D02*
X120440194Y-118364000D01*
X113931021Y-108763921D02*
X111099579Y-108763921D01*
X110998000Y-108865500D02*
X110998000Y-110072000D01*
X114160299Y-112084105D02*
X114160300Y-108993200D01*
X128080300Y-122109700D02*
X123649650Y-122109700D01*
X120716772Y-119176822D02*
X120103514Y-119176822D01*
X123649650Y-122109700D02*
X120716772Y-119176822D01*
X129286000Y-120904000D02*
X128080300Y-122109700D01*
X112268000Y-111341306D02*
X112268000Y-110072000D01*
X120103514Y-119176822D02*
X112268000Y-111341306D01*
X129286000Y-118364000D02*
X128080300Y-119569700D01*
X120885261Y-118770411D02*
X120271854Y-118770411D01*
X128080300Y-119569700D02*
X121684550Y-119569700D01*
X120271854Y-118770411D02*
X113538000Y-112036555D01*
X113538000Y-112036555D02*
X113538000Y-110072000D01*
X121684550Y-119569700D02*
X120885261Y-118770411D01*
X82496369Y-147955031D02*
X85497531Y-147955031D01*
X81091600Y-149359800D02*
X82496369Y-147955031D01*
X85497531Y-147955031D02*
X85598000Y-148055500D01*
X85598000Y-148055500D02*
X85598000Y-149262000D01*
X85974500Y-157129350D02*
X85974500Y-154414500D01*
X64643000Y-146380000D02*
X66331400Y-148068400D01*
X66331400Y-148068400D02*
X66331400Y-155197300D01*
X64334700Y-162978400D02*
X85868700Y-162978400D01*
X85868700Y-162978400D02*
X87057700Y-161789400D01*
X64432800Y-156096200D02*
X62878200Y-157650800D01*
X66331400Y-155197300D02*
X65432500Y-156096200D01*
X87057700Y-158212550D02*
X85974500Y-157129350D01*
X86233000Y-154156000D02*
X86233000Y-149897000D01*
X62878200Y-161521900D02*
X64334700Y-162978400D01*
X65432500Y-156096200D02*
X64432800Y-156096200D01*
X86233000Y-149897000D02*
X86868000Y-149262000D01*
X85974500Y-154414500D02*
X86233000Y-154156000D01*
X87057700Y-161789400D02*
X87057700Y-158212550D01*
X62878200Y-157650800D02*
X62878200Y-161521900D01*
X81269800Y-147945800D02*
X81666980Y-147548620D01*
X87631120Y-147548620D02*
X88138000Y-148055500D01*
X81666980Y-147548620D02*
X87631120Y-147548620D01*
X88138000Y-148055500D02*
X88138000Y-149262000D01*
X95758000Y-148055500D02*
X96417300Y-147396200D01*
X96417300Y-147396200D02*
X97078802Y-147396200D01*
X95758000Y-149262000D02*
X95758000Y-148055500D01*
X97028000Y-149262000D02*
X97028000Y-150644699D01*
X97028000Y-150644699D02*
X97249655Y-150866354D01*
X98298000Y-149262000D02*
X98298000Y-150215600D01*
X98298000Y-150215600D02*
X98882200Y-150799800D01*
X99568000Y-149262000D02*
X99568000Y-151035008D01*
X99180906Y-151422102D02*
X98610105Y-151422102D01*
X98610105Y-151422102D02*
X98444311Y-151587896D01*
X99568000Y-151035008D02*
X99180906Y-151422102D01*
X100838000Y-150825200D02*
X100812600Y-150850600D01*
X100838000Y-149262000D02*
X100838000Y-150825200D01*
X85166188Y-151433688D02*
X84726688Y-151433688D01*
X85598000Y-151865500D02*
X85166188Y-151433688D01*
X85598000Y-153072000D02*
X85598000Y-151865500D01*
X83438600Y-150145600D02*
X83438600Y-148577341D01*
X84726688Y-151433688D02*
X83438600Y-150145600D01*
X89408000Y-151903632D02*
X89027000Y-151522632D01*
X89408000Y-153072000D02*
X89408000Y-151903632D01*
X90678000Y-151445663D02*
X90132649Y-150900312D01*
X88411392Y-150900312D02*
X88001571Y-151310133D01*
X90132649Y-150900312D02*
X88411392Y-150900312D01*
X90678000Y-153072000D02*
X90678000Y-151445663D01*
X91948000Y-153072000D02*
X91948000Y-151865500D01*
X90576401Y-150493901D02*
X87673797Y-150493901D01*
X91948000Y-151865500D02*
X90576401Y-150493901D01*
X87673797Y-150493901D02*
X87274286Y-150893412D01*
X89597700Y-161789400D02*
X89597700Y-158306300D01*
X87926000Y-163461100D02*
X89597700Y-161789400D01*
X64134800Y-163461100D02*
X87926000Y-163461100D01*
X62395500Y-161721800D02*
X64134800Y-163461100D01*
X65232500Y-155613500D02*
X64232800Y-155613500D01*
X65848700Y-154997300D02*
X65232500Y-155613500D01*
X64643000Y-148920000D02*
X64643000Y-149754900D01*
X93218000Y-154686000D02*
X93218000Y-153072000D01*
X62395500Y-157450800D02*
X62395500Y-161721800D01*
X89597700Y-158306300D02*
X93218000Y-154686000D01*
X64232800Y-155613500D02*
X62395500Y-157450800D01*
X64643000Y-149754900D02*
X65848700Y-150960600D01*
X65848700Y-150960600D02*
X65848700Y-154997300D01*
X61912800Y-155895300D02*
X61912800Y-161921800D01*
X64643000Y-151460000D02*
X63308700Y-152794300D01*
X63308700Y-152794300D02*
X63308700Y-154499400D01*
X63308700Y-154499400D02*
X61912800Y-155895300D01*
X92137700Y-161789400D02*
X92137700Y-156915801D01*
X89983300Y-163943800D02*
X92137700Y-161789400D01*
X92137700Y-156915801D02*
X94488000Y-154565501D01*
X94488000Y-154565501D02*
X94488000Y-153072000D01*
X63934800Y-163943800D02*
X89983300Y-163943800D01*
X61912800Y-161921800D02*
X63934800Y-163943800D01*
X95758000Y-152325290D02*
X95707201Y-152274491D01*
X95758000Y-153072000D02*
X95758000Y-152325290D01*
X97028000Y-153072000D02*
X97028000Y-154379691D01*
X97028000Y-154379691D02*
X96935392Y-154472299D01*
X98298000Y-154876500D02*
X98010834Y-155163666D01*
X98298000Y-153072000D02*
X98298000Y-154876500D01*
X98010834Y-155163666D02*
X96254366Y-155163666D01*
X60897300Y-142505700D02*
X60897300Y-161588900D01*
X99556188Y-153083812D02*
X99568000Y-153072000D01*
X97217700Y-159249400D02*
X97217700Y-157106302D01*
X96382800Y-160084300D02*
X97217700Y-159249400D01*
X94677700Y-160919200D02*
X95512600Y-160084300D01*
X95512600Y-160084300D02*
X96382800Y-160084300D01*
X99556188Y-154767814D02*
X99556188Y-153083812D01*
X94677700Y-161789400D02*
X94677700Y-160919200D01*
X63734900Y-164426500D02*
X92040600Y-164426500D01*
X97217700Y-157106302D02*
X99556188Y-154767814D01*
X62103000Y-141300000D02*
X60897300Y-142505700D01*
X92040600Y-164426500D02*
X94677700Y-161789400D01*
X60897300Y-161588900D02*
X63734900Y-164426500D01*
X105918000Y-154686000D02*
X105918000Y-153072000D01*
X104902000Y-155702000D02*
X105918000Y-154686000D01*
X104966300Y-158250600D02*
X104902000Y-158186300D01*
X104902000Y-158186300D02*
X104902000Y-155702000D01*
X106172000Y-161290000D02*
X104966300Y-160084300D01*
X104966300Y-160084300D02*
X104966300Y-158250600D01*
X106172000Y-155798876D02*
X107188000Y-154782876D01*
X107188000Y-154782876D02*
X107188000Y-153072000D01*
X106172000Y-158750000D02*
X106172000Y-155798876D01*
X108458000Y-154686000D02*
X108458000Y-153072000D01*
X107506300Y-155637700D02*
X108458000Y-154686000D01*
X108712000Y-161290000D02*
X107506300Y-160084300D01*
X107506300Y-160084300D02*
X107506300Y-155637700D01*
X108712000Y-155702000D02*
X109728000Y-154686000D01*
X108712000Y-158750000D02*
X108712000Y-155702000D01*
X109728000Y-154686000D02*
X109728000Y-153072000D01*
X110046300Y-155764700D02*
X110998000Y-154813000D01*
X110046300Y-160084300D02*
X110046300Y-155764700D01*
X110998000Y-154813000D02*
X110998000Y-153072000D01*
X111252000Y-161290000D02*
X110046300Y-160084300D01*
X112268000Y-154940000D02*
X112268000Y-153072000D01*
X111252000Y-155956000D02*
X112268000Y-154940000D01*
X111252000Y-158750000D02*
X111252000Y-155956000D01*
X113538000Y-155194000D02*
X113538000Y-153072000D01*
X113792000Y-161290000D02*
X112586300Y-160084300D01*
X112586300Y-160084300D02*
X112586300Y-156145700D01*
X112586300Y-156145700D02*
X113538000Y-155194000D01*
X113792000Y-158750000D02*
X114808000Y-157734000D01*
X114808000Y-157734000D02*
X114808000Y-153072000D01*
X93243400Y-145462852D02*
X93243400Y-147370800D01*
X97028000Y-106262000D02*
X97028000Y-107950000D01*
X95707233Y-142999020D02*
X93243400Y-145462852D01*
X96431099Y-114385953D02*
X95707233Y-115109819D01*
X97028000Y-107950000D02*
X96431099Y-108546901D01*
X96431099Y-108546901D02*
X96431099Y-114385953D01*
X95707233Y-115109819D02*
X95707233Y-142999020D01*
X102108000Y-107569000D02*
X102108000Y-106262000D01*
X102108000Y-107870539D02*
X102108000Y-107569000D01*
X101511099Y-151047709D02*
X101511099Y-108467440D01*
X101085906Y-151472902D02*
X101511099Y-151047709D01*
X100730306Y-151472902D02*
X101085906Y-151472902D01*
X99962599Y-160160599D02*
X99962599Y-154450323D01*
X101511099Y-108467440D02*
X102108000Y-107870539D01*
X99962599Y-154450323D02*
X100190298Y-154222624D01*
X100190298Y-154222624D02*
X100190298Y-152012910D01*
X101092000Y-161290000D02*
X99962599Y-160160599D01*
X100190298Y-152012910D02*
X100730306Y-151472902D01*
X94488000Y-110072000D02*
X94488000Y-142265400D01*
X94488000Y-142265400D02*
X90093800Y-146659600D01*
X90093800Y-146786600D02*
X90068400Y-146812000D01*
X90093800Y-146659600D02*
X90093800Y-146786600D01*
X90047204Y-151735873D02*
X90047204Y-154986596D01*
X90047204Y-154986596D02*
X89521401Y-155512399D01*
X102184200Y-155161992D02*
X102184200Y-157048200D01*
X102108000Y-110072000D02*
X102108000Y-147497800D01*
X102704901Y-150702177D02*
X101511099Y-151895979D01*
X101511099Y-151895979D02*
X101511099Y-154488891D01*
X102704901Y-148094701D02*
X102704901Y-150702177D01*
X101511099Y-154488891D02*
X102184200Y-155161992D01*
X102108000Y-147497800D02*
X102704901Y-148094701D01*
D16*
X129286000Y-125984000D02*
X126746000Y-125984000D01*
X124841000Y-157861000D02*
X123952000Y-158750000D01*
X126086500Y-151227500D02*
X124841000Y-152473000D01*
X124841000Y-152473000D02*
X124841000Y-157861000D01*
X126746000Y-148844000D02*
X126086500Y-149503500D01*
X126086500Y-149503500D02*
X126086500Y-151227500D01*
X124968000Y-147066000D02*
X126746000Y-148844000D01*
X124968000Y-142875000D02*
X124968000Y-147066000D01*
X117851800Y-134328500D02*
X117851800Y-135758800D01*
X117851800Y-135758800D02*
X124968000Y-142875000D01*
D15*
X114782600Y-110097400D02*
X114808000Y-110072000D01*
X114782600Y-111785400D02*
X114782600Y-110097400D01*
X122859800Y-125145800D02*
X122859800Y-122859800D01*
X122859800Y-122859800D02*
X114757200Y-114757200D01*
X126746000Y-125984000D02*
X123698000Y-125984000D01*
X123698000Y-125984000D02*
X122859800Y-125145800D01*
M02*
