G04 #@! TF.GenerationSoftware,KiCad,Pcbnew,5.1.7*
G04 #@! TF.CreationDate,2020-10-22T00:39:11+01:00*
G04 #@! TF.ProjectId,rc2014-icecore,72633230-3134-42d6-9963-65636f72652e,1*
G04 #@! TF.SameCoordinates,Original*
G04 #@! TF.FileFunction,Copper,L1,Top*
G04 #@! TF.FilePolarity,Positive*
%FSLAX46Y46*%
G04 Gerber Fmt 4.6, Leading zero omitted, Abs format (unit mm)*
G04 Created by KiCad (PCBNEW 5.1.7) date 2020-10-22 00:39:11*
%MOMM*%
%LPD*%
G01*
G04 APERTURE LIST*
G04 #@! TA.AperFunction,ComponentPad*
%ADD10R,1.700000X1.700000*%
G04 #@! TD*
G04 #@! TA.AperFunction,ComponentPad*
%ADD11O,1.700000X1.700000*%
G04 #@! TD*
G04 #@! TA.AperFunction,SMDPad,CuDef*
%ADD12R,3.800000X2.000000*%
G04 #@! TD*
G04 #@! TA.AperFunction,SMDPad,CuDef*
%ADD13R,1.500000X2.000000*%
G04 #@! TD*
G04 #@! TA.AperFunction,ViaPad*
%ADD14C,0.685800*%
G04 #@! TD*
G04 #@! TA.AperFunction,Conductor*
%ADD15C,0.381000*%
G04 #@! TD*
G04 #@! TA.AperFunction,Conductor*
%ADD16C,0.254000*%
G04 #@! TD*
G04 APERTURE END LIST*
G04 #@! TA.AperFunction,SMDPad,CuDef*
G36*
G01*
X116936000Y-151799000D02*
X116736000Y-151799000D01*
G75*
G02*
X116636000Y-151699000I0J100000D01*
G01*
X116636000Y-150424000D01*
G75*
G02*
X116736000Y-150324000I100000J0D01*
G01*
X116936000Y-150324000D01*
G75*
G02*
X117036000Y-150424000I0J-100000D01*
G01*
X117036000Y-151699000D01*
G75*
G02*
X116936000Y-151799000I-100000J0D01*
G01*
G37*
G04 #@! TD.AperFunction*
G04 #@! TA.AperFunction,SMDPad,CuDef*
G36*
G01*
X117586000Y-151799000D02*
X117386000Y-151799000D01*
G75*
G02*
X117286000Y-151699000I0J100000D01*
G01*
X117286000Y-150424000D01*
G75*
G02*
X117386000Y-150324000I100000J0D01*
G01*
X117586000Y-150324000D01*
G75*
G02*
X117686000Y-150424000I0J-100000D01*
G01*
X117686000Y-151699000D01*
G75*
G02*
X117586000Y-151799000I-100000J0D01*
G01*
G37*
G04 #@! TD.AperFunction*
G04 #@! TA.AperFunction,SMDPad,CuDef*
G36*
G01*
X118236000Y-151799000D02*
X118036000Y-151799000D01*
G75*
G02*
X117936000Y-151699000I0J100000D01*
G01*
X117936000Y-150424000D01*
G75*
G02*
X118036000Y-150324000I100000J0D01*
G01*
X118236000Y-150324000D01*
G75*
G02*
X118336000Y-150424000I0J-100000D01*
G01*
X118336000Y-151699000D01*
G75*
G02*
X118236000Y-151799000I-100000J0D01*
G01*
G37*
G04 #@! TD.AperFunction*
G04 #@! TA.AperFunction,SMDPad,CuDef*
G36*
G01*
X118886000Y-151799000D02*
X118686000Y-151799000D01*
G75*
G02*
X118586000Y-151699000I0J100000D01*
G01*
X118586000Y-150424000D01*
G75*
G02*
X118686000Y-150324000I100000J0D01*
G01*
X118886000Y-150324000D01*
G75*
G02*
X118986000Y-150424000I0J-100000D01*
G01*
X118986000Y-151699000D01*
G75*
G02*
X118886000Y-151799000I-100000J0D01*
G01*
G37*
G04 #@! TD.AperFunction*
G04 #@! TA.AperFunction,SMDPad,CuDef*
G36*
G01*
X119536000Y-151799000D02*
X119336000Y-151799000D01*
G75*
G02*
X119236000Y-151699000I0J100000D01*
G01*
X119236000Y-150424000D01*
G75*
G02*
X119336000Y-150324000I100000J0D01*
G01*
X119536000Y-150324000D01*
G75*
G02*
X119636000Y-150424000I0J-100000D01*
G01*
X119636000Y-151699000D01*
G75*
G02*
X119536000Y-151799000I-100000J0D01*
G01*
G37*
G04 #@! TD.AperFunction*
G04 #@! TA.AperFunction,SMDPad,CuDef*
G36*
G01*
X120186000Y-151799000D02*
X119986000Y-151799000D01*
G75*
G02*
X119886000Y-151699000I0J100000D01*
G01*
X119886000Y-150424000D01*
G75*
G02*
X119986000Y-150324000I100000J0D01*
G01*
X120186000Y-150324000D01*
G75*
G02*
X120286000Y-150424000I0J-100000D01*
G01*
X120286000Y-151699000D01*
G75*
G02*
X120186000Y-151799000I-100000J0D01*
G01*
G37*
G04 #@! TD.AperFunction*
G04 #@! TA.AperFunction,SMDPad,CuDef*
G36*
G01*
X120836000Y-151799000D02*
X120636000Y-151799000D01*
G75*
G02*
X120536000Y-151699000I0J100000D01*
G01*
X120536000Y-150424000D01*
G75*
G02*
X120636000Y-150324000I100000J0D01*
G01*
X120836000Y-150324000D01*
G75*
G02*
X120936000Y-150424000I0J-100000D01*
G01*
X120936000Y-151699000D01*
G75*
G02*
X120836000Y-151799000I-100000J0D01*
G01*
G37*
G04 #@! TD.AperFunction*
G04 #@! TA.AperFunction,SMDPad,CuDef*
G36*
G01*
X121486000Y-151799000D02*
X121286000Y-151799000D01*
G75*
G02*
X121186000Y-151699000I0J100000D01*
G01*
X121186000Y-150424000D01*
G75*
G02*
X121286000Y-150324000I100000J0D01*
G01*
X121486000Y-150324000D01*
G75*
G02*
X121586000Y-150424000I0J-100000D01*
G01*
X121586000Y-151699000D01*
G75*
G02*
X121486000Y-151799000I-100000J0D01*
G01*
G37*
G04 #@! TD.AperFunction*
G04 #@! TA.AperFunction,SMDPad,CuDef*
G36*
G01*
X122136000Y-151799000D02*
X121936000Y-151799000D01*
G75*
G02*
X121836000Y-151699000I0J100000D01*
G01*
X121836000Y-150424000D01*
G75*
G02*
X121936000Y-150324000I100000J0D01*
G01*
X122136000Y-150324000D01*
G75*
G02*
X122236000Y-150424000I0J-100000D01*
G01*
X122236000Y-151699000D01*
G75*
G02*
X122136000Y-151799000I-100000J0D01*
G01*
G37*
G04 #@! TD.AperFunction*
G04 #@! TA.AperFunction,SMDPad,CuDef*
G36*
G01*
X122786000Y-151799000D02*
X122586000Y-151799000D01*
G75*
G02*
X122486000Y-151699000I0J100000D01*
G01*
X122486000Y-150424000D01*
G75*
G02*
X122586000Y-150324000I100000J0D01*
G01*
X122786000Y-150324000D01*
G75*
G02*
X122886000Y-150424000I0J-100000D01*
G01*
X122886000Y-151699000D01*
G75*
G02*
X122786000Y-151799000I-100000J0D01*
G01*
G37*
G04 #@! TD.AperFunction*
G04 #@! TA.AperFunction,SMDPad,CuDef*
G36*
G01*
X122786000Y-157524000D02*
X122586000Y-157524000D01*
G75*
G02*
X122486000Y-157424000I0J100000D01*
G01*
X122486000Y-156149000D01*
G75*
G02*
X122586000Y-156049000I100000J0D01*
G01*
X122786000Y-156049000D01*
G75*
G02*
X122886000Y-156149000I0J-100000D01*
G01*
X122886000Y-157424000D01*
G75*
G02*
X122786000Y-157524000I-100000J0D01*
G01*
G37*
G04 #@! TD.AperFunction*
G04 #@! TA.AperFunction,SMDPad,CuDef*
G36*
G01*
X122136000Y-157524000D02*
X121936000Y-157524000D01*
G75*
G02*
X121836000Y-157424000I0J100000D01*
G01*
X121836000Y-156149000D01*
G75*
G02*
X121936000Y-156049000I100000J0D01*
G01*
X122136000Y-156049000D01*
G75*
G02*
X122236000Y-156149000I0J-100000D01*
G01*
X122236000Y-157424000D01*
G75*
G02*
X122136000Y-157524000I-100000J0D01*
G01*
G37*
G04 #@! TD.AperFunction*
G04 #@! TA.AperFunction,SMDPad,CuDef*
G36*
G01*
X121486000Y-157524000D02*
X121286000Y-157524000D01*
G75*
G02*
X121186000Y-157424000I0J100000D01*
G01*
X121186000Y-156149000D01*
G75*
G02*
X121286000Y-156049000I100000J0D01*
G01*
X121486000Y-156049000D01*
G75*
G02*
X121586000Y-156149000I0J-100000D01*
G01*
X121586000Y-157424000D01*
G75*
G02*
X121486000Y-157524000I-100000J0D01*
G01*
G37*
G04 #@! TD.AperFunction*
G04 #@! TA.AperFunction,SMDPad,CuDef*
G36*
G01*
X120836000Y-157524000D02*
X120636000Y-157524000D01*
G75*
G02*
X120536000Y-157424000I0J100000D01*
G01*
X120536000Y-156149000D01*
G75*
G02*
X120636000Y-156049000I100000J0D01*
G01*
X120836000Y-156049000D01*
G75*
G02*
X120936000Y-156149000I0J-100000D01*
G01*
X120936000Y-157424000D01*
G75*
G02*
X120836000Y-157524000I-100000J0D01*
G01*
G37*
G04 #@! TD.AperFunction*
G04 #@! TA.AperFunction,SMDPad,CuDef*
G36*
G01*
X120186000Y-157524000D02*
X119986000Y-157524000D01*
G75*
G02*
X119886000Y-157424000I0J100000D01*
G01*
X119886000Y-156149000D01*
G75*
G02*
X119986000Y-156049000I100000J0D01*
G01*
X120186000Y-156049000D01*
G75*
G02*
X120286000Y-156149000I0J-100000D01*
G01*
X120286000Y-157424000D01*
G75*
G02*
X120186000Y-157524000I-100000J0D01*
G01*
G37*
G04 #@! TD.AperFunction*
G04 #@! TA.AperFunction,SMDPad,CuDef*
G36*
G01*
X119536000Y-157524000D02*
X119336000Y-157524000D01*
G75*
G02*
X119236000Y-157424000I0J100000D01*
G01*
X119236000Y-156149000D01*
G75*
G02*
X119336000Y-156049000I100000J0D01*
G01*
X119536000Y-156049000D01*
G75*
G02*
X119636000Y-156149000I0J-100000D01*
G01*
X119636000Y-157424000D01*
G75*
G02*
X119536000Y-157524000I-100000J0D01*
G01*
G37*
G04 #@! TD.AperFunction*
G04 #@! TA.AperFunction,SMDPad,CuDef*
G36*
G01*
X118886000Y-157524000D02*
X118686000Y-157524000D01*
G75*
G02*
X118586000Y-157424000I0J100000D01*
G01*
X118586000Y-156149000D01*
G75*
G02*
X118686000Y-156049000I100000J0D01*
G01*
X118886000Y-156049000D01*
G75*
G02*
X118986000Y-156149000I0J-100000D01*
G01*
X118986000Y-157424000D01*
G75*
G02*
X118886000Y-157524000I-100000J0D01*
G01*
G37*
G04 #@! TD.AperFunction*
G04 #@! TA.AperFunction,SMDPad,CuDef*
G36*
G01*
X118236000Y-157524000D02*
X118036000Y-157524000D01*
G75*
G02*
X117936000Y-157424000I0J100000D01*
G01*
X117936000Y-156149000D01*
G75*
G02*
X118036000Y-156049000I100000J0D01*
G01*
X118236000Y-156049000D01*
G75*
G02*
X118336000Y-156149000I0J-100000D01*
G01*
X118336000Y-157424000D01*
G75*
G02*
X118236000Y-157524000I-100000J0D01*
G01*
G37*
G04 #@! TD.AperFunction*
G04 #@! TA.AperFunction,SMDPad,CuDef*
G36*
G01*
X117586000Y-157524000D02*
X117386000Y-157524000D01*
G75*
G02*
X117286000Y-157424000I0J100000D01*
G01*
X117286000Y-156149000D01*
G75*
G02*
X117386000Y-156049000I100000J0D01*
G01*
X117586000Y-156049000D01*
G75*
G02*
X117686000Y-156149000I0J-100000D01*
G01*
X117686000Y-157424000D01*
G75*
G02*
X117586000Y-157524000I-100000J0D01*
G01*
G37*
G04 #@! TD.AperFunction*
G04 #@! TA.AperFunction,SMDPad,CuDef*
G36*
G01*
X116936000Y-157524000D02*
X116736000Y-157524000D01*
G75*
G02*
X116636000Y-157424000I0J100000D01*
G01*
X116636000Y-156149000D01*
G75*
G02*
X116736000Y-156049000I100000J0D01*
G01*
X116936000Y-156049000D01*
G75*
G02*
X117036000Y-156149000I0J-100000D01*
G01*
X117036000Y-157424000D01*
G75*
G02*
X116936000Y-157524000I-100000J0D01*
G01*
G37*
G04 #@! TD.AperFunction*
G04 #@! TA.AperFunction,SMDPad,CuDef*
G36*
G01*
X100172000Y-157524000D02*
X99972000Y-157524000D01*
G75*
G02*
X99872000Y-157424000I0J100000D01*
G01*
X99872000Y-156149000D01*
G75*
G02*
X99972000Y-156049000I100000J0D01*
G01*
X100172000Y-156049000D01*
G75*
G02*
X100272000Y-156149000I0J-100000D01*
G01*
X100272000Y-157424000D01*
G75*
G02*
X100172000Y-157524000I-100000J0D01*
G01*
G37*
G04 #@! TD.AperFunction*
G04 #@! TA.AperFunction,SMDPad,CuDef*
G36*
G01*
X100822000Y-157524000D02*
X100622000Y-157524000D01*
G75*
G02*
X100522000Y-157424000I0J100000D01*
G01*
X100522000Y-156149000D01*
G75*
G02*
X100622000Y-156049000I100000J0D01*
G01*
X100822000Y-156049000D01*
G75*
G02*
X100922000Y-156149000I0J-100000D01*
G01*
X100922000Y-157424000D01*
G75*
G02*
X100822000Y-157524000I-100000J0D01*
G01*
G37*
G04 #@! TD.AperFunction*
G04 #@! TA.AperFunction,SMDPad,CuDef*
G36*
G01*
X101472000Y-157524000D02*
X101272000Y-157524000D01*
G75*
G02*
X101172000Y-157424000I0J100000D01*
G01*
X101172000Y-156149000D01*
G75*
G02*
X101272000Y-156049000I100000J0D01*
G01*
X101472000Y-156049000D01*
G75*
G02*
X101572000Y-156149000I0J-100000D01*
G01*
X101572000Y-157424000D01*
G75*
G02*
X101472000Y-157524000I-100000J0D01*
G01*
G37*
G04 #@! TD.AperFunction*
G04 #@! TA.AperFunction,SMDPad,CuDef*
G36*
G01*
X102122000Y-157524000D02*
X101922000Y-157524000D01*
G75*
G02*
X101822000Y-157424000I0J100000D01*
G01*
X101822000Y-156149000D01*
G75*
G02*
X101922000Y-156049000I100000J0D01*
G01*
X102122000Y-156049000D01*
G75*
G02*
X102222000Y-156149000I0J-100000D01*
G01*
X102222000Y-157424000D01*
G75*
G02*
X102122000Y-157524000I-100000J0D01*
G01*
G37*
G04 #@! TD.AperFunction*
G04 #@! TA.AperFunction,SMDPad,CuDef*
G36*
G01*
X102772000Y-157524000D02*
X102572000Y-157524000D01*
G75*
G02*
X102472000Y-157424000I0J100000D01*
G01*
X102472000Y-156149000D01*
G75*
G02*
X102572000Y-156049000I100000J0D01*
G01*
X102772000Y-156049000D01*
G75*
G02*
X102872000Y-156149000I0J-100000D01*
G01*
X102872000Y-157424000D01*
G75*
G02*
X102772000Y-157524000I-100000J0D01*
G01*
G37*
G04 #@! TD.AperFunction*
G04 #@! TA.AperFunction,SMDPad,CuDef*
G36*
G01*
X103422000Y-157524000D02*
X103222000Y-157524000D01*
G75*
G02*
X103122000Y-157424000I0J100000D01*
G01*
X103122000Y-156149000D01*
G75*
G02*
X103222000Y-156049000I100000J0D01*
G01*
X103422000Y-156049000D01*
G75*
G02*
X103522000Y-156149000I0J-100000D01*
G01*
X103522000Y-157424000D01*
G75*
G02*
X103422000Y-157524000I-100000J0D01*
G01*
G37*
G04 #@! TD.AperFunction*
G04 #@! TA.AperFunction,SMDPad,CuDef*
G36*
G01*
X104072000Y-157524000D02*
X103872000Y-157524000D01*
G75*
G02*
X103772000Y-157424000I0J100000D01*
G01*
X103772000Y-156149000D01*
G75*
G02*
X103872000Y-156049000I100000J0D01*
G01*
X104072000Y-156049000D01*
G75*
G02*
X104172000Y-156149000I0J-100000D01*
G01*
X104172000Y-157424000D01*
G75*
G02*
X104072000Y-157524000I-100000J0D01*
G01*
G37*
G04 #@! TD.AperFunction*
G04 #@! TA.AperFunction,SMDPad,CuDef*
G36*
G01*
X104722000Y-157524000D02*
X104522000Y-157524000D01*
G75*
G02*
X104422000Y-157424000I0J100000D01*
G01*
X104422000Y-156149000D01*
G75*
G02*
X104522000Y-156049000I100000J0D01*
G01*
X104722000Y-156049000D01*
G75*
G02*
X104822000Y-156149000I0J-100000D01*
G01*
X104822000Y-157424000D01*
G75*
G02*
X104722000Y-157524000I-100000J0D01*
G01*
G37*
G04 #@! TD.AperFunction*
G04 #@! TA.AperFunction,SMDPad,CuDef*
G36*
G01*
X105372000Y-157524000D02*
X105172000Y-157524000D01*
G75*
G02*
X105072000Y-157424000I0J100000D01*
G01*
X105072000Y-156149000D01*
G75*
G02*
X105172000Y-156049000I100000J0D01*
G01*
X105372000Y-156049000D01*
G75*
G02*
X105472000Y-156149000I0J-100000D01*
G01*
X105472000Y-157424000D01*
G75*
G02*
X105372000Y-157524000I-100000J0D01*
G01*
G37*
G04 #@! TD.AperFunction*
G04 #@! TA.AperFunction,SMDPad,CuDef*
G36*
G01*
X106022000Y-157524000D02*
X105822000Y-157524000D01*
G75*
G02*
X105722000Y-157424000I0J100000D01*
G01*
X105722000Y-156149000D01*
G75*
G02*
X105822000Y-156049000I100000J0D01*
G01*
X106022000Y-156049000D01*
G75*
G02*
X106122000Y-156149000I0J-100000D01*
G01*
X106122000Y-157424000D01*
G75*
G02*
X106022000Y-157524000I-100000J0D01*
G01*
G37*
G04 #@! TD.AperFunction*
G04 #@! TA.AperFunction,SMDPad,CuDef*
G36*
G01*
X106022000Y-151799000D02*
X105822000Y-151799000D01*
G75*
G02*
X105722000Y-151699000I0J100000D01*
G01*
X105722000Y-150424000D01*
G75*
G02*
X105822000Y-150324000I100000J0D01*
G01*
X106022000Y-150324000D01*
G75*
G02*
X106122000Y-150424000I0J-100000D01*
G01*
X106122000Y-151699000D01*
G75*
G02*
X106022000Y-151799000I-100000J0D01*
G01*
G37*
G04 #@! TD.AperFunction*
G04 #@! TA.AperFunction,SMDPad,CuDef*
G36*
G01*
X105372000Y-151799000D02*
X105172000Y-151799000D01*
G75*
G02*
X105072000Y-151699000I0J100000D01*
G01*
X105072000Y-150424000D01*
G75*
G02*
X105172000Y-150324000I100000J0D01*
G01*
X105372000Y-150324000D01*
G75*
G02*
X105472000Y-150424000I0J-100000D01*
G01*
X105472000Y-151699000D01*
G75*
G02*
X105372000Y-151799000I-100000J0D01*
G01*
G37*
G04 #@! TD.AperFunction*
G04 #@! TA.AperFunction,SMDPad,CuDef*
G36*
G01*
X104722000Y-151799000D02*
X104522000Y-151799000D01*
G75*
G02*
X104422000Y-151699000I0J100000D01*
G01*
X104422000Y-150424000D01*
G75*
G02*
X104522000Y-150324000I100000J0D01*
G01*
X104722000Y-150324000D01*
G75*
G02*
X104822000Y-150424000I0J-100000D01*
G01*
X104822000Y-151699000D01*
G75*
G02*
X104722000Y-151799000I-100000J0D01*
G01*
G37*
G04 #@! TD.AperFunction*
G04 #@! TA.AperFunction,SMDPad,CuDef*
G36*
G01*
X104072000Y-151799000D02*
X103872000Y-151799000D01*
G75*
G02*
X103772000Y-151699000I0J100000D01*
G01*
X103772000Y-150424000D01*
G75*
G02*
X103872000Y-150324000I100000J0D01*
G01*
X104072000Y-150324000D01*
G75*
G02*
X104172000Y-150424000I0J-100000D01*
G01*
X104172000Y-151699000D01*
G75*
G02*
X104072000Y-151799000I-100000J0D01*
G01*
G37*
G04 #@! TD.AperFunction*
G04 #@! TA.AperFunction,SMDPad,CuDef*
G36*
G01*
X103422000Y-151799000D02*
X103222000Y-151799000D01*
G75*
G02*
X103122000Y-151699000I0J100000D01*
G01*
X103122000Y-150424000D01*
G75*
G02*
X103222000Y-150324000I100000J0D01*
G01*
X103422000Y-150324000D01*
G75*
G02*
X103522000Y-150424000I0J-100000D01*
G01*
X103522000Y-151699000D01*
G75*
G02*
X103422000Y-151799000I-100000J0D01*
G01*
G37*
G04 #@! TD.AperFunction*
G04 #@! TA.AperFunction,SMDPad,CuDef*
G36*
G01*
X102772000Y-151799000D02*
X102572000Y-151799000D01*
G75*
G02*
X102472000Y-151699000I0J100000D01*
G01*
X102472000Y-150424000D01*
G75*
G02*
X102572000Y-150324000I100000J0D01*
G01*
X102772000Y-150324000D01*
G75*
G02*
X102872000Y-150424000I0J-100000D01*
G01*
X102872000Y-151699000D01*
G75*
G02*
X102772000Y-151799000I-100000J0D01*
G01*
G37*
G04 #@! TD.AperFunction*
G04 #@! TA.AperFunction,SMDPad,CuDef*
G36*
G01*
X102122000Y-151799000D02*
X101922000Y-151799000D01*
G75*
G02*
X101822000Y-151699000I0J100000D01*
G01*
X101822000Y-150424000D01*
G75*
G02*
X101922000Y-150324000I100000J0D01*
G01*
X102122000Y-150324000D01*
G75*
G02*
X102222000Y-150424000I0J-100000D01*
G01*
X102222000Y-151699000D01*
G75*
G02*
X102122000Y-151799000I-100000J0D01*
G01*
G37*
G04 #@! TD.AperFunction*
G04 #@! TA.AperFunction,SMDPad,CuDef*
G36*
G01*
X101472000Y-151799000D02*
X101272000Y-151799000D01*
G75*
G02*
X101172000Y-151699000I0J100000D01*
G01*
X101172000Y-150424000D01*
G75*
G02*
X101272000Y-150324000I100000J0D01*
G01*
X101472000Y-150324000D01*
G75*
G02*
X101572000Y-150424000I0J-100000D01*
G01*
X101572000Y-151699000D01*
G75*
G02*
X101472000Y-151799000I-100000J0D01*
G01*
G37*
G04 #@! TD.AperFunction*
G04 #@! TA.AperFunction,SMDPad,CuDef*
G36*
G01*
X100822000Y-151799000D02*
X100622000Y-151799000D01*
G75*
G02*
X100522000Y-151699000I0J100000D01*
G01*
X100522000Y-150424000D01*
G75*
G02*
X100622000Y-150324000I100000J0D01*
G01*
X100822000Y-150324000D01*
G75*
G02*
X100922000Y-150424000I0J-100000D01*
G01*
X100922000Y-151699000D01*
G75*
G02*
X100822000Y-151799000I-100000J0D01*
G01*
G37*
G04 #@! TD.AperFunction*
G04 #@! TA.AperFunction,SMDPad,CuDef*
G36*
G01*
X100172000Y-151799000D02*
X99972000Y-151799000D01*
G75*
G02*
X99872000Y-151699000I0J100000D01*
G01*
X99872000Y-150424000D01*
G75*
G02*
X99972000Y-150324000I100000J0D01*
G01*
X100172000Y-150324000D01*
G75*
G02*
X100272000Y-150424000I0J-100000D01*
G01*
X100272000Y-151699000D01*
G75*
G02*
X100172000Y-151799000I-100000J0D01*
G01*
G37*
G04 #@! TD.AperFunction*
G04 #@! TA.AperFunction,SMDPad,CuDef*
G36*
G01*
X67406000Y-157524000D02*
X67206000Y-157524000D01*
G75*
G02*
X67106000Y-157424000I0J100000D01*
G01*
X67106000Y-156149000D01*
G75*
G02*
X67206000Y-156049000I100000J0D01*
G01*
X67406000Y-156049000D01*
G75*
G02*
X67506000Y-156149000I0J-100000D01*
G01*
X67506000Y-157424000D01*
G75*
G02*
X67406000Y-157524000I-100000J0D01*
G01*
G37*
G04 #@! TD.AperFunction*
G04 #@! TA.AperFunction,SMDPad,CuDef*
G36*
G01*
X68056000Y-157524000D02*
X67856000Y-157524000D01*
G75*
G02*
X67756000Y-157424000I0J100000D01*
G01*
X67756000Y-156149000D01*
G75*
G02*
X67856000Y-156049000I100000J0D01*
G01*
X68056000Y-156049000D01*
G75*
G02*
X68156000Y-156149000I0J-100000D01*
G01*
X68156000Y-157424000D01*
G75*
G02*
X68056000Y-157524000I-100000J0D01*
G01*
G37*
G04 #@! TD.AperFunction*
G04 #@! TA.AperFunction,SMDPad,CuDef*
G36*
G01*
X68706000Y-157524000D02*
X68506000Y-157524000D01*
G75*
G02*
X68406000Y-157424000I0J100000D01*
G01*
X68406000Y-156149000D01*
G75*
G02*
X68506000Y-156049000I100000J0D01*
G01*
X68706000Y-156049000D01*
G75*
G02*
X68806000Y-156149000I0J-100000D01*
G01*
X68806000Y-157424000D01*
G75*
G02*
X68706000Y-157524000I-100000J0D01*
G01*
G37*
G04 #@! TD.AperFunction*
G04 #@! TA.AperFunction,SMDPad,CuDef*
G36*
G01*
X69356000Y-157524000D02*
X69156000Y-157524000D01*
G75*
G02*
X69056000Y-157424000I0J100000D01*
G01*
X69056000Y-156149000D01*
G75*
G02*
X69156000Y-156049000I100000J0D01*
G01*
X69356000Y-156049000D01*
G75*
G02*
X69456000Y-156149000I0J-100000D01*
G01*
X69456000Y-157424000D01*
G75*
G02*
X69356000Y-157524000I-100000J0D01*
G01*
G37*
G04 #@! TD.AperFunction*
G04 #@! TA.AperFunction,SMDPad,CuDef*
G36*
G01*
X70006000Y-157524000D02*
X69806000Y-157524000D01*
G75*
G02*
X69706000Y-157424000I0J100000D01*
G01*
X69706000Y-156149000D01*
G75*
G02*
X69806000Y-156049000I100000J0D01*
G01*
X70006000Y-156049000D01*
G75*
G02*
X70106000Y-156149000I0J-100000D01*
G01*
X70106000Y-157424000D01*
G75*
G02*
X70006000Y-157524000I-100000J0D01*
G01*
G37*
G04 #@! TD.AperFunction*
G04 #@! TA.AperFunction,SMDPad,CuDef*
G36*
G01*
X70656000Y-157524000D02*
X70456000Y-157524000D01*
G75*
G02*
X70356000Y-157424000I0J100000D01*
G01*
X70356000Y-156149000D01*
G75*
G02*
X70456000Y-156049000I100000J0D01*
G01*
X70656000Y-156049000D01*
G75*
G02*
X70756000Y-156149000I0J-100000D01*
G01*
X70756000Y-157424000D01*
G75*
G02*
X70656000Y-157524000I-100000J0D01*
G01*
G37*
G04 #@! TD.AperFunction*
G04 #@! TA.AperFunction,SMDPad,CuDef*
G36*
G01*
X71306000Y-157524000D02*
X71106000Y-157524000D01*
G75*
G02*
X71006000Y-157424000I0J100000D01*
G01*
X71006000Y-156149000D01*
G75*
G02*
X71106000Y-156049000I100000J0D01*
G01*
X71306000Y-156049000D01*
G75*
G02*
X71406000Y-156149000I0J-100000D01*
G01*
X71406000Y-157424000D01*
G75*
G02*
X71306000Y-157524000I-100000J0D01*
G01*
G37*
G04 #@! TD.AperFunction*
G04 #@! TA.AperFunction,SMDPad,CuDef*
G36*
G01*
X71956000Y-157524000D02*
X71756000Y-157524000D01*
G75*
G02*
X71656000Y-157424000I0J100000D01*
G01*
X71656000Y-156149000D01*
G75*
G02*
X71756000Y-156049000I100000J0D01*
G01*
X71956000Y-156049000D01*
G75*
G02*
X72056000Y-156149000I0J-100000D01*
G01*
X72056000Y-157424000D01*
G75*
G02*
X71956000Y-157524000I-100000J0D01*
G01*
G37*
G04 #@! TD.AperFunction*
G04 #@! TA.AperFunction,SMDPad,CuDef*
G36*
G01*
X72606000Y-157524000D02*
X72406000Y-157524000D01*
G75*
G02*
X72306000Y-157424000I0J100000D01*
G01*
X72306000Y-156149000D01*
G75*
G02*
X72406000Y-156049000I100000J0D01*
G01*
X72606000Y-156049000D01*
G75*
G02*
X72706000Y-156149000I0J-100000D01*
G01*
X72706000Y-157424000D01*
G75*
G02*
X72606000Y-157524000I-100000J0D01*
G01*
G37*
G04 #@! TD.AperFunction*
G04 #@! TA.AperFunction,SMDPad,CuDef*
G36*
G01*
X73256000Y-157524000D02*
X73056000Y-157524000D01*
G75*
G02*
X72956000Y-157424000I0J100000D01*
G01*
X72956000Y-156149000D01*
G75*
G02*
X73056000Y-156049000I100000J0D01*
G01*
X73256000Y-156049000D01*
G75*
G02*
X73356000Y-156149000I0J-100000D01*
G01*
X73356000Y-157424000D01*
G75*
G02*
X73256000Y-157524000I-100000J0D01*
G01*
G37*
G04 #@! TD.AperFunction*
G04 #@! TA.AperFunction,SMDPad,CuDef*
G36*
G01*
X73256000Y-151799000D02*
X73056000Y-151799000D01*
G75*
G02*
X72956000Y-151699000I0J100000D01*
G01*
X72956000Y-150424000D01*
G75*
G02*
X73056000Y-150324000I100000J0D01*
G01*
X73256000Y-150324000D01*
G75*
G02*
X73356000Y-150424000I0J-100000D01*
G01*
X73356000Y-151699000D01*
G75*
G02*
X73256000Y-151799000I-100000J0D01*
G01*
G37*
G04 #@! TD.AperFunction*
G04 #@! TA.AperFunction,SMDPad,CuDef*
G36*
G01*
X72606000Y-151799000D02*
X72406000Y-151799000D01*
G75*
G02*
X72306000Y-151699000I0J100000D01*
G01*
X72306000Y-150424000D01*
G75*
G02*
X72406000Y-150324000I100000J0D01*
G01*
X72606000Y-150324000D01*
G75*
G02*
X72706000Y-150424000I0J-100000D01*
G01*
X72706000Y-151699000D01*
G75*
G02*
X72606000Y-151799000I-100000J0D01*
G01*
G37*
G04 #@! TD.AperFunction*
G04 #@! TA.AperFunction,SMDPad,CuDef*
G36*
G01*
X71956000Y-151799000D02*
X71756000Y-151799000D01*
G75*
G02*
X71656000Y-151699000I0J100000D01*
G01*
X71656000Y-150424000D01*
G75*
G02*
X71756000Y-150324000I100000J0D01*
G01*
X71956000Y-150324000D01*
G75*
G02*
X72056000Y-150424000I0J-100000D01*
G01*
X72056000Y-151699000D01*
G75*
G02*
X71956000Y-151799000I-100000J0D01*
G01*
G37*
G04 #@! TD.AperFunction*
G04 #@! TA.AperFunction,SMDPad,CuDef*
G36*
G01*
X71306000Y-151799000D02*
X71106000Y-151799000D01*
G75*
G02*
X71006000Y-151699000I0J100000D01*
G01*
X71006000Y-150424000D01*
G75*
G02*
X71106000Y-150324000I100000J0D01*
G01*
X71306000Y-150324000D01*
G75*
G02*
X71406000Y-150424000I0J-100000D01*
G01*
X71406000Y-151699000D01*
G75*
G02*
X71306000Y-151799000I-100000J0D01*
G01*
G37*
G04 #@! TD.AperFunction*
G04 #@! TA.AperFunction,SMDPad,CuDef*
G36*
G01*
X70656000Y-151799000D02*
X70456000Y-151799000D01*
G75*
G02*
X70356000Y-151699000I0J100000D01*
G01*
X70356000Y-150424000D01*
G75*
G02*
X70456000Y-150324000I100000J0D01*
G01*
X70656000Y-150324000D01*
G75*
G02*
X70756000Y-150424000I0J-100000D01*
G01*
X70756000Y-151699000D01*
G75*
G02*
X70656000Y-151799000I-100000J0D01*
G01*
G37*
G04 #@! TD.AperFunction*
G04 #@! TA.AperFunction,SMDPad,CuDef*
G36*
G01*
X70006000Y-151799000D02*
X69806000Y-151799000D01*
G75*
G02*
X69706000Y-151699000I0J100000D01*
G01*
X69706000Y-150424000D01*
G75*
G02*
X69806000Y-150324000I100000J0D01*
G01*
X70006000Y-150324000D01*
G75*
G02*
X70106000Y-150424000I0J-100000D01*
G01*
X70106000Y-151699000D01*
G75*
G02*
X70006000Y-151799000I-100000J0D01*
G01*
G37*
G04 #@! TD.AperFunction*
G04 #@! TA.AperFunction,SMDPad,CuDef*
G36*
G01*
X69356000Y-151799000D02*
X69156000Y-151799000D01*
G75*
G02*
X69056000Y-151699000I0J100000D01*
G01*
X69056000Y-150424000D01*
G75*
G02*
X69156000Y-150324000I100000J0D01*
G01*
X69356000Y-150324000D01*
G75*
G02*
X69456000Y-150424000I0J-100000D01*
G01*
X69456000Y-151699000D01*
G75*
G02*
X69356000Y-151799000I-100000J0D01*
G01*
G37*
G04 #@! TD.AperFunction*
G04 #@! TA.AperFunction,SMDPad,CuDef*
G36*
G01*
X68706000Y-151799000D02*
X68506000Y-151799000D01*
G75*
G02*
X68406000Y-151699000I0J100000D01*
G01*
X68406000Y-150424000D01*
G75*
G02*
X68506000Y-150324000I100000J0D01*
G01*
X68706000Y-150324000D01*
G75*
G02*
X68806000Y-150424000I0J-100000D01*
G01*
X68806000Y-151699000D01*
G75*
G02*
X68706000Y-151799000I-100000J0D01*
G01*
G37*
G04 #@! TD.AperFunction*
G04 #@! TA.AperFunction,SMDPad,CuDef*
G36*
G01*
X68056000Y-151799000D02*
X67856000Y-151799000D01*
G75*
G02*
X67756000Y-151699000I0J100000D01*
G01*
X67756000Y-150424000D01*
G75*
G02*
X67856000Y-150324000I100000J0D01*
G01*
X68056000Y-150324000D01*
G75*
G02*
X68156000Y-150424000I0J-100000D01*
G01*
X68156000Y-151699000D01*
G75*
G02*
X68056000Y-151799000I-100000J0D01*
G01*
G37*
G04 #@! TD.AperFunction*
G04 #@! TA.AperFunction,SMDPad,CuDef*
G36*
G01*
X67406000Y-151799000D02*
X67206000Y-151799000D01*
G75*
G02*
X67106000Y-151699000I0J100000D01*
G01*
X67106000Y-150424000D01*
G75*
G02*
X67206000Y-150324000I100000J0D01*
G01*
X67406000Y-150324000D01*
G75*
G02*
X67506000Y-150424000I0J-100000D01*
G01*
X67506000Y-151699000D01*
G75*
G02*
X67406000Y-151799000I-100000J0D01*
G01*
G37*
G04 #@! TD.AperFunction*
G04 #@! TA.AperFunction,SMDPad,CuDef*
G36*
G01*
X83662000Y-151799000D02*
X83462000Y-151799000D01*
G75*
G02*
X83362000Y-151699000I0J100000D01*
G01*
X83362000Y-150424000D01*
G75*
G02*
X83462000Y-150324000I100000J0D01*
G01*
X83662000Y-150324000D01*
G75*
G02*
X83762000Y-150424000I0J-100000D01*
G01*
X83762000Y-151699000D01*
G75*
G02*
X83662000Y-151799000I-100000J0D01*
G01*
G37*
G04 #@! TD.AperFunction*
G04 #@! TA.AperFunction,SMDPad,CuDef*
G36*
G01*
X84312000Y-151799000D02*
X84112000Y-151799000D01*
G75*
G02*
X84012000Y-151699000I0J100000D01*
G01*
X84012000Y-150424000D01*
G75*
G02*
X84112000Y-150324000I100000J0D01*
G01*
X84312000Y-150324000D01*
G75*
G02*
X84412000Y-150424000I0J-100000D01*
G01*
X84412000Y-151699000D01*
G75*
G02*
X84312000Y-151799000I-100000J0D01*
G01*
G37*
G04 #@! TD.AperFunction*
G04 #@! TA.AperFunction,SMDPad,CuDef*
G36*
G01*
X84962000Y-151799000D02*
X84762000Y-151799000D01*
G75*
G02*
X84662000Y-151699000I0J100000D01*
G01*
X84662000Y-150424000D01*
G75*
G02*
X84762000Y-150324000I100000J0D01*
G01*
X84962000Y-150324000D01*
G75*
G02*
X85062000Y-150424000I0J-100000D01*
G01*
X85062000Y-151699000D01*
G75*
G02*
X84962000Y-151799000I-100000J0D01*
G01*
G37*
G04 #@! TD.AperFunction*
G04 #@! TA.AperFunction,SMDPad,CuDef*
G36*
G01*
X85612000Y-151799000D02*
X85412000Y-151799000D01*
G75*
G02*
X85312000Y-151699000I0J100000D01*
G01*
X85312000Y-150424000D01*
G75*
G02*
X85412000Y-150324000I100000J0D01*
G01*
X85612000Y-150324000D01*
G75*
G02*
X85712000Y-150424000I0J-100000D01*
G01*
X85712000Y-151699000D01*
G75*
G02*
X85612000Y-151799000I-100000J0D01*
G01*
G37*
G04 #@! TD.AperFunction*
G04 #@! TA.AperFunction,SMDPad,CuDef*
G36*
G01*
X86262000Y-151799000D02*
X86062000Y-151799000D01*
G75*
G02*
X85962000Y-151699000I0J100000D01*
G01*
X85962000Y-150424000D01*
G75*
G02*
X86062000Y-150324000I100000J0D01*
G01*
X86262000Y-150324000D01*
G75*
G02*
X86362000Y-150424000I0J-100000D01*
G01*
X86362000Y-151699000D01*
G75*
G02*
X86262000Y-151799000I-100000J0D01*
G01*
G37*
G04 #@! TD.AperFunction*
G04 #@! TA.AperFunction,SMDPad,CuDef*
G36*
G01*
X86912000Y-151799000D02*
X86712000Y-151799000D01*
G75*
G02*
X86612000Y-151699000I0J100000D01*
G01*
X86612000Y-150424000D01*
G75*
G02*
X86712000Y-150324000I100000J0D01*
G01*
X86912000Y-150324000D01*
G75*
G02*
X87012000Y-150424000I0J-100000D01*
G01*
X87012000Y-151699000D01*
G75*
G02*
X86912000Y-151799000I-100000J0D01*
G01*
G37*
G04 #@! TD.AperFunction*
G04 #@! TA.AperFunction,SMDPad,CuDef*
G36*
G01*
X87562000Y-151799000D02*
X87362000Y-151799000D01*
G75*
G02*
X87262000Y-151699000I0J100000D01*
G01*
X87262000Y-150424000D01*
G75*
G02*
X87362000Y-150324000I100000J0D01*
G01*
X87562000Y-150324000D01*
G75*
G02*
X87662000Y-150424000I0J-100000D01*
G01*
X87662000Y-151699000D01*
G75*
G02*
X87562000Y-151799000I-100000J0D01*
G01*
G37*
G04 #@! TD.AperFunction*
G04 #@! TA.AperFunction,SMDPad,CuDef*
G36*
G01*
X88212000Y-151799000D02*
X88012000Y-151799000D01*
G75*
G02*
X87912000Y-151699000I0J100000D01*
G01*
X87912000Y-150424000D01*
G75*
G02*
X88012000Y-150324000I100000J0D01*
G01*
X88212000Y-150324000D01*
G75*
G02*
X88312000Y-150424000I0J-100000D01*
G01*
X88312000Y-151699000D01*
G75*
G02*
X88212000Y-151799000I-100000J0D01*
G01*
G37*
G04 #@! TD.AperFunction*
G04 #@! TA.AperFunction,SMDPad,CuDef*
G36*
G01*
X88862000Y-151799000D02*
X88662000Y-151799000D01*
G75*
G02*
X88562000Y-151699000I0J100000D01*
G01*
X88562000Y-150424000D01*
G75*
G02*
X88662000Y-150324000I100000J0D01*
G01*
X88862000Y-150324000D01*
G75*
G02*
X88962000Y-150424000I0J-100000D01*
G01*
X88962000Y-151699000D01*
G75*
G02*
X88862000Y-151799000I-100000J0D01*
G01*
G37*
G04 #@! TD.AperFunction*
G04 #@! TA.AperFunction,SMDPad,CuDef*
G36*
G01*
X89512000Y-151799000D02*
X89312000Y-151799000D01*
G75*
G02*
X89212000Y-151699000I0J100000D01*
G01*
X89212000Y-150424000D01*
G75*
G02*
X89312000Y-150324000I100000J0D01*
G01*
X89512000Y-150324000D01*
G75*
G02*
X89612000Y-150424000I0J-100000D01*
G01*
X89612000Y-151699000D01*
G75*
G02*
X89512000Y-151799000I-100000J0D01*
G01*
G37*
G04 #@! TD.AperFunction*
G04 #@! TA.AperFunction,SMDPad,CuDef*
G36*
G01*
X89512000Y-157524000D02*
X89312000Y-157524000D01*
G75*
G02*
X89212000Y-157424000I0J100000D01*
G01*
X89212000Y-156149000D01*
G75*
G02*
X89312000Y-156049000I100000J0D01*
G01*
X89512000Y-156049000D01*
G75*
G02*
X89612000Y-156149000I0J-100000D01*
G01*
X89612000Y-157424000D01*
G75*
G02*
X89512000Y-157524000I-100000J0D01*
G01*
G37*
G04 #@! TD.AperFunction*
G04 #@! TA.AperFunction,SMDPad,CuDef*
G36*
G01*
X88862000Y-157524000D02*
X88662000Y-157524000D01*
G75*
G02*
X88562000Y-157424000I0J100000D01*
G01*
X88562000Y-156149000D01*
G75*
G02*
X88662000Y-156049000I100000J0D01*
G01*
X88862000Y-156049000D01*
G75*
G02*
X88962000Y-156149000I0J-100000D01*
G01*
X88962000Y-157424000D01*
G75*
G02*
X88862000Y-157524000I-100000J0D01*
G01*
G37*
G04 #@! TD.AperFunction*
G04 #@! TA.AperFunction,SMDPad,CuDef*
G36*
G01*
X88212000Y-157524000D02*
X88012000Y-157524000D01*
G75*
G02*
X87912000Y-157424000I0J100000D01*
G01*
X87912000Y-156149000D01*
G75*
G02*
X88012000Y-156049000I100000J0D01*
G01*
X88212000Y-156049000D01*
G75*
G02*
X88312000Y-156149000I0J-100000D01*
G01*
X88312000Y-157424000D01*
G75*
G02*
X88212000Y-157524000I-100000J0D01*
G01*
G37*
G04 #@! TD.AperFunction*
G04 #@! TA.AperFunction,SMDPad,CuDef*
G36*
G01*
X87562000Y-157524000D02*
X87362000Y-157524000D01*
G75*
G02*
X87262000Y-157424000I0J100000D01*
G01*
X87262000Y-156149000D01*
G75*
G02*
X87362000Y-156049000I100000J0D01*
G01*
X87562000Y-156049000D01*
G75*
G02*
X87662000Y-156149000I0J-100000D01*
G01*
X87662000Y-157424000D01*
G75*
G02*
X87562000Y-157524000I-100000J0D01*
G01*
G37*
G04 #@! TD.AperFunction*
G04 #@! TA.AperFunction,SMDPad,CuDef*
G36*
G01*
X86912000Y-157524000D02*
X86712000Y-157524000D01*
G75*
G02*
X86612000Y-157424000I0J100000D01*
G01*
X86612000Y-156149000D01*
G75*
G02*
X86712000Y-156049000I100000J0D01*
G01*
X86912000Y-156049000D01*
G75*
G02*
X87012000Y-156149000I0J-100000D01*
G01*
X87012000Y-157424000D01*
G75*
G02*
X86912000Y-157524000I-100000J0D01*
G01*
G37*
G04 #@! TD.AperFunction*
G04 #@! TA.AperFunction,SMDPad,CuDef*
G36*
G01*
X86262000Y-157524000D02*
X86062000Y-157524000D01*
G75*
G02*
X85962000Y-157424000I0J100000D01*
G01*
X85962000Y-156149000D01*
G75*
G02*
X86062000Y-156049000I100000J0D01*
G01*
X86262000Y-156049000D01*
G75*
G02*
X86362000Y-156149000I0J-100000D01*
G01*
X86362000Y-157424000D01*
G75*
G02*
X86262000Y-157524000I-100000J0D01*
G01*
G37*
G04 #@! TD.AperFunction*
G04 #@! TA.AperFunction,SMDPad,CuDef*
G36*
G01*
X85612000Y-157524000D02*
X85412000Y-157524000D01*
G75*
G02*
X85312000Y-157424000I0J100000D01*
G01*
X85312000Y-156149000D01*
G75*
G02*
X85412000Y-156049000I100000J0D01*
G01*
X85612000Y-156049000D01*
G75*
G02*
X85712000Y-156149000I0J-100000D01*
G01*
X85712000Y-157424000D01*
G75*
G02*
X85612000Y-157524000I-100000J0D01*
G01*
G37*
G04 #@! TD.AperFunction*
G04 #@! TA.AperFunction,SMDPad,CuDef*
G36*
G01*
X84962000Y-157524000D02*
X84762000Y-157524000D01*
G75*
G02*
X84662000Y-157424000I0J100000D01*
G01*
X84662000Y-156149000D01*
G75*
G02*
X84762000Y-156049000I100000J0D01*
G01*
X84962000Y-156049000D01*
G75*
G02*
X85062000Y-156149000I0J-100000D01*
G01*
X85062000Y-157424000D01*
G75*
G02*
X84962000Y-157524000I-100000J0D01*
G01*
G37*
G04 #@! TD.AperFunction*
G04 #@! TA.AperFunction,SMDPad,CuDef*
G36*
G01*
X84312000Y-157524000D02*
X84112000Y-157524000D01*
G75*
G02*
X84012000Y-157424000I0J100000D01*
G01*
X84012000Y-156149000D01*
G75*
G02*
X84112000Y-156049000I100000J0D01*
G01*
X84312000Y-156049000D01*
G75*
G02*
X84412000Y-156149000I0J-100000D01*
G01*
X84412000Y-157424000D01*
G75*
G02*
X84312000Y-157524000I-100000J0D01*
G01*
G37*
G04 #@! TD.AperFunction*
G04 #@! TA.AperFunction,SMDPad,CuDef*
G36*
G01*
X83662000Y-157524000D02*
X83462000Y-157524000D01*
G75*
G02*
X83362000Y-157424000I0J100000D01*
G01*
X83362000Y-156149000D01*
G75*
G02*
X83462000Y-156049000I100000J0D01*
G01*
X83662000Y-156049000D01*
G75*
G02*
X83762000Y-156149000I0J-100000D01*
G01*
X83762000Y-157424000D01*
G75*
G02*
X83662000Y-157524000I-100000J0D01*
G01*
G37*
G04 #@! TD.AperFunction*
G04 #@! TA.AperFunction,SMDPad,CuDef*
G36*
G01*
X133319000Y-157524000D02*
X133119000Y-157524000D01*
G75*
G02*
X133019000Y-157424000I0J100000D01*
G01*
X133019000Y-156149000D01*
G75*
G02*
X133119000Y-156049000I100000J0D01*
G01*
X133319000Y-156049000D01*
G75*
G02*
X133419000Y-156149000I0J-100000D01*
G01*
X133419000Y-157424000D01*
G75*
G02*
X133319000Y-157524000I-100000J0D01*
G01*
G37*
G04 #@! TD.AperFunction*
G04 #@! TA.AperFunction,SMDPad,CuDef*
G36*
G01*
X133969000Y-157524000D02*
X133769000Y-157524000D01*
G75*
G02*
X133669000Y-157424000I0J100000D01*
G01*
X133669000Y-156149000D01*
G75*
G02*
X133769000Y-156049000I100000J0D01*
G01*
X133969000Y-156049000D01*
G75*
G02*
X134069000Y-156149000I0J-100000D01*
G01*
X134069000Y-157424000D01*
G75*
G02*
X133969000Y-157524000I-100000J0D01*
G01*
G37*
G04 #@! TD.AperFunction*
G04 #@! TA.AperFunction,SMDPad,CuDef*
G36*
G01*
X134619000Y-157524000D02*
X134419000Y-157524000D01*
G75*
G02*
X134319000Y-157424000I0J100000D01*
G01*
X134319000Y-156149000D01*
G75*
G02*
X134419000Y-156049000I100000J0D01*
G01*
X134619000Y-156049000D01*
G75*
G02*
X134719000Y-156149000I0J-100000D01*
G01*
X134719000Y-157424000D01*
G75*
G02*
X134619000Y-157524000I-100000J0D01*
G01*
G37*
G04 #@! TD.AperFunction*
G04 #@! TA.AperFunction,SMDPad,CuDef*
G36*
G01*
X135269000Y-157524000D02*
X135069000Y-157524000D01*
G75*
G02*
X134969000Y-157424000I0J100000D01*
G01*
X134969000Y-156149000D01*
G75*
G02*
X135069000Y-156049000I100000J0D01*
G01*
X135269000Y-156049000D01*
G75*
G02*
X135369000Y-156149000I0J-100000D01*
G01*
X135369000Y-157424000D01*
G75*
G02*
X135269000Y-157524000I-100000J0D01*
G01*
G37*
G04 #@! TD.AperFunction*
G04 #@! TA.AperFunction,SMDPad,CuDef*
G36*
G01*
X135919000Y-157524000D02*
X135719000Y-157524000D01*
G75*
G02*
X135619000Y-157424000I0J100000D01*
G01*
X135619000Y-156149000D01*
G75*
G02*
X135719000Y-156049000I100000J0D01*
G01*
X135919000Y-156049000D01*
G75*
G02*
X136019000Y-156149000I0J-100000D01*
G01*
X136019000Y-157424000D01*
G75*
G02*
X135919000Y-157524000I-100000J0D01*
G01*
G37*
G04 #@! TD.AperFunction*
G04 #@! TA.AperFunction,SMDPad,CuDef*
G36*
G01*
X136569000Y-157524000D02*
X136369000Y-157524000D01*
G75*
G02*
X136269000Y-157424000I0J100000D01*
G01*
X136269000Y-156149000D01*
G75*
G02*
X136369000Y-156049000I100000J0D01*
G01*
X136569000Y-156049000D01*
G75*
G02*
X136669000Y-156149000I0J-100000D01*
G01*
X136669000Y-157424000D01*
G75*
G02*
X136569000Y-157524000I-100000J0D01*
G01*
G37*
G04 #@! TD.AperFunction*
G04 #@! TA.AperFunction,SMDPad,CuDef*
G36*
G01*
X137219000Y-157524000D02*
X137019000Y-157524000D01*
G75*
G02*
X136919000Y-157424000I0J100000D01*
G01*
X136919000Y-156149000D01*
G75*
G02*
X137019000Y-156049000I100000J0D01*
G01*
X137219000Y-156049000D01*
G75*
G02*
X137319000Y-156149000I0J-100000D01*
G01*
X137319000Y-157424000D01*
G75*
G02*
X137219000Y-157524000I-100000J0D01*
G01*
G37*
G04 #@! TD.AperFunction*
G04 #@! TA.AperFunction,SMDPad,CuDef*
G36*
G01*
X137869000Y-157524000D02*
X137669000Y-157524000D01*
G75*
G02*
X137569000Y-157424000I0J100000D01*
G01*
X137569000Y-156149000D01*
G75*
G02*
X137669000Y-156049000I100000J0D01*
G01*
X137869000Y-156049000D01*
G75*
G02*
X137969000Y-156149000I0J-100000D01*
G01*
X137969000Y-157424000D01*
G75*
G02*
X137869000Y-157524000I-100000J0D01*
G01*
G37*
G04 #@! TD.AperFunction*
G04 #@! TA.AperFunction,SMDPad,CuDef*
G36*
G01*
X138519000Y-157524000D02*
X138319000Y-157524000D01*
G75*
G02*
X138219000Y-157424000I0J100000D01*
G01*
X138219000Y-156149000D01*
G75*
G02*
X138319000Y-156049000I100000J0D01*
G01*
X138519000Y-156049000D01*
G75*
G02*
X138619000Y-156149000I0J-100000D01*
G01*
X138619000Y-157424000D01*
G75*
G02*
X138519000Y-157524000I-100000J0D01*
G01*
G37*
G04 #@! TD.AperFunction*
G04 #@! TA.AperFunction,SMDPad,CuDef*
G36*
G01*
X139169000Y-157524000D02*
X138969000Y-157524000D01*
G75*
G02*
X138869000Y-157424000I0J100000D01*
G01*
X138869000Y-156149000D01*
G75*
G02*
X138969000Y-156049000I100000J0D01*
G01*
X139169000Y-156049000D01*
G75*
G02*
X139269000Y-156149000I0J-100000D01*
G01*
X139269000Y-157424000D01*
G75*
G02*
X139169000Y-157524000I-100000J0D01*
G01*
G37*
G04 #@! TD.AperFunction*
G04 #@! TA.AperFunction,SMDPad,CuDef*
G36*
G01*
X139169000Y-151799000D02*
X138969000Y-151799000D01*
G75*
G02*
X138869000Y-151699000I0J100000D01*
G01*
X138869000Y-150424000D01*
G75*
G02*
X138969000Y-150324000I100000J0D01*
G01*
X139169000Y-150324000D01*
G75*
G02*
X139269000Y-150424000I0J-100000D01*
G01*
X139269000Y-151699000D01*
G75*
G02*
X139169000Y-151799000I-100000J0D01*
G01*
G37*
G04 #@! TD.AperFunction*
G04 #@! TA.AperFunction,SMDPad,CuDef*
G36*
G01*
X138519000Y-151799000D02*
X138319000Y-151799000D01*
G75*
G02*
X138219000Y-151699000I0J100000D01*
G01*
X138219000Y-150424000D01*
G75*
G02*
X138319000Y-150324000I100000J0D01*
G01*
X138519000Y-150324000D01*
G75*
G02*
X138619000Y-150424000I0J-100000D01*
G01*
X138619000Y-151699000D01*
G75*
G02*
X138519000Y-151799000I-100000J0D01*
G01*
G37*
G04 #@! TD.AperFunction*
G04 #@! TA.AperFunction,SMDPad,CuDef*
G36*
G01*
X137869000Y-151799000D02*
X137669000Y-151799000D01*
G75*
G02*
X137569000Y-151699000I0J100000D01*
G01*
X137569000Y-150424000D01*
G75*
G02*
X137669000Y-150324000I100000J0D01*
G01*
X137869000Y-150324000D01*
G75*
G02*
X137969000Y-150424000I0J-100000D01*
G01*
X137969000Y-151699000D01*
G75*
G02*
X137869000Y-151799000I-100000J0D01*
G01*
G37*
G04 #@! TD.AperFunction*
G04 #@! TA.AperFunction,SMDPad,CuDef*
G36*
G01*
X137219000Y-151799000D02*
X137019000Y-151799000D01*
G75*
G02*
X136919000Y-151699000I0J100000D01*
G01*
X136919000Y-150424000D01*
G75*
G02*
X137019000Y-150324000I100000J0D01*
G01*
X137219000Y-150324000D01*
G75*
G02*
X137319000Y-150424000I0J-100000D01*
G01*
X137319000Y-151699000D01*
G75*
G02*
X137219000Y-151799000I-100000J0D01*
G01*
G37*
G04 #@! TD.AperFunction*
G04 #@! TA.AperFunction,SMDPad,CuDef*
G36*
G01*
X136569000Y-151799000D02*
X136369000Y-151799000D01*
G75*
G02*
X136269000Y-151699000I0J100000D01*
G01*
X136269000Y-150424000D01*
G75*
G02*
X136369000Y-150324000I100000J0D01*
G01*
X136569000Y-150324000D01*
G75*
G02*
X136669000Y-150424000I0J-100000D01*
G01*
X136669000Y-151699000D01*
G75*
G02*
X136569000Y-151799000I-100000J0D01*
G01*
G37*
G04 #@! TD.AperFunction*
G04 #@! TA.AperFunction,SMDPad,CuDef*
G36*
G01*
X135919000Y-151799000D02*
X135719000Y-151799000D01*
G75*
G02*
X135619000Y-151699000I0J100000D01*
G01*
X135619000Y-150424000D01*
G75*
G02*
X135719000Y-150324000I100000J0D01*
G01*
X135919000Y-150324000D01*
G75*
G02*
X136019000Y-150424000I0J-100000D01*
G01*
X136019000Y-151699000D01*
G75*
G02*
X135919000Y-151799000I-100000J0D01*
G01*
G37*
G04 #@! TD.AperFunction*
G04 #@! TA.AperFunction,SMDPad,CuDef*
G36*
G01*
X135269000Y-151799000D02*
X135069000Y-151799000D01*
G75*
G02*
X134969000Y-151699000I0J100000D01*
G01*
X134969000Y-150424000D01*
G75*
G02*
X135069000Y-150324000I100000J0D01*
G01*
X135269000Y-150324000D01*
G75*
G02*
X135369000Y-150424000I0J-100000D01*
G01*
X135369000Y-151699000D01*
G75*
G02*
X135269000Y-151799000I-100000J0D01*
G01*
G37*
G04 #@! TD.AperFunction*
G04 #@! TA.AperFunction,SMDPad,CuDef*
G36*
G01*
X134619000Y-151799000D02*
X134419000Y-151799000D01*
G75*
G02*
X134319000Y-151699000I0J100000D01*
G01*
X134319000Y-150424000D01*
G75*
G02*
X134419000Y-150324000I100000J0D01*
G01*
X134619000Y-150324000D01*
G75*
G02*
X134719000Y-150424000I0J-100000D01*
G01*
X134719000Y-151699000D01*
G75*
G02*
X134619000Y-151799000I-100000J0D01*
G01*
G37*
G04 #@! TD.AperFunction*
G04 #@! TA.AperFunction,SMDPad,CuDef*
G36*
G01*
X133969000Y-151799000D02*
X133769000Y-151799000D01*
G75*
G02*
X133669000Y-151699000I0J100000D01*
G01*
X133669000Y-150424000D01*
G75*
G02*
X133769000Y-150324000I100000J0D01*
G01*
X133969000Y-150324000D01*
G75*
G02*
X134069000Y-150424000I0J-100000D01*
G01*
X134069000Y-151699000D01*
G75*
G02*
X133969000Y-151799000I-100000J0D01*
G01*
G37*
G04 #@! TD.AperFunction*
G04 #@! TA.AperFunction,SMDPad,CuDef*
G36*
G01*
X133319000Y-151799000D02*
X133119000Y-151799000D01*
G75*
G02*
X133019000Y-151699000I0J100000D01*
G01*
X133019000Y-150424000D01*
G75*
G02*
X133119000Y-150324000I100000J0D01*
G01*
X133319000Y-150324000D01*
G75*
G02*
X133419000Y-150424000I0J-100000D01*
G01*
X133419000Y-151699000D01*
G75*
G02*
X133319000Y-151799000I-100000J0D01*
G01*
G37*
G04 #@! TD.AperFunction*
G04 #@! TA.AperFunction,SMDPad,CuDef*
G36*
G01*
X147317750Y-152496000D02*
X147830250Y-152496000D01*
G75*
G02*
X148049000Y-152714750I0J-218750D01*
G01*
X148049000Y-153152250D01*
G75*
G02*
X147830250Y-153371000I-218750J0D01*
G01*
X147317750Y-153371000D01*
G75*
G02*
X147099000Y-153152250I0J218750D01*
G01*
X147099000Y-152714750D01*
G75*
G02*
X147317750Y-152496000I218750J0D01*
G01*
G37*
G04 #@! TD.AperFunction*
G04 #@! TA.AperFunction,SMDPad,CuDef*
G36*
G01*
X147317750Y-150921000D02*
X147830250Y-150921000D01*
G75*
G02*
X148049000Y-151139750I0J-218750D01*
G01*
X148049000Y-151577250D01*
G75*
G02*
X147830250Y-151796000I-218750J0D01*
G01*
X147317750Y-151796000D01*
G75*
G02*
X147099000Y-151577250I0J218750D01*
G01*
X147099000Y-151139750D01*
G75*
G02*
X147317750Y-150921000I218750J0D01*
G01*
G37*
G04 #@! TD.AperFunction*
G04 #@! TA.AperFunction,SMDPad,CuDef*
G36*
G01*
X156588750Y-150921000D02*
X157101250Y-150921000D01*
G75*
G02*
X157320000Y-151139750I0J-218750D01*
G01*
X157320000Y-151577250D01*
G75*
G02*
X157101250Y-151796000I-218750J0D01*
G01*
X156588750Y-151796000D01*
G75*
G02*
X156370000Y-151577250I0J218750D01*
G01*
X156370000Y-151139750D01*
G75*
G02*
X156588750Y-150921000I218750J0D01*
G01*
G37*
G04 #@! TD.AperFunction*
G04 #@! TA.AperFunction,SMDPad,CuDef*
G36*
G01*
X156588750Y-152496000D02*
X157101250Y-152496000D01*
G75*
G02*
X157320000Y-152714750I0J-218750D01*
G01*
X157320000Y-153152250D01*
G75*
G02*
X157101250Y-153371000I-218750J0D01*
G01*
X156588750Y-153371000D01*
G75*
G02*
X156370000Y-153152250I0J218750D01*
G01*
X156370000Y-152714750D01*
G75*
G02*
X156588750Y-152496000I218750J0D01*
G01*
G37*
G04 #@! TD.AperFunction*
G04 #@! TA.AperFunction,SMDPad,CuDef*
G36*
G01*
X65148750Y-152242000D02*
X65661250Y-152242000D01*
G75*
G02*
X65880000Y-152460750I0J-218750D01*
G01*
X65880000Y-152898250D01*
G75*
G02*
X65661250Y-153117000I-218750J0D01*
G01*
X65148750Y-153117000D01*
G75*
G02*
X64930000Y-152898250I0J218750D01*
G01*
X64930000Y-152460750D01*
G75*
G02*
X65148750Y-152242000I218750J0D01*
G01*
G37*
G04 #@! TD.AperFunction*
G04 #@! TA.AperFunction,SMDPad,CuDef*
G36*
G01*
X65148750Y-150667000D02*
X65661250Y-150667000D01*
G75*
G02*
X65880000Y-150885750I0J-218750D01*
G01*
X65880000Y-151323250D01*
G75*
G02*
X65661250Y-151542000I-218750J0D01*
G01*
X65148750Y-151542000D01*
G75*
G02*
X64930000Y-151323250I0J218750D01*
G01*
X64930000Y-150885750D01*
G75*
G02*
X65148750Y-150667000I218750J0D01*
G01*
G37*
G04 #@! TD.AperFunction*
G04 #@! TA.AperFunction,SMDPad,CuDef*
G36*
G01*
X81404750Y-150667000D02*
X81917250Y-150667000D01*
G75*
G02*
X82136000Y-150885750I0J-218750D01*
G01*
X82136000Y-151323250D01*
G75*
G02*
X81917250Y-151542000I-218750J0D01*
G01*
X81404750Y-151542000D01*
G75*
G02*
X81186000Y-151323250I0J218750D01*
G01*
X81186000Y-150885750D01*
G75*
G02*
X81404750Y-150667000I218750J0D01*
G01*
G37*
G04 #@! TD.AperFunction*
G04 #@! TA.AperFunction,SMDPad,CuDef*
G36*
G01*
X81404750Y-152242000D02*
X81917250Y-152242000D01*
G75*
G02*
X82136000Y-152460750I0J-218750D01*
G01*
X82136000Y-152898250D01*
G75*
G02*
X81917250Y-153117000I-218750J0D01*
G01*
X81404750Y-153117000D01*
G75*
G02*
X81186000Y-152898250I0J218750D01*
G01*
X81186000Y-152460750D01*
G75*
G02*
X81404750Y-152242000I218750J0D01*
G01*
G37*
G04 #@! TD.AperFunction*
G04 #@! TA.AperFunction,SMDPad,CuDef*
G36*
G01*
X97914750Y-152242000D02*
X98427250Y-152242000D01*
G75*
G02*
X98646000Y-152460750I0J-218750D01*
G01*
X98646000Y-152898250D01*
G75*
G02*
X98427250Y-153117000I-218750J0D01*
G01*
X97914750Y-153117000D01*
G75*
G02*
X97696000Y-152898250I0J218750D01*
G01*
X97696000Y-152460750D01*
G75*
G02*
X97914750Y-152242000I218750J0D01*
G01*
G37*
G04 #@! TD.AperFunction*
G04 #@! TA.AperFunction,SMDPad,CuDef*
G36*
G01*
X97914750Y-150667000D02*
X98427250Y-150667000D01*
G75*
G02*
X98646000Y-150885750I0J-218750D01*
G01*
X98646000Y-151323250D01*
G75*
G02*
X98427250Y-151542000I-218750J0D01*
G01*
X97914750Y-151542000D01*
G75*
G02*
X97696000Y-151323250I0J218750D01*
G01*
X97696000Y-150885750D01*
G75*
G02*
X97914750Y-150667000I218750J0D01*
G01*
G37*
G04 #@! TD.AperFunction*
G04 #@! TA.AperFunction,SMDPad,CuDef*
G36*
G01*
X114678750Y-150667000D02*
X115191250Y-150667000D01*
G75*
G02*
X115410000Y-150885750I0J-218750D01*
G01*
X115410000Y-151323250D01*
G75*
G02*
X115191250Y-151542000I-218750J0D01*
G01*
X114678750Y-151542000D01*
G75*
G02*
X114460000Y-151323250I0J218750D01*
G01*
X114460000Y-150885750D01*
G75*
G02*
X114678750Y-150667000I218750J0D01*
G01*
G37*
G04 #@! TD.AperFunction*
G04 #@! TA.AperFunction,SMDPad,CuDef*
G36*
G01*
X114678750Y-152242000D02*
X115191250Y-152242000D01*
G75*
G02*
X115410000Y-152460750I0J-218750D01*
G01*
X115410000Y-152898250D01*
G75*
G02*
X115191250Y-153117000I-218750J0D01*
G01*
X114678750Y-153117000D01*
G75*
G02*
X114460000Y-152898250I0J218750D01*
G01*
X114460000Y-152460750D01*
G75*
G02*
X114678750Y-152242000I218750J0D01*
G01*
G37*
G04 #@! TD.AperFunction*
G04 #@! TA.AperFunction,SMDPad,CuDef*
G36*
G01*
X131061750Y-152242000D02*
X131574250Y-152242000D01*
G75*
G02*
X131793000Y-152460750I0J-218750D01*
G01*
X131793000Y-152898250D01*
G75*
G02*
X131574250Y-153117000I-218750J0D01*
G01*
X131061750Y-153117000D01*
G75*
G02*
X130843000Y-152898250I0J218750D01*
G01*
X130843000Y-152460750D01*
G75*
G02*
X131061750Y-152242000I218750J0D01*
G01*
G37*
G04 #@! TD.AperFunction*
G04 #@! TA.AperFunction,SMDPad,CuDef*
G36*
G01*
X131061750Y-150667000D02*
X131574250Y-150667000D01*
G75*
G02*
X131793000Y-150885750I0J-218750D01*
G01*
X131793000Y-151323250D01*
G75*
G02*
X131574250Y-151542000I-218750J0D01*
G01*
X131061750Y-151542000D01*
G75*
G02*
X130843000Y-151323250I0J218750D01*
G01*
X130843000Y-150885750D01*
G75*
G02*
X131061750Y-150667000I218750J0D01*
G01*
G37*
G04 #@! TD.AperFunction*
D10*
X143256000Y-151511000D03*
D11*
X143256000Y-154051000D03*
X143256000Y-156591000D03*
D12*
X152146000Y-157684000D03*
D13*
X152146000Y-151384000D03*
X149846000Y-151384000D03*
X154446000Y-151384000D03*
D10*
X102362000Y-160782000D03*
D11*
X104902000Y-160782000D03*
X107442000Y-160782000D03*
X109982000Y-160782000D03*
X112522000Y-160782000D03*
X115062000Y-160782000D03*
X117602000Y-160782000D03*
X120142000Y-160782000D03*
X122682000Y-160782000D03*
X125222000Y-160782000D03*
D10*
X61722000Y-163322000D03*
D11*
X64262000Y-163322000D03*
X66802000Y-163322000D03*
X69342000Y-163322000D03*
X71882000Y-163322000D03*
X74422000Y-163322000D03*
X76962000Y-163322000D03*
X79502000Y-163322000D03*
X82042000Y-163322000D03*
X84582000Y-163322000D03*
X87122000Y-163322000D03*
X89662000Y-163322000D03*
X92202000Y-163322000D03*
X94742000Y-163322000D03*
X97282000Y-163322000D03*
X99822000Y-163322000D03*
X102362000Y-163322000D03*
X104902000Y-163322000D03*
X107442000Y-163322000D03*
X109982000Y-163322000D03*
X112522000Y-163322000D03*
X115062000Y-163322000D03*
X117602000Y-163322000D03*
X120142000Y-163322000D03*
X122682000Y-163322000D03*
X125222000Y-163322000D03*
X127762000Y-163322000D03*
X130302000Y-163322000D03*
X132842000Y-163322000D03*
X135382000Y-163322000D03*
X137922000Y-163322000D03*
X140462000Y-163322000D03*
X143002000Y-163322000D03*
X145542000Y-163322000D03*
X148082000Y-163322000D03*
X150622000Y-163322000D03*
X153162000Y-163322000D03*
X155702000Y-163322000D03*
X158242000Y-163322000D03*
G04 #@! TA.AperFunction,SMDPad,CuDef*
G36*
G01*
X65534250Y-157435000D02*
X65021750Y-157435000D01*
G75*
G02*
X64803000Y-157216250I0J218750D01*
G01*
X64803000Y-156778750D01*
G75*
G02*
X65021750Y-156560000I218750J0D01*
G01*
X65534250Y-156560000D01*
G75*
G02*
X65753000Y-156778750I0J-218750D01*
G01*
X65753000Y-157216250D01*
G75*
G02*
X65534250Y-157435000I-218750J0D01*
G01*
G37*
G04 #@! TD.AperFunction*
G04 #@! TA.AperFunction,SMDPad,CuDef*
G36*
G01*
X65534250Y-155860000D02*
X65021750Y-155860000D01*
G75*
G02*
X64803000Y-155641250I0J218750D01*
G01*
X64803000Y-155203750D01*
G75*
G02*
X65021750Y-154985000I218750J0D01*
G01*
X65534250Y-154985000D01*
G75*
G02*
X65753000Y-155203750I0J-218750D01*
G01*
X65753000Y-155641250D01*
G75*
G02*
X65534250Y-155860000I-218750J0D01*
G01*
G37*
G04 #@! TD.AperFunction*
D10*
X65532000Y-143637000D03*
D11*
X65532000Y-146177000D03*
X68072000Y-143637000D03*
X68072000Y-146177000D03*
X70612000Y-143637000D03*
X70612000Y-146177000D03*
X73152000Y-143637000D03*
X73152000Y-146177000D03*
X75692000Y-143637000D03*
X75692000Y-146177000D03*
X78232000Y-143637000D03*
X78232000Y-146177000D03*
X80772000Y-143637000D03*
X80772000Y-146177000D03*
X83312000Y-143637000D03*
X83312000Y-146177000D03*
X85852000Y-143637000D03*
X85852000Y-146177000D03*
X88392000Y-143637000D03*
X88392000Y-146177000D03*
X90932000Y-143637000D03*
X90932000Y-146177000D03*
X93472000Y-143637000D03*
X93472000Y-146177000D03*
X96012000Y-143637000D03*
X96012000Y-146177000D03*
X98552000Y-143637000D03*
X98552000Y-146177000D03*
X101092000Y-143637000D03*
X101092000Y-146177000D03*
X103632000Y-143637000D03*
X103632000Y-146177000D03*
X106172000Y-143637000D03*
X106172000Y-146177000D03*
X108712000Y-143637000D03*
X108712000Y-146177000D03*
X111252000Y-143637000D03*
X111252000Y-146177000D03*
X113792000Y-143637000D03*
X113792000Y-146177000D03*
X116332000Y-143637000D03*
X116332000Y-146177000D03*
X118872000Y-143637000D03*
X118872000Y-146177000D03*
X121412000Y-143637000D03*
X121412000Y-146177000D03*
X123952000Y-143637000D03*
X123952000Y-146177000D03*
X126492000Y-143637000D03*
X126492000Y-146177000D03*
D10*
X134112000Y-145669000D03*
D11*
X136652000Y-145669000D03*
D14*
X66675000Y-152654000D03*
X74549000Y-156718000D03*
X81661000Y-154051000D03*
X98171000Y-154051000D03*
X105918000Y-155448000D03*
X114935000Y-155448002D03*
X122682000Y-155194000D03*
X131318000Y-154178000D03*
X139065000Y-154940000D03*
X147574000Y-154940000D03*
X156845000Y-154686000D03*
X89789000Y-158470600D03*
X100838000Y-158877000D03*
X101981000Y-154051000D03*
X93884200Y-148092300D03*
X104341800Y-152387900D03*
X118932987Y-152237589D03*
X120448834Y-149658834D03*
X120976532Y-152374787D03*
X103007700Y-152380500D03*
X94869500Y-149530500D03*
X120364240Y-153044943D03*
X118108310Y-152387616D03*
X134498100Y-152371000D03*
X123952000Y-149352000D03*
X135107400Y-149271200D03*
X119229581Y-147927498D03*
X119818799Y-147132738D03*
D15*
X154446000Y-152257000D02*
X154446000Y-151384000D01*
X156819500Y-152908000D02*
X154813000Y-152908000D01*
X156845000Y-152933500D02*
X156819500Y-152908000D01*
X154446000Y-152541000D02*
X154446000Y-152257000D01*
X154813000Y-152908000D02*
X154446000Y-152541000D01*
X139065000Y-156782500D02*
X139069000Y-156786500D01*
X138811000Y-155321000D02*
X134102800Y-155321000D01*
X139065000Y-155575000D02*
X138811000Y-155321000D01*
X131772500Y-152990700D02*
X131318000Y-152679500D01*
X134102800Y-155321000D02*
X131772500Y-152990700D01*
X139065000Y-155575000D02*
X139065000Y-156782500D01*
D16*
X65405000Y-152679500D02*
X66649500Y-152679500D01*
X66649500Y-152679500D02*
X66675000Y-152654000D01*
X73156000Y-156786500D02*
X74480500Y-156786500D01*
X74480500Y-156786500D02*
X74549000Y-156718000D01*
X81661000Y-152679500D02*
X81661000Y-154051000D01*
X98171000Y-152679500D02*
X98171000Y-154051000D01*
X105922000Y-156786500D02*
X105922000Y-155452000D01*
X105922000Y-155452000D02*
X105918000Y-155448000D01*
X114935000Y-152679500D02*
X114935000Y-154178000D01*
X114935000Y-154178000D02*
X114935000Y-155448002D01*
X122686000Y-156786500D02*
X122686000Y-155198000D01*
X122686000Y-155198000D02*
X122682000Y-155194000D01*
D15*
X131318000Y-152679500D02*
X131318000Y-154178000D01*
D16*
X139069000Y-154944000D02*
X139065000Y-154940000D01*
D15*
X147574000Y-152933500D02*
X147574000Y-154940000D01*
X156845000Y-152933500D02*
X156845000Y-154686000D01*
D16*
X89412000Y-156786500D02*
X89412000Y-158093600D01*
X89412000Y-158093600D02*
X89789000Y-158470600D01*
X100722000Y-156786500D02*
X100722000Y-158612000D01*
X100722000Y-158612000D02*
X100722000Y-158761000D01*
X100722000Y-158761000D02*
X100838000Y-158877000D01*
X101372000Y-152090000D02*
X102022000Y-152740000D01*
X101372000Y-151061500D02*
X101372000Y-152090000D01*
X102022000Y-151061500D02*
X102022000Y-152740000D01*
X102022000Y-152740000D02*
X102022000Y-154010000D01*
X102022000Y-154010000D02*
X101981000Y-154051000D01*
X101372000Y-156786500D02*
X101372000Y-158470000D01*
X100864000Y-158470000D02*
X100722000Y-158612000D01*
X101372000Y-158470000D02*
X100864000Y-158470000D01*
D15*
X139065000Y-155575000D02*
X139065000Y-154940000D01*
D16*
X61722000Y-163322000D02*
X62445000Y-162599000D01*
X62445000Y-162599000D02*
X62572000Y-162599000D01*
X62572000Y-162599000D02*
X62922800Y-162599000D01*
X62922800Y-162599000D02*
X67897400Y-157624400D01*
X67897400Y-157624400D02*
X67956000Y-157565800D01*
X67956000Y-157565800D02*
X67956000Y-157524400D01*
X67956000Y-157524400D02*
X67956000Y-156786500D01*
X64262000Y-163322000D02*
X64262000Y-161987100D01*
X64262000Y-161987100D02*
X68466200Y-157782900D01*
X68466200Y-157782900D02*
X68466200Y-157777200D01*
X68466200Y-157777200D02*
X68466200Y-157705600D01*
X68466200Y-157705600D02*
X68606000Y-157565800D01*
X68606000Y-157565800D02*
X68606000Y-157524400D01*
X68606000Y-157524400D02*
X68606000Y-156786500D01*
X84862000Y-158536751D02*
X84862000Y-156786500D01*
X84582000Y-163322000D02*
X84582000Y-158816751D01*
X84582000Y-158816751D02*
X84862000Y-158536751D01*
X84212000Y-157524400D02*
X84212000Y-156786500D01*
X84212000Y-158612000D02*
X84212000Y-157524400D01*
X82042000Y-163322000D02*
X82042000Y-160782000D01*
X82042000Y-160782000D02*
X84212000Y-158612000D01*
X66802000Y-163322000D02*
X66802000Y-160129700D01*
X66802000Y-160129700D02*
X68948900Y-157982800D01*
X68948900Y-157982800D02*
X68948900Y-157977100D01*
X68948900Y-157977100D02*
X68948900Y-157950200D01*
X68948900Y-157950200D02*
X69116200Y-157782900D01*
X69116200Y-157782900D02*
X69116200Y-157777200D01*
X69116200Y-157777200D02*
X69116200Y-157705600D01*
X69116200Y-157705600D02*
X69256000Y-157565800D01*
X69256000Y-157565800D02*
X69256000Y-157524400D01*
X69256000Y-157524400D02*
X69256000Y-156786500D01*
X69342000Y-163322000D02*
X69342000Y-158266600D01*
X69342000Y-158266600D02*
X69431600Y-158177000D01*
X69431600Y-158177000D02*
X69431600Y-158144400D01*
X69431600Y-158144400D02*
X69598900Y-157977100D01*
X69598900Y-157977100D02*
X69598900Y-157944500D01*
X69598900Y-157944500D02*
X69766200Y-157777200D01*
X69766200Y-157777200D02*
X69766200Y-157705600D01*
X69766200Y-157705600D02*
X69906000Y-157565800D01*
X69906000Y-157565800D02*
X69906000Y-157524400D01*
X69906000Y-157524400D02*
X69906000Y-156786500D01*
X71882000Y-163322000D02*
X70556000Y-161996000D01*
X70556000Y-161996000D02*
X70556000Y-157524400D01*
X70556000Y-157524400D02*
X70556000Y-156786500D01*
X74422000Y-163322000D02*
X71206000Y-160106000D01*
X71206000Y-160106000D02*
X71206000Y-157524400D01*
X71206000Y-157524400D02*
X71206000Y-156786500D01*
X76641249Y-163322000D02*
X71856000Y-158536751D01*
X76962000Y-163322000D02*
X76641249Y-163322000D01*
X71856000Y-158536751D02*
X71856000Y-156786500D01*
X78257400Y-161137600D02*
X75031600Y-161137600D01*
X79502000Y-163322000D02*
X79502000Y-162382200D01*
X72506000Y-157524400D02*
X72506000Y-156786500D01*
X72506000Y-158612000D02*
X72506000Y-157524400D01*
X75031600Y-161137600D02*
X72506000Y-158612000D01*
X79502000Y-162382200D02*
X78257400Y-161137600D01*
D15*
X81661000Y-151104500D02*
X81946300Y-151083000D01*
X81946300Y-151083000D02*
X82136800Y-151083000D01*
X82136800Y-151083000D02*
X83361600Y-151083000D01*
X83361600Y-151083000D02*
X83552100Y-151083000D01*
X83552100Y-151083000D02*
X83562000Y-151061500D01*
X98171000Y-151104500D02*
X98456300Y-151083000D01*
X98456300Y-151083000D02*
X98646800Y-151083000D01*
X98646800Y-151083000D02*
X99871600Y-151083000D01*
X99871600Y-151083000D02*
X100062100Y-151083000D01*
X100062100Y-151083000D02*
X100072000Y-151061500D01*
X81661000Y-151104500D02*
X81186800Y-151342300D01*
X81186800Y-151342300D02*
X81180600Y-151342300D01*
X81180600Y-151342300D02*
X79821600Y-152701300D01*
X79821600Y-152701300D02*
X68879600Y-152701300D01*
X68879600Y-152701300D02*
X68132400Y-152701300D01*
X68132400Y-152701300D02*
X68005100Y-152701300D01*
X68005100Y-152701300D02*
X67776900Y-152473100D01*
X67776900Y-152473100D02*
X67382300Y-152078500D01*
X67382300Y-152078500D02*
X67306000Y-152002200D01*
X67306000Y-152002200D02*
X67306000Y-151799400D01*
X67306000Y-151799400D02*
X67306000Y-151061500D01*
X98171000Y-151104500D02*
X97696800Y-151342300D01*
X97696800Y-151342300D02*
X97690600Y-151342300D01*
X97690600Y-151342300D02*
X95848900Y-153184000D01*
X95848900Y-153184000D02*
X89885500Y-153184000D01*
X89885500Y-153184000D02*
X88738500Y-153184000D01*
X88738500Y-153184000D02*
X84743800Y-153184000D01*
X84743800Y-153184000D02*
X84032900Y-152473100D01*
X84032900Y-152473100D02*
X83638300Y-152078500D01*
X83638300Y-152078500D02*
X83562000Y-152002200D01*
X83562000Y-152002200D02*
X83562000Y-151799400D01*
X83562000Y-151799400D02*
X83562000Y-151061500D01*
X114935000Y-151104500D02*
X115220300Y-151083000D01*
X115220300Y-151083000D02*
X115410800Y-151083000D01*
X115410800Y-151083000D02*
X116635600Y-151083000D01*
X116635600Y-151083000D02*
X116826100Y-151083000D01*
X116826100Y-151083000D02*
X116836000Y-151061500D01*
X133219000Y-151061500D02*
X133209100Y-151083000D01*
X133209100Y-151083000D02*
X133018600Y-151083000D01*
X133018600Y-151083000D02*
X131793800Y-151083000D01*
X131793800Y-151083000D02*
X131603300Y-151083000D01*
X131603300Y-151083000D02*
X131318000Y-151104500D01*
X65405000Y-151104500D02*
X65690300Y-151083000D01*
X65690300Y-151083000D02*
X65880800Y-151083000D01*
X65880800Y-151083000D02*
X67105600Y-151083000D01*
X67105600Y-151083000D02*
X67296100Y-151083000D01*
X67296100Y-151083000D02*
X67306000Y-151061500D01*
X133219000Y-151061500D02*
X133219000Y-151799400D01*
X133219000Y-151799400D02*
X133219000Y-152169700D01*
X133219000Y-152169700D02*
X133736000Y-152686700D01*
X133736000Y-152686700D02*
X134182400Y-153133100D01*
X134182400Y-153133100D02*
X135100300Y-154051000D01*
X135100300Y-154051000D02*
X143256000Y-154051000D01*
X131318000Y-151104500D02*
X130843000Y-151104500D01*
X118192012Y-154543566D02*
X116836000Y-153187554D01*
X121302560Y-154266933D02*
X121025928Y-154543566D01*
X116836000Y-153187554D02*
X116836000Y-151061500D01*
X121025928Y-154543566D02*
X118192012Y-154543566D01*
X127680567Y-154266933D02*
X121302560Y-154266933D01*
X130843000Y-151104500D02*
X127680567Y-154266933D01*
X65125700Y-151104500D02*
X65405000Y-151104500D01*
X65278000Y-156997500D02*
X66095910Y-156179590D01*
X64338200Y-153111200D02*
X64338200Y-151892000D01*
X66095910Y-154868910D02*
X64338200Y-153111200D01*
X66095910Y-156179590D02*
X66095910Y-154868910D01*
X64338200Y-151892000D02*
X65125700Y-151104500D01*
X114454600Y-151342300D02*
X112164200Y-153632700D01*
X114935000Y-151104500D02*
X114460800Y-151342300D01*
X112164200Y-153632700D02*
X103984862Y-153632700D01*
X100072000Y-153727562D02*
X100072000Y-151061500D01*
X103984862Y-153632700D02*
X102474349Y-155143213D01*
X102474349Y-155143213D02*
X101487650Y-155143212D01*
X101487650Y-155143212D02*
X100072000Y-153727562D01*
X114460800Y-151342300D02*
X114454600Y-151342300D01*
X149846000Y-151384000D02*
X149223000Y-151371200D01*
X147922800Y-151371200D02*
X147574000Y-151358500D01*
X148049800Y-151371200D02*
X147922800Y-151371200D01*
X149096000Y-151371200D02*
X148049800Y-151371200D01*
X149223000Y-151371200D02*
X149096000Y-151371200D01*
X139670600Y-148687600D02*
X144903100Y-148687600D01*
X136652000Y-145669000D02*
X139670600Y-148687600D01*
X144903100Y-148687600D02*
X147574000Y-151358500D01*
D16*
X143256000Y-151511000D02*
X143979000Y-152146000D01*
X143979000Y-152146000D02*
X144106000Y-152146000D01*
X144106000Y-152146000D02*
X147974900Y-152146000D01*
X147974900Y-152146000D02*
X148014400Y-152146000D01*
X148014400Y-152146000D02*
X148016800Y-152148400D01*
X148016800Y-152148400D02*
X148033900Y-152148400D01*
X148033900Y-152148400D02*
X148038200Y-152152700D01*
X148038200Y-152152700D02*
X148052700Y-152152700D01*
X148052700Y-152152700D02*
X148060800Y-152160800D01*
X148060800Y-152160800D02*
X148070000Y-152160800D01*
X148070000Y-152160800D02*
X148078100Y-152168900D01*
X148078100Y-152168900D02*
X148087300Y-152168900D01*
X148087300Y-152168900D02*
X148098200Y-152179800D01*
X148098200Y-152179800D02*
X148103000Y-152179800D01*
X148103000Y-152179800D02*
X148114000Y-152190800D01*
X148114000Y-152190800D02*
X148118700Y-152190800D01*
X148118700Y-152190800D02*
X148132200Y-152204300D01*
X148132200Y-152204300D02*
X148145800Y-152217900D01*
X148145800Y-152217900D02*
X149258800Y-153330900D01*
X149258800Y-153330900D02*
X150182900Y-153330900D01*
X150373000Y-153521000D02*
X150182900Y-153330900D01*
X152273000Y-155956000D02*
X150373000Y-154056000D01*
X150373000Y-154056000D02*
X150373000Y-153521000D01*
X152273000Y-157557000D02*
X152146000Y-157684000D01*
X152273000Y-155956000D02*
X152273000Y-157557000D01*
X152146000Y-153162000D02*
X152146000Y-151384000D01*
X150182900Y-153330900D02*
X150628700Y-153330900D01*
X150797600Y-153162000D02*
X152146000Y-153162000D01*
X150628700Y-153330900D02*
X150797600Y-153162000D01*
X157143706Y-155308302D02*
X158115000Y-154337008D01*
X158115000Y-154337008D02*
X158115000Y-152628500D01*
X154165302Y-155308302D02*
X157143706Y-155308302D01*
X152146000Y-151384000D02*
X152146000Y-153289000D01*
X158115000Y-152628500D02*
X156845000Y-151358500D01*
X152146000Y-153289000D02*
X154165302Y-155308302D01*
X87122000Y-163322000D02*
X85512000Y-161712000D01*
X85512000Y-161712000D02*
X85512000Y-157524400D01*
X85512000Y-157524400D02*
X85512000Y-156786500D01*
X89662000Y-163322000D02*
X86162000Y-159822000D01*
X86162000Y-159822000D02*
X86162000Y-157524400D01*
X86162000Y-157524400D02*
X86162000Y-156786500D01*
X92202000Y-163322000D02*
X91352001Y-162472001D01*
X91352001Y-162472001D02*
X91145140Y-162472001D01*
X91145140Y-162472001D02*
X86812000Y-158138861D01*
X86812000Y-158138861D02*
X86812000Y-156786500D01*
X94742000Y-163322000D02*
X91325724Y-159905724D01*
X89153614Y-159905724D02*
X87462000Y-158214110D01*
X91325724Y-159905724D02*
X89153614Y-159905724D01*
X87462000Y-158214110D02*
X87462000Y-156786500D01*
X89321954Y-159499313D02*
X88112000Y-158289359D01*
X88112000Y-158289359D02*
X88112000Y-156786500D01*
X97282000Y-163322000D02*
X93459313Y-159499313D01*
X93459313Y-159499313D02*
X89321954Y-159499313D01*
X89490294Y-159092902D02*
X88762000Y-158364608D01*
X99822000Y-163322000D02*
X95592902Y-159092902D01*
X95592902Y-159092902D02*
X89490294Y-159092902D01*
X88762000Y-158364608D02*
X88762000Y-156786500D01*
X107442000Y-163322000D02*
X106607100Y-163322000D01*
X106607100Y-163322000D02*
X105401400Y-162116300D01*
X105401400Y-162116300D02*
X104531200Y-162116300D01*
X104531200Y-162116300D02*
X104402600Y-161987700D01*
X104402600Y-161987700D02*
X103696300Y-161281400D01*
X103696300Y-161281400D02*
X103567700Y-161152800D01*
X103567700Y-161152800D02*
X103567700Y-159784700D01*
X103567700Y-159784700D02*
X102022000Y-158239000D01*
X102022000Y-158239000D02*
X102022000Y-157524400D01*
X102022000Y-157524400D02*
X102022000Y-156786500D01*
X109982000Y-163322000D02*
X108647700Y-161987700D01*
X108647700Y-161987700D02*
X108647700Y-160282600D01*
X108647700Y-160282600D02*
X107941400Y-159576300D01*
X107941400Y-159576300D02*
X105973500Y-159576300D01*
X105973500Y-159576300D02*
X105569000Y-159171800D01*
X105569000Y-159171800D02*
X104796500Y-159171800D01*
X104796500Y-159171800D02*
X104720900Y-159096200D01*
X104720900Y-159096200D02*
X103800200Y-158175500D01*
X103800200Y-158175500D02*
X103322000Y-157697300D01*
X103322000Y-157697300D02*
X103322000Y-157524400D01*
X103322000Y-157524400D02*
X103322000Y-156786500D01*
X112522000Y-163322000D02*
X111187700Y-161987700D01*
X111187700Y-161987700D02*
X111187700Y-160282600D01*
X111187700Y-160282600D02*
X110481400Y-159576300D01*
X110481400Y-159576300D02*
X108624100Y-159576300D01*
X108624100Y-159576300D02*
X108141400Y-159093600D01*
X108141400Y-159093600D02*
X106118100Y-159093600D01*
X106118100Y-159093600D02*
X105752700Y-158728200D01*
X105752700Y-158728200D02*
X105033900Y-158728200D01*
X105033900Y-158728200D02*
X104920400Y-158614700D01*
X104920400Y-158614700D02*
X104281700Y-157976000D01*
X104281700Y-157976000D02*
X103972000Y-157666300D01*
X103972000Y-157666300D02*
X103972000Y-157524400D01*
X103972000Y-157524400D02*
X103972000Y-156786500D01*
X115062000Y-163322000D02*
X113727700Y-161987700D01*
X113727700Y-161987700D02*
X113727700Y-160282600D01*
X113727700Y-160282600D02*
X113021400Y-159576300D01*
X113021400Y-159576300D02*
X111164100Y-159576300D01*
X111164100Y-159576300D02*
X110681400Y-159093600D01*
X110681400Y-159093600D02*
X108824000Y-159093600D01*
X108824000Y-159093600D02*
X108341300Y-158610900D01*
X108341300Y-158610900D02*
X106262800Y-158610900D01*
X106262800Y-158610900D02*
X105936500Y-158284600D01*
X105936500Y-158284600D02*
X105271100Y-158284600D01*
X105271100Y-158284600D02*
X105119800Y-158133300D01*
X105119800Y-158133300D02*
X104763100Y-157776600D01*
X104763100Y-157776600D02*
X104622000Y-157635500D01*
X104622000Y-157635500D02*
X104622000Y-157524400D01*
X104622000Y-157524400D02*
X104622000Y-156786500D01*
X117486000Y-158104000D02*
X117486000Y-157524400D01*
X117602000Y-163322000D02*
X116396300Y-162116300D01*
X117486000Y-157524400D02*
X117486000Y-156786500D01*
X116396300Y-159193700D02*
X117486000Y-158104000D01*
X116396300Y-162116300D02*
X116396300Y-159193700D01*
X120142000Y-163322000D02*
X118807700Y-161987700D01*
X118807700Y-161987700D02*
X118807700Y-160282600D01*
X118807700Y-160282600D02*
X118786000Y-160260900D01*
X118786000Y-160260900D02*
X118786000Y-157524400D01*
X118786000Y-157524400D02*
X118786000Y-156786500D01*
X122682000Y-163322000D02*
X121347700Y-161987700D01*
X121347700Y-161987700D02*
X121347700Y-160282600D01*
X121347700Y-160282600D02*
X120086000Y-159020900D01*
X120086000Y-159020900D02*
X120086000Y-157524400D01*
X120086000Y-157524400D02*
X120086000Y-156786500D01*
X121386000Y-157524400D02*
X121386000Y-156786500D01*
X121386000Y-157948401D02*
X121386000Y-157524400D01*
X125222000Y-163322000D02*
X123952000Y-162052000D01*
X123952000Y-162052000D02*
X123952000Y-160380486D01*
X123952000Y-160380486D02*
X122956514Y-159385000D01*
X122822599Y-159385000D02*
X121386000Y-157948401D01*
X122956514Y-159385000D02*
X122822599Y-159385000D01*
X130581400Y-161569400D02*
X133869000Y-158281800D01*
X128473200Y-161569400D02*
X130581400Y-161569400D01*
X133869000Y-158281800D02*
X133869000Y-156786500D01*
X127762000Y-163322000D02*
X127762000Y-162280600D01*
X127762000Y-162280600D02*
X128473200Y-161569400D01*
X134519000Y-158546200D02*
X134519000Y-156786500D01*
X134216811Y-158848389D02*
X134519000Y-158546200D01*
X130302000Y-163322000D02*
X134216811Y-159407189D01*
X134216811Y-159407189D02*
X134216811Y-158848389D01*
X134623222Y-159178578D02*
X135169000Y-158632800D01*
X135169000Y-158632800D02*
X135169000Y-156786500D01*
X132842000Y-163322000D02*
X134623222Y-161540778D01*
X134623222Y-161540778D02*
X134623222Y-159178578D01*
X135382000Y-158994551D02*
X135819000Y-158557551D01*
X135819000Y-158557551D02*
X135819000Y-156786500D01*
X135382000Y-163322000D02*
X135382000Y-158994551D01*
X137922000Y-163322000D02*
X136469000Y-161869000D01*
X136469000Y-161869000D02*
X136469000Y-157524400D01*
X136469000Y-157524400D02*
X136469000Y-156786500D01*
X140462000Y-163322000D02*
X137119000Y-159979000D01*
X137119000Y-159979000D02*
X137119000Y-157524400D01*
X137119000Y-157524400D02*
X137119000Y-156786500D01*
X143002000Y-163322000D02*
X137769000Y-158089000D01*
X137769000Y-158089000D02*
X137769000Y-157524400D01*
X137769000Y-157524400D02*
X137769000Y-156786500D01*
X145542000Y-161925000D02*
X144018000Y-160401000D01*
X138419000Y-157524400D02*
X138419000Y-156786500D01*
X140792200Y-160401000D02*
X138419000Y-158027800D01*
X145542000Y-163322000D02*
X145542000Y-161925000D01*
X138419000Y-158027800D02*
X138419000Y-157524400D01*
X144018000Y-160401000D02*
X140792200Y-160401000D01*
X64326300Y-143738700D02*
X64326300Y-146676400D01*
X64326300Y-146676400D02*
X67078089Y-149428189D01*
X67833940Y-149428189D02*
X68606000Y-150200249D01*
X67078089Y-149428189D02*
X67833940Y-149428189D01*
X68606000Y-150200249D02*
X68606000Y-151061500D01*
X64428000Y-143637000D02*
X64326300Y-143738700D01*
X65532000Y-143637000D02*
X64428000Y-143637000D01*
X65532000Y-146313449D02*
X69256000Y-150037449D01*
X65532000Y-146177000D02*
X65532000Y-146313449D01*
X69256000Y-150037449D02*
X69256000Y-151061500D01*
X69406300Y-147825550D02*
X71247000Y-149666250D01*
X70612000Y-143637000D02*
X69406300Y-144842700D01*
X71247000Y-151020500D02*
X71206000Y-151061500D01*
X71247000Y-149666250D02*
X71247000Y-151020500D01*
X69406300Y-144842700D02*
X69406300Y-147825550D01*
X71856000Y-149700499D02*
X71856000Y-151061500D01*
X70612000Y-148456499D02*
X71856000Y-149700499D01*
X70612000Y-146177000D02*
X70612000Y-148456499D01*
X84299846Y-149744865D02*
X84406615Y-149744865D01*
X81789320Y-149199589D02*
X81928187Y-149338456D01*
X81928187Y-149338456D02*
X83893438Y-149338456D01*
X74486300Y-146676400D02*
X77009489Y-149199589D01*
X75692000Y-143637000D02*
X74486300Y-144842700D01*
X84406615Y-149744865D02*
X84862000Y-150200250D01*
X74486300Y-144842700D02*
X74486300Y-146676400D01*
X83893438Y-149338456D02*
X84299846Y-149744865D01*
X84862000Y-150200250D02*
X84862000Y-151061500D01*
X77009489Y-149199589D02*
X81789320Y-149199589D01*
X84061778Y-148932045D02*
X84468186Y-149338454D01*
X78208965Y-148693965D02*
X81858447Y-148693965D01*
X75692000Y-146177000D02*
X78208965Y-148693965D01*
X81858447Y-148693965D02*
X82096527Y-148932045D01*
X84468186Y-149338454D02*
X84574955Y-149338454D01*
X85512000Y-150275499D02*
X85512000Y-151061500D01*
X84574955Y-149338454D02*
X85512000Y-150275499D01*
X82096527Y-148932045D02*
X84061778Y-148932045D01*
X80772000Y-143637000D02*
X79566300Y-144842700D01*
X79566300Y-144842700D02*
X79566300Y-146676400D01*
X79566300Y-146676400D02*
X80336845Y-147446945D01*
X80336845Y-147446945D02*
X82335681Y-147446945D01*
X87462000Y-150324000D02*
X87462000Y-151061500D01*
X84973206Y-148119221D02*
X85257221Y-148119221D01*
X84566796Y-147712810D02*
X84973206Y-148119221D01*
X82601546Y-147712810D02*
X84566796Y-147712810D01*
X82335681Y-147446945D02*
X82601546Y-147712810D01*
X85257221Y-148119221D02*
X87462000Y-150324000D01*
X85500810Y-147712810D02*
X88112000Y-150324000D01*
X84735137Y-147306401D02*
X85141546Y-147712810D01*
X82769887Y-147306401D02*
X84735137Y-147306401D01*
X81640486Y-146177000D02*
X82769887Y-147306401D01*
X88112000Y-150324000D02*
X88112000Y-151061500D01*
X85141546Y-147712810D02*
X85500810Y-147712810D01*
X80772000Y-146177000D02*
X81640486Y-146177000D01*
X102672000Y-150324000D02*
X102672000Y-151061500D01*
X101547644Y-149199644D02*
X102672000Y-150324000D01*
X94227099Y-148435199D02*
X95444799Y-148435199D01*
X95444799Y-148435199D02*
X96128700Y-149119100D01*
X93884200Y-148092300D02*
X94227099Y-148435199D01*
X96128700Y-149119100D02*
X100084996Y-149119100D01*
X100165540Y-149199644D02*
X101547644Y-149199644D01*
X100084996Y-149119100D02*
X100165540Y-149199644D01*
X95758700Y-147383800D02*
X96606400Y-148231500D01*
X96606400Y-148231500D02*
X100346898Y-148231500D01*
X90932000Y-143637000D02*
X92266300Y-144971300D01*
X102684822Y-148386822D02*
X104622000Y-150324000D01*
X104622000Y-150324000D02*
X104622000Y-151061500D01*
X94677700Y-146547800D02*
X95513700Y-147383800D01*
X95513700Y-147383800D02*
X95758700Y-147383800D01*
X94677700Y-145677600D02*
X94677700Y-146547800D01*
X92266300Y-144971300D02*
X93971400Y-144971300D01*
X100502220Y-148386822D02*
X102684822Y-148386822D01*
X93971400Y-144971300D02*
X94677700Y-145677600D01*
X100346898Y-148231500D02*
X100502220Y-148386822D01*
X105272000Y-151942633D02*
X105272000Y-151061500D01*
X104826733Y-152387900D02*
X105272000Y-151942633D01*
X104341800Y-152387900D02*
X104826733Y-152387900D01*
X118136000Y-150013000D02*
X118136000Y-151061500D01*
X105657951Y-149485200D02*
X117608200Y-149485200D01*
X103746751Y-147574000D02*
X105657951Y-149485200D01*
X100838900Y-147574000D02*
X103746751Y-147574000D01*
X99051400Y-144971300D02*
X99757700Y-145677600D01*
X96012000Y-143637000D02*
X97346300Y-144971300D01*
X99757700Y-146492800D02*
X100838900Y-147574000D01*
X99757700Y-145677600D02*
X99757700Y-146492800D01*
X117608200Y-149485200D02*
X118136000Y-150013000D01*
X97346300Y-144971300D02*
X99051400Y-144971300D01*
X118786000Y-152090602D02*
X118932987Y-152237589D01*
X118786000Y-151061500D02*
X118786000Y-152090602D01*
X120736000Y-151061500D02*
X120736000Y-149946000D01*
X120736000Y-149946000D02*
X120448834Y-149658834D01*
X121386000Y-151061500D02*
X121386000Y-151965319D01*
X121386000Y-151965319D02*
X120976532Y-152374787D01*
X69906000Y-150112698D02*
X69906000Y-151061500D01*
X68072000Y-143637000D02*
X66866300Y-144842700D01*
X66866300Y-144842700D02*
X66866300Y-147072998D01*
X66866300Y-147072998D02*
X69906000Y-150112698D01*
X70556000Y-149550000D02*
X70556000Y-151061500D01*
X68072000Y-146177000D02*
X68072000Y-147066000D01*
X68072000Y-147066000D02*
X70556000Y-149550000D01*
X73152000Y-143637000D02*
X71946300Y-144842700D01*
X72506000Y-149775748D02*
X72506000Y-151061500D01*
X71946300Y-144842700D02*
X71946300Y-149216048D01*
X71946300Y-149216048D02*
X72506000Y-149775748D01*
X73152000Y-146177000D02*
X73152000Y-150091800D01*
X73152000Y-150091800D02*
X73156000Y-150095800D01*
X73156000Y-150095800D02*
X73156000Y-150282200D01*
X73156000Y-150282200D02*
X73156000Y-150323600D01*
X73156000Y-150323600D02*
X73156000Y-151061500D01*
X78637454Y-148287554D02*
X82026788Y-148287554D01*
X78232000Y-143637000D02*
X77026300Y-144842700D01*
X84230118Y-148525634D02*
X84636526Y-148932043D01*
X77026300Y-144842700D02*
X77026300Y-146676400D01*
X77026300Y-146676400D02*
X78637454Y-148287554D01*
X84770043Y-148932043D02*
X86162000Y-150324000D01*
X82026788Y-148287554D02*
X82264867Y-148525634D01*
X82264867Y-148525634D02*
X84230118Y-148525634D01*
X86162000Y-150324000D02*
X86162000Y-151061500D01*
X84636526Y-148932043D02*
X84770043Y-148932043D01*
X79936143Y-147881143D02*
X82195128Y-147881143D01*
X84804866Y-148525632D02*
X85013632Y-148525632D01*
X84398456Y-148119221D02*
X84804866Y-148525632D01*
X82433206Y-148119221D02*
X84398456Y-148119221D01*
X82195128Y-147881143D02*
X82433206Y-148119221D01*
X85013632Y-148525632D02*
X86812000Y-150324000D01*
X78232000Y-146177000D02*
X79936143Y-147881143D01*
X86812000Y-150324000D02*
X86812000Y-151061500D01*
X83312000Y-143637000D02*
X84646300Y-144971300D01*
X84646300Y-144971300D02*
X86351400Y-144971300D01*
X86351400Y-144971300D02*
X87057700Y-145677600D01*
X87057700Y-145677600D02*
X87057700Y-147325300D01*
X87057700Y-147325300D02*
X89944600Y-150212200D01*
X89944600Y-150212200D02*
X89944600Y-150214300D01*
X89944600Y-150214300D02*
X89949600Y-150219300D01*
X89949600Y-150219300D02*
X89949600Y-150221500D01*
X89949600Y-150221500D02*
X89954600Y-150226500D01*
X89954600Y-150226500D02*
X89954600Y-150230700D01*
X89954600Y-150230700D02*
X89958300Y-150234400D01*
X89958300Y-150234400D02*
X89958300Y-150238700D01*
X89958300Y-150238700D02*
X89962000Y-150242400D01*
X89962000Y-150242400D02*
X89962000Y-150248500D01*
X89962000Y-150248500D02*
X89964300Y-150250800D01*
X89964300Y-150250800D02*
X89964300Y-150257000D01*
X89964300Y-150257000D02*
X89966600Y-150259300D01*
X89966600Y-150259300D02*
X89966600Y-150275200D01*
X89966600Y-150275200D02*
X89968100Y-150276700D01*
X89968100Y-150276700D02*
X89968100Y-150403700D01*
X89968100Y-150403700D02*
X89968100Y-151424700D01*
X89968100Y-151424700D02*
X89968100Y-151551700D01*
X89968100Y-151551700D02*
X89968100Y-151846300D01*
X89968100Y-151846300D02*
X89966600Y-151847800D01*
X89966600Y-151847800D02*
X89966600Y-151863700D01*
X89966600Y-151863700D02*
X89962000Y-151868300D01*
X89962000Y-151868300D02*
X89962000Y-151880600D01*
X89962000Y-151880600D02*
X89954600Y-151888000D01*
X89954600Y-151888000D02*
X89954600Y-151896500D01*
X89954600Y-151896500D02*
X89944600Y-151906500D01*
X89944600Y-151906500D02*
X89944600Y-151910800D01*
X89944600Y-151910800D02*
X89938400Y-151917000D01*
X89938400Y-151917000D02*
X89932200Y-151923200D01*
X89932200Y-151923200D02*
X89723800Y-152131600D01*
X89723800Y-152131600D02*
X89700300Y-152155100D01*
X89700300Y-152155100D02*
X89459300Y-152155100D01*
X89459300Y-152155100D02*
X89164700Y-152155100D01*
X89164700Y-152155100D02*
X89070600Y-152155100D01*
X89070600Y-152155100D02*
X88830800Y-151915300D01*
X88830800Y-151915300D02*
X88762000Y-151846500D01*
X88762000Y-151846500D02*
X88762000Y-151799400D01*
X88762000Y-151799400D02*
X88762000Y-151061500D01*
X86394401Y-147306401D02*
X89412000Y-150324000D01*
X85309887Y-147306401D02*
X86394401Y-147306401D01*
X84180486Y-146177000D02*
X85309887Y-147306401D01*
X89412000Y-150324000D02*
X89412000Y-151061500D01*
X83312000Y-146177000D02*
X84180486Y-146177000D01*
X88392000Y-143637000D02*
X89726300Y-144971300D01*
X89726300Y-144971300D02*
X91431400Y-144971300D01*
X92137700Y-146547800D02*
X92983600Y-147393700D01*
X94173600Y-147393700D02*
X94646400Y-147866500D01*
X96367600Y-148675300D02*
X100215947Y-148675300D01*
X100333880Y-148793233D02*
X101791233Y-148793233D01*
X91431400Y-144971300D02*
X92137700Y-145677600D01*
X92137700Y-145677600D02*
X92137700Y-146547800D01*
X103322000Y-150324000D02*
X103322000Y-151061500D01*
X95558800Y-147866500D02*
X96367600Y-148675300D01*
X100215947Y-148675300D02*
X100333880Y-148793233D01*
X92983600Y-147393700D02*
X94173600Y-147393700D01*
X94646400Y-147866500D02*
X95558800Y-147866500D01*
X101791233Y-148793233D02*
X103322000Y-150324000D01*
X103972000Y-151799000D02*
X103972000Y-151061500D01*
X103390500Y-152380500D02*
X103972000Y-151799000D01*
X103007700Y-152380500D02*
X103390500Y-152380500D01*
X93472000Y-143637000D02*
X94806300Y-144971300D01*
X105922000Y-150324000D02*
X105922000Y-151061500D01*
X103578411Y-147980411D02*
X105922000Y-150324000D01*
X100670560Y-147980411D02*
X103578411Y-147980411D01*
X97217700Y-146547800D02*
X98457500Y-147787600D01*
X97217700Y-145677600D02*
X97217700Y-146547800D01*
X94806300Y-144971300D02*
X96511400Y-144971300D01*
X100477749Y-147787600D02*
X100670560Y-147980411D01*
X96511400Y-144971300D02*
X97217700Y-145677600D01*
X98457500Y-147787600D02*
X100477749Y-147787600D01*
X84212000Y-151061500D02*
X84212000Y-151799400D01*
X84212000Y-151799400D02*
X84212000Y-151846500D01*
X84212000Y-151846500D02*
X84280800Y-151915300D01*
X84280800Y-151915300D02*
X85003300Y-152637800D01*
X85003300Y-152637800D02*
X89164700Y-152637800D01*
X89164700Y-152637800D02*
X89859300Y-152637800D01*
X89859300Y-152637800D02*
X91762200Y-152637800D01*
X91762200Y-152637800D02*
X94869500Y-149530500D01*
X67956000Y-151846500D02*
X67956000Y-151799000D01*
X68264600Y-152155100D02*
X67956000Y-151846500D01*
X81759847Y-149744867D02*
X81746491Y-149731511D01*
X84131506Y-150151276D02*
X83725098Y-149744867D01*
X84212000Y-150151276D02*
X84131506Y-150151276D01*
X84212000Y-151061500D02*
X84212000Y-150151276D01*
X79322900Y-152155100D02*
X68264600Y-152155100D01*
X81746491Y-149731511D02*
X79322900Y-152155100D01*
X83725098Y-149744867D02*
X81759847Y-149744867D01*
X67956000Y-151799000D02*
X67956000Y-151061500D01*
X67956000Y-150324000D02*
X67956000Y-151061500D01*
X63423800Y-153568300D02*
X63423800Y-151536400D01*
X65278000Y-155422500D02*
X63423800Y-153568300D01*
X63423800Y-151536400D02*
X65125600Y-149834600D01*
X65125600Y-149834600D02*
X67466600Y-149834600D01*
X67466600Y-149834600D02*
X67956000Y-150324000D01*
X116569000Y-149971700D02*
X116562800Y-149971700D01*
X114448200Y-150331800D02*
X114420200Y-150331800D01*
X116554400Y-149974000D02*
X116550700Y-149977700D01*
X117486000Y-150125000D02*
X117330400Y-149969400D01*
X116562800Y-149971700D02*
X116560500Y-149974000D01*
X116560500Y-149974000D02*
X116554400Y-149974000D01*
X117486000Y-151061500D02*
X117486000Y-150125000D01*
X116533500Y-149986400D02*
X114807100Y-149986400D01*
X114469800Y-150323700D02*
X114456300Y-150323700D01*
X116538500Y-149981400D02*
X116533500Y-149986400D01*
X117330400Y-149969400D02*
X117092800Y-149969400D01*
X111665500Y-153086500D02*
X103866508Y-153086500D01*
X114807100Y-149986400D02*
X114469800Y-150323700D01*
X114456300Y-150323700D02*
X114448200Y-150331800D01*
X101682294Y-154673302D02*
X100722000Y-153713008D01*
X116546400Y-149977700D02*
X116542700Y-149981400D01*
X102279706Y-154673302D02*
X101682294Y-154673302D01*
X100722000Y-153713008D02*
X100722000Y-151061500D01*
X103866508Y-153086500D02*
X102279706Y-154673302D01*
X114420200Y-150331800D02*
X111665500Y-153086500D01*
X116542700Y-149981400D02*
X116538500Y-149981400D01*
X116571300Y-149969400D02*
X116569000Y-149971700D01*
X116550700Y-149977700D02*
X116546400Y-149977700D01*
X116579200Y-149969400D02*
X116571300Y-149969400D01*
X116580000Y-149968600D02*
X116579200Y-149969400D01*
X117092000Y-149968600D02*
X116580000Y-149968600D01*
X117092800Y-149969400D02*
X117092000Y-149968600D01*
X100722000Y-151061500D02*
X100722000Y-150324000D01*
X95354433Y-149530500D02*
X94869500Y-149530500D01*
X99928500Y-149530500D02*
X95354433Y-149530500D01*
X100722000Y-150324000D02*
X99928500Y-149530500D01*
X125142161Y-150387590D02*
X121732729Y-153797022D01*
X120831285Y-154073655D02*
X118386655Y-154073655D01*
X121732729Y-153797022D02*
X121107917Y-153797022D01*
X117486000Y-153173000D02*
X117486000Y-151061500D01*
X118386655Y-154073655D02*
X117486000Y-153173000D01*
X132314410Y-150387590D02*
X125142161Y-150387590D01*
X132715000Y-149987000D02*
X132314410Y-150387590D01*
X133631500Y-149987000D02*
X132715000Y-149987000D01*
X133869000Y-150224500D02*
X133631500Y-149987000D01*
X121107917Y-153797022D02*
X120831285Y-154073655D01*
X133869000Y-151061500D02*
X133869000Y-150224500D01*
X104131400Y-144971300D02*
X104837700Y-145677600D01*
X107292400Y-149002500D02*
X117700251Y-149002500D01*
X117700251Y-149002500D02*
X118467997Y-149770246D01*
X98552000Y-143637000D02*
X99886300Y-144971300D01*
X104837700Y-146547800D02*
X107292400Y-149002500D01*
X119436000Y-150324000D02*
X119436000Y-151061500D01*
X99886300Y-144971300D02*
X104131400Y-144971300D01*
X118882246Y-149770246D02*
X119436000Y-150324000D01*
X104837700Y-145677600D02*
X104837700Y-146547800D01*
X118467997Y-149770246D02*
X118882246Y-149770246D01*
X120086000Y-151061500D02*
X120086000Y-152766703D01*
X120086000Y-152766703D02*
X120364240Y-153044943D01*
X122036000Y-149976000D02*
X122036000Y-151061500D01*
X107377700Y-146547800D02*
X109393997Y-148564097D01*
X107377700Y-145677600D02*
X107377700Y-146547800D01*
X106671400Y-144971300D02*
X107377700Y-145677600D01*
X103632000Y-143637000D02*
X104966300Y-144971300D01*
X120243889Y-148983699D02*
X121043699Y-148983699D01*
X109393997Y-148564097D02*
X117836598Y-148564097D01*
X119863754Y-149363835D02*
X120243889Y-148983699D01*
X104966300Y-144971300D02*
X106671400Y-144971300D01*
X117836598Y-148564097D02*
X118636336Y-149363835D01*
X118636336Y-149363835D02*
X119863754Y-149363835D01*
X121043699Y-148983699D02*
X122036000Y-149976000D01*
X119387938Y-153667244D02*
X118108310Y-152387616D01*
X120662945Y-153667244D02*
X119387938Y-153667244D01*
X120939578Y-153390611D02*
X120662945Y-153667244D01*
X122686000Y-152269000D02*
X121564389Y-153390611D01*
X122686000Y-151061500D02*
X122686000Y-152269000D01*
X121564389Y-153390611D02*
X120939578Y-153390611D01*
X118804676Y-148957424D02*
X119695413Y-148957424D01*
X111407000Y-148037100D02*
X117884352Y-148037100D01*
X106172000Y-143637000D02*
X107506300Y-144971300D01*
X117884352Y-148037100D02*
X118804676Y-148957424D01*
X122768059Y-149974302D02*
X132152948Y-149974302D01*
X109917700Y-146547800D02*
X111407000Y-148037100D01*
X132152948Y-149974302D02*
X132546660Y-149580589D01*
X120075549Y-148577288D02*
X121371045Y-148577288D01*
X107506300Y-144971300D02*
X109211400Y-144971300D01*
X119695413Y-148957424D02*
X120075549Y-148577288D01*
X133799840Y-149580589D02*
X134519000Y-150299749D01*
X121371045Y-148577288D02*
X122768059Y-149974302D01*
X132546660Y-149580589D02*
X133799840Y-149580589D01*
X109917700Y-145677600D02*
X109917700Y-146547800D01*
X134519000Y-150299749D02*
X134519000Y-151061500D01*
X109211400Y-144971300D02*
X109917700Y-145677600D01*
X135169000Y-151978000D02*
X135169000Y-151061500D01*
X134498100Y-152371000D02*
X134776000Y-152371000D01*
X134776000Y-152371000D02*
X135169000Y-151978000D01*
X124436933Y-149352000D02*
X123952000Y-149352000D01*
X135539590Y-150044590D02*
X134911842Y-150044590D01*
X134911842Y-150044590D02*
X134041430Y-149174178D01*
X135819000Y-150324000D02*
X135539590Y-150044590D01*
X124614755Y-149174178D02*
X124436933Y-149352000D01*
X135819000Y-151061500D02*
X135819000Y-150324000D01*
X134041430Y-149174178D02*
X124614755Y-149174178D01*
X135107400Y-149271200D02*
X135416200Y-149271200D01*
X135416200Y-149271200D02*
X136469000Y-150324000D01*
X136469000Y-150324000D02*
X136469000Y-151061500D01*
X121539385Y-148170877D02*
X121973708Y-148605200D01*
X114997700Y-146547800D02*
X116004300Y-147554400D01*
X121973708Y-148605200D02*
X135400200Y-148605200D01*
X118973016Y-148551013D02*
X119510090Y-148551013D01*
X112586300Y-144971300D02*
X114291400Y-144971300D01*
X114997700Y-145677600D02*
X114997700Y-146547800D01*
X119510090Y-148551013D02*
X119890226Y-148170877D01*
X116004300Y-147554400D02*
X117976403Y-147554400D01*
X119890226Y-148170877D02*
X121539385Y-148170877D01*
X111252000Y-143637000D02*
X112586300Y-144971300D01*
X114291400Y-144971300D02*
X114997700Y-145677600D01*
X137119000Y-150324000D02*
X137119000Y-151061500D01*
X135400200Y-148605200D02*
X137119000Y-150324000D01*
X117976403Y-147554400D02*
X118973016Y-148551013D01*
X135600200Y-148155200D02*
X122098459Y-148155200D01*
X137769000Y-150324000D02*
X135600200Y-148155200D01*
X121707725Y-147764466D02*
X119392613Y-147764466D01*
X119392613Y-147764466D02*
X119229581Y-147927498D01*
X122098459Y-148155200D02*
X121707725Y-147764466D01*
X137769000Y-151061500D02*
X137769000Y-150324000D01*
X138811000Y-152400000D02*
X138419000Y-152008000D01*
X139573000Y-152400000D02*
X138811000Y-152400000D01*
X139827000Y-152146000D02*
X139573000Y-152400000D01*
X139827000Y-149987000D02*
X139827000Y-152146000D01*
X129275100Y-147255000D02*
X135942500Y-147255000D01*
X126991400Y-144971300D02*
X129275100Y-147255000D01*
X113792000Y-143637000D02*
X115126300Y-144971300D01*
X138323900Y-149485200D02*
X139325200Y-149485200D01*
X137175300Y-148336600D02*
X138323900Y-149485200D01*
X115126300Y-144971300D02*
X126991400Y-144971300D01*
X135942500Y-147255000D02*
X136791300Y-148103800D01*
X136791300Y-148103800D02*
X136856500Y-148103800D01*
X137089300Y-148336600D02*
X137175300Y-148336600D01*
X136856500Y-148103800D02*
X137089300Y-148336600D01*
X138419000Y-151799400D02*
X138419000Y-151061500D01*
X138419000Y-152008000D02*
X138419000Y-151799400D01*
X139325200Y-149485200D02*
X139827000Y-149987000D01*
X122616700Y-147705100D02*
X122264300Y-147352700D01*
X139069000Y-151061500D02*
X139069000Y-150324000D01*
X135756100Y-147705100D02*
X122616700Y-147705100D01*
X139069000Y-150324000D02*
X138712900Y-149967900D01*
X138712900Y-149967900D02*
X138018900Y-149967900D01*
X138018900Y-149967900D02*
X135756100Y-147705100D01*
X120038761Y-147352700D02*
X119818799Y-147132738D01*
X122264300Y-147352700D02*
X120038761Y-147352700D01*
X107442000Y-160782000D02*
X106551800Y-160782000D01*
X106551800Y-160782000D02*
X105385200Y-159615400D01*
X105385200Y-159615400D02*
X104559300Y-159615400D01*
X104559300Y-159615400D02*
X104521500Y-159577600D01*
X104521500Y-159577600D02*
X103318800Y-158374900D01*
X103318800Y-158374900D02*
X102672000Y-157728100D01*
X102672000Y-157728100D02*
X102672000Y-157524400D01*
X102672000Y-157524400D02*
X102672000Y-156786500D01*
X115062000Y-160782000D02*
X114909800Y-160782000D01*
X114909800Y-160782000D02*
X113221400Y-159093600D01*
X113221400Y-159093600D02*
X111364000Y-159093600D01*
X111364000Y-159093600D02*
X110881300Y-158610900D01*
X110881300Y-158610900D02*
X109023900Y-158610900D01*
X109023900Y-158610900D02*
X108541200Y-158128200D01*
X108541200Y-158128200D02*
X106407400Y-158128200D01*
X106407400Y-158128200D02*
X106120200Y-157841000D01*
X106120200Y-157841000D02*
X105541500Y-157841000D01*
X105541500Y-157841000D02*
X105340800Y-157640300D01*
X105340800Y-157640300D02*
X105272000Y-157571500D01*
X105272000Y-157571500D02*
X105272000Y-157524400D01*
X105272000Y-157524400D02*
X105272000Y-156786500D01*
X118136000Y-158216000D02*
X118136000Y-157524400D01*
X118136000Y-157524400D02*
X118136000Y-156786500D01*
X117602000Y-160782000D02*
X117602000Y-158750000D01*
X117602000Y-158750000D02*
X118136000Y-158216000D01*
X122682000Y-160782000D02*
X120736000Y-158836000D01*
X120736000Y-158836000D02*
X120736000Y-157524400D01*
X120736000Y-157524400D02*
X120736000Y-156786500D01*
X122036000Y-157524400D02*
X122036000Y-156786500D01*
X122036000Y-157850000D02*
X122036000Y-157524400D01*
X125222000Y-160782000D02*
X124968000Y-160782000D01*
X124968000Y-160782000D02*
X122036000Y-157850000D01*
X119436000Y-160076000D02*
X120142000Y-160782000D01*
X119436000Y-156786500D02*
X119436000Y-160076000D01*
M02*
