G04 #@! TF.GenerationSoftware,KiCad,Pcbnew,5.1.7*
G04 #@! TF.CreationDate,2020-10-22T00:39:11+01:00*
G04 #@! TF.ProjectId,rc2014-icecore,72633230-3134-42d6-9963-65636f72652e,1*
G04 #@! TF.SameCoordinates,Original*
G04 #@! TF.FileFunction,Legend,Bot*
G04 #@! TF.FilePolarity,Positive*
%FSLAX46Y46*%
G04 Gerber Fmt 4.6, Leading zero omitted, Abs format (unit mm)*
G04 Created by KiCad (PCBNEW 5.1.7) date 2020-10-22 00:39:11*
%MOMM*%
%LPD*%
G01*
G04 APERTURE LIST*
%ADD10C,0.300000*%
%ADD11C,0.190500*%
%ADD12C,0.010000*%
G04 APERTURE END LIST*
D10*
X83142428Y-159985142D02*
X83085285Y-159928000D01*
X82971000Y-159870857D01*
X82685285Y-159870857D01*
X82571000Y-159928000D01*
X82513857Y-159985142D01*
X82456714Y-160099428D01*
X82456714Y-160213714D01*
X82513857Y-160385142D01*
X83199571Y-161070857D01*
X82456714Y-161070857D01*
X81713857Y-159870857D02*
X81599571Y-159870857D01*
X81485285Y-159928000D01*
X81428142Y-159985142D01*
X81371000Y-160099428D01*
X81313857Y-160328000D01*
X81313857Y-160613714D01*
X81371000Y-160842285D01*
X81428142Y-160956571D01*
X81485285Y-161013714D01*
X81599571Y-161070857D01*
X81713857Y-161070857D01*
X81828142Y-161013714D01*
X81885285Y-160956571D01*
X81942428Y-160842285D01*
X81999571Y-160613714D01*
X81999571Y-160328000D01*
X81942428Y-160099428D01*
X81885285Y-159985142D01*
X81828142Y-159928000D01*
X81713857Y-159870857D01*
X80171000Y-161070857D02*
X80856714Y-161070857D01*
X80513857Y-161070857D02*
X80513857Y-159870857D01*
X80628142Y-160042285D01*
X80742428Y-160156571D01*
X80856714Y-160213714D01*
X79485285Y-160385142D02*
X79599571Y-160328000D01*
X79656714Y-160270857D01*
X79713857Y-160156571D01*
X79713857Y-160099428D01*
X79656714Y-159985142D01*
X79599571Y-159928000D01*
X79485285Y-159870857D01*
X79256714Y-159870857D01*
X79142428Y-159928000D01*
X79085285Y-159985142D01*
X79028142Y-160099428D01*
X79028142Y-160156571D01*
X79085285Y-160270857D01*
X79142428Y-160328000D01*
X79256714Y-160385142D01*
X79485285Y-160385142D01*
X79599571Y-160442285D01*
X79656714Y-160499428D01*
X79713857Y-160613714D01*
X79713857Y-160842285D01*
X79656714Y-160956571D01*
X79599571Y-161013714D01*
X79485285Y-161070857D01*
X79256714Y-161070857D01*
X79142428Y-161013714D01*
X79085285Y-160956571D01*
X79028142Y-160842285D01*
X79028142Y-160613714D01*
X79085285Y-160499428D01*
X79142428Y-160442285D01*
X79256714Y-160385142D01*
X78456714Y-161013714D02*
X78456714Y-161070857D01*
X78513857Y-161185142D01*
X78571000Y-161242285D01*
X77085285Y-159985142D02*
X77028142Y-159928000D01*
X76913857Y-159870857D01*
X76628142Y-159870857D01*
X76513857Y-159928000D01*
X76456714Y-159985142D01*
X76399571Y-160099428D01*
X76399571Y-160213714D01*
X76456714Y-160385142D01*
X77142428Y-161070857D01*
X76399571Y-161070857D01*
X75656714Y-159870857D02*
X75542428Y-159870857D01*
X75428142Y-159928000D01*
X75371000Y-159985142D01*
X75313857Y-160099428D01*
X75256714Y-160328000D01*
X75256714Y-160613714D01*
X75313857Y-160842285D01*
X75371000Y-160956571D01*
X75428142Y-161013714D01*
X75542428Y-161070857D01*
X75656714Y-161070857D01*
X75771000Y-161013714D01*
X75828142Y-160956571D01*
X75885285Y-160842285D01*
X75942428Y-160613714D01*
X75942428Y-160328000D01*
X75885285Y-160099428D01*
X75828142Y-159985142D01*
X75771000Y-159928000D01*
X75656714Y-159870857D01*
X74799571Y-159985142D02*
X74742428Y-159928000D01*
X74628142Y-159870857D01*
X74342428Y-159870857D01*
X74228142Y-159928000D01*
X74171000Y-159985142D01*
X74113857Y-160099428D01*
X74113857Y-160213714D01*
X74171000Y-160385142D01*
X74856714Y-161070857D01*
X74113857Y-161070857D01*
X73371000Y-159870857D02*
X73256714Y-159870857D01*
X73142428Y-159928000D01*
X73085285Y-159985142D01*
X73028142Y-160099428D01*
X72971000Y-160328000D01*
X72971000Y-160613714D01*
X73028142Y-160842285D01*
X73085285Y-160956571D01*
X73142428Y-161013714D01*
X73256714Y-161070857D01*
X73371000Y-161070857D01*
X73485285Y-161013714D01*
X73542428Y-160956571D01*
X73599571Y-160842285D01*
X73656714Y-160613714D01*
X73656714Y-160328000D01*
X73599571Y-160099428D01*
X73542428Y-159985142D01*
X73485285Y-159928000D01*
X73371000Y-159870857D01*
X71542428Y-160442285D02*
X71142428Y-160442285D01*
X70971000Y-161070857D02*
X71542428Y-161070857D01*
X71542428Y-159870857D01*
X70971000Y-159870857D01*
X69942428Y-161070857D02*
X69942428Y-159870857D01*
X69942428Y-161013714D02*
X70056714Y-161070857D01*
X70285285Y-161070857D01*
X70399571Y-161013714D01*
X70456714Y-160956571D01*
X70513857Y-160842285D01*
X70513857Y-160499428D01*
X70456714Y-160385142D01*
X70399571Y-160328000D01*
X70285285Y-160270857D01*
X70056714Y-160270857D01*
X69942428Y-160328000D01*
X68056714Y-160442285D02*
X67885285Y-160499428D01*
X67828142Y-160556571D01*
X67771000Y-160670857D01*
X67771000Y-160842285D01*
X67828142Y-160956571D01*
X67885285Y-161013714D01*
X67999571Y-161070857D01*
X68456714Y-161070857D01*
X68456714Y-159870857D01*
X68056714Y-159870857D01*
X67942428Y-159928000D01*
X67885285Y-159985142D01*
X67828142Y-160099428D01*
X67828142Y-160213714D01*
X67885285Y-160328000D01*
X67942428Y-160385142D01*
X68056714Y-160442285D01*
X68456714Y-160442285D01*
X67256714Y-161070857D02*
X67256714Y-160270857D01*
X67256714Y-160499428D02*
X67199571Y-160385142D01*
X67142428Y-160328000D01*
X67028142Y-160270857D01*
X66913857Y-160270857D01*
X66513857Y-161070857D02*
X66513857Y-160270857D01*
X66513857Y-159870857D02*
X66571000Y-159928000D01*
X66513857Y-159985142D01*
X66456714Y-159928000D01*
X66513857Y-159870857D01*
X66513857Y-159985142D01*
X65942428Y-160270857D02*
X65942428Y-161070857D01*
X65942428Y-160385142D02*
X65885285Y-160328000D01*
X65771000Y-160270857D01*
X65599571Y-160270857D01*
X65485285Y-160328000D01*
X65428142Y-160442285D01*
X65428142Y-161070857D01*
X64342428Y-161070857D02*
X64342428Y-159870857D01*
X64342428Y-161013714D02*
X64456714Y-161070857D01*
X64685285Y-161070857D01*
X64799571Y-161013714D01*
X64856714Y-160956571D01*
X64913857Y-160842285D01*
X64913857Y-160499428D01*
X64856714Y-160385142D01*
X64799571Y-160328000D01*
X64685285Y-160270857D01*
X64456714Y-160270857D01*
X64342428Y-160328000D01*
X63599571Y-161070857D02*
X63713857Y-161013714D01*
X63771000Y-160899428D01*
X63771000Y-159870857D01*
X62685285Y-161013714D02*
X62799571Y-161070857D01*
X63028142Y-161070857D01*
X63142428Y-161013714D01*
X63199571Y-160899428D01*
X63199571Y-160442285D01*
X63142428Y-160328000D01*
X63028142Y-160270857D01*
X62799571Y-160270857D01*
X62685285Y-160328000D01*
X62628142Y-160442285D01*
X62628142Y-160556571D01*
X63199571Y-160670857D01*
X62228142Y-160270857D02*
X61942428Y-161070857D01*
X61656714Y-160270857D02*
X61942428Y-161070857D01*
X62056714Y-161356571D01*
X62113857Y-161413714D01*
X62228142Y-161470857D01*
D11*
X124750285Y-159058428D02*
X125512285Y-159058428D01*
X125512285Y-158550428D02*
X125512285Y-158405285D01*
X125476000Y-158332714D01*
X125403428Y-158260142D01*
X125258285Y-158223857D01*
X125004285Y-158223857D01*
X124859142Y-158260142D01*
X124786571Y-158332714D01*
X124750285Y-158405285D01*
X124750285Y-158550428D01*
X124786571Y-158623000D01*
X124859142Y-158695571D01*
X125004285Y-158731857D01*
X125258285Y-158731857D01*
X125403428Y-158695571D01*
X125476000Y-158623000D01*
X125512285Y-158550428D01*
X124750285Y-157461857D02*
X125113142Y-157715857D01*
X124750285Y-157897285D02*
X125512285Y-157897285D01*
X125512285Y-157607000D01*
X125476000Y-157534428D01*
X125439714Y-157498142D01*
X125367142Y-157461857D01*
X125258285Y-157461857D01*
X125185714Y-157498142D01*
X125149428Y-157534428D01*
X125113142Y-157607000D01*
X125113142Y-157897285D01*
X124677714Y-156627285D02*
X124714000Y-156699857D01*
X124786571Y-156772428D01*
X124895428Y-156881285D01*
X124931714Y-156953857D01*
X124931714Y-157026428D01*
X124750285Y-156990142D02*
X124786571Y-157062714D01*
X124859142Y-157135285D01*
X125004285Y-157171571D01*
X125258285Y-157171571D01*
X125403428Y-157135285D01*
X125476000Y-157062714D01*
X125512285Y-156990142D01*
X125512285Y-156845000D01*
X125476000Y-156772428D01*
X125403428Y-156699857D01*
X125258285Y-156663571D01*
X125004285Y-156663571D01*
X124859142Y-156699857D01*
X124786571Y-156772428D01*
X124750285Y-156845000D01*
X124750285Y-156990142D01*
X125548571Y-155792714D02*
X124568857Y-156445857D01*
X124750285Y-155538714D02*
X125512285Y-155538714D01*
X124750285Y-155103285D01*
X125512285Y-155103285D01*
X124750285Y-154740428D02*
X125512285Y-154740428D01*
X124968000Y-154486428D01*
X125512285Y-154232428D01*
X124750285Y-154232428D01*
X124750285Y-153869571D02*
X125512285Y-153869571D01*
X122337285Y-158623000D02*
X122700142Y-158877000D01*
X122337285Y-159058428D02*
X123099285Y-159058428D01*
X123099285Y-158768142D01*
X123063000Y-158695571D01*
X123026714Y-158659285D01*
X122954142Y-158623000D01*
X122845285Y-158623000D01*
X122772714Y-158659285D01*
X122736428Y-158695571D01*
X122700142Y-158768142D01*
X122700142Y-159058428D01*
X122337285Y-158296428D02*
X123099285Y-158296428D01*
X123099285Y-158115000D01*
X123063000Y-158006142D01*
X122990428Y-157933571D01*
X122917857Y-157897285D01*
X122772714Y-157861000D01*
X122663857Y-157861000D01*
X122518714Y-157897285D01*
X122446142Y-157933571D01*
X122373571Y-158006142D01*
X122337285Y-158115000D01*
X122337285Y-158296428D01*
X123135571Y-156990142D02*
X122155857Y-157643285D01*
X123099285Y-156808714D02*
X122337285Y-156627285D01*
X122881571Y-156482142D01*
X122337285Y-156337000D01*
X123099285Y-156155571D01*
X122555000Y-155901571D02*
X122555000Y-155538714D01*
X122337285Y-155974142D02*
X123099285Y-155720142D01*
X122337285Y-155466142D01*
X122337285Y-155212142D02*
X123099285Y-155212142D01*
X123099285Y-154958142D02*
X123099285Y-154522714D01*
X122337285Y-154740428D02*
X123099285Y-154740428D01*
X120559285Y-159112857D02*
X119797285Y-158931428D01*
X120341571Y-158786285D01*
X119797285Y-158641142D01*
X120559285Y-158459714D01*
X119797285Y-157734000D02*
X120160142Y-157988000D01*
X119797285Y-158169428D02*
X120559285Y-158169428D01*
X120559285Y-157879142D01*
X120523000Y-157806571D01*
X120486714Y-157770285D01*
X120414142Y-157734000D01*
X120305285Y-157734000D01*
X120232714Y-157770285D01*
X120196428Y-157806571D01*
X120160142Y-157879142D01*
X120160142Y-158169428D01*
X120595571Y-156863142D02*
X119615857Y-157516285D01*
X119797285Y-156609142D02*
X120559285Y-156609142D01*
X119797285Y-156173714D01*
X120559285Y-156173714D01*
X119869857Y-155375428D02*
X119833571Y-155411714D01*
X119797285Y-155520571D01*
X119797285Y-155593142D01*
X119833571Y-155702000D01*
X119906142Y-155774571D01*
X119978714Y-155810857D01*
X120123857Y-155847142D01*
X120232714Y-155847142D01*
X120377857Y-155810857D01*
X120450428Y-155774571D01*
X120523000Y-155702000D01*
X120559285Y-155593142D01*
X120559285Y-155520571D01*
X120523000Y-155411714D01*
X120486714Y-155375428D01*
X117257285Y-158967714D02*
X118019285Y-158967714D01*
X117475000Y-158713714D01*
X118019285Y-158459714D01*
X117257285Y-158459714D01*
X117257285Y-157661428D02*
X117620142Y-157915428D01*
X117257285Y-158096857D02*
X118019285Y-158096857D01*
X118019285Y-157806571D01*
X117983000Y-157734000D01*
X117946714Y-157697714D01*
X117874142Y-157661428D01*
X117765285Y-157661428D01*
X117692714Y-157697714D01*
X117656428Y-157734000D01*
X117620142Y-157806571D01*
X117620142Y-158096857D01*
X117184714Y-156826857D02*
X117221000Y-156899428D01*
X117293571Y-156972000D01*
X117402428Y-157080857D01*
X117438714Y-157153428D01*
X117438714Y-157226000D01*
X117257285Y-157189714D02*
X117293571Y-157262285D01*
X117366142Y-157334857D01*
X117511285Y-157371142D01*
X117765285Y-157371142D01*
X117910428Y-157334857D01*
X117983000Y-157262285D01*
X118019285Y-157189714D01*
X118019285Y-157044571D01*
X117983000Y-156972000D01*
X117910428Y-156899428D01*
X117765285Y-156863142D01*
X117511285Y-156863142D01*
X117366142Y-156899428D01*
X117293571Y-156972000D01*
X117257285Y-157044571D01*
X117257285Y-157189714D01*
X118055571Y-155992285D02*
X117075857Y-156645428D01*
X117257285Y-155738285D02*
X118019285Y-155738285D01*
X117656428Y-155738285D02*
X117656428Y-155302857D01*
X117257285Y-155302857D02*
X118019285Y-155302857D01*
X117475000Y-154976285D02*
X117475000Y-154613428D01*
X117257285Y-155048857D02*
X118019285Y-154794857D01*
X117257285Y-154540857D01*
X117257285Y-153924000D02*
X117257285Y-154286857D01*
X118019285Y-154286857D01*
X118019285Y-153778857D02*
X118019285Y-153343428D01*
X117257285Y-153561142D02*
X118019285Y-153561142D01*
X114717285Y-159022142D02*
X115479285Y-159022142D01*
X114717285Y-158659285D02*
X115479285Y-158659285D01*
X114717285Y-158223857D01*
X115479285Y-158223857D01*
X115479285Y-157969857D02*
X115479285Y-157534428D01*
X114717285Y-157752142D02*
X115479285Y-157752142D01*
X115515571Y-156736142D02*
X114535857Y-157389285D01*
X115116428Y-156228142D02*
X115080142Y-156119285D01*
X115043857Y-156083000D01*
X114971285Y-156046714D01*
X114862428Y-156046714D01*
X114789857Y-156083000D01*
X114753571Y-156119285D01*
X114717285Y-156191857D01*
X114717285Y-156482142D01*
X115479285Y-156482142D01*
X115479285Y-156228142D01*
X115443000Y-156155571D01*
X115406714Y-156119285D01*
X115334142Y-156083000D01*
X115261571Y-156083000D01*
X115189000Y-156119285D01*
X115152714Y-156155571D01*
X115116428Y-156228142D01*
X115116428Y-156482142D01*
X115479285Y-155720142D02*
X114862428Y-155720142D01*
X114789857Y-155683857D01*
X114753571Y-155647571D01*
X114717285Y-155575000D01*
X114717285Y-155429857D01*
X114753571Y-155357285D01*
X114789857Y-155321000D01*
X114862428Y-155284714D01*
X115479285Y-155284714D01*
X114753571Y-154958142D02*
X114717285Y-154849285D01*
X114717285Y-154667857D01*
X114753571Y-154595285D01*
X114789857Y-154559000D01*
X114862428Y-154522714D01*
X114935000Y-154522714D01*
X115007571Y-154559000D01*
X115043857Y-154595285D01*
X115080142Y-154667857D01*
X115116428Y-154813000D01*
X115152714Y-154885571D01*
X115189000Y-154921857D01*
X115261571Y-154958142D01*
X115334142Y-154958142D01*
X115406714Y-154921857D01*
X115443000Y-154885571D01*
X115479285Y-154813000D01*
X115479285Y-154631571D01*
X115443000Y-154522714D01*
X114935000Y-154232428D02*
X114935000Y-153869571D01*
X114717285Y-154305000D02*
X115479285Y-154051000D01*
X114717285Y-153797000D01*
X114789857Y-153107571D02*
X114753571Y-153143857D01*
X114717285Y-153252714D01*
X114717285Y-153325285D01*
X114753571Y-153434142D01*
X114826142Y-153506714D01*
X114898714Y-153543000D01*
X115043857Y-153579285D01*
X115152714Y-153579285D01*
X115297857Y-153543000D01*
X115370428Y-153506714D01*
X115443000Y-153434142D01*
X115479285Y-153325285D01*
X115479285Y-153252714D01*
X115443000Y-153143857D01*
X115406714Y-153107571D01*
X114717285Y-152781000D02*
X115479285Y-152781000D01*
X114717285Y-152345571D02*
X115152714Y-152672142D01*
X115479285Y-152345571D02*
X115043857Y-152781000D01*
X112249857Y-158604857D02*
X112213571Y-158641142D01*
X112177285Y-158750000D01*
X112177285Y-158822571D01*
X112213571Y-158931428D01*
X112286142Y-159004000D01*
X112358714Y-159040285D01*
X112503857Y-159076571D01*
X112612714Y-159076571D01*
X112757857Y-159040285D01*
X112830428Y-159004000D01*
X112903000Y-158931428D01*
X112939285Y-158822571D01*
X112939285Y-158750000D01*
X112903000Y-158641142D01*
X112866714Y-158604857D01*
X112177285Y-157915428D02*
X112177285Y-158278285D01*
X112939285Y-158278285D01*
X112177285Y-157661428D02*
X112939285Y-157661428D01*
X112177285Y-157226000D02*
X112612714Y-157552571D01*
X112939285Y-157226000D02*
X112503857Y-157661428D01*
X112975571Y-156355142D02*
X111995857Y-157008285D01*
X112177285Y-156101142D02*
X112939285Y-156101142D01*
X112177285Y-155665714D01*
X112939285Y-155665714D01*
X112249857Y-154867428D02*
X112213571Y-154903714D01*
X112177285Y-155012571D01*
X112177285Y-155085142D01*
X112213571Y-155194000D01*
X112286142Y-155266571D01*
X112358714Y-155302857D01*
X112503857Y-155339142D01*
X112612714Y-155339142D01*
X112757857Y-155302857D01*
X112830428Y-155266571D01*
X112903000Y-155194000D01*
X112939285Y-155085142D01*
X112939285Y-155012571D01*
X112903000Y-154903714D01*
X112866714Y-154867428D01*
X109637285Y-158568571D02*
X110000142Y-158822571D01*
X109637285Y-159004000D02*
X110399285Y-159004000D01*
X110399285Y-158713714D01*
X110363000Y-158641142D01*
X110326714Y-158604857D01*
X110254142Y-158568571D01*
X110145285Y-158568571D01*
X110072714Y-158604857D01*
X110036428Y-158641142D01*
X110000142Y-158713714D01*
X110000142Y-159004000D01*
X109673571Y-158278285D02*
X109637285Y-158169428D01*
X109637285Y-157988000D01*
X109673571Y-157915428D01*
X109709857Y-157879142D01*
X109782428Y-157842857D01*
X109855000Y-157842857D01*
X109927571Y-157879142D01*
X109963857Y-157915428D01*
X110000142Y-157988000D01*
X110036428Y-158133142D01*
X110072714Y-158205714D01*
X110109000Y-158242000D01*
X110181571Y-158278285D01*
X110254142Y-158278285D01*
X110326714Y-158242000D01*
X110363000Y-158205714D01*
X110399285Y-158133142D01*
X110399285Y-157951714D01*
X110363000Y-157842857D01*
X110399285Y-157625142D02*
X110399285Y-157189714D01*
X109637285Y-157407428D02*
X110399285Y-157407428D01*
X110435571Y-156391428D02*
X109455857Y-157044571D01*
X109637285Y-156137428D02*
X110399285Y-156137428D01*
X109637285Y-155702000D01*
X110399285Y-155702000D01*
X109709857Y-154903714D02*
X109673571Y-154940000D01*
X109637285Y-155048857D01*
X109637285Y-155121428D01*
X109673571Y-155230285D01*
X109746142Y-155302857D01*
X109818714Y-155339142D01*
X109963857Y-155375428D01*
X110072714Y-155375428D01*
X110217857Y-155339142D01*
X110290428Y-155302857D01*
X110363000Y-155230285D01*
X110399285Y-155121428D01*
X110399285Y-155048857D01*
X110363000Y-154940000D01*
X110326714Y-154903714D01*
X106970285Y-159076571D02*
X107732285Y-159076571D01*
X107188000Y-158822571D01*
X107732285Y-158568571D01*
X106970285Y-158568571D01*
X106970285Y-157806571D02*
X106970285Y-158242000D01*
X106970285Y-158024285D02*
X107732285Y-158024285D01*
X107623428Y-158096857D01*
X107550857Y-158169428D01*
X107514571Y-158242000D01*
X107768571Y-156935714D02*
X106788857Y-157588857D01*
X106970285Y-156246285D02*
X107333142Y-156500285D01*
X106970285Y-156681714D02*
X107732285Y-156681714D01*
X107732285Y-156391428D01*
X107696000Y-156318857D01*
X107659714Y-156282571D01*
X107587142Y-156246285D01*
X107478285Y-156246285D01*
X107405714Y-156282571D01*
X107369428Y-156318857D01*
X107333142Y-156391428D01*
X107333142Y-156681714D01*
X107369428Y-155665714D02*
X107369428Y-155919714D01*
X106970285Y-155919714D02*
X107732285Y-155919714D01*
X107732285Y-155556857D01*
X107006571Y-155302857D02*
X106970285Y-155194000D01*
X106970285Y-155012571D01*
X107006571Y-154940000D01*
X107042857Y-154903714D01*
X107115428Y-154867428D01*
X107188000Y-154867428D01*
X107260571Y-154903714D01*
X107296857Y-154940000D01*
X107333142Y-155012571D01*
X107369428Y-155157714D01*
X107405714Y-155230285D01*
X107442000Y-155266571D01*
X107514571Y-155302857D01*
X107587142Y-155302857D01*
X107659714Y-155266571D01*
X107696000Y-155230285D01*
X107732285Y-155157714D01*
X107732285Y-154976285D01*
X107696000Y-154867428D01*
X106970285Y-154540857D02*
X107732285Y-154540857D01*
X107369428Y-154540857D02*
X107369428Y-154105428D01*
X106970285Y-154105428D02*
X107732285Y-154105428D01*
X102743000Y-158568571D02*
X102779285Y-158641142D01*
X102779285Y-158750000D01*
X102743000Y-158858857D01*
X102670428Y-158931428D01*
X102597857Y-158967714D01*
X102452714Y-159004000D01*
X102343857Y-159004000D01*
X102198714Y-158967714D01*
X102126142Y-158931428D01*
X102053571Y-158858857D01*
X102017285Y-158750000D01*
X102017285Y-158677428D01*
X102053571Y-158568571D01*
X102089857Y-158532285D01*
X102343857Y-158532285D01*
X102343857Y-158677428D01*
X102017285Y-158205714D02*
X102779285Y-158205714D01*
X102017285Y-157770285D01*
X102779285Y-157770285D01*
X102017285Y-157407428D02*
X102779285Y-157407428D01*
X102779285Y-157226000D01*
X102743000Y-157117142D01*
X102670428Y-157044571D01*
X102597857Y-157008285D01*
X102452714Y-156972000D01*
X102343857Y-156972000D01*
X102198714Y-157008285D01*
X102126142Y-157044571D01*
X102053571Y-157117142D01*
X102017285Y-157226000D01*
X102017285Y-157407428D01*
X104847571Y-158967714D02*
X104847571Y-158387142D01*
X104557285Y-158677428D02*
X105137857Y-158677428D01*
X105319285Y-157661428D02*
X105319285Y-158024285D01*
X104956428Y-158060571D01*
X104992714Y-158024285D01*
X105029000Y-157951714D01*
X105029000Y-157770285D01*
X104992714Y-157697714D01*
X104956428Y-157661428D01*
X104883857Y-157625142D01*
X104702428Y-157625142D01*
X104629857Y-157661428D01*
X104593571Y-157697714D01*
X104557285Y-157770285D01*
X104557285Y-157951714D01*
X104593571Y-158024285D01*
X104629857Y-158060571D01*
X105319285Y-157407428D02*
X104557285Y-157153428D01*
X105319285Y-156899428D01*
D10*
X107899714Y-150086142D02*
X107685428Y-150157571D01*
X107328285Y-150157571D01*
X107185428Y-150086142D01*
X107114000Y-150014714D01*
X107042571Y-149871857D01*
X107042571Y-149729000D01*
X107114000Y-149586142D01*
X107185428Y-149514714D01*
X107328285Y-149443285D01*
X107614000Y-149371857D01*
X107756857Y-149300428D01*
X107828285Y-149229000D01*
X107899714Y-149086142D01*
X107899714Y-148943285D01*
X107828285Y-148800428D01*
X107756857Y-148729000D01*
X107614000Y-148657571D01*
X107256857Y-148657571D01*
X107042571Y-148729000D01*
X106399714Y-150157571D02*
X106399714Y-148657571D01*
X105542571Y-150157571D01*
X105542571Y-148657571D01*
X104971142Y-148657571D02*
X103971142Y-148657571D01*
X104614000Y-150157571D01*
X102756857Y-149157571D02*
X102756857Y-150157571D01*
X103114000Y-148586142D02*
X103471142Y-149657571D01*
X102542571Y-149657571D01*
X101114000Y-150014714D02*
X101185428Y-150086142D01*
X101399714Y-150157571D01*
X101542571Y-150157571D01*
X101756857Y-150086142D01*
X101899714Y-149943285D01*
X101971142Y-149800428D01*
X102042571Y-149514714D01*
X102042571Y-149300428D01*
X101971142Y-149014714D01*
X101899714Y-148871857D01*
X101756857Y-148729000D01*
X101542571Y-148657571D01*
X101399714Y-148657571D01*
X101185428Y-148729000D01*
X101114000Y-148800428D01*
X99971142Y-149371857D02*
X99756857Y-149443285D01*
X99685428Y-149514714D01*
X99614000Y-149657571D01*
X99614000Y-149871857D01*
X99685428Y-150014714D01*
X99756857Y-150086142D01*
X99899714Y-150157571D01*
X100471142Y-150157571D01*
X100471142Y-148657571D01*
X99971142Y-148657571D01*
X99828285Y-148729000D01*
X99756857Y-148800428D01*
X99685428Y-148943285D01*
X99685428Y-149086142D01*
X99756857Y-149229000D01*
X99828285Y-149300428D01*
X99971142Y-149371857D01*
X100471142Y-149371857D01*
X99114000Y-148657571D02*
X98185428Y-148657571D01*
X98685428Y-149229000D01*
X98471142Y-149229000D01*
X98328285Y-149300428D01*
X98256857Y-149371857D01*
X98185428Y-149514714D01*
X98185428Y-149871857D01*
X98256857Y-150014714D01*
X98328285Y-150086142D01*
X98471142Y-150157571D01*
X98899714Y-150157571D01*
X99042571Y-150086142D01*
X99114000Y-150014714D01*
X97756857Y-148657571D02*
X96899714Y-148657571D01*
X97328285Y-150157571D02*
X97328285Y-148657571D01*
X96542571Y-148657571D02*
X95614000Y-148657571D01*
X96114000Y-149229000D01*
X95899714Y-149229000D01*
X95756857Y-149300428D01*
X95685428Y-149371857D01*
X95614000Y-149514714D01*
X95614000Y-149871857D01*
X95685428Y-150014714D01*
X95756857Y-150086142D01*
X95899714Y-150157571D01*
X96328285Y-150157571D01*
X96471142Y-150086142D01*
X96542571Y-150014714D01*
X95042571Y-148800428D02*
X94971142Y-148729000D01*
X94828285Y-148657571D01*
X94471142Y-148657571D01*
X94328285Y-148729000D01*
X94256857Y-148800428D01*
X94185428Y-148943285D01*
X94185428Y-149086142D01*
X94256857Y-149300428D01*
X95114000Y-150157571D01*
X94185428Y-150157571D01*
X92899714Y-149157571D02*
X92899714Y-150157571D01*
X93256857Y-148586142D02*
X93614000Y-149657571D01*
X92685428Y-149657571D01*
X91399714Y-148657571D02*
X92114000Y-148657571D01*
X92185428Y-149371857D01*
X92114000Y-149300428D01*
X91971142Y-149229000D01*
X91614000Y-149229000D01*
X91471142Y-149300428D01*
X91399714Y-149371857D01*
X91328285Y-149514714D01*
X91328285Y-149871857D01*
X91399714Y-150014714D01*
X91471142Y-150086142D01*
X91614000Y-150157571D01*
X91971142Y-150157571D01*
X92114000Y-150086142D01*
X92185428Y-150014714D01*
X89042571Y-149371857D02*
X89542571Y-149371857D01*
X89542571Y-150157571D02*
X89542571Y-148657571D01*
X88828285Y-148657571D01*
X88256857Y-150157571D02*
X88256857Y-148657571D01*
X87685428Y-148657571D01*
X87542571Y-148729000D01*
X87471142Y-148800428D01*
X87399714Y-148943285D01*
X87399714Y-149157571D01*
X87471142Y-149300428D01*
X87542571Y-149371857D01*
X87685428Y-149443285D01*
X88256857Y-149443285D01*
X85971142Y-148729000D02*
X86114000Y-148657571D01*
X86328285Y-148657571D01*
X86542571Y-148729000D01*
X86685428Y-148871857D01*
X86756857Y-149014714D01*
X86828285Y-149300428D01*
X86828285Y-149514714D01*
X86756857Y-149800428D01*
X86685428Y-149943285D01*
X86542571Y-150086142D01*
X86328285Y-150157571D01*
X86185428Y-150157571D01*
X85971142Y-150086142D01*
X85899714Y-150014714D01*
X85899714Y-149514714D01*
X86185428Y-149514714D01*
X85328285Y-149729000D02*
X84614000Y-149729000D01*
X85471142Y-150157571D02*
X84971142Y-148657571D01*
X84471142Y-150157571D01*
X82114000Y-150157571D02*
X82828285Y-150157571D01*
X82828285Y-148657571D01*
X81042571Y-150086142D02*
X81185428Y-150157571D01*
X81471142Y-150157571D01*
X81614000Y-150086142D01*
X81685428Y-149943285D01*
X81685428Y-149371857D01*
X81614000Y-149229000D01*
X81471142Y-149157571D01*
X81185428Y-149157571D01*
X81042571Y-149229000D01*
X80971142Y-149371857D01*
X80971142Y-149514714D01*
X81685428Y-149657571D01*
X80471142Y-149157571D02*
X80114000Y-150157571D01*
X79756857Y-149157571D01*
X78614000Y-150086142D02*
X78756857Y-150157571D01*
X79042571Y-150157571D01*
X79185428Y-150086142D01*
X79256857Y-149943285D01*
X79256857Y-149371857D01*
X79185428Y-149229000D01*
X79042571Y-149157571D01*
X78756857Y-149157571D01*
X78614000Y-149229000D01*
X78542571Y-149371857D01*
X78542571Y-149514714D01*
X79256857Y-149657571D01*
X77685428Y-150157571D02*
X77828285Y-150086142D01*
X77899714Y-149943285D01*
X77899714Y-148657571D01*
X76185428Y-148657571D02*
X75328285Y-148657571D01*
X75756857Y-150157571D02*
X75756857Y-148657571D01*
X74828285Y-150157571D02*
X74828285Y-149157571D01*
X74828285Y-149443285D02*
X74756857Y-149300428D01*
X74685428Y-149229000D01*
X74542571Y-149157571D01*
X74399714Y-149157571D01*
X73256857Y-150157571D02*
X73256857Y-149371857D01*
X73328285Y-149229000D01*
X73471142Y-149157571D01*
X73756857Y-149157571D01*
X73899714Y-149229000D01*
X73256857Y-150086142D02*
X73399714Y-150157571D01*
X73756857Y-150157571D01*
X73899714Y-150086142D01*
X73971142Y-149943285D01*
X73971142Y-149800428D01*
X73899714Y-149657571D01*
X73756857Y-149586142D01*
X73399714Y-149586142D01*
X73256857Y-149514714D01*
X72542571Y-149157571D02*
X72542571Y-150157571D01*
X72542571Y-149300428D02*
X72471142Y-149229000D01*
X72328285Y-149157571D01*
X72114000Y-149157571D01*
X71971142Y-149229000D01*
X71899714Y-149371857D01*
X71899714Y-150157571D01*
X71256857Y-150086142D02*
X71114000Y-150157571D01*
X70828285Y-150157571D01*
X70685428Y-150086142D01*
X70614000Y-149943285D01*
X70614000Y-149871857D01*
X70685428Y-149729000D01*
X70828285Y-149657571D01*
X71042571Y-149657571D01*
X71185428Y-149586142D01*
X71256857Y-149443285D01*
X71256857Y-149371857D01*
X71185428Y-149229000D01*
X71042571Y-149157571D01*
X70828285Y-149157571D01*
X70685428Y-149229000D01*
X69756857Y-150157571D02*
X69899714Y-150086142D01*
X69971142Y-149943285D01*
X69971142Y-148657571D01*
X68542571Y-150157571D02*
X68542571Y-149371857D01*
X68614000Y-149229000D01*
X68756857Y-149157571D01*
X69042571Y-149157571D01*
X69185428Y-149229000D01*
X68542571Y-150086142D02*
X68685428Y-150157571D01*
X69042571Y-150157571D01*
X69185428Y-150086142D01*
X69256857Y-149943285D01*
X69256857Y-149800428D01*
X69185428Y-149657571D01*
X69042571Y-149586142D01*
X68685428Y-149586142D01*
X68542571Y-149514714D01*
X68042571Y-149157571D02*
X67471142Y-149157571D01*
X67828285Y-148657571D02*
X67828285Y-149943285D01*
X67756857Y-150086142D01*
X67614000Y-150157571D01*
X67471142Y-150157571D01*
X66756857Y-150157571D02*
X66899714Y-150086142D01*
X66971142Y-150014714D01*
X67042571Y-149871857D01*
X67042571Y-149443285D01*
X66971142Y-149300428D01*
X66899714Y-149229000D01*
X66756857Y-149157571D01*
X66542571Y-149157571D01*
X66399714Y-149229000D01*
X66328285Y-149300428D01*
X66256857Y-149443285D01*
X66256857Y-149871857D01*
X66328285Y-150014714D01*
X66399714Y-150086142D01*
X66542571Y-150157571D01*
X66756857Y-150157571D01*
X65614000Y-150157571D02*
X65614000Y-149157571D01*
X65614000Y-149443285D02*
X65542571Y-149300428D01*
X65471142Y-149229000D01*
X65328285Y-149157571D01*
X65185428Y-149157571D01*
D12*
G36*
X151818786Y-152713731D02*
G01*
X151734965Y-153158355D01*
X151425680Y-153285853D01*
X151116394Y-153413351D01*
X150745354Y-153161046D01*
X150641443Y-153090796D01*
X150547513Y-153028072D01*
X150467948Y-152975738D01*
X150407130Y-152936657D01*
X150369443Y-152913693D01*
X150359179Y-152908742D01*
X150340690Y-152921476D01*
X150301180Y-152956682D01*
X150245078Y-153009862D01*
X150176813Y-153076518D01*
X150100814Y-153152154D01*
X150021508Y-153232272D01*
X149943325Y-153312374D01*
X149870693Y-153387964D01*
X149808041Y-153454545D01*
X149759797Y-153507618D01*
X149730390Y-153542687D01*
X149723359Y-153554423D01*
X149733477Y-153576060D01*
X149761841Y-153623462D01*
X149805471Y-153691993D01*
X149861382Y-153777015D01*
X149926594Y-153873893D01*
X149964381Y-153929150D01*
X150033257Y-154030048D01*
X150094460Y-154121099D01*
X150145022Y-154197770D01*
X150181972Y-154255528D01*
X150202342Y-154289843D01*
X150205403Y-154297054D01*
X150198464Y-154317548D01*
X150179549Y-154365313D01*
X150151513Y-154433632D01*
X150117209Y-154515789D01*
X150079491Y-154605070D01*
X150041213Y-154694758D01*
X150005230Y-154778138D01*
X149974394Y-154848494D01*
X149951561Y-154899110D01*
X149939583Y-154923271D01*
X149938876Y-154924222D01*
X149920069Y-154928836D01*
X149869982Y-154939128D01*
X149793807Y-154954087D01*
X149696735Y-154972701D01*
X149583957Y-154993959D01*
X149518158Y-155006218D01*
X149397650Y-155029162D01*
X149288803Y-155050995D01*
X149197124Y-155070522D01*
X149128119Y-155086548D01*
X149087296Y-155097879D01*
X149079089Y-155101474D01*
X149071052Y-155125806D01*
X149064567Y-155180759D01*
X149059630Y-155259908D01*
X149056236Y-155356826D01*
X149054382Y-155465087D01*
X149054062Y-155578265D01*
X149055273Y-155689935D01*
X149058010Y-155793668D01*
X149062269Y-155883041D01*
X149068045Y-155951626D01*
X149075333Y-155992997D01*
X149079705Y-156001610D01*
X149105836Y-156011933D01*
X149161207Y-156026692D01*
X149238493Y-156044152D01*
X149330370Y-156062580D01*
X149362442Y-156068541D01*
X149517076Y-156096866D01*
X149639225Y-156119676D01*
X149732927Y-156137880D01*
X149802216Y-156152383D01*
X149851129Y-156164092D01*
X149883703Y-156173915D01*
X149903972Y-156182756D01*
X149915974Y-156191524D01*
X149917653Y-156193257D01*
X149934416Y-156221171D01*
X149959986Y-156275495D01*
X149991812Y-156349577D01*
X150027340Y-156436765D01*
X150064017Y-156530408D01*
X150099289Y-156623852D01*
X150130604Y-156710447D01*
X150155407Y-156783540D01*
X150171146Y-156836478D01*
X150175268Y-156862611D01*
X150174924Y-156863526D01*
X150160959Y-156884886D01*
X150129278Y-156931884D01*
X150083209Y-156999627D01*
X150026082Y-157083223D01*
X149961227Y-157177782D01*
X149942757Y-157204654D01*
X149876901Y-157302075D01*
X149818950Y-157390963D01*
X149772062Y-157466212D01*
X149739393Y-157522720D01*
X149724100Y-157555381D01*
X149723359Y-157559393D01*
X149736208Y-157580484D01*
X149771712Y-157622264D01*
X149825307Y-157680245D01*
X149892429Y-157749935D01*
X149968513Y-157826845D01*
X150048996Y-157906483D01*
X150129313Y-157984361D01*
X150204901Y-158055986D01*
X150271195Y-158116870D01*
X150323631Y-158162521D01*
X150357645Y-158188450D01*
X150367055Y-158192683D01*
X150388957Y-158182712D01*
X150433800Y-158155820D01*
X150494279Y-158116536D01*
X150540811Y-158084917D01*
X150625125Y-158026898D01*
X150724974Y-157958584D01*
X150825127Y-157890379D01*
X150878973Y-157853875D01*
X151061229Y-157730600D01*
X151214219Y-157813320D01*
X151283918Y-157849559D01*
X151343186Y-157877726D01*
X151383289Y-157893791D01*
X151393497Y-157896026D01*
X151405771Y-157879522D01*
X151429987Y-157832882D01*
X151464337Y-157760409D01*
X151507012Y-157666406D01*
X151556206Y-157555174D01*
X151610110Y-157431015D01*
X151666916Y-157298232D01*
X151724818Y-157161127D01*
X151782007Y-157024002D01*
X151836676Y-156891158D01*
X151887016Y-156766898D01*
X151931220Y-156655525D01*
X151967481Y-156561339D01*
X151993991Y-156488644D01*
X152008942Y-156441741D01*
X152011346Y-156425633D01*
X151992289Y-156405086D01*
X151950564Y-156371733D01*
X151894894Y-156332502D01*
X151890222Y-156329399D01*
X151746336Y-156214223D01*
X151630317Y-156079853D01*
X151543170Y-155930584D01*
X151485901Y-155770713D01*
X151459514Y-155604537D01*
X151465015Y-155436352D01*
X151503410Y-155270455D01*
X151575705Y-155111142D01*
X151596974Y-155076287D01*
X151707604Y-154935537D01*
X151838298Y-154822514D01*
X151984536Y-154737803D01*
X152141792Y-154681994D01*
X152305543Y-154655674D01*
X152471267Y-154659430D01*
X152634438Y-154693850D01*
X152790535Y-154759523D01*
X152935033Y-154857035D01*
X152979731Y-154896613D01*
X153093488Y-155020503D01*
X153176382Y-155150924D01*
X153233244Y-155297115D01*
X153264913Y-155441888D01*
X153272731Y-155604660D01*
X153246662Y-155768240D01*
X153189355Y-155927098D01*
X153103456Y-156075706D01*
X152991614Y-156208535D01*
X152856477Y-156320056D01*
X152838717Y-156331811D01*
X152782450Y-156370308D01*
X152739677Y-156403663D01*
X152719228Y-156424960D01*
X152718931Y-156425633D01*
X152723321Y-156448671D01*
X152740724Y-156500957D01*
X152769332Y-156578190D01*
X152807335Y-156676068D01*
X152852926Y-156790291D01*
X152904297Y-156916558D01*
X152959638Y-157050567D01*
X153017142Y-157188018D01*
X153074999Y-157324608D01*
X153131402Y-157456037D01*
X153184542Y-157578005D01*
X153232610Y-157686209D01*
X153273799Y-157776349D01*
X153306299Y-157844123D01*
X153328303Y-157885230D01*
X153337164Y-157896026D01*
X153364240Y-157887619D01*
X153414903Y-157865072D01*
X153480417Y-157832413D01*
X153516441Y-157813320D01*
X153669432Y-157730600D01*
X153851688Y-157853875D01*
X153944725Y-157917028D01*
X154046585Y-157986527D01*
X154142038Y-158051965D01*
X154189850Y-158084917D01*
X154257095Y-158130073D01*
X154314036Y-158165857D01*
X154353246Y-158187738D01*
X154365981Y-158192363D01*
X154384517Y-158179885D01*
X154425541Y-158145052D01*
X154485075Y-158091478D01*
X154559142Y-158022783D01*
X154643765Y-157942581D01*
X154697285Y-157891086D01*
X154790919Y-157799086D01*
X154871841Y-157716799D01*
X154936777Y-157647745D01*
X154982458Y-157595444D01*
X155005611Y-157563416D01*
X155007832Y-157556916D01*
X154997524Y-157532194D01*
X154969039Y-157482205D01*
X154925537Y-157412012D01*
X154870177Y-157326675D01*
X154806120Y-157231256D01*
X154787903Y-157204654D01*
X154721527Y-157107967D01*
X154661978Y-157020917D01*
X154612584Y-156948395D01*
X154576675Y-156895293D01*
X154557581Y-156866503D01*
X154555736Y-156863526D01*
X154558495Y-156840582D01*
X154573138Y-156790136D01*
X154597113Y-156718841D01*
X154627866Y-156633347D01*
X154662844Y-156540307D01*
X154699493Y-156446374D01*
X154735261Y-156358199D01*
X154767594Y-156282434D01*
X154793938Y-156225731D01*
X154811742Y-156194743D01*
X154813007Y-156193257D01*
X154823894Y-156184401D01*
X154842282Y-156175643D01*
X154872206Y-156166077D01*
X154917703Y-156154796D01*
X154982809Y-156140893D01*
X155071561Y-156123463D01*
X155187993Y-156101598D01*
X155336142Y-156074391D01*
X155368218Y-156068541D01*
X155463286Y-156050174D01*
X155546165Y-156032205D01*
X155609530Y-156016369D01*
X155646058Y-156004400D01*
X155650956Y-156001610D01*
X155659027Y-155976872D01*
X155665587Y-155921590D01*
X155670633Y-155842189D01*
X155674159Y-155745096D01*
X155676161Y-155636738D01*
X155676636Y-155523540D01*
X155675577Y-155411928D01*
X155672982Y-155308329D01*
X155668846Y-155219168D01*
X155663163Y-155150872D01*
X155655931Y-155109866D01*
X155651571Y-155101474D01*
X155627298Y-155093008D01*
X155572026Y-155079235D01*
X155491262Y-155061350D01*
X155390512Y-155040548D01*
X155275283Y-155018023D01*
X155212502Y-155006218D01*
X155093387Y-154983951D01*
X154987165Y-154963779D01*
X154899027Y-154946715D01*
X154834166Y-154933769D01*
X154797774Y-154925955D01*
X154791784Y-154924222D01*
X154781661Y-154904690D01*
X154760262Y-154857643D01*
X154730439Y-154789803D01*
X154695045Y-154707891D01*
X154656932Y-154618628D01*
X154618953Y-154528735D01*
X154583960Y-154444935D01*
X154554806Y-154373947D01*
X154534343Y-154322494D01*
X154525423Y-154297297D01*
X154525257Y-154296196D01*
X154535369Y-154276319D01*
X154563717Y-154230577D01*
X154607323Y-154163517D01*
X154663206Y-154079684D01*
X154728387Y-153983626D01*
X154766279Y-153928450D01*
X154835325Y-153827281D01*
X154896650Y-153735430D01*
X154947263Y-153657544D01*
X154984171Y-153598269D01*
X155004382Y-153562251D01*
X155007301Y-153554177D01*
X154994753Y-153535384D01*
X154960063Y-153495257D01*
X154907663Y-153438293D01*
X154841984Y-153368985D01*
X154767456Y-153291831D01*
X154688513Y-153211325D01*
X154609583Y-153131963D01*
X154535100Y-153058240D01*
X154469494Y-152994652D01*
X154417196Y-152945694D01*
X154382639Y-152915861D01*
X154371078Y-152908742D01*
X154352254Y-152918753D01*
X154307231Y-152946878D01*
X154240387Y-152990254D01*
X154156099Y-153046018D01*
X154058744Y-153111306D01*
X153985307Y-153161046D01*
X153614267Y-153413351D01*
X152995695Y-153158355D01*
X152911875Y-152713731D01*
X152828054Y-152269107D01*
X151902606Y-152269107D01*
X151818786Y-152713731D01*
G37*
X151818786Y-152713731D02*
X151734965Y-153158355D01*
X151425680Y-153285853D01*
X151116394Y-153413351D01*
X150745354Y-153161046D01*
X150641443Y-153090796D01*
X150547513Y-153028072D01*
X150467948Y-152975738D01*
X150407130Y-152936657D01*
X150369443Y-152913693D01*
X150359179Y-152908742D01*
X150340690Y-152921476D01*
X150301180Y-152956682D01*
X150245078Y-153009862D01*
X150176813Y-153076518D01*
X150100814Y-153152154D01*
X150021508Y-153232272D01*
X149943325Y-153312374D01*
X149870693Y-153387964D01*
X149808041Y-153454545D01*
X149759797Y-153507618D01*
X149730390Y-153542687D01*
X149723359Y-153554423D01*
X149733477Y-153576060D01*
X149761841Y-153623462D01*
X149805471Y-153691993D01*
X149861382Y-153777015D01*
X149926594Y-153873893D01*
X149964381Y-153929150D01*
X150033257Y-154030048D01*
X150094460Y-154121099D01*
X150145022Y-154197770D01*
X150181972Y-154255528D01*
X150202342Y-154289843D01*
X150205403Y-154297054D01*
X150198464Y-154317548D01*
X150179549Y-154365313D01*
X150151513Y-154433632D01*
X150117209Y-154515789D01*
X150079491Y-154605070D01*
X150041213Y-154694758D01*
X150005230Y-154778138D01*
X149974394Y-154848494D01*
X149951561Y-154899110D01*
X149939583Y-154923271D01*
X149938876Y-154924222D01*
X149920069Y-154928836D01*
X149869982Y-154939128D01*
X149793807Y-154954087D01*
X149696735Y-154972701D01*
X149583957Y-154993959D01*
X149518158Y-155006218D01*
X149397650Y-155029162D01*
X149288803Y-155050995D01*
X149197124Y-155070522D01*
X149128119Y-155086548D01*
X149087296Y-155097879D01*
X149079089Y-155101474D01*
X149071052Y-155125806D01*
X149064567Y-155180759D01*
X149059630Y-155259908D01*
X149056236Y-155356826D01*
X149054382Y-155465087D01*
X149054062Y-155578265D01*
X149055273Y-155689935D01*
X149058010Y-155793668D01*
X149062269Y-155883041D01*
X149068045Y-155951626D01*
X149075333Y-155992997D01*
X149079705Y-156001610D01*
X149105836Y-156011933D01*
X149161207Y-156026692D01*
X149238493Y-156044152D01*
X149330370Y-156062580D01*
X149362442Y-156068541D01*
X149517076Y-156096866D01*
X149639225Y-156119676D01*
X149732927Y-156137880D01*
X149802216Y-156152383D01*
X149851129Y-156164092D01*
X149883703Y-156173915D01*
X149903972Y-156182756D01*
X149915974Y-156191524D01*
X149917653Y-156193257D01*
X149934416Y-156221171D01*
X149959986Y-156275495D01*
X149991812Y-156349577D01*
X150027340Y-156436765D01*
X150064017Y-156530408D01*
X150099289Y-156623852D01*
X150130604Y-156710447D01*
X150155407Y-156783540D01*
X150171146Y-156836478D01*
X150175268Y-156862611D01*
X150174924Y-156863526D01*
X150160959Y-156884886D01*
X150129278Y-156931884D01*
X150083209Y-156999627D01*
X150026082Y-157083223D01*
X149961227Y-157177782D01*
X149942757Y-157204654D01*
X149876901Y-157302075D01*
X149818950Y-157390963D01*
X149772062Y-157466212D01*
X149739393Y-157522720D01*
X149724100Y-157555381D01*
X149723359Y-157559393D01*
X149736208Y-157580484D01*
X149771712Y-157622264D01*
X149825307Y-157680245D01*
X149892429Y-157749935D01*
X149968513Y-157826845D01*
X150048996Y-157906483D01*
X150129313Y-157984361D01*
X150204901Y-158055986D01*
X150271195Y-158116870D01*
X150323631Y-158162521D01*
X150357645Y-158188450D01*
X150367055Y-158192683D01*
X150388957Y-158182712D01*
X150433800Y-158155820D01*
X150494279Y-158116536D01*
X150540811Y-158084917D01*
X150625125Y-158026898D01*
X150724974Y-157958584D01*
X150825127Y-157890379D01*
X150878973Y-157853875D01*
X151061229Y-157730600D01*
X151214219Y-157813320D01*
X151283918Y-157849559D01*
X151343186Y-157877726D01*
X151383289Y-157893791D01*
X151393497Y-157896026D01*
X151405771Y-157879522D01*
X151429987Y-157832882D01*
X151464337Y-157760409D01*
X151507012Y-157666406D01*
X151556206Y-157555174D01*
X151610110Y-157431015D01*
X151666916Y-157298232D01*
X151724818Y-157161127D01*
X151782007Y-157024002D01*
X151836676Y-156891158D01*
X151887016Y-156766898D01*
X151931220Y-156655525D01*
X151967481Y-156561339D01*
X151993991Y-156488644D01*
X152008942Y-156441741D01*
X152011346Y-156425633D01*
X151992289Y-156405086D01*
X151950564Y-156371733D01*
X151894894Y-156332502D01*
X151890222Y-156329399D01*
X151746336Y-156214223D01*
X151630317Y-156079853D01*
X151543170Y-155930584D01*
X151485901Y-155770713D01*
X151459514Y-155604537D01*
X151465015Y-155436352D01*
X151503410Y-155270455D01*
X151575705Y-155111142D01*
X151596974Y-155076287D01*
X151707604Y-154935537D01*
X151838298Y-154822514D01*
X151984536Y-154737803D01*
X152141792Y-154681994D01*
X152305543Y-154655674D01*
X152471267Y-154659430D01*
X152634438Y-154693850D01*
X152790535Y-154759523D01*
X152935033Y-154857035D01*
X152979731Y-154896613D01*
X153093488Y-155020503D01*
X153176382Y-155150924D01*
X153233244Y-155297115D01*
X153264913Y-155441888D01*
X153272731Y-155604660D01*
X153246662Y-155768240D01*
X153189355Y-155927098D01*
X153103456Y-156075706D01*
X152991614Y-156208535D01*
X152856477Y-156320056D01*
X152838717Y-156331811D01*
X152782450Y-156370308D01*
X152739677Y-156403663D01*
X152719228Y-156424960D01*
X152718931Y-156425633D01*
X152723321Y-156448671D01*
X152740724Y-156500957D01*
X152769332Y-156578190D01*
X152807335Y-156676068D01*
X152852926Y-156790291D01*
X152904297Y-156916558D01*
X152959638Y-157050567D01*
X153017142Y-157188018D01*
X153074999Y-157324608D01*
X153131402Y-157456037D01*
X153184542Y-157578005D01*
X153232610Y-157686209D01*
X153273799Y-157776349D01*
X153306299Y-157844123D01*
X153328303Y-157885230D01*
X153337164Y-157896026D01*
X153364240Y-157887619D01*
X153414903Y-157865072D01*
X153480417Y-157832413D01*
X153516441Y-157813320D01*
X153669432Y-157730600D01*
X153851688Y-157853875D01*
X153944725Y-157917028D01*
X154046585Y-157986527D01*
X154142038Y-158051965D01*
X154189850Y-158084917D01*
X154257095Y-158130073D01*
X154314036Y-158165857D01*
X154353246Y-158187738D01*
X154365981Y-158192363D01*
X154384517Y-158179885D01*
X154425541Y-158145052D01*
X154485075Y-158091478D01*
X154559142Y-158022783D01*
X154643765Y-157942581D01*
X154697285Y-157891086D01*
X154790919Y-157799086D01*
X154871841Y-157716799D01*
X154936777Y-157647745D01*
X154982458Y-157595444D01*
X155005611Y-157563416D01*
X155007832Y-157556916D01*
X154997524Y-157532194D01*
X154969039Y-157482205D01*
X154925537Y-157412012D01*
X154870177Y-157326675D01*
X154806120Y-157231256D01*
X154787903Y-157204654D01*
X154721527Y-157107967D01*
X154661978Y-157020917D01*
X154612584Y-156948395D01*
X154576675Y-156895293D01*
X154557581Y-156866503D01*
X154555736Y-156863526D01*
X154558495Y-156840582D01*
X154573138Y-156790136D01*
X154597113Y-156718841D01*
X154627866Y-156633347D01*
X154662844Y-156540307D01*
X154699493Y-156446374D01*
X154735261Y-156358199D01*
X154767594Y-156282434D01*
X154793938Y-156225731D01*
X154811742Y-156194743D01*
X154813007Y-156193257D01*
X154823894Y-156184401D01*
X154842282Y-156175643D01*
X154872206Y-156166077D01*
X154917703Y-156154796D01*
X154982809Y-156140893D01*
X155071561Y-156123463D01*
X155187993Y-156101598D01*
X155336142Y-156074391D01*
X155368218Y-156068541D01*
X155463286Y-156050174D01*
X155546165Y-156032205D01*
X155609530Y-156016369D01*
X155646058Y-156004400D01*
X155650956Y-156001610D01*
X155659027Y-155976872D01*
X155665587Y-155921590D01*
X155670633Y-155842189D01*
X155674159Y-155745096D01*
X155676161Y-155636738D01*
X155676636Y-155523540D01*
X155675577Y-155411928D01*
X155672982Y-155308329D01*
X155668846Y-155219168D01*
X155663163Y-155150872D01*
X155655931Y-155109866D01*
X155651571Y-155101474D01*
X155627298Y-155093008D01*
X155572026Y-155079235D01*
X155491262Y-155061350D01*
X155390512Y-155040548D01*
X155275283Y-155018023D01*
X155212502Y-155006218D01*
X155093387Y-154983951D01*
X154987165Y-154963779D01*
X154899027Y-154946715D01*
X154834166Y-154933769D01*
X154797774Y-154925955D01*
X154791784Y-154924222D01*
X154781661Y-154904690D01*
X154760262Y-154857643D01*
X154730439Y-154789803D01*
X154695045Y-154707891D01*
X154656932Y-154618628D01*
X154618953Y-154528735D01*
X154583960Y-154444935D01*
X154554806Y-154373947D01*
X154534343Y-154322494D01*
X154525423Y-154297297D01*
X154525257Y-154296196D01*
X154535369Y-154276319D01*
X154563717Y-154230577D01*
X154607323Y-154163517D01*
X154663206Y-154079684D01*
X154728387Y-153983626D01*
X154766279Y-153928450D01*
X154835325Y-153827281D01*
X154896650Y-153735430D01*
X154947263Y-153657544D01*
X154984171Y-153598269D01*
X155004382Y-153562251D01*
X155007301Y-153554177D01*
X154994753Y-153535384D01*
X154960063Y-153495257D01*
X154907663Y-153438293D01*
X154841984Y-153368985D01*
X154767456Y-153291831D01*
X154688513Y-153211325D01*
X154609583Y-153131963D01*
X154535100Y-153058240D01*
X154469494Y-152994652D01*
X154417196Y-152945694D01*
X154382639Y-152915861D01*
X154371078Y-152908742D01*
X154352254Y-152918753D01*
X154307231Y-152946878D01*
X154240387Y-152990254D01*
X154156099Y-153046018D01*
X154058744Y-153111306D01*
X153985307Y-153161046D01*
X153614267Y-153413351D01*
X152995695Y-153158355D01*
X152911875Y-152713731D01*
X152828054Y-152269107D01*
X151902606Y-152269107D01*
X151818786Y-152713731D01*
M02*
