G04 #@! TF.GenerationSoftware,KiCad,Pcbnew,5.1.7*
G04 #@! TF.CreationDate,2020-10-22T00:02:30+01:00*
G04 #@! TF.ProjectId,rc2014-icecore,72633230-3134-42d6-9963-65636f72652e,1*
G04 #@! TF.SameCoordinates,Original*
G04 #@! TF.FileFunction,Soldermask,Top*
G04 #@! TF.FilePolarity,Negative*
%FSLAX46Y46*%
G04 Gerber Fmt 4.6, Leading zero omitted, Abs format (unit mm)*
G04 Created by KiCad (PCBNEW 5.1.7) date 2020-10-22 00:02:30*
%MOMM*%
%LPD*%
G01*
G04 APERTURE LIST*
%ADD10C,3.643000*%
%ADD11O,2.100000X2.100000*%
G04 APERTURE END LIST*
D10*
X77068000Y-107167000D03*
X122068000Y-107167000D03*
X77068000Y-152167000D03*
X122068000Y-152167000D03*
G36*
G01*
X84645500Y-107278000D02*
X84010500Y-107278000D01*
G75*
G02*
X83947000Y-107214500I0J63500D01*
G01*
X83947000Y-105309500D01*
G75*
G02*
X84010500Y-105246000I63500J0D01*
G01*
X84645500Y-105246000D01*
G75*
G02*
X84709000Y-105309500I0J-63500D01*
G01*
X84709000Y-107214500D01*
G75*
G02*
X84645500Y-107278000I-63500J0D01*
G01*
G37*
G36*
G01*
X85915500Y-107278000D02*
X85280500Y-107278000D01*
G75*
G02*
X85217000Y-107214500I0J63500D01*
G01*
X85217000Y-105309500D01*
G75*
G02*
X85280500Y-105246000I63500J0D01*
G01*
X85915500Y-105246000D01*
G75*
G02*
X85979000Y-105309500I0J-63500D01*
G01*
X85979000Y-107214500D01*
G75*
G02*
X85915500Y-107278000I-63500J0D01*
G01*
G37*
G36*
G01*
X87185500Y-107278000D02*
X86550500Y-107278000D01*
G75*
G02*
X86487000Y-107214500I0J63500D01*
G01*
X86487000Y-105309500D01*
G75*
G02*
X86550500Y-105246000I63500J0D01*
G01*
X87185500Y-105246000D01*
G75*
G02*
X87249000Y-105309500I0J-63500D01*
G01*
X87249000Y-107214500D01*
G75*
G02*
X87185500Y-107278000I-63500J0D01*
G01*
G37*
G36*
G01*
X88455500Y-107278000D02*
X87820500Y-107278000D01*
G75*
G02*
X87757000Y-107214500I0J63500D01*
G01*
X87757000Y-105309500D01*
G75*
G02*
X87820500Y-105246000I63500J0D01*
G01*
X88455500Y-105246000D01*
G75*
G02*
X88519000Y-105309500I0J-63500D01*
G01*
X88519000Y-107214500D01*
G75*
G02*
X88455500Y-107278000I-63500J0D01*
G01*
G37*
G36*
G01*
X89725500Y-107278000D02*
X89090500Y-107278000D01*
G75*
G02*
X89027000Y-107214500I0J63500D01*
G01*
X89027000Y-105309500D01*
G75*
G02*
X89090500Y-105246000I63500J0D01*
G01*
X89725500Y-105246000D01*
G75*
G02*
X89789000Y-105309500I0J-63500D01*
G01*
X89789000Y-107214500D01*
G75*
G02*
X89725500Y-107278000I-63500J0D01*
G01*
G37*
G36*
G01*
X90995500Y-107278000D02*
X90360500Y-107278000D01*
G75*
G02*
X90297000Y-107214500I0J63500D01*
G01*
X90297000Y-105309500D01*
G75*
G02*
X90360500Y-105246000I63500J0D01*
G01*
X90995500Y-105246000D01*
G75*
G02*
X91059000Y-105309500I0J-63500D01*
G01*
X91059000Y-107214500D01*
G75*
G02*
X90995500Y-107278000I-63500J0D01*
G01*
G37*
G36*
G01*
X92265500Y-107278000D02*
X91630500Y-107278000D01*
G75*
G02*
X91567000Y-107214500I0J63500D01*
G01*
X91567000Y-105309500D01*
G75*
G02*
X91630500Y-105246000I63500J0D01*
G01*
X92265500Y-105246000D01*
G75*
G02*
X92329000Y-105309500I0J-63500D01*
G01*
X92329000Y-107214500D01*
G75*
G02*
X92265500Y-107278000I-63500J0D01*
G01*
G37*
G36*
G01*
X93535500Y-107278000D02*
X92900500Y-107278000D01*
G75*
G02*
X92837000Y-107214500I0J63500D01*
G01*
X92837000Y-105309500D01*
G75*
G02*
X92900500Y-105246000I63500J0D01*
G01*
X93535500Y-105246000D01*
G75*
G02*
X93599000Y-105309500I0J-63500D01*
G01*
X93599000Y-107214500D01*
G75*
G02*
X93535500Y-107278000I-63500J0D01*
G01*
G37*
G36*
G01*
X94805500Y-107278000D02*
X94170500Y-107278000D01*
G75*
G02*
X94107000Y-107214500I0J63500D01*
G01*
X94107000Y-105309500D01*
G75*
G02*
X94170500Y-105246000I63500J0D01*
G01*
X94805500Y-105246000D01*
G75*
G02*
X94869000Y-105309500I0J-63500D01*
G01*
X94869000Y-107214500D01*
G75*
G02*
X94805500Y-107278000I-63500J0D01*
G01*
G37*
G36*
G01*
X96075500Y-107278000D02*
X95440500Y-107278000D01*
G75*
G02*
X95377000Y-107214500I0J63500D01*
G01*
X95377000Y-105309500D01*
G75*
G02*
X95440500Y-105246000I63500J0D01*
G01*
X96075500Y-105246000D01*
G75*
G02*
X96139000Y-105309500I0J-63500D01*
G01*
X96139000Y-107214500D01*
G75*
G02*
X96075500Y-107278000I-63500J0D01*
G01*
G37*
G36*
G01*
X97345500Y-107278000D02*
X96710500Y-107278000D01*
G75*
G02*
X96647000Y-107214500I0J63500D01*
G01*
X96647000Y-105309500D01*
G75*
G02*
X96710500Y-105246000I63500J0D01*
G01*
X97345500Y-105246000D01*
G75*
G02*
X97409000Y-105309500I0J-63500D01*
G01*
X97409000Y-107214500D01*
G75*
G02*
X97345500Y-107278000I-63500J0D01*
G01*
G37*
G36*
G01*
X98615500Y-107278000D02*
X97980500Y-107278000D01*
G75*
G02*
X97917000Y-107214500I0J63500D01*
G01*
X97917000Y-105309500D01*
G75*
G02*
X97980500Y-105246000I63500J0D01*
G01*
X98615500Y-105246000D01*
G75*
G02*
X98679000Y-105309500I0J-63500D01*
G01*
X98679000Y-107214500D01*
G75*
G02*
X98615500Y-107278000I-63500J0D01*
G01*
G37*
G36*
G01*
X99885500Y-107278000D02*
X99250500Y-107278000D01*
G75*
G02*
X99187000Y-107214500I0J63500D01*
G01*
X99187000Y-105309500D01*
G75*
G02*
X99250500Y-105246000I63500J0D01*
G01*
X99885500Y-105246000D01*
G75*
G02*
X99949000Y-105309500I0J-63500D01*
G01*
X99949000Y-107214500D01*
G75*
G02*
X99885500Y-107278000I-63500J0D01*
G01*
G37*
G36*
G01*
X101155500Y-107278000D02*
X100520500Y-107278000D01*
G75*
G02*
X100457000Y-107214500I0J63500D01*
G01*
X100457000Y-105309500D01*
G75*
G02*
X100520500Y-105246000I63500J0D01*
G01*
X101155500Y-105246000D01*
G75*
G02*
X101219000Y-105309500I0J-63500D01*
G01*
X101219000Y-107214500D01*
G75*
G02*
X101155500Y-107278000I-63500J0D01*
G01*
G37*
G36*
G01*
X102425500Y-107278000D02*
X101790500Y-107278000D01*
G75*
G02*
X101727000Y-107214500I0J63500D01*
G01*
X101727000Y-105309500D01*
G75*
G02*
X101790500Y-105246000I63500J0D01*
G01*
X102425500Y-105246000D01*
G75*
G02*
X102489000Y-105309500I0J-63500D01*
G01*
X102489000Y-107214500D01*
G75*
G02*
X102425500Y-107278000I-63500J0D01*
G01*
G37*
G36*
G01*
X103695500Y-107278000D02*
X103060500Y-107278000D01*
G75*
G02*
X102997000Y-107214500I0J63500D01*
G01*
X102997000Y-105309500D01*
G75*
G02*
X103060500Y-105246000I63500J0D01*
G01*
X103695500Y-105246000D01*
G75*
G02*
X103759000Y-105309500I0J-63500D01*
G01*
X103759000Y-107214500D01*
G75*
G02*
X103695500Y-107278000I-63500J0D01*
G01*
G37*
G36*
G01*
X104965500Y-107278000D02*
X104330500Y-107278000D01*
G75*
G02*
X104267000Y-107214500I0J63500D01*
G01*
X104267000Y-105309500D01*
G75*
G02*
X104330500Y-105246000I63500J0D01*
G01*
X104965500Y-105246000D01*
G75*
G02*
X105029000Y-105309500I0J-63500D01*
G01*
X105029000Y-107214500D01*
G75*
G02*
X104965500Y-107278000I-63500J0D01*
G01*
G37*
G36*
G01*
X106235500Y-107278000D02*
X105600500Y-107278000D01*
G75*
G02*
X105537000Y-107214500I0J63500D01*
G01*
X105537000Y-105309500D01*
G75*
G02*
X105600500Y-105246000I63500J0D01*
G01*
X106235500Y-105246000D01*
G75*
G02*
X106299000Y-105309500I0J-63500D01*
G01*
X106299000Y-107214500D01*
G75*
G02*
X106235500Y-107278000I-63500J0D01*
G01*
G37*
G36*
G01*
X107505500Y-107278000D02*
X106870500Y-107278000D01*
G75*
G02*
X106807000Y-107214500I0J63500D01*
G01*
X106807000Y-105309500D01*
G75*
G02*
X106870500Y-105246000I63500J0D01*
G01*
X107505500Y-105246000D01*
G75*
G02*
X107569000Y-105309500I0J-63500D01*
G01*
X107569000Y-107214500D01*
G75*
G02*
X107505500Y-107278000I-63500J0D01*
G01*
G37*
G36*
G01*
X108775500Y-107278000D02*
X108140500Y-107278000D01*
G75*
G02*
X108077000Y-107214500I0J63500D01*
G01*
X108077000Y-105309500D01*
G75*
G02*
X108140500Y-105246000I63500J0D01*
G01*
X108775500Y-105246000D01*
G75*
G02*
X108839000Y-105309500I0J-63500D01*
G01*
X108839000Y-107214500D01*
G75*
G02*
X108775500Y-107278000I-63500J0D01*
G01*
G37*
G36*
G01*
X110045500Y-107278000D02*
X109410500Y-107278000D01*
G75*
G02*
X109347000Y-107214500I0J63500D01*
G01*
X109347000Y-105309500D01*
G75*
G02*
X109410500Y-105246000I63500J0D01*
G01*
X110045500Y-105246000D01*
G75*
G02*
X110109000Y-105309500I0J-63500D01*
G01*
X110109000Y-107214500D01*
G75*
G02*
X110045500Y-107278000I-63500J0D01*
G01*
G37*
G36*
G01*
X111315500Y-107278000D02*
X110680500Y-107278000D01*
G75*
G02*
X110617000Y-107214500I0J63500D01*
G01*
X110617000Y-105309500D01*
G75*
G02*
X110680500Y-105246000I63500J0D01*
G01*
X111315500Y-105246000D01*
G75*
G02*
X111379000Y-105309500I0J-63500D01*
G01*
X111379000Y-107214500D01*
G75*
G02*
X111315500Y-107278000I-63500J0D01*
G01*
G37*
G36*
G01*
X112585500Y-107278000D02*
X111950500Y-107278000D01*
G75*
G02*
X111887000Y-107214500I0J63500D01*
G01*
X111887000Y-105309500D01*
G75*
G02*
X111950500Y-105246000I63500J0D01*
G01*
X112585500Y-105246000D01*
G75*
G02*
X112649000Y-105309500I0J-63500D01*
G01*
X112649000Y-107214500D01*
G75*
G02*
X112585500Y-107278000I-63500J0D01*
G01*
G37*
G36*
G01*
X113855500Y-107278000D02*
X113220500Y-107278000D01*
G75*
G02*
X113157000Y-107214500I0J63500D01*
G01*
X113157000Y-105309500D01*
G75*
G02*
X113220500Y-105246000I63500J0D01*
G01*
X113855500Y-105246000D01*
G75*
G02*
X113919000Y-105309500I0J-63500D01*
G01*
X113919000Y-107214500D01*
G75*
G02*
X113855500Y-107278000I-63500J0D01*
G01*
G37*
G36*
G01*
X115125500Y-107278000D02*
X114490500Y-107278000D01*
G75*
G02*
X114427000Y-107214500I0J63500D01*
G01*
X114427000Y-105309500D01*
G75*
G02*
X114490500Y-105246000I63500J0D01*
G01*
X115125500Y-105246000D01*
G75*
G02*
X115189000Y-105309500I0J-63500D01*
G01*
X115189000Y-107214500D01*
G75*
G02*
X115125500Y-107278000I-63500J0D01*
G01*
G37*
G36*
G01*
X84645500Y-111088000D02*
X84010500Y-111088000D01*
G75*
G02*
X83947000Y-111024500I0J63500D01*
G01*
X83947000Y-109119500D01*
G75*
G02*
X84010500Y-109056000I63500J0D01*
G01*
X84645500Y-109056000D01*
G75*
G02*
X84709000Y-109119500I0J-63500D01*
G01*
X84709000Y-111024500D01*
G75*
G02*
X84645500Y-111088000I-63500J0D01*
G01*
G37*
G36*
G01*
X85915500Y-111088000D02*
X85280500Y-111088000D01*
G75*
G02*
X85217000Y-111024500I0J63500D01*
G01*
X85217000Y-109119500D01*
G75*
G02*
X85280500Y-109056000I63500J0D01*
G01*
X85915500Y-109056000D01*
G75*
G02*
X85979000Y-109119500I0J-63500D01*
G01*
X85979000Y-111024500D01*
G75*
G02*
X85915500Y-111088000I-63500J0D01*
G01*
G37*
G36*
G01*
X87185500Y-111088000D02*
X86550500Y-111088000D01*
G75*
G02*
X86487000Y-111024500I0J63500D01*
G01*
X86487000Y-109119500D01*
G75*
G02*
X86550500Y-109056000I63500J0D01*
G01*
X87185500Y-109056000D01*
G75*
G02*
X87249000Y-109119500I0J-63500D01*
G01*
X87249000Y-111024500D01*
G75*
G02*
X87185500Y-111088000I-63500J0D01*
G01*
G37*
G36*
G01*
X88455500Y-111088000D02*
X87820500Y-111088000D01*
G75*
G02*
X87757000Y-111024500I0J63500D01*
G01*
X87757000Y-109119500D01*
G75*
G02*
X87820500Y-109056000I63500J0D01*
G01*
X88455500Y-109056000D01*
G75*
G02*
X88519000Y-109119500I0J-63500D01*
G01*
X88519000Y-111024500D01*
G75*
G02*
X88455500Y-111088000I-63500J0D01*
G01*
G37*
G36*
G01*
X89725500Y-111088000D02*
X89090500Y-111088000D01*
G75*
G02*
X89027000Y-111024500I0J63500D01*
G01*
X89027000Y-109119500D01*
G75*
G02*
X89090500Y-109056000I63500J0D01*
G01*
X89725500Y-109056000D01*
G75*
G02*
X89789000Y-109119500I0J-63500D01*
G01*
X89789000Y-111024500D01*
G75*
G02*
X89725500Y-111088000I-63500J0D01*
G01*
G37*
G36*
G01*
X90995500Y-111088000D02*
X90360500Y-111088000D01*
G75*
G02*
X90297000Y-111024500I0J63500D01*
G01*
X90297000Y-109119500D01*
G75*
G02*
X90360500Y-109056000I63500J0D01*
G01*
X90995500Y-109056000D01*
G75*
G02*
X91059000Y-109119500I0J-63500D01*
G01*
X91059000Y-111024500D01*
G75*
G02*
X90995500Y-111088000I-63500J0D01*
G01*
G37*
G36*
G01*
X92265500Y-111088000D02*
X91630500Y-111088000D01*
G75*
G02*
X91567000Y-111024500I0J63500D01*
G01*
X91567000Y-109119500D01*
G75*
G02*
X91630500Y-109056000I63500J0D01*
G01*
X92265500Y-109056000D01*
G75*
G02*
X92329000Y-109119500I0J-63500D01*
G01*
X92329000Y-111024500D01*
G75*
G02*
X92265500Y-111088000I-63500J0D01*
G01*
G37*
G36*
G01*
X93535500Y-111088000D02*
X92900500Y-111088000D01*
G75*
G02*
X92837000Y-111024500I0J63500D01*
G01*
X92837000Y-109119500D01*
G75*
G02*
X92900500Y-109056000I63500J0D01*
G01*
X93535500Y-109056000D01*
G75*
G02*
X93599000Y-109119500I0J-63500D01*
G01*
X93599000Y-111024500D01*
G75*
G02*
X93535500Y-111088000I-63500J0D01*
G01*
G37*
G36*
G01*
X94805500Y-111088000D02*
X94170500Y-111088000D01*
G75*
G02*
X94107000Y-111024500I0J63500D01*
G01*
X94107000Y-109119500D01*
G75*
G02*
X94170500Y-109056000I63500J0D01*
G01*
X94805500Y-109056000D01*
G75*
G02*
X94869000Y-109119500I0J-63500D01*
G01*
X94869000Y-111024500D01*
G75*
G02*
X94805500Y-111088000I-63500J0D01*
G01*
G37*
G36*
G01*
X96075500Y-111088000D02*
X95440500Y-111088000D01*
G75*
G02*
X95377000Y-111024500I0J63500D01*
G01*
X95377000Y-109119500D01*
G75*
G02*
X95440500Y-109056000I63500J0D01*
G01*
X96075500Y-109056000D01*
G75*
G02*
X96139000Y-109119500I0J-63500D01*
G01*
X96139000Y-111024500D01*
G75*
G02*
X96075500Y-111088000I-63500J0D01*
G01*
G37*
G36*
G01*
X97345500Y-111088000D02*
X96710500Y-111088000D01*
G75*
G02*
X96647000Y-111024500I0J63500D01*
G01*
X96647000Y-109119500D01*
G75*
G02*
X96710500Y-109056000I63500J0D01*
G01*
X97345500Y-109056000D01*
G75*
G02*
X97409000Y-109119500I0J-63500D01*
G01*
X97409000Y-111024500D01*
G75*
G02*
X97345500Y-111088000I-63500J0D01*
G01*
G37*
G36*
G01*
X98615500Y-111088000D02*
X97980500Y-111088000D01*
G75*
G02*
X97917000Y-111024500I0J63500D01*
G01*
X97917000Y-109119500D01*
G75*
G02*
X97980500Y-109056000I63500J0D01*
G01*
X98615500Y-109056000D01*
G75*
G02*
X98679000Y-109119500I0J-63500D01*
G01*
X98679000Y-111024500D01*
G75*
G02*
X98615500Y-111088000I-63500J0D01*
G01*
G37*
G36*
G01*
X99885500Y-111088000D02*
X99250500Y-111088000D01*
G75*
G02*
X99187000Y-111024500I0J63500D01*
G01*
X99187000Y-109119500D01*
G75*
G02*
X99250500Y-109056000I63500J0D01*
G01*
X99885500Y-109056000D01*
G75*
G02*
X99949000Y-109119500I0J-63500D01*
G01*
X99949000Y-111024500D01*
G75*
G02*
X99885500Y-111088000I-63500J0D01*
G01*
G37*
G36*
G01*
X101155500Y-111088000D02*
X100520500Y-111088000D01*
G75*
G02*
X100457000Y-111024500I0J63500D01*
G01*
X100457000Y-109119500D01*
G75*
G02*
X100520500Y-109056000I63500J0D01*
G01*
X101155500Y-109056000D01*
G75*
G02*
X101219000Y-109119500I0J-63500D01*
G01*
X101219000Y-111024500D01*
G75*
G02*
X101155500Y-111088000I-63500J0D01*
G01*
G37*
G36*
G01*
X102425500Y-111088000D02*
X101790500Y-111088000D01*
G75*
G02*
X101727000Y-111024500I0J63500D01*
G01*
X101727000Y-109119500D01*
G75*
G02*
X101790500Y-109056000I63500J0D01*
G01*
X102425500Y-109056000D01*
G75*
G02*
X102489000Y-109119500I0J-63500D01*
G01*
X102489000Y-111024500D01*
G75*
G02*
X102425500Y-111088000I-63500J0D01*
G01*
G37*
G36*
G01*
X103695500Y-111088000D02*
X103060500Y-111088000D01*
G75*
G02*
X102997000Y-111024500I0J63500D01*
G01*
X102997000Y-109119500D01*
G75*
G02*
X103060500Y-109056000I63500J0D01*
G01*
X103695500Y-109056000D01*
G75*
G02*
X103759000Y-109119500I0J-63500D01*
G01*
X103759000Y-111024500D01*
G75*
G02*
X103695500Y-111088000I-63500J0D01*
G01*
G37*
G36*
G01*
X104965500Y-111088000D02*
X104330500Y-111088000D01*
G75*
G02*
X104267000Y-111024500I0J63500D01*
G01*
X104267000Y-109119500D01*
G75*
G02*
X104330500Y-109056000I63500J0D01*
G01*
X104965500Y-109056000D01*
G75*
G02*
X105029000Y-109119500I0J-63500D01*
G01*
X105029000Y-111024500D01*
G75*
G02*
X104965500Y-111088000I-63500J0D01*
G01*
G37*
G36*
G01*
X106235500Y-111088000D02*
X105600500Y-111088000D01*
G75*
G02*
X105537000Y-111024500I0J63500D01*
G01*
X105537000Y-109119500D01*
G75*
G02*
X105600500Y-109056000I63500J0D01*
G01*
X106235500Y-109056000D01*
G75*
G02*
X106299000Y-109119500I0J-63500D01*
G01*
X106299000Y-111024500D01*
G75*
G02*
X106235500Y-111088000I-63500J0D01*
G01*
G37*
G36*
G01*
X107505500Y-111088000D02*
X106870500Y-111088000D01*
G75*
G02*
X106807000Y-111024500I0J63500D01*
G01*
X106807000Y-109119500D01*
G75*
G02*
X106870500Y-109056000I63500J0D01*
G01*
X107505500Y-109056000D01*
G75*
G02*
X107569000Y-109119500I0J-63500D01*
G01*
X107569000Y-111024500D01*
G75*
G02*
X107505500Y-111088000I-63500J0D01*
G01*
G37*
G36*
G01*
X108775500Y-111088000D02*
X108140500Y-111088000D01*
G75*
G02*
X108077000Y-111024500I0J63500D01*
G01*
X108077000Y-109119500D01*
G75*
G02*
X108140500Y-109056000I63500J0D01*
G01*
X108775500Y-109056000D01*
G75*
G02*
X108839000Y-109119500I0J-63500D01*
G01*
X108839000Y-111024500D01*
G75*
G02*
X108775500Y-111088000I-63500J0D01*
G01*
G37*
G36*
G01*
X110045500Y-111088000D02*
X109410500Y-111088000D01*
G75*
G02*
X109347000Y-111024500I0J63500D01*
G01*
X109347000Y-109119500D01*
G75*
G02*
X109410500Y-109056000I63500J0D01*
G01*
X110045500Y-109056000D01*
G75*
G02*
X110109000Y-109119500I0J-63500D01*
G01*
X110109000Y-111024500D01*
G75*
G02*
X110045500Y-111088000I-63500J0D01*
G01*
G37*
G36*
G01*
X111315500Y-111088000D02*
X110680500Y-111088000D01*
G75*
G02*
X110617000Y-111024500I0J63500D01*
G01*
X110617000Y-109119500D01*
G75*
G02*
X110680500Y-109056000I63500J0D01*
G01*
X111315500Y-109056000D01*
G75*
G02*
X111379000Y-109119500I0J-63500D01*
G01*
X111379000Y-111024500D01*
G75*
G02*
X111315500Y-111088000I-63500J0D01*
G01*
G37*
G36*
G01*
X112585500Y-111088000D02*
X111950500Y-111088000D01*
G75*
G02*
X111887000Y-111024500I0J63500D01*
G01*
X111887000Y-109119500D01*
G75*
G02*
X111950500Y-109056000I63500J0D01*
G01*
X112585500Y-109056000D01*
G75*
G02*
X112649000Y-109119500I0J-63500D01*
G01*
X112649000Y-111024500D01*
G75*
G02*
X112585500Y-111088000I-63500J0D01*
G01*
G37*
G36*
G01*
X113855500Y-111088000D02*
X113220500Y-111088000D01*
G75*
G02*
X113157000Y-111024500I0J63500D01*
G01*
X113157000Y-109119500D01*
G75*
G02*
X113220500Y-109056000I63500J0D01*
G01*
X113855500Y-109056000D01*
G75*
G02*
X113919000Y-109119500I0J-63500D01*
G01*
X113919000Y-111024500D01*
G75*
G02*
X113855500Y-111088000I-63500J0D01*
G01*
G37*
G36*
G01*
X115125500Y-111088000D02*
X114490500Y-111088000D01*
G75*
G02*
X114427000Y-111024500I0J63500D01*
G01*
X114427000Y-109119500D01*
G75*
G02*
X114490500Y-109056000I63500J0D01*
G01*
X115125500Y-109056000D01*
G75*
G02*
X115189000Y-109119500I0J-63500D01*
G01*
X115189000Y-111024500D01*
G75*
G02*
X115125500Y-111088000I-63500J0D01*
G01*
G37*
G36*
G01*
X84645500Y-150278000D02*
X84010500Y-150278000D01*
G75*
G02*
X83947000Y-150214500I0J63500D01*
G01*
X83947000Y-148309500D01*
G75*
G02*
X84010500Y-148246000I63500J0D01*
G01*
X84645500Y-148246000D01*
G75*
G02*
X84709000Y-148309500I0J-63500D01*
G01*
X84709000Y-150214500D01*
G75*
G02*
X84645500Y-150278000I-63500J0D01*
G01*
G37*
G36*
G01*
X85915500Y-150278000D02*
X85280500Y-150278000D01*
G75*
G02*
X85217000Y-150214500I0J63500D01*
G01*
X85217000Y-148309500D01*
G75*
G02*
X85280500Y-148246000I63500J0D01*
G01*
X85915500Y-148246000D01*
G75*
G02*
X85979000Y-148309500I0J-63500D01*
G01*
X85979000Y-150214500D01*
G75*
G02*
X85915500Y-150278000I-63500J0D01*
G01*
G37*
G36*
G01*
X87185500Y-150278000D02*
X86550500Y-150278000D01*
G75*
G02*
X86487000Y-150214500I0J63500D01*
G01*
X86487000Y-148309500D01*
G75*
G02*
X86550500Y-148246000I63500J0D01*
G01*
X87185500Y-148246000D01*
G75*
G02*
X87249000Y-148309500I0J-63500D01*
G01*
X87249000Y-150214500D01*
G75*
G02*
X87185500Y-150278000I-63500J0D01*
G01*
G37*
G36*
G01*
X88455500Y-150278000D02*
X87820500Y-150278000D01*
G75*
G02*
X87757000Y-150214500I0J63500D01*
G01*
X87757000Y-148309500D01*
G75*
G02*
X87820500Y-148246000I63500J0D01*
G01*
X88455500Y-148246000D01*
G75*
G02*
X88519000Y-148309500I0J-63500D01*
G01*
X88519000Y-150214500D01*
G75*
G02*
X88455500Y-150278000I-63500J0D01*
G01*
G37*
G36*
G01*
X89725500Y-150278000D02*
X89090500Y-150278000D01*
G75*
G02*
X89027000Y-150214500I0J63500D01*
G01*
X89027000Y-148309500D01*
G75*
G02*
X89090500Y-148246000I63500J0D01*
G01*
X89725500Y-148246000D01*
G75*
G02*
X89789000Y-148309500I0J-63500D01*
G01*
X89789000Y-150214500D01*
G75*
G02*
X89725500Y-150278000I-63500J0D01*
G01*
G37*
G36*
G01*
X90995500Y-150278000D02*
X90360500Y-150278000D01*
G75*
G02*
X90297000Y-150214500I0J63500D01*
G01*
X90297000Y-148309500D01*
G75*
G02*
X90360500Y-148246000I63500J0D01*
G01*
X90995500Y-148246000D01*
G75*
G02*
X91059000Y-148309500I0J-63500D01*
G01*
X91059000Y-150214500D01*
G75*
G02*
X90995500Y-150278000I-63500J0D01*
G01*
G37*
G36*
G01*
X92265500Y-150278000D02*
X91630500Y-150278000D01*
G75*
G02*
X91567000Y-150214500I0J63500D01*
G01*
X91567000Y-148309500D01*
G75*
G02*
X91630500Y-148246000I63500J0D01*
G01*
X92265500Y-148246000D01*
G75*
G02*
X92329000Y-148309500I0J-63500D01*
G01*
X92329000Y-150214500D01*
G75*
G02*
X92265500Y-150278000I-63500J0D01*
G01*
G37*
G36*
G01*
X93535500Y-150278000D02*
X92900500Y-150278000D01*
G75*
G02*
X92837000Y-150214500I0J63500D01*
G01*
X92837000Y-148309500D01*
G75*
G02*
X92900500Y-148246000I63500J0D01*
G01*
X93535500Y-148246000D01*
G75*
G02*
X93599000Y-148309500I0J-63500D01*
G01*
X93599000Y-150214500D01*
G75*
G02*
X93535500Y-150278000I-63500J0D01*
G01*
G37*
G36*
G01*
X94805500Y-150278000D02*
X94170500Y-150278000D01*
G75*
G02*
X94107000Y-150214500I0J63500D01*
G01*
X94107000Y-148309500D01*
G75*
G02*
X94170500Y-148246000I63500J0D01*
G01*
X94805500Y-148246000D01*
G75*
G02*
X94869000Y-148309500I0J-63500D01*
G01*
X94869000Y-150214500D01*
G75*
G02*
X94805500Y-150278000I-63500J0D01*
G01*
G37*
G36*
G01*
X96075500Y-150278000D02*
X95440500Y-150278000D01*
G75*
G02*
X95377000Y-150214500I0J63500D01*
G01*
X95377000Y-148309500D01*
G75*
G02*
X95440500Y-148246000I63500J0D01*
G01*
X96075500Y-148246000D01*
G75*
G02*
X96139000Y-148309500I0J-63500D01*
G01*
X96139000Y-150214500D01*
G75*
G02*
X96075500Y-150278000I-63500J0D01*
G01*
G37*
G36*
G01*
X97345500Y-150278000D02*
X96710500Y-150278000D01*
G75*
G02*
X96647000Y-150214500I0J63500D01*
G01*
X96647000Y-148309500D01*
G75*
G02*
X96710500Y-148246000I63500J0D01*
G01*
X97345500Y-148246000D01*
G75*
G02*
X97409000Y-148309500I0J-63500D01*
G01*
X97409000Y-150214500D01*
G75*
G02*
X97345500Y-150278000I-63500J0D01*
G01*
G37*
G36*
G01*
X98615500Y-150278000D02*
X97980500Y-150278000D01*
G75*
G02*
X97917000Y-150214500I0J63500D01*
G01*
X97917000Y-148309500D01*
G75*
G02*
X97980500Y-148246000I63500J0D01*
G01*
X98615500Y-148246000D01*
G75*
G02*
X98679000Y-148309500I0J-63500D01*
G01*
X98679000Y-150214500D01*
G75*
G02*
X98615500Y-150278000I-63500J0D01*
G01*
G37*
G36*
G01*
X99885500Y-150278000D02*
X99250500Y-150278000D01*
G75*
G02*
X99187000Y-150214500I0J63500D01*
G01*
X99187000Y-148309500D01*
G75*
G02*
X99250500Y-148246000I63500J0D01*
G01*
X99885500Y-148246000D01*
G75*
G02*
X99949000Y-148309500I0J-63500D01*
G01*
X99949000Y-150214500D01*
G75*
G02*
X99885500Y-150278000I-63500J0D01*
G01*
G37*
G36*
G01*
X101155500Y-150278000D02*
X100520500Y-150278000D01*
G75*
G02*
X100457000Y-150214500I0J63500D01*
G01*
X100457000Y-148309500D01*
G75*
G02*
X100520500Y-148246000I63500J0D01*
G01*
X101155500Y-148246000D01*
G75*
G02*
X101219000Y-148309500I0J-63500D01*
G01*
X101219000Y-150214500D01*
G75*
G02*
X101155500Y-150278000I-63500J0D01*
G01*
G37*
G36*
G01*
X102425500Y-150278000D02*
X101790500Y-150278000D01*
G75*
G02*
X101727000Y-150214500I0J63500D01*
G01*
X101727000Y-148309500D01*
G75*
G02*
X101790500Y-148246000I63500J0D01*
G01*
X102425500Y-148246000D01*
G75*
G02*
X102489000Y-148309500I0J-63500D01*
G01*
X102489000Y-150214500D01*
G75*
G02*
X102425500Y-150278000I-63500J0D01*
G01*
G37*
G36*
G01*
X103695500Y-150278000D02*
X103060500Y-150278000D01*
G75*
G02*
X102997000Y-150214500I0J63500D01*
G01*
X102997000Y-148309500D01*
G75*
G02*
X103060500Y-148246000I63500J0D01*
G01*
X103695500Y-148246000D01*
G75*
G02*
X103759000Y-148309500I0J-63500D01*
G01*
X103759000Y-150214500D01*
G75*
G02*
X103695500Y-150278000I-63500J0D01*
G01*
G37*
G36*
G01*
X104965500Y-150278000D02*
X104330500Y-150278000D01*
G75*
G02*
X104267000Y-150214500I0J63500D01*
G01*
X104267000Y-148309500D01*
G75*
G02*
X104330500Y-148246000I63500J0D01*
G01*
X104965500Y-148246000D01*
G75*
G02*
X105029000Y-148309500I0J-63500D01*
G01*
X105029000Y-150214500D01*
G75*
G02*
X104965500Y-150278000I-63500J0D01*
G01*
G37*
G36*
G01*
X106235500Y-150278000D02*
X105600500Y-150278000D01*
G75*
G02*
X105537000Y-150214500I0J63500D01*
G01*
X105537000Y-148309500D01*
G75*
G02*
X105600500Y-148246000I63500J0D01*
G01*
X106235500Y-148246000D01*
G75*
G02*
X106299000Y-148309500I0J-63500D01*
G01*
X106299000Y-150214500D01*
G75*
G02*
X106235500Y-150278000I-63500J0D01*
G01*
G37*
G36*
G01*
X107505500Y-150278000D02*
X106870500Y-150278000D01*
G75*
G02*
X106807000Y-150214500I0J63500D01*
G01*
X106807000Y-148309500D01*
G75*
G02*
X106870500Y-148246000I63500J0D01*
G01*
X107505500Y-148246000D01*
G75*
G02*
X107569000Y-148309500I0J-63500D01*
G01*
X107569000Y-150214500D01*
G75*
G02*
X107505500Y-150278000I-63500J0D01*
G01*
G37*
G36*
G01*
X108775500Y-150278000D02*
X108140500Y-150278000D01*
G75*
G02*
X108077000Y-150214500I0J63500D01*
G01*
X108077000Y-148309500D01*
G75*
G02*
X108140500Y-148246000I63500J0D01*
G01*
X108775500Y-148246000D01*
G75*
G02*
X108839000Y-148309500I0J-63500D01*
G01*
X108839000Y-150214500D01*
G75*
G02*
X108775500Y-150278000I-63500J0D01*
G01*
G37*
G36*
G01*
X110045500Y-150278000D02*
X109410500Y-150278000D01*
G75*
G02*
X109347000Y-150214500I0J63500D01*
G01*
X109347000Y-148309500D01*
G75*
G02*
X109410500Y-148246000I63500J0D01*
G01*
X110045500Y-148246000D01*
G75*
G02*
X110109000Y-148309500I0J-63500D01*
G01*
X110109000Y-150214500D01*
G75*
G02*
X110045500Y-150278000I-63500J0D01*
G01*
G37*
G36*
G01*
X111315500Y-150278000D02*
X110680500Y-150278000D01*
G75*
G02*
X110617000Y-150214500I0J63500D01*
G01*
X110617000Y-148309500D01*
G75*
G02*
X110680500Y-148246000I63500J0D01*
G01*
X111315500Y-148246000D01*
G75*
G02*
X111379000Y-148309500I0J-63500D01*
G01*
X111379000Y-150214500D01*
G75*
G02*
X111315500Y-150278000I-63500J0D01*
G01*
G37*
G36*
G01*
X112585500Y-150278000D02*
X111950500Y-150278000D01*
G75*
G02*
X111887000Y-150214500I0J63500D01*
G01*
X111887000Y-148309500D01*
G75*
G02*
X111950500Y-148246000I63500J0D01*
G01*
X112585500Y-148246000D01*
G75*
G02*
X112649000Y-148309500I0J-63500D01*
G01*
X112649000Y-150214500D01*
G75*
G02*
X112585500Y-150278000I-63500J0D01*
G01*
G37*
G36*
G01*
X113855500Y-150278000D02*
X113220500Y-150278000D01*
G75*
G02*
X113157000Y-150214500I0J63500D01*
G01*
X113157000Y-148309500D01*
G75*
G02*
X113220500Y-148246000I63500J0D01*
G01*
X113855500Y-148246000D01*
G75*
G02*
X113919000Y-148309500I0J-63500D01*
G01*
X113919000Y-150214500D01*
G75*
G02*
X113855500Y-150278000I-63500J0D01*
G01*
G37*
G36*
G01*
X115125500Y-150278000D02*
X114490500Y-150278000D01*
G75*
G02*
X114427000Y-150214500I0J63500D01*
G01*
X114427000Y-148309500D01*
G75*
G02*
X114490500Y-148246000I63500J0D01*
G01*
X115125500Y-148246000D01*
G75*
G02*
X115189000Y-148309500I0J-63500D01*
G01*
X115189000Y-150214500D01*
G75*
G02*
X115125500Y-150278000I-63500J0D01*
G01*
G37*
G36*
G01*
X84645500Y-154088000D02*
X84010500Y-154088000D01*
G75*
G02*
X83947000Y-154024500I0J63500D01*
G01*
X83947000Y-152119500D01*
G75*
G02*
X84010500Y-152056000I63500J0D01*
G01*
X84645500Y-152056000D01*
G75*
G02*
X84709000Y-152119500I0J-63500D01*
G01*
X84709000Y-154024500D01*
G75*
G02*
X84645500Y-154088000I-63500J0D01*
G01*
G37*
G36*
G01*
X85915500Y-154088000D02*
X85280500Y-154088000D01*
G75*
G02*
X85217000Y-154024500I0J63500D01*
G01*
X85217000Y-152119500D01*
G75*
G02*
X85280500Y-152056000I63500J0D01*
G01*
X85915500Y-152056000D01*
G75*
G02*
X85979000Y-152119500I0J-63500D01*
G01*
X85979000Y-154024500D01*
G75*
G02*
X85915500Y-154088000I-63500J0D01*
G01*
G37*
G36*
G01*
X87185500Y-154088000D02*
X86550500Y-154088000D01*
G75*
G02*
X86487000Y-154024500I0J63500D01*
G01*
X86487000Y-152119500D01*
G75*
G02*
X86550500Y-152056000I63500J0D01*
G01*
X87185500Y-152056000D01*
G75*
G02*
X87249000Y-152119500I0J-63500D01*
G01*
X87249000Y-154024500D01*
G75*
G02*
X87185500Y-154088000I-63500J0D01*
G01*
G37*
G36*
G01*
X88455500Y-154088000D02*
X87820500Y-154088000D01*
G75*
G02*
X87757000Y-154024500I0J63500D01*
G01*
X87757000Y-152119500D01*
G75*
G02*
X87820500Y-152056000I63500J0D01*
G01*
X88455500Y-152056000D01*
G75*
G02*
X88519000Y-152119500I0J-63500D01*
G01*
X88519000Y-154024500D01*
G75*
G02*
X88455500Y-154088000I-63500J0D01*
G01*
G37*
G36*
G01*
X89725500Y-154088000D02*
X89090500Y-154088000D01*
G75*
G02*
X89027000Y-154024500I0J63500D01*
G01*
X89027000Y-152119500D01*
G75*
G02*
X89090500Y-152056000I63500J0D01*
G01*
X89725500Y-152056000D01*
G75*
G02*
X89789000Y-152119500I0J-63500D01*
G01*
X89789000Y-154024500D01*
G75*
G02*
X89725500Y-154088000I-63500J0D01*
G01*
G37*
G36*
G01*
X90995500Y-154088000D02*
X90360500Y-154088000D01*
G75*
G02*
X90297000Y-154024500I0J63500D01*
G01*
X90297000Y-152119500D01*
G75*
G02*
X90360500Y-152056000I63500J0D01*
G01*
X90995500Y-152056000D01*
G75*
G02*
X91059000Y-152119500I0J-63500D01*
G01*
X91059000Y-154024500D01*
G75*
G02*
X90995500Y-154088000I-63500J0D01*
G01*
G37*
G36*
G01*
X92265500Y-154088000D02*
X91630500Y-154088000D01*
G75*
G02*
X91567000Y-154024500I0J63500D01*
G01*
X91567000Y-152119500D01*
G75*
G02*
X91630500Y-152056000I63500J0D01*
G01*
X92265500Y-152056000D01*
G75*
G02*
X92329000Y-152119500I0J-63500D01*
G01*
X92329000Y-154024500D01*
G75*
G02*
X92265500Y-154088000I-63500J0D01*
G01*
G37*
G36*
G01*
X93535500Y-154088000D02*
X92900500Y-154088000D01*
G75*
G02*
X92837000Y-154024500I0J63500D01*
G01*
X92837000Y-152119500D01*
G75*
G02*
X92900500Y-152056000I63500J0D01*
G01*
X93535500Y-152056000D01*
G75*
G02*
X93599000Y-152119500I0J-63500D01*
G01*
X93599000Y-154024500D01*
G75*
G02*
X93535500Y-154088000I-63500J0D01*
G01*
G37*
G36*
G01*
X94805500Y-154088000D02*
X94170500Y-154088000D01*
G75*
G02*
X94107000Y-154024500I0J63500D01*
G01*
X94107000Y-152119500D01*
G75*
G02*
X94170500Y-152056000I63500J0D01*
G01*
X94805500Y-152056000D01*
G75*
G02*
X94869000Y-152119500I0J-63500D01*
G01*
X94869000Y-154024500D01*
G75*
G02*
X94805500Y-154088000I-63500J0D01*
G01*
G37*
G36*
G01*
X96075500Y-154088000D02*
X95440500Y-154088000D01*
G75*
G02*
X95377000Y-154024500I0J63500D01*
G01*
X95377000Y-152119500D01*
G75*
G02*
X95440500Y-152056000I63500J0D01*
G01*
X96075500Y-152056000D01*
G75*
G02*
X96139000Y-152119500I0J-63500D01*
G01*
X96139000Y-154024500D01*
G75*
G02*
X96075500Y-154088000I-63500J0D01*
G01*
G37*
G36*
G01*
X97345500Y-154088000D02*
X96710500Y-154088000D01*
G75*
G02*
X96647000Y-154024500I0J63500D01*
G01*
X96647000Y-152119500D01*
G75*
G02*
X96710500Y-152056000I63500J0D01*
G01*
X97345500Y-152056000D01*
G75*
G02*
X97409000Y-152119500I0J-63500D01*
G01*
X97409000Y-154024500D01*
G75*
G02*
X97345500Y-154088000I-63500J0D01*
G01*
G37*
G36*
G01*
X98615500Y-154088000D02*
X97980500Y-154088000D01*
G75*
G02*
X97917000Y-154024500I0J63500D01*
G01*
X97917000Y-152119500D01*
G75*
G02*
X97980500Y-152056000I63500J0D01*
G01*
X98615500Y-152056000D01*
G75*
G02*
X98679000Y-152119500I0J-63500D01*
G01*
X98679000Y-154024500D01*
G75*
G02*
X98615500Y-154088000I-63500J0D01*
G01*
G37*
G36*
G01*
X99885500Y-154088000D02*
X99250500Y-154088000D01*
G75*
G02*
X99187000Y-154024500I0J63500D01*
G01*
X99187000Y-152119500D01*
G75*
G02*
X99250500Y-152056000I63500J0D01*
G01*
X99885500Y-152056000D01*
G75*
G02*
X99949000Y-152119500I0J-63500D01*
G01*
X99949000Y-154024500D01*
G75*
G02*
X99885500Y-154088000I-63500J0D01*
G01*
G37*
G36*
G01*
X101155500Y-154088000D02*
X100520500Y-154088000D01*
G75*
G02*
X100457000Y-154024500I0J63500D01*
G01*
X100457000Y-152119500D01*
G75*
G02*
X100520500Y-152056000I63500J0D01*
G01*
X101155500Y-152056000D01*
G75*
G02*
X101219000Y-152119500I0J-63500D01*
G01*
X101219000Y-154024500D01*
G75*
G02*
X101155500Y-154088000I-63500J0D01*
G01*
G37*
G36*
G01*
X102425500Y-154088000D02*
X101790500Y-154088000D01*
G75*
G02*
X101727000Y-154024500I0J63500D01*
G01*
X101727000Y-152119500D01*
G75*
G02*
X101790500Y-152056000I63500J0D01*
G01*
X102425500Y-152056000D01*
G75*
G02*
X102489000Y-152119500I0J-63500D01*
G01*
X102489000Y-154024500D01*
G75*
G02*
X102425500Y-154088000I-63500J0D01*
G01*
G37*
G36*
G01*
X103695500Y-154088000D02*
X103060500Y-154088000D01*
G75*
G02*
X102997000Y-154024500I0J63500D01*
G01*
X102997000Y-152119500D01*
G75*
G02*
X103060500Y-152056000I63500J0D01*
G01*
X103695500Y-152056000D01*
G75*
G02*
X103759000Y-152119500I0J-63500D01*
G01*
X103759000Y-154024500D01*
G75*
G02*
X103695500Y-154088000I-63500J0D01*
G01*
G37*
G36*
G01*
X104965500Y-154088000D02*
X104330500Y-154088000D01*
G75*
G02*
X104267000Y-154024500I0J63500D01*
G01*
X104267000Y-152119500D01*
G75*
G02*
X104330500Y-152056000I63500J0D01*
G01*
X104965500Y-152056000D01*
G75*
G02*
X105029000Y-152119500I0J-63500D01*
G01*
X105029000Y-154024500D01*
G75*
G02*
X104965500Y-154088000I-63500J0D01*
G01*
G37*
G36*
G01*
X106235500Y-154088000D02*
X105600500Y-154088000D01*
G75*
G02*
X105537000Y-154024500I0J63500D01*
G01*
X105537000Y-152119500D01*
G75*
G02*
X105600500Y-152056000I63500J0D01*
G01*
X106235500Y-152056000D01*
G75*
G02*
X106299000Y-152119500I0J-63500D01*
G01*
X106299000Y-154024500D01*
G75*
G02*
X106235500Y-154088000I-63500J0D01*
G01*
G37*
G36*
G01*
X107505500Y-154088000D02*
X106870500Y-154088000D01*
G75*
G02*
X106807000Y-154024500I0J63500D01*
G01*
X106807000Y-152119500D01*
G75*
G02*
X106870500Y-152056000I63500J0D01*
G01*
X107505500Y-152056000D01*
G75*
G02*
X107569000Y-152119500I0J-63500D01*
G01*
X107569000Y-154024500D01*
G75*
G02*
X107505500Y-154088000I-63500J0D01*
G01*
G37*
G36*
G01*
X108775500Y-154088000D02*
X108140500Y-154088000D01*
G75*
G02*
X108077000Y-154024500I0J63500D01*
G01*
X108077000Y-152119500D01*
G75*
G02*
X108140500Y-152056000I63500J0D01*
G01*
X108775500Y-152056000D01*
G75*
G02*
X108839000Y-152119500I0J-63500D01*
G01*
X108839000Y-154024500D01*
G75*
G02*
X108775500Y-154088000I-63500J0D01*
G01*
G37*
G36*
G01*
X110045500Y-154088000D02*
X109410500Y-154088000D01*
G75*
G02*
X109347000Y-154024500I0J63500D01*
G01*
X109347000Y-152119500D01*
G75*
G02*
X109410500Y-152056000I63500J0D01*
G01*
X110045500Y-152056000D01*
G75*
G02*
X110109000Y-152119500I0J-63500D01*
G01*
X110109000Y-154024500D01*
G75*
G02*
X110045500Y-154088000I-63500J0D01*
G01*
G37*
G36*
G01*
X111315500Y-154088000D02*
X110680500Y-154088000D01*
G75*
G02*
X110617000Y-154024500I0J63500D01*
G01*
X110617000Y-152119500D01*
G75*
G02*
X110680500Y-152056000I63500J0D01*
G01*
X111315500Y-152056000D01*
G75*
G02*
X111379000Y-152119500I0J-63500D01*
G01*
X111379000Y-154024500D01*
G75*
G02*
X111315500Y-154088000I-63500J0D01*
G01*
G37*
G36*
G01*
X112585500Y-154088000D02*
X111950500Y-154088000D01*
G75*
G02*
X111887000Y-154024500I0J63500D01*
G01*
X111887000Y-152119500D01*
G75*
G02*
X111950500Y-152056000I63500J0D01*
G01*
X112585500Y-152056000D01*
G75*
G02*
X112649000Y-152119500I0J-63500D01*
G01*
X112649000Y-154024500D01*
G75*
G02*
X112585500Y-154088000I-63500J0D01*
G01*
G37*
G36*
G01*
X113855500Y-154088000D02*
X113220500Y-154088000D01*
G75*
G02*
X113157000Y-154024500I0J63500D01*
G01*
X113157000Y-152119500D01*
G75*
G02*
X113220500Y-152056000I63500J0D01*
G01*
X113855500Y-152056000D01*
G75*
G02*
X113919000Y-152119500I0J-63500D01*
G01*
X113919000Y-154024500D01*
G75*
G02*
X113855500Y-154088000I-63500J0D01*
G01*
G37*
G36*
G01*
X115125500Y-154088000D02*
X114490500Y-154088000D01*
G75*
G02*
X114427000Y-154024500I0J63500D01*
G01*
X114427000Y-152119500D01*
G75*
G02*
X114490500Y-152056000I63500J0D01*
G01*
X115125500Y-152056000D01*
G75*
G02*
X115189000Y-152119500I0J-63500D01*
G01*
X115189000Y-154024500D01*
G75*
G02*
X115125500Y-154088000I-63500J0D01*
G01*
G37*
G36*
G01*
X66382000Y-162340000D02*
X64682000Y-162340000D01*
G75*
G02*
X64482000Y-162140000I0J200000D01*
G01*
X64482000Y-160440000D01*
G75*
G02*
X64682000Y-160240000I200000J0D01*
G01*
X66382000Y-160240000D01*
G75*
G02*
X66582000Y-160440000I0J-200000D01*
G01*
X66582000Y-162140000D01*
G75*
G02*
X66382000Y-162340000I-200000J0D01*
G01*
G37*
D11*
X65532000Y-158750000D03*
X68072000Y-161290000D03*
X68072000Y-158750000D03*
X70612000Y-161290000D03*
X70612000Y-158750000D03*
X73152000Y-161290000D03*
X73152000Y-158750000D03*
X75692000Y-161290000D03*
X75692000Y-158750000D03*
X78232000Y-161290000D03*
X78232000Y-158750000D03*
X80772000Y-161290000D03*
X80772000Y-158750000D03*
X83312000Y-161290000D03*
X83312000Y-158750000D03*
X85852000Y-161290000D03*
X85852000Y-158750000D03*
X88392000Y-161290000D03*
X88392000Y-158750000D03*
X90932000Y-161290000D03*
X90932000Y-158750000D03*
X93472000Y-161290000D03*
X93472000Y-158750000D03*
X96012000Y-161290000D03*
X96012000Y-158750000D03*
X98552000Y-161290000D03*
X98552000Y-158750000D03*
X101092000Y-161290000D03*
X101092000Y-158750000D03*
X103632000Y-161290000D03*
X103632000Y-158750000D03*
X106172000Y-161290000D03*
X106172000Y-158750000D03*
X108712000Y-161290000D03*
X108712000Y-158750000D03*
X111252000Y-161290000D03*
X111252000Y-158750000D03*
X113792000Y-161290000D03*
X113792000Y-158750000D03*
X116332000Y-161290000D03*
X116332000Y-158750000D03*
X118872000Y-161290000D03*
X118872000Y-158750000D03*
X121412000Y-161290000D03*
X121412000Y-158750000D03*
X123952000Y-161290000D03*
X123952000Y-158750000D03*
X126492000Y-161290000D03*
X126492000Y-158750000D03*
G36*
G01*
X127796000Y-147994000D02*
X127796000Y-149694000D01*
G75*
G02*
X127596000Y-149894000I-200000J0D01*
G01*
X125896000Y-149894000D01*
G75*
G02*
X125696000Y-149694000I0J200000D01*
G01*
X125696000Y-147994000D01*
G75*
G02*
X125896000Y-147794000I200000J0D01*
G01*
X127596000Y-147794000D01*
G75*
G02*
X127796000Y-147994000I0J-200000D01*
G01*
G37*
X129286000Y-148844000D03*
X126746000Y-146304000D03*
X129286000Y-146304000D03*
X126746000Y-143764000D03*
X129286000Y-143764000D03*
X126746000Y-141224000D03*
X129286000Y-141224000D03*
X126746000Y-138684000D03*
X129286000Y-138684000D03*
X126746000Y-136144000D03*
X129286000Y-136144000D03*
X126746000Y-133604000D03*
X129286000Y-133604000D03*
X126746000Y-131064000D03*
X129286000Y-131064000D03*
X126746000Y-128524000D03*
X129286000Y-128524000D03*
X126746000Y-125984000D03*
X129286000Y-125984000D03*
X126746000Y-123444000D03*
X129286000Y-123444000D03*
X126746000Y-120904000D03*
X129286000Y-120904000D03*
X126746000Y-118364000D03*
X129286000Y-118364000D03*
X126746000Y-115824000D03*
X129286000Y-115824000D03*
X126746000Y-113284000D03*
X129286000Y-113284000D03*
G36*
G01*
X65693000Y-153150000D02*
X65693000Y-154850000D01*
G75*
G02*
X65493000Y-155050000I-200000J0D01*
G01*
X63793000Y-155050000D01*
G75*
G02*
X63593000Y-154850000I0J200000D01*
G01*
X63593000Y-153150000D01*
G75*
G02*
X63793000Y-152950000I200000J0D01*
G01*
X65493000Y-152950000D01*
G75*
G02*
X65693000Y-153150000I0J-200000D01*
G01*
G37*
X62103000Y-154000000D03*
X64643000Y-151460000D03*
X62103000Y-151460000D03*
X64643000Y-148920000D03*
X62103000Y-148920000D03*
X64643000Y-146380000D03*
X62103000Y-146380000D03*
X64643000Y-143840000D03*
X62103000Y-143840000D03*
X64643000Y-141300000D03*
X62103000Y-141300000D03*
X64643000Y-138760000D03*
X62103000Y-138760000D03*
X64643000Y-136220000D03*
X62103000Y-136220000D03*
X64643000Y-133680000D03*
X62103000Y-133680000D03*
X64643000Y-131140000D03*
X62103000Y-131140000D03*
X64643000Y-128600000D03*
X62103000Y-128600000D03*
X64643000Y-126060000D03*
X62103000Y-126060000D03*
X64643000Y-123520000D03*
X62103000Y-123520000D03*
M02*
