G04 #@! TF.GenerationSoftware,KiCad,Pcbnew,5.1.7*
G04 #@! TF.CreationDate,2020-10-22T00:02:30+01:00*
G04 #@! TF.ProjectId,rc2014-icecore,72633230-3134-42d6-9963-65636f72652e,1*
G04 #@! TF.SameCoordinates,Original*
G04 #@! TF.FileFunction,Legend,Top*
G04 #@! TF.FilePolarity,Positive*
%FSLAX46Y46*%
G04 Gerber Fmt 4.6, Leading zero omitted, Abs format (unit mm)*
G04 Created by KiCad (PCBNEW 5.1.7) date 2020-10-22 00:02:30*
%MOMM*%
%LPD*%
G01*
G04 APERTURE LIST*
%ADD10C,0.190500*%
%ADD11C,0.010000*%
%ADD12C,0.127000*%
%ADD13C,0.120000*%
%ADD14C,0.150000*%
G04 APERTURE END LIST*
D10*
X62186457Y-163819114D02*
X61932457Y-163456257D01*
X61751028Y-163819114D02*
X61751028Y-163057114D01*
X62041314Y-163057114D01*
X62113885Y-163093400D01*
X62150171Y-163129685D01*
X62186457Y-163202257D01*
X62186457Y-163311114D01*
X62150171Y-163383685D01*
X62113885Y-163419971D01*
X62041314Y-163456257D01*
X61751028Y-163456257D01*
X62803314Y-163782828D02*
X62730742Y-163819114D01*
X62585600Y-163819114D01*
X62513028Y-163782828D01*
X62476742Y-163710257D01*
X62476742Y-163419971D01*
X62513028Y-163347400D01*
X62585600Y-163311114D01*
X62730742Y-163311114D01*
X62803314Y-163347400D01*
X62839600Y-163419971D01*
X62839600Y-163492542D01*
X62476742Y-163565114D01*
X63093600Y-163311114D02*
X63275028Y-163819114D01*
X63456457Y-163311114D01*
X64726457Y-163819114D02*
X64291028Y-163819114D01*
X64508742Y-163819114D02*
X64508742Y-163057114D01*
X64436171Y-163165971D01*
X64363600Y-163238542D01*
X64291028Y-163274828D01*
D11*
G36*
X65381511Y-115703366D02*
G01*
X65402374Y-115686283D01*
X65409806Y-115682969D01*
X65414607Y-115695863D01*
X65425803Y-115729891D01*
X65442392Y-115781888D01*
X65463375Y-115848690D01*
X65487750Y-115927130D01*
X65514517Y-116014045D01*
X65516567Y-116020731D01*
X65544159Y-116110674D01*
X65569982Y-116194695D01*
X65592902Y-116269115D01*
X65611787Y-116330258D01*
X65625502Y-116374449D01*
X65632892Y-116397945D01*
X65647133Y-116442075D01*
X65908023Y-116181186D01*
X65801600Y-116074763D01*
X65757563Y-116029078D01*
X65718951Y-115985989D01*
X65690251Y-115950693D01*
X65676754Y-115930201D01*
X65666949Y-115904532D01*
X65670211Y-115884865D01*
X65689232Y-115861292D01*
X65697865Y-115852529D01*
X65737398Y-115812996D01*
X66006805Y-116082403D01*
X66106621Y-115982588D01*
X66141822Y-116023312D01*
X66162936Y-116049957D01*
X66167766Y-116069233D01*
X66156753Y-116092195D01*
X66145212Y-116108834D01*
X66124725Y-116139764D01*
X66111742Y-116163252D01*
X66110025Y-116167939D01*
X66117048Y-116182452D01*
X66138684Y-116210005D01*
X66171189Y-116246085D01*
X66195920Y-116271518D01*
X66285193Y-116360791D01*
X66187038Y-116458946D01*
X65997825Y-116279969D01*
X65814360Y-116458576D01*
X65630896Y-116637184D01*
X65593468Y-116619105D01*
X65582954Y-116612979D01*
X65573174Y-116603751D01*
X65563158Y-116588904D01*
X65551932Y-116565922D01*
X65538523Y-116532287D01*
X65521958Y-116485485D01*
X65501264Y-116422999D01*
X65475468Y-116342312D01*
X65443597Y-116240909D01*
X65428295Y-116191950D01*
X65300548Y-115782871D01*
X65352838Y-115730581D01*
X65381511Y-115703366D01*
G37*
X65381511Y-115703366D02*
X65402374Y-115686283D01*
X65409806Y-115682969D01*
X65414607Y-115695863D01*
X65425803Y-115729891D01*
X65442392Y-115781888D01*
X65463375Y-115848690D01*
X65487750Y-115927130D01*
X65514517Y-116014045D01*
X65516567Y-116020731D01*
X65544159Y-116110674D01*
X65569982Y-116194695D01*
X65592902Y-116269115D01*
X65611787Y-116330258D01*
X65625502Y-116374449D01*
X65632892Y-116397945D01*
X65647133Y-116442075D01*
X65908023Y-116181186D01*
X65801600Y-116074763D01*
X65757563Y-116029078D01*
X65718951Y-115985989D01*
X65690251Y-115950693D01*
X65676754Y-115930201D01*
X65666949Y-115904532D01*
X65670211Y-115884865D01*
X65689232Y-115861292D01*
X65697865Y-115852529D01*
X65737398Y-115812996D01*
X66006805Y-116082403D01*
X66106621Y-115982588D01*
X66141822Y-116023312D01*
X66162936Y-116049957D01*
X66167766Y-116069233D01*
X66156753Y-116092195D01*
X66145212Y-116108834D01*
X66124725Y-116139764D01*
X66111742Y-116163252D01*
X66110025Y-116167939D01*
X66117048Y-116182452D01*
X66138684Y-116210005D01*
X66171189Y-116246085D01*
X66195920Y-116271518D01*
X66285193Y-116360791D01*
X66187038Y-116458946D01*
X65997825Y-116279969D01*
X65814360Y-116458576D01*
X65630896Y-116637184D01*
X65593468Y-116619105D01*
X65582954Y-116612979D01*
X65573174Y-116603751D01*
X65563158Y-116588904D01*
X65551932Y-116565922D01*
X65538523Y-116532287D01*
X65521958Y-116485485D01*
X65501264Y-116422999D01*
X65475468Y-116342312D01*
X65443597Y-116240909D01*
X65428295Y-116191950D01*
X65300548Y-115782871D01*
X65352838Y-115730581D01*
X65381511Y-115703366D01*
G36*
X64893254Y-116172206D02*
G01*
X65683516Y-116962468D01*
X65575753Y-117070231D01*
X65234503Y-116728982D01*
X65143331Y-116638053D01*
X65068471Y-116563979D01*
X65008499Y-116505430D01*
X64961995Y-116461075D01*
X64927538Y-116429582D01*
X64903705Y-116409622D01*
X64889075Y-116399862D01*
X64882228Y-116398974D01*
X64882134Y-116399063D01*
X64869986Y-116415748D01*
X64850436Y-116446758D01*
X64834882Y-116473044D01*
X64806381Y-116520742D01*
X64785951Y-116548221D01*
X64769863Y-116557749D01*
X64754386Y-116551602D01*
X64736543Y-116532945D01*
X64723197Y-116515609D01*
X64716852Y-116499269D01*
X64718106Y-116478171D01*
X64727557Y-116446558D01*
X64745800Y-116398679D01*
X64752141Y-116382644D01*
X64780984Y-116315519D01*
X64807897Y-116266561D01*
X64836658Y-116229188D01*
X64845446Y-116220012D01*
X64893254Y-116172206D01*
G37*
X64893254Y-116172206D02*
X65683516Y-116962468D01*
X65575753Y-117070231D01*
X65234503Y-116728982D01*
X65143331Y-116638053D01*
X65068471Y-116563979D01*
X65008499Y-116505430D01*
X64961995Y-116461075D01*
X64927538Y-116429582D01*
X64903705Y-116409622D01*
X64889075Y-116399862D01*
X64882228Y-116398974D01*
X64882134Y-116399063D01*
X64869986Y-116415748D01*
X64850436Y-116446758D01*
X64834882Y-116473044D01*
X64806381Y-116520742D01*
X64785951Y-116548221D01*
X64769863Y-116557749D01*
X64754386Y-116551602D01*
X64736543Y-116532945D01*
X64723197Y-116515609D01*
X64716852Y-116499269D01*
X64718106Y-116478171D01*
X64727557Y-116446558D01*
X64745800Y-116398679D01*
X64752141Y-116382644D01*
X64780984Y-116315519D01*
X64807897Y-116266561D01*
X64836658Y-116229188D01*
X64845446Y-116220012D01*
X64893254Y-116172206D01*
G36*
X64353474Y-116717644D02*
G01*
X64398253Y-116683367D01*
X64438498Y-116661433D01*
X64477941Y-116649307D01*
X64513067Y-116644857D01*
X64544799Y-116644388D01*
X64574750Y-116648479D01*
X64605267Y-116658856D01*
X64638697Y-116677248D01*
X64677386Y-116705386D01*
X64723682Y-116744998D01*
X64779931Y-116797814D01*
X64848481Y-116865562D01*
X64931679Y-116949972D01*
X64943266Y-116961822D01*
X65017565Y-117038111D01*
X65075910Y-117098738D01*
X65120313Y-117145998D01*
X65152785Y-117182185D01*
X65175336Y-117209594D01*
X65189978Y-117230521D01*
X65198720Y-117247258D01*
X65202325Y-117257425D01*
X65211265Y-117325844D01*
X65201813Y-117396116D01*
X65182192Y-117445041D01*
X65159074Y-117477492D01*
X65121724Y-117520708D01*
X65074784Y-117570191D01*
X65022901Y-117621440D01*
X64970717Y-117669957D01*
X64922879Y-117711244D01*
X64884029Y-117740797D01*
X64865732Y-117751616D01*
X64793744Y-117772687D01*
X64722256Y-117768493D01*
X64656781Y-117742709D01*
X64634590Y-117729070D01*
X64609312Y-117710244D01*
X64578555Y-117684009D01*
X64539927Y-117648147D01*
X64491034Y-117600435D01*
X64429483Y-117538654D01*
X64353777Y-117461497D01*
X64132700Y-117235141D01*
X64240712Y-117127130D01*
X64728592Y-117615010D01*
X64784123Y-117611887D01*
X64809268Y-117609756D01*
X64829604Y-117604469D01*
X64850090Y-117592756D01*
X64875686Y-117571349D01*
X64911351Y-117536976D01*
X64937874Y-117510545D01*
X64979823Y-117466754D01*
X65015256Y-117426336D01*
X65039802Y-117394470D01*
X65048308Y-117379661D01*
X65054797Y-117356845D01*
X65055335Y-117334336D01*
X65048213Y-117309685D01*
X65031719Y-117280448D01*
X65004141Y-117244179D01*
X64963773Y-117198431D01*
X64908902Y-117140758D01*
X64837817Y-117068715D01*
X64814659Y-117045518D01*
X64738539Y-116970290D01*
X64673487Y-116907824D01*
X64621085Y-116859582D01*
X64582919Y-116827022D01*
X64561078Y-116811845D01*
X64528477Y-116801022D01*
X64496140Y-116802561D01*
X64460378Y-116818267D01*
X64417503Y-116849943D01*
X64363824Y-116899392D01*
X64346045Y-116916979D01*
X64302673Y-116960745D01*
X64274126Y-116991588D01*
X64257150Y-117014425D01*
X64248494Y-117034179D01*
X64244905Y-117055768D01*
X64243835Y-117071598D01*
X64240712Y-117127130D01*
X64132700Y-117235141D01*
X64111971Y-117213916D01*
X64094382Y-117146161D01*
X64084896Y-117097872D01*
X64084851Y-117054907D01*
X64096113Y-117013128D01*
X64120547Y-116968394D01*
X64160019Y-116916568D01*
X64216394Y-116853510D01*
X64235386Y-116833359D01*
X64300429Y-116766797D01*
X64353474Y-116717644D01*
G37*
X64353474Y-116717644D02*
X64398253Y-116683367D01*
X64438498Y-116661433D01*
X64477941Y-116649307D01*
X64513067Y-116644857D01*
X64544799Y-116644388D01*
X64574750Y-116648479D01*
X64605267Y-116658856D01*
X64638697Y-116677248D01*
X64677386Y-116705386D01*
X64723682Y-116744998D01*
X64779931Y-116797814D01*
X64848481Y-116865562D01*
X64931679Y-116949972D01*
X64943266Y-116961822D01*
X65017565Y-117038111D01*
X65075910Y-117098738D01*
X65120313Y-117145998D01*
X65152785Y-117182185D01*
X65175336Y-117209594D01*
X65189978Y-117230521D01*
X65198720Y-117247258D01*
X65202325Y-117257425D01*
X65211265Y-117325844D01*
X65201813Y-117396116D01*
X65182192Y-117445041D01*
X65159074Y-117477492D01*
X65121724Y-117520708D01*
X65074784Y-117570191D01*
X65022901Y-117621440D01*
X64970717Y-117669957D01*
X64922879Y-117711244D01*
X64884029Y-117740797D01*
X64865732Y-117751616D01*
X64793744Y-117772687D01*
X64722256Y-117768493D01*
X64656781Y-117742709D01*
X64634590Y-117729070D01*
X64609312Y-117710244D01*
X64578555Y-117684009D01*
X64539927Y-117648147D01*
X64491034Y-117600435D01*
X64429483Y-117538654D01*
X64353777Y-117461497D01*
X64132700Y-117235141D01*
X64240712Y-117127130D01*
X64728592Y-117615010D01*
X64784123Y-117611887D01*
X64809268Y-117609756D01*
X64829604Y-117604469D01*
X64850090Y-117592756D01*
X64875686Y-117571349D01*
X64911351Y-117536976D01*
X64937874Y-117510545D01*
X64979823Y-117466754D01*
X65015256Y-117426336D01*
X65039802Y-117394470D01*
X65048308Y-117379661D01*
X65054797Y-117356845D01*
X65055335Y-117334336D01*
X65048213Y-117309685D01*
X65031719Y-117280448D01*
X65004141Y-117244179D01*
X64963773Y-117198431D01*
X64908902Y-117140758D01*
X64837817Y-117068715D01*
X64814659Y-117045518D01*
X64738539Y-116970290D01*
X64673487Y-116907824D01*
X64621085Y-116859582D01*
X64582919Y-116827022D01*
X64561078Y-116811845D01*
X64528477Y-116801022D01*
X64496140Y-116802561D01*
X64460378Y-116818267D01*
X64417503Y-116849943D01*
X64363824Y-116899392D01*
X64346045Y-116916979D01*
X64302673Y-116960745D01*
X64274126Y-116991588D01*
X64257150Y-117014425D01*
X64248494Y-117034179D01*
X64244905Y-117055768D01*
X64243835Y-117071598D01*
X64240712Y-117127130D01*
X64132700Y-117235141D01*
X64111971Y-117213916D01*
X64094382Y-117146161D01*
X64084896Y-117097872D01*
X64084851Y-117054907D01*
X64096113Y-117013128D01*
X64120547Y-116968394D01*
X64160019Y-116916568D01*
X64216394Y-116853510D01*
X64235386Y-116833359D01*
X64300429Y-116766797D01*
X64353474Y-116717644D01*
G36*
X63633851Y-117450154D02*
G01*
X63668953Y-117417739D01*
X63696836Y-117396058D01*
X63722691Y-117381321D01*
X63751713Y-117369741D01*
X63768776Y-117364036D01*
X63831251Y-117349875D01*
X63886552Y-117352403D01*
X63939362Y-117373298D01*
X63994363Y-117414244D01*
X64043011Y-117462481D01*
X64081564Y-117505937D01*
X64111830Y-117546478D01*
X64134752Y-117587946D01*
X64151275Y-117634183D01*
X64162345Y-117689033D01*
X64168906Y-117756335D01*
X64171904Y-117839933D01*
X64172283Y-117943669D01*
X64171960Y-117986739D01*
X64169316Y-118270123D01*
X64360659Y-118087760D01*
X64552004Y-117905395D01*
X64601864Y-117949828D01*
X64651725Y-117994260D01*
X64120952Y-118525033D01*
X64034494Y-118438576D01*
X64040986Y-118108131D01*
X64042670Y-117989622D01*
X64042285Y-117893184D01*
X64039367Y-117815538D01*
X64033453Y-117753403D01*
X64024080Y-117703500D01*
X64010787Y-117662551D01*
X63993109Y-117627278D01*
X63970585Y-117594399D01*
X63968024Y-117591086D01*
X63918590Y-117544120D01*
X63862961Y-117520561D01*
X63803562Y-117521279D01*
X63786451Y-117525993D01*
X63764341Y-117535451D01*
X63739924Y-117551008D01*
X63709658Y-117575600D01*
X63669999Y-117612168D01*
X63617403Y-117663651D01*
X63602355Y-117678657D01*
X63465393Y-117815593D01*
X63378149Y-117728348D01*
X63427578Y-117667381D01*
X63457029Y-117633254D01*
X63498697Y-117587822D01*
X63546599Y-117537499D01*
X63586333Y-117497087D01*
X63633851Y-117450154D01*
G37*
X63633851Y-117450154D02*
X63668953Y-117417739D01*
X63696836Y-117396058D01*
X63722691Y-117381321D01*
X63751713Y-117369741D01*
X63768776Y-117364036D01*
X63831251Y-117349875D01*
X63886552Y-117352403D01*
X63939362Y-117373298D01*
X63994363Y-117414244D01*
X64043011Y-117462481D01*
X64081564Y-117505937D01*
X64111830Y-117546478D01*
X64134752Y-117587946D01*
X64151275Y-117634183D01*
X64162345Y-117689033D01*
X64168906Y-117756335D01*
X64171904Y-117839933D01*
X64172283Y-117943669D01*
X64171960Y-117986739D01*
X64169316Y-118270123D01*
X64360659Y-118087760D01*
X64552004Y-117905395D01*
X64601864Y-117949828D01*
X64651725Y-117994260D01*
X64120952Y-118525033D01*
X64034494Y-118438576D01*
X64040986Y-118108131D01*
X64042670Y-117989622D01*
X64042285Y-117893184D01*
X64039367Y-117815538D01*
X64033453Y-117753403D01*
X64024080Y-117703500D01*
X64010787Y-117662551D01*
X63993109Y-117627278D01*
X63970585Y-117594399D01*
X63968024Y-117591086D01*
X63918590Y-117544120D01*
X63862961Y-117520561D01*
X63803562Y-117521279D01*
X63786451Y-117525993D01*
X63764341Y-117535451D01*
X63739924Y-117551008D01*
X63709658Y-117575600D01*
X63669999Y-117612168D01*
X63617403Y-117663651D01*
X63602355Y-117678657D01*
X63465393Y-117815593D01*
X63378149Y-117728348D01*
X63427578Y-117667381D01*
X63457029Y-117633254D01*
X63498697Y-117587822D01*
X63546599Y-117537499D01*
X63586333Y-117497087D01*
X63633851Y-117450154D01*
G36*
X63054716Y-118030718D02*
G01*
X63121263Y-117972475D01*
X63186684Y-117921728D01*
X63245303Y-117883704D01*
X63248727Y-117881805D01*
X63267134Y-117879376D01*
X63290547Y-117893492D01*
X63309250Y-117910897D01*
X63349463Y-117951110D01*
X63309024Y-117978023D01*
X63283906Y-117997750D01*
X63246400Y-118030885D01*
X63201806Y-118072608D01*
X63160479Y-118113034D01*
X63100864Y-118175490D01*
X63059659Y-118226751D01*
X63035022Y-118270947D01*
X63025107Y-118312207D01*
X63028073Y-118354661D01*
X63037330Y-118388839D01*
X63064316Y-118446723D01*
X63108581Y-118513955D01*
X63166334Y-118585689D01*
X63233789Y-118657086D01*
X63282765Y-118702532D01*
X63360972Y-118767214D01*
X63428489Y-118812547D01*
X63488710Y-118838210D01*
X63545027Y-118843882D01*
X63600836Y-118829242D01*
X63659525Y-118793971D01*
X63724492Y-118737748D01*
X63799128Y-118660252D01*
X63805605Y-118653136D01*
X63923616Y-118523116D01*
X63959422Y-118564485D01*
X63995228Y-118605855D01*
X63956196Y-118665606D01*
X63925719Y-118706568D01*
X63883402Y-118755884D01*
X63833777Y-118809046D01*
X63781372Y-118861542D01*
X63730719Y-118908863D01*
X63686348Y-118946499D01*
X63652788Y-118969938D01*
X63648016Y-118972411D01*
X63579846Y-118996443D01*
X63513302Y-119001311D01*
X63443845Y-118986405D01*
X63366940Y-118951116D01*
X63330973Y-118929850D01*
X63286434Y-118897701D01*
X63230641Y-118850948D01*
X63168619Y-118794486D01*
X63105395Y-118733205D01*
X63045997Y-118671998D01*
X62995448Y-118615759D01*
X62958778Y-118569380D01*
X62954969Y-118563850D01*
X62904474Y-118473061D01*
X62876621Y-118385657D01*
X62871659Y-118303459D01*
X62889836Y-118228291D01*
X62905072Y-118198175D01*
X62940945Y-118148793D01*
X62992718Y-118091231D01*
X63054716Y-118030718D01*
G37*
X63054716Y-118030718D02*
X63121263Y-117972475D01*
X63186684Y-117921728D01*
X63245303Y-117883704D01*
X63248727Y-117881805D01*
X63267134Y-117879376D01*
X63290547Y-117893492D01*
X63309250Y-117910897D01*
X63349463Y-117951110D01*
X63309024Y-117978023D01*
X63283906Y-117997750D01*
X63246400Y-118030885D01*
X63201806Y-118072608D01*
X63160479Y-118113034D01*
X63100864Y-118175490D01*
X63059659Y-118226751D01*
X63035022Y-118270947D01*
X63025107Y-118312207D01*
X63028073Y-118354661D01*
X63037330Y-118388839D01*
X63064316Y-118446723D01*
X63108581Y-118513955D01*
X63166334Y-118585689D01*
X63233789Y-118657086D01*
X63282765Y-118702532D01*
X63360972Y-118767214D01*
X63428489Y-118812547D01*
X63488710Y-118838210D01*
X63545027Y-118843882D01*
X63600836Y-118829242D01*
X63659525Y-118793971D01*
X63724492Y-118737748D01*
X63799128Y-118660252D01*
X63805605Y-118653136D01*
X63923616Y-118523116D01*
X63959422Y-118564485D01*
X63995228Y-118605855D01*
X63956196Y-118665606D01*
X63925719Y-118706568D01*
X63883402Y-118755884D01*
X63833777Y-118809046D01*
X63781372Y-118861542D01*
X63730719Y-118908863D01*
X63686348Y-118946499D01*
X63652788Y-118969938D01*
X63648016Y-118972411D01*
X63579846Y-118996443D01*
X63513302Y-119001311D01*
X63443845Y-118986405D01*
X63366940Y-118951116D01*
X63330973Y-118929850D01*
X63286434Y-118897701D01*
X63230641Y-118850948D01*
X63168619Y-118794486D01*
X63105395Y-118733205D01*
X63045997Y-118671998D01*
X62995448Y-118615759D01*
X62958778Y-118569380D01*
X62954969Y-118563850D01*
X62904474Y-118473061D01*
X62876621Y-118385657D01*
X62871659Y-118303459D01*
X62889836Y-118228291D01*
X62905072Y-118198175D01*
X62940945Y-118148793D01*
X62992718Y-118091231D01*
X63054716Y-118030718D01*
G36*
X62306232Y-118780262D02*
G01*
X62374690Y-118714340D01*
X62427900Y-118664253D01*
X62468474Y-118627781D01*
X62499024Y-118602697D01*
X62522162Y-118586780D01*
X62540499Y-118577806D01*
X62546360Y-118575868D01*
X62615383Y-118564535D01*
X62681354Y-118572966D01*
X62747573Y-118602363D01*
X62817338Y-118653923D01*
X62853794Y-118687619D01*
X62919036Y-118759052D01*
X62961366Y-118824739D01*
X62981772Y-118887527D01*
X62981243Y-118950265D01*
X62964626Y-119006774D01*
X62945405Y-119053584D01*
X63107566Y-119111647D01*
X63174935Y-119135603D01*
X63240683Y-119158693D01*
X63297554Y-119178384D01*
X63338294Y-119192148D01*
X63340321Y-119192813D01*
X63379033Y-119205991D01*
X63406616Y-119216335D01*
X63415702Y-119220704D01*
X63410102Y-119231406D01*
X63390694Y-119254289D01*
X63367823Y-119278162D01*
X63315154Y-119330831D01*
X63088566Y-119247600D01*
X62861978Y-119164369D01*
X62772719Y-119248487D01*
X62683460Y-119332605D01*
X62998420Y-119647565D01*
X62890657Y-119755328D01*
X62208157Y-119072829D01*
X62315920Y-118965066D01*
X62603288Y-119252434D01*
X62713164Y-119142293D01*
X62767243Y-119086048D01*
X62806625Y-119040699D01*
X62829383Y-119008536D01*
X62833531Y-118999475D01*
X62838320Y-118945557D01*
X62822481Y-118887832D01*
X62789153Y-118831452D01*
X62741477Y-118781568D01*
X62682590Y-118743335D01*
X62675422Y-118739999D01*
X62639194Y-118726459D01*
X62607194Y-118722564D01*
X62575396Y-118730145D01*
X62539775Y-118751034D01*
X62496305Y-118787066D01*
X62440961Y-118840073D01*
X62428618Y-118852366D01*
X62315920Y-118965066D01*
X62208157Y-119072829D01*
X62107855Y-118972527D01*
X62306232Y-118780262D01*
G37*
X62306232Y-118780262D02*
X62374690Y-118714340D01*
X62427900Y-118664253D01*
X62468474Y-118627781D01*
X62499024Y-118602697D01*
X62522162Y-118586780D01*
X62540499Y-118577806D01*
X62546360Y-118575868D01*
X62615383Y-118564535D01*
X62681354Y-118572966D01*
X62747573Y-118602363D01*
X62817338Y-118653923D01*
X62853794Y-118687619D01*
X62919036Y-118759052D01*
X62961366Y-118824739D01*
X62981772Y-118887527D01*
X62981243Y-118950265D01*
X62964626Y-119006774D01*
X62945405Y-119053584D01*
X63107566Y-119111647D01*
X63174935Y-119135603D01*
X63240683Y-119158693D01*
X63297554Y-119178384D01*
X63338294Y-119192148D01*
X63340321Y-119192813D01*
X63379033Y-119205991D01*
X63406616Y-119216335D01*
X63415702Y-119220704D01*
X63410102Y-119231406D01*
X63390694Y-119254289D01*
X63367823Y-119278162D01*
X63315154Y-119330831D01*
X63088566Y-119247600D01*
X62861978Y-119164369D01*
X62772719Y-119248487D01*
X62683460Y-119332605D01*
X62998420Y-119647565D01*
X62890657Y-119755328D01*
X62208157Y-119072829D01*
X62315920Y-118965066D01*
X62603288Y-119252434D01*
X62713164Y-119142293D01*
X62767243Y-119086048D01*
X62806625Y-119040699D01*
X62829383Y-119008536D01*
X62833531Y-118999475D01*
X62838320Y-118945557D01*
X62822481Y-118887832D01*
X62789153Y-118831452D01*
X62741477Y-118781568D01*
X62682590Y-118743335D01*
X62675422Y-118739999D01*
X62639194Y-118726459D01*
X62607194Y-118722564D01*
X62575396Y-118730145D01*
X62539775Y-118751034D01*
X62496305Y-118787066D01*
X62440961Y-118840073D01*
X62428618Y-118852366D01*
X62315920Y-118965066D01*
X62208157Y-119072829D01*
X62107855Y-118972527D01*
X62306232Y-118780262D01*
G36*
X73047716Y-111253278D02*
G01*
X73103454Y-111212087D01*
X73168795Y-111178292D01*
X73229804Y-111167159D01*
X73289583Y-111179143D01*
X73351230Y-111214699D01*
X73398768Y-111255393D01*
X73447602Y-111311681D01*
X73472930Y-111366146D01*
X73476102Y-111422173D01*
X73472751Y-111440588D01*
X73466297Y-111463071D01*
X73456296Y-111484545D01*
X73439804Y-111508920D01*
X73413875Y-111540105D01*
X73375561Y-111582011D01*
X73329900Y-111630194D01*
X73199382Y-111766895D01*
X73249924Y-111806733D01*
X73292312Y-111837023D01*
X73329747Y-111854550D01*
X73365916Y-111858286D01*
X73404504Y-111847205D01*
X73449195Y-111820278D01*
X73503675Y-111776477D01*
X73568181Y-111717999D01*
X73702885Y-111592275D01*
X73734316Y-111623706D01*
X73752633Y-111644280D01*
X73756185Y-111661037D01*
X73744625Y-111683277D01*
X73731405Y-111701617D01*
X73696549Y-111744456D01*
X73651317Y-111793915D01*
X73600461Y-111845441D01*
X73548736Y-111894477D01*
X73500893Y-111936467D01*
X73461687Y-111966853D01*
X73442528Y-111978496D01*
X73379791Y-111995742D01*
X73309920Y-111993921D01*
X73241793Y-111973680D01*
X73219877Y-111962288D01*
X73149105Y-111913564D01*
X73078387Y-111852622D01*
X73034370Y-111807309D01*
X73136744Y-111704934D01*
X73247653Y-111586387D01*
X73293515Y-111536919D01*
X73324484Y-111501766D01*
X73343286Y-111476947D01*
X73352651Y-111458482D01*
X73355303Y-111442391D01*
X73354613Y-111430279D01*
X73339443Y-111389413D01*
X73306926Y-111349817D01*
X73264286Y-111319227D01*
X73242377Y-111310026D01*
X73196116Y-111305605D01*
X73148727Y-111322858D01*
X73097219Y-111362980D01*
X73088655Y-111371342D01*
X73041494Y-111425962D01*
X73016969Y-111475604D01*
X73015003Y-111524440D01*
X73035520Y-111576644D01*
X73078443Y-111636392D01*
X73083712Y-111642646D01*
X73136744Y-111704934D01*
X73034370Y-111807309D01*
X73012127Y-111784410D01*
X72954736Y-111713872D01*
X72910619Y-111645957D01*
X72884185Y-111585610D01*
X72884155Y-111585506D01*
X72878797Y-111524207D01*
X72894639Y-111456645D01*
X72929518Y-111386510D01*
X72981266Y-111317491D01*
X73047716Y-111253278D01*
G37*
X73047716Y-111253278D02*
X73103454Y-111212087D01*
X73168795Y-111178292D01*
X73229804Y-111167159D01*
X73289583Y-111179143D01*
X73351230Y-111214699D01*
X73398768Y-111255393D01*
X73447602Y-111311681D01*
X73472930Y-111366146D01*
X73476102Y-111422173D01*
X73472751Y-111440588D01*
X73466297Y-111463071D01*
X73456296Y-111484545D01*
X73439804Y-111508920D01*
X73413875Y-111540105D01*
X73375561Y-111582011D01*
X73329900Y-111630194D01*
X73199382Y-111766895D01*
X73249924Y-111806733D01*
X73292312Y-111837023D01*
X73329747Y-111854550D01*
X73365916Y-111858286D01*
X73404504Y-111847205D01*
X73449195Y-111820278D01*
X73503675Y-111776477D01*
X73568181Y-111717999D01*
X73702885Y-111592275D01*
X73734316Y-111623706D01*
X73752633Y-111644280D01*
X73756185Y-111661037D01*
X73744625Y-111683277D01*
X73731405Y-111701617D01*
X73696549Y-111744456D01*
X73651317Y-111793915D01*
X73600461Y-111845441D01*
X73548736Y-111894477D01*
X73500893Y-111936467D01*
X73461687Y-111966853D01*
X73442528Y-111978496D01*
X73379791Y-111995742D01*
X73309920Y-111993921D01*
X73241793Y-111973680D01*
X73219877Y-111962288D01*
X73149105Y-111913564D01*
X73078387Y-111852622D01*
X73034370Y-111807309D01*
X73136744Y-111704934D01*
X73247653Y-111586387D01*
X73293515Y-111536919D01*
X73324484Y-111501766D01*
X73343286Y-111476947D01*
X73352651Y-111458482D01*
X73355303Y-111442391D01*
X73354613Y-111430279D01*
X73339443Y-111389413D01*
X73306926Y-111349817D01*
X73264286Y-111319227D01*
X73242377Y-111310026D01*
X73196116Y-111305605D01*
X73148727Y-111322858D01*
X73097219Y-111362980D01*
X73088655Y-111371342D01*
X73041494Y-111425962D01*
X73016969Y-111475604D01*
X73015003Y-111524440D01*
X73035520Y-111576644D01*
X73078443Y-111636392D01*
X73083712Y-111642646D01*
X73136744Y-111704934D01*
X73034370Y-111807309D01*
X73012127Y-111784410D01*
X72954736Y-111713872D01*
X72910619Y-111645957D01*
X72884185Y-111585610D01*
X72884155Y-111585506D01*
X72878797Y-111524207D01*
X72894639Y-111456645D01*
X72929518Y-111386510D01*
X72981266Y-111317491D01*
X73047716Y-111253278D01*
G36*
X72533556Y-111769897D02*
G01*
X72541613Y-111762712D01*
X72596144Y-111715059D01*
X72635617Y-111682859D01*
X72663673Y-111664378D01*
X72683953Y-111657876D01*
X72700097Y-111661617D01*
X72715746Y-111673863D01*
X72719692Y-111677733D01*
X72749174Y-111707215D01*
X72637938Y-111824975D01*
X72584256Y-111883479D01*
X72547301Y-111929173D01*
X72525114Y-111966458D01*
X72515737Y-111999729D01*
X72517212Y-112033388D01*
X72527582Y-112071830D01*
X72527790Y-112072451D01*
X72547523Y-112109522D01*
X72582720Y-112156147D01*
X72628194Y-112207098D01*
X72678755Y-112257144D01*
X72729218Y-112301054D01*
X72774392Y-112333598D01*
X72799862Y-112346729D01*
X72840129Y-112358459D01*
X72876962Y-112359266D01*
X72914341Y-112347312D01*
X72956248Y-112320759D01*
X73006665Y-112277769D01*
X73059059Y-112227053D01*
X73174134Y-112112046D01*
X73204918Y-112148405D01*
X73223438Y-112173502D01*
X73225680Y-112193197D01*
X73211818Y-112218741D01*
X73206104Y-112227006D01*
X73173811Y-112267947D01*
X73130921Y-112315263D01*
X73082273Y-112364364D01*
X73032704Y-112410657D01*
X72987053Y-112449552D01*
X72950160Y-112476457D01*
X72934302Y-112484912D01*
X72862064Y-112502568D01*
X72789132Y-112497673D01*
X72712754Y-112469708D01*
X72648833Y-112431422D01*
X72571033Y-112369852D01*
X72500057Y-112298476D01*
X72440563Y-112222891D01*
X72397212Y-112148698D01*
X72382081Y-112110956D01*
X72369972Y-112044740D01*
X72378084Y-111979666D01*
X72407400Y-111913594D01*
X72458897Y-111844384D01*
X72533556Y-111769897D01*
G37*
X72533556Y-111769897D02*
X72541613Y-111762712D01*
X72596144Y-111715059D01*
X72635617Y-111682859D01*
X72663673Y-111664378D01*
X72683953Y-111657876D01*
X72700097Y-111661617D01*
X72715746Y-111673863D01*
X72719692Y-111677733D01*
X72749174Y-111707215D01*
X72637938Y-111824975D01*
X72584256Y-111883479D01*
X72547301Y-111929173D01*
X72525114Y-111966458D01*
X72515737Y-111999729D01*
X72517212Y-112033388D01*
X72527582Y-112071830D01*
X72527790Y-112072451D01*
X72547523Y-112109522D01*
X72582720Y-112156147D01*
X72628194Y-112207098D01*
X72678755Y-112257144D01*
X72729218Y-112301054D01*
X72774392Y-112333598D01*
X72799862Y-112346729D01*
X72840129Y-112358459D01*
X72876962Y-112359266D01*
X72914341Y-112347312D01*
X72956248Y-112320759D01*
X73006665Y-112277769D01*
X73059059Y-112227053D01*
X73174134Y-112112046D01*
X73204918Y-112148405D01*
X73223438Y-112173502D01*
X73225680Y-112193197D01*
X73211818Y-112218741D01*
X73206104Y-112227006D01*
X73173811Y-112267947D01*
X73130921Y-112315263D01*
X73082273Y-112364364D01*
X73032704Y-112410657D01*
X72987053Y-112449552D01*
X72950160Y-112476457D01*
X72934302Y-112484912D01*
X72862064Y-112502568D01*
X72789132Y-112497673D01*
X72712754Y-112469708D01*
X72648833Y-112431422D01*
X72571033Y-112369852D01*
X72500057Y-112298476D01*
X72440563Y-112222891D01*
X72397212Y-112148698D01*
X72382081Y-112110956D01*
X72369972Y-112044740D01*
X72378084Y-111979666D01*
X72407400Y-111913594D01*
X72458897Y-111844384D01*
X72533556Y-111769897D01*
G36*
X71954725Y-112354160D02*
G01*
X72003486Y-112311262D01*
X72043708Y-112283018D01*
X72079455Y-112267169D01*
X72114790Y-112261456D01*
X72153776Y-112263624D01*
X72161889Y-112264734D01*
X72187297Y-112270603D01*
X72214147Y-112282078D01*
X72244877Y-112301120D01*
X72281931Y-112329694D01*
X72327744Y-112369761D01*
X72384759Y-112423285D01*
X72455416Y-112492228D01*
X72501384Y-112537839D01*
X72706077Y-112741748D01*
X72661175Y-112786649D01*
X72634049Y-112810755D01*
X72613930Y-112823149D01*
X72607878Y-112823154D01*
X72590977Y-112812164D01*
X72566387Y-112799897D01*
X72542376Y-112791289D01*
X72531539Y-112798982D01*
X72525926Y-112820398D01*
X72506600Y-112878679D01*
X72473901Y-112942293D01*
X72432269Y-113005103D01*
X72386145Y-113060969D01*
X72339967Y-113103752D01*
X72306002Y-113124421D01*
X72268881Y-113131426D01*
X72220743Y-113129915D01*
X72174071Y-113121015D01*
X72147469Y-113110125D01*
X72110942Y-113081758D01*
X72072005Y-113041411D01*
X72067109Y-113035216D01*
X72174117Y-112928209D01*
X72215363Y-112964450D01*
X72250630Y-112981750D01*
X72287114Y-112982883D01*
X72305643Y-112978912D01*
X72336164Y-112960991D01*
X72372200Y-112924637D01*
X72409549Y-112874883D01*
X72444006Y-112816764D01*
X72448668Y-112807629D01*
X72481570Y-112741748D01*
X72319925Y-112580103D01*
X72272085Y-112622065D01*
X72236821Y-112656110D01*
X72197069Y-112698986D01*
X72172893Y-112727445D01*
X72136047Y-112780088D01*
X72120565Y-112824057D01*
X72126475Y-112864469D01*
X72153811Y-112906441D01*
X72174117Y-112928209D01*
X72067109Y-113035216D01*
X72036176Y-112996070D01*
X72008975Y-112952729D01*
X71995922Y-112918375D01*
X71995893Y-112918179D01*
X71992476Y-112877293D01*
X71996650Y-112840653D01*
X72010624Y-112804078D01*
X72036610Y-112763387D01*
X72076819Y-112714401D01*
X72133459Y-112652940D01*
X72139478Y-112646613D01*
X72264360Y-112515557D01*
X72222413Y-112473876D01*
X72180147Y-112437710D01*
X72140135Y-112417998D01*
X72099326Y-112415524D01*
X72054663Y-112431071D01*
X72003091Y-112465423D01*
X71941556Y-112519365D01*
X71904602Y-112555421D01*
X71790090Y-112669906D01*
X71758830Y-112638645D01*
X71744724Y-112622019D01*
X71738596Y-112605279D01*
X71742157Y-112585567D01*
X71757121Y-112560020D01*
X71785200Y-112525781D01*
X71828106Y-112479988D01*
X71887552Y-112419783D01*
X71893363Y-112413969D01*
X71954725Y-112354160D01*
G37*
X71954725Y-112354160D02*
X72003486Y-112311262D01*
X72043708Y-112283018D01*
X72079455Y-112267169D01*
X72114790Y-112261456D01*
X72153776Y-112263624D01*
X72161889Y-112264734D01*
X72187297Y-112270603D01*
X72214147Y-112282078D01*
X72244877Y-112301120D01*
X72281931Y-112329694D01*
X72327744Y-112369761D01*
X72384759Y-112423285D01*
X72455416Y-112492228D01*
X72501384Y-112537839D01*
X72706077Y-112741748D01*
X72661175Y-112786649D01*
X72634049Y-112810755D01*
X72613930Y-112823149D01*
X72607878Y-112823154D01*
X72590977Y-112812164D01*
X72566387Y-112799897D01*
X72542376Y-112791289D01*
X72531539Y-112798982D01*
X72525926Y-112820398D01*
X72506600Y-112878679D01*
X72473901Y-112942293D01*
X72432269Y-113005103D01*
X72386145Y-113060969D01*
X72339967Y-113103752D01*
X72306002Y-113124421D01*
X72268881Y-113131426D01*
X72220743Y-113129915D01*
X72174071Y-113121015D01*
X72147469Y-113110125D01*
X72110942Y-113081758D01*
X72072005Y-113041411D01*
X72067109Y-113035216D01*
X72174117Y-112928209D01*
X72215363Y-112964450D01*
X72250630Y-112981750D01*
X72287114Y-112982883D01*
X72305643Y-112978912D01*
X72336164Y-112960991D01*
X72372200Y-112924637D01*
X72409549Y-112874883D01*
X72444006Y-112816764D01*
X72448668Y-112807629D01*
X72481570Y-112741748D01*
X72319925Y-112580103D01*
X72272085Y-112622065D01*
X72236821Y-112656110D01*
X72197069Y-112698986D01*
X72172893Y-112727445D01*
X72136047Y-112780088D01*
X72120565Y-112824057D01*
X72126475Y-112864469D01*
X72153811Y-112906441D01*
X72174117Y-112928209D01*
X72067109Y-113035216D01*
X72036176Y-112996070D01*
X72008975Y-112952729D01*
X71995922Y-112918375D01*
X71995893Y-112918179D01*
X71992476Y-112877293D01*
X71996650Y-112840653D01*
X72010624Y-112804078D01*
X72036610Y-112763387D01*
X72076819Y-112714401D01*
X72133459Y-112652940D01*
X72139478Y-112646613D01*
X72264360Y-112515557D01*
X72222413Y-112473876D01*
X72180147Y-112437710D01*
X72140135Y-112417998D01*
X72099326Y-112415524D01*
X72054663Y-112431071D01*
X72003091Y-112465423D01*
X71941556Y-112519365D01*
X71904602Y-112555421D01*
X71790090Y-112669906D01*
X71758830Y-112638645D01*
X71744724Y-112622019D01*
X71738596Y-112605279D01*
X71742157Y-112585567D01*
X71757121Y-112560020D01*
X71785200Y-112525781D01*
X71828106Y-112479988D01*
X71887552Y-112419783D01*
X71893363Y-112413969D01*
X71954725Y-112354160D01*
G36*
X71319660Y-112512761D02*
G01*
X71351263Y-112486076D01*
X71374300Y-112474523D01*
X71393164Y-112476394D01*
X71412250Y-112489982D01*
X71421879Y-112499260D01*
X71455857Y-112533239D01*
X71390981Y-112605016D01*
X71350792Y-112653921D01*
X71330817Y-112693199D01*
X71331073Y-112728618D01*
X71351570Y-112765947D01*
X71391463Y-112810094D01*
X71448841Y-112867472D01*
X71610485Y-112705827D01*
X71700288Y-112795630D01*
X71538643Y-112957274D01*
X72014597Y-113433228D01*
X71906834Y-113540991D01*
X71430880Y-113065037D01*
X71350058Y-113145860D01*
X71314741Y-113110543D01*
X71295225Y-113089543D01*
X71288031Y-113072495D01*
X71293596Y-113051737D01*
X71312357Y-113019605D01*
X71320666Y-113006536D01*
X71328845Y-112991046D01*
X71329006Y-112976541D01*
X71318624Y-112957605D01*
X71295173Y-112928819D01*
X71272434Y-112903056D01*
X71218627Y-112834571D01*
X71187830Y-112773537D01*
X71180070Y-112716594D01*
X71195371Y-112660383D01*
X71233761Y-112601544D01*
X71275095Y-112556282D01*
X71319660Y-112512761D01*
G37*
X71319660Y-112512761D02*
X71351263Y-112486076D01*
X71374300Y-112474523D01*
X71393164Y-112476394D01*
X71412250Y-112489982D01*
X71421879Y-112499260D01*
X71455857Y-112533239D01*
X71390981Y-112605016D01*
X71350792Y-112653921D01*
X71330817Y-112693199D01*
X71331073Y-112728618D01*
X71351570Y-112765947D01*
X71391463Y-112810094D01*
X71448841Y-112867472D01*
X71610485Y-112705827D01*
X71700288Y-112795630D01*
X71538643Y-112957274D01*
X72014597Y-113433228D01*
X71906834Y-113540991D01*
X71430880Y-113065037D01*
X71350058Y-113145860D01*
X71314741Y-113110543D01*
X71295225Y-113089543D01*
X71288031Y-113072495D01*
X71293596Y-113051737D01*
X71312357Y-113019605D01*
X71320666Y-113006536D01*
X71328845Y-112991046D01*
X71329006Y-112976541D01*
X71318624Y-112957605D01*
X71295173Y-112928819D01*
X71272434Y-112903056D01*
X71218627Y-112834571D01*
X71187830Y-112773537D01*
X71180070Y-112716594D01*
X71195371Y-112660383D01*
X71233761Y-112601544D01*
X71275095Y-112556282D01*
X71319660Y-112512761D01*
G36*
X71197393Y-113109939D02*
G01*
X71253887Y-113161208D01*
X71310381Y-113212477D01*
X71250040Y-113274104D01*
X71199585Y-113335303D01*
X71170052Y-113397235D01*
X71157945Y-113467624D01*
X71157442Y-113478589D01*
X71155852Y-113526390D01*
X71538643Y-113909181D01*
X71430880Y-114016944D01*
X70865124Y-113451188D01*
X70910025Y-113406287D01*
X70943042Y-113377627D01*
X70963036Y-113370696D01*
X70966201Y-113372562D01*
X70984001Y-113385741D01*
X71013714Y-113404157D01*
X71020968Y-113408322D01*
X71064459Y-113432908D01*
X71069022Y-113347039D01*
X71082904Y-113261274D01*
X71115213Y-113191651D01*
X71161561Y-113140267D01*
X71197393Y-113109939D01*
G37*
X71197393Y-113109939D02*
X71253887Y-113161208D01*
X71310381Y-113212477D01*
X71250040Y-113274104D01*
X71199585Y-113335303D01*
X71170052Y-113397235D01*
X71157945Y-113467624D01*
X71157442Y-113478589D01*
X71155852Y-113526390D01*
X71538643Y-113909181D01*
X71430880Y-114016944D01*
X70865124Y-113451188D01*
X70910025Y-113406287D01*
X70943042Y-113377627D01*
X70963036Y-113370696D01*
X70966201Y-113372562D01*
X70984001Y-113385741D01*
X71013714Y-113404157D01*
X71020968Y-113408322D01*
X71064459Y-113432908D01*
X71069022Y-113347039D01*
X71082904Y-113261274D01*
X71115213Y-113191651D01*
X71161561Y-113140267D01*
X71197393Y-113109939D01*
G36*
X70551205Y-113749789D02*
G01*
X70606942Y-113708598D01*
X70672284Y-113674803D01*
X70733293Y-113663670D01*
X70793072Y-113675654D01*
X70854719Y-113711211D01*
X70902256Y-113751905D01*
X70951091Y-113808192D01*
X70976419Y-113862657D01*
X70979591Y-113918684D01*
X70976240Y-113937099D01*
X70969786Y-113959582D01*
X70959785Y-113981057D01*
X70943293Y-114005431D01*
X70917364Y-114036616D01*
X70879050Y-114078522D01*
X70833388Y-114126705D01*
X70702871Y-114263406D01*
X70753413Y-114303244D01*
X70795801Y-114333534D01*
X70833236Y-114351062D01*
X70869405Y-114354797D01*
X70907992Y-114343716D01*
X70952684Y-114316789D01*
X71007164Y-114272988D01*
X71071670Y-114214510D01*
X71206374Y-114088786D01*
X71237805Y-114120217D01*
X71256122Y-114140791D01*
X71259674Y-114157548D01*
X71248114Y-114179788D01*
X71234893Y-114198128D01*
X71200038Y-114240967D01*
X71154806Y-114290426D01*
X71103950Y-114341953D01*
X71052224Y-114390988D01*
X71004382Y-114432978D01*
X70965176Y-114463364D01*
X70946016Y-114475007D01*
X70883280Y-114492253D01*
X70813408Y-114490432D01*
X70745282Y-114470191D01*
X70723365Y-114458799D01*
X70652594Y-114410075D01*
X70581875Y-114349133D01*
X70537859Y-114303820D01*
X70640233Y-114201446D01*
X70751142Y-114082898D01*
X70797003Y-114033431D01*
X70827973Y-113998277D01*
X70846775Y-113973458D01*
X70856140Y-113954993D01*
X70858792Y-113938902D01*
X70858102Y-113926790D01*
X70842931Y-113885924D01*
X70810415Y-113846328D01*
X70767775Y-113815739D01*
X70745865Y-113806537D01*
X70699605Y-113802116D01*
X70652216Y-113819370D01*
X70600708Y-113859491D01*
X70592143Y-113867853D01*
X70544983Y-113922474D01*
X70520458Y-113972115D01*
X70518492Y-114020951D01*
X70539009Y-114073155D01*
X70581932Y-114132903D01*
X70587201Y-114139157D01*
X70640233Y-114201446D01*
X70537859Y-114303820D01*
X70515616Y-114280921D01*
X70458225Y-114210383D01*
X70414108Y-114142468D01*
X70387674Y-114082121D01*
X70387644Y-114082017D01*
X70382285Y-114020718D01*
X70398128Y-113953156D01*
X70433007Y-113883021D01*
X70484755Y-113814003D01*
X70551205Y-113749789D01*
G37*
X70551205Y-113749789D02*
X70606942Y-113708598D01*
X70672284Y-113674803D01*
X70733293Y-113663670D01*
X70793072Y-113675654D01*
X70854719Y-113711211D01*
X70902256Y-113751905D01*
X70951091Y-113808192D01*
X70976419Y-113862657D01*
X70979591Y-113918684D01*
X70976240Y-113937099D01*
X70969786Y-113959582D01*
X70959785Y-113981057D01*
X70943293Y-114005431D01*
X70917364Y-114036616D01*
X70879050Y-114078522D01*
X70833388Y-114126705D01*
X70702871Y-114263406D01*
X70753413Y-114303244D01*
X70795801Y-114333534D01*
X70833236Y-114351062D01*
X70869405Y-114354797D01*
X70907992Y-114343716D01*
X70952684Y-114316789D01*
X71007164Y-114272988D01*
X71071670Y-114214510D01*
X71206374Y-114088786D01*
X71237805Y-114120217D01*
X71256122Y-114140791D01*
X71259674Y-114157548D01*
X71248114Y-114179788D01*
X71234893Y-114198128D01*
X71200038Y-114240967D01*
X71154806Y-114290426D01*
X71103950Y-114341953D01*
X71052224Y-114390988D01*
X71004382Y-114432978D01*
X70965176Y-114463364D01*
X70946016Y-114475007D01*
X70883280Y-114492253D01*
X70813408Y-114490432D01*
X70745282Y-114470191D01*
X70723365Y-114458799D01*
X70652594Y-114410075D01*
X70581875Y-114349133D01*
X70537859Y-114303820D01*
X70640233Y-114201446D01*
X70751142Y-114082898D01*
X70797003Y-114033431D01*
X70827973Y-113998277D01*
X70846775Y-113973458D01*
X70856140Y-113954993D01*
X70858792Y-113938902D01*
X70858102Y-113926790D01*
X70842931Y-113885924D01*
X70810415Y-113846328D01*
X70767775Y-113815739D01*
X70745865Y-113806537D01*
X70699605Y-113802116D01*
X70652216Y-113819370D01*
X70600708Y-113859491D01*
X70592143Y-113867853D01*
X70544983Y-113922474D01*
X70520458Y-113972115D01*
X70518492Y-114020951D01*
X70539009Y-114073155D01*
X70581932Y-114132903D01*
X70587201Y-114139157D01*
X70640233Y-114201446D01*
X70537859Y-114303820D01*
X70515616Y-114280921D01*
X70458225Y-114210383D01*
X70414108Y-114142468D01*
X70387674Y-114082121D01*
X70387644Y-114082017D01*
X70382285Y-114020718D01*
X70398128Y-113953156D01*
X70433007Y-113883021D01*
X70484755Y-113814003D01*
X70551205Y-113749789D01*
G36*
X70038940Y-114277372D02*
G01*
X70191605Y-114124707D01*
X70281407Y-114214510D01*
X70128743Y-114367174D01*
X70279212Y-114517544D01*
X70350380Y-114587713D01*
X70407296Y-114640528D01*
X70453008Y-114677235D01*
X70490568Y-114699075D01*
X70523024Y-114707290D01*
X70553429Y-114703124D01*
X70584830Y-114687818D01*
X70620278Y-114662616D01*
X70625442Y-114658601D01*
X70676539Y-114618622D01*
X70758393Y-114689431D01*
X70688083Y-114759347D01*
X70633170Y-114808777D01*
X70584991Y-114840141D01*
X70563044Y-114849814D01*
X70505609Y-114861427D01*
X70453591Y-114852614D01*
X70433621Y-114845227D01*
X70414157Y-114835136D01*
X70392188Y-114819794D01*
X70364698Y-114796655D01*
X70328675Y-114763170D01*
X70281105Y-114716791D01*
X70218976Y-114654973D01*
X70029960Y-114465957D01*
X69940158Y-114555760D01*
X69904343Y-114519945D01*
X69882511Y-114495967D01*
X69877808Y-114478064D01*
X69889520Y-114455389D01*
X69899210Y-114441766D01*
X69924109Y-114397190D01*
X69926682Y-114359961D01*
X69906970Y-114325400D01*
X69900358Y-114318395D01*
X69873713Y-114289190D01*
X69843351Y-114252439D01*
X69834868Y-114241483D01*
X69798914Y-114194109D01*
X69877296Y-114115727D01*
X70038940Y-114277372D01*
G37*
X70038940Y-114277372D02*
X70191605Y-114124707D01*
X70281407Y-114214510D01*
X70128743Y-114367174D01*
X70279212Y-114517544D01*
X70350380Y-114587713D01*
X70407296Y-114640528D01*
X70453008Y-114677235D01*
X70490568Y-114699075D01*
X70523024Y-114707290D01*
X70553429Y-114703124D01*
X70584830Y-114687818D01*
X70620278Y-114662616D01*
X70625442Y-114658601D01*
X70676539Y-114618622D01*
X70758393Y-114689431D01*
X70688083Y-114759347D01*
X70633170Y-114808777D01*
X70584991Y-114840141D01*
X70563044Y-114849814D01*
X70505609Y-114861427D01*
X70453591Y-114852614D01*
X70433621Y-114845227D01*
X70414157Y-114835136D01*
X70392188Y-114819794D01*
X70364698Y-114796655D01*
X70328675Y-114763170D01*
X70281105Y-114716791D01*
X70218976Y-114654973D01*
X70029960Y-114465957D01*
X69940158Y-114555760D01*
X69904343Y-114519945D01*
X69882511Y-114495967D01*
X69877808Y-114478064D01*
X69889520Y-114455389D01*
X69899210Y-114441766D01*
X69924109Y-114397190D01*
X69926682Y-114359961D01*
X69906970Y-114325400D01*
X69900358Y-114318395D01*
X69873713Y-114289190D01*
X69843351Y-114252439D01*
X69834868Y-114241483D01*
X69798914Y-114194109D01*
X69877296Y-114115727D01*
X70038940Y-114277372D01*
G36*
X69618742Y-114688262D02*
G01*
X69657412Y-114665149D01*
X69699077Y-114654384D01*
X69742069Y-114652286D01*
X69777124Y-114654036D01*
X69809821Y-114660457D01*
X69842885Y-114673466D01*
X69879046Y-114694980D01*
X69921028Y-114726916D01*
X69971560Y-114771189D01*
X70033366Y-114829718D01*
X70109176Y-114904417D01*
X70129185Y-114924392D01*
X70326309Y-115121516D01*
X70218546Y-115229279D01*
X70018701Y-115029502D01*
X69952829Y-114963889D01*
X69902024Y-114914070D01*
X69863560Y-114877706D01*
X69834716Y-114852462D01*
X69812767Y-114836002D01*
X69794988Y-114825987D01*
X69778656Y-114820082D01*
X69772797Y-114818558D01*
X69733392Y-114813419D01*
X69699058Y-114815850D01*
X69696556Y-114816530D01*
X69663561Y-114835871D01*
X69625912Y-114872057D01*
X69588937Y-114918574D01*
X69557962Y-114968912D01*
X69541653Y-115005889D01*
X69519687Y-115069236D01*
X69949138Y-115498687D01*
X69841375Y-115606450D01*
X69275619Y-115040694D01*
X69319823Y-114996489D01*
X69347412Y-114970607D01*
X69366676Y-114960725D01*
X69386600Y-114964248D01*
X69403711Y-114972274D01*
X69443395Y-114992264D01*
X69472295Y-114904795D01*
X69509948Y-114814692D01*
X69558218Y-114743785D01*
X69618742Y-114688262D01*
G37*
X69618742Y-114688262D02*
X69657412Y-114665149D01*
X69699077Y-114654384D01*
X69742069Y-114652286D01*
X69777124Y-114654036D01*
X69809821Y-114660457D01*
X69842885Y-114673466D01*
X69879046Y-114694980D01*
X69921028Y-114726916D01*
X69971560Y-114771189D01*
X70033366Y-114829718D01*
X70109176Y-114904417D01*
X70129185Y-114924392D01*
X70326309Y-115121516D01*
X70218546Y-115229279D01*
X70018701Y-115029502D01*
X69952829Y-114963889D01*
X69902024Y-114914070D01*
X69863560Y-114877706D01*
X69834716Y-114852462D01*
X69812767Y-114836002D01*
X69794988Y-114825987D01*
X69778656Y-114820082D01*
X69772797Y-114818558D01*
X69733392Y-114813419D01*
X69699058Y-114815850D01*
X69696556Y-114816530D01*
X69663561Y-114835871D01*
X69625912Y-114872057D01*
X69588937Y-114918574D01*
X69557962Y-114968912D01*
X69541653Y-115005889D01*
X69519687Y-115069236D01*
X69949138Y-115498687D01*
X69841375Y-115606450D01*
X69275619Y-115040694D01*
X69319823Y-114996489D01*
X69347412Y-114970607D01*
X69366676Y-114960725D01*
X69386600Y-114964248D01*
X69403711Y-114972274D01*
X69443395Y-114992264D01*
X69472295Y-114904795D01*
X69509948Y-114814692D01*
X69558218Y-114743785D01*
X69618742Y-114688262D01*
G36*
X69697691Y-115750134D02*
G01*
X69589928Y-115857897D01*
X68808645Y-115076615D01*
X68916408Y-114968852D01*
X69697691Y-115750134D01*
G37*
X69697691Y-115750134D02*
X69589928Y-115857897D01*
X68808645Y-115076615D01*
X68916408Y-114968852D01*
X69697691Y-115750134D01*
G36*
X68422884Y-115878110D02*
G01*
X68478622Y-115836918D01*
X68543963Y-115803124D01*
X68604972Y-115791991D01*
X68664751Y-115803975D01*
X68726398Y-115839531D01*
X68773936Y-115880225D01*
X68822771Y-115936513D01*
X68848098Y-115990978D01*
X68851270Y-116047005D01*
X68847919Y-116065420D01*
X68841465Y-116087903D01*
X68831464Y-116109377D01*
X68814973Y-116133752D01*
X68789043Y-116164937D01*
X68750729Y-116206843D01*
X68705068Y-116255026D01*
X68574550Y-116391726D01*
X68625092Y-116431565D01*
X68667480Y-116461855D01*
X68704915Y-116479382D01*
X68741084Y-116483118D01*
X68779672Y-116472037D01*
X68824363Y-116445109D01*
X68878843Y-116401309D01*
X68943349Y-116342831D01*
X69078053Y-116217107D01*
X69109484Y-116248538D01*
X69127801Y-116269112D01*
X69131353Y-116285869D01*
X69119794Y-116308109D01*
X69106573Y-116326449D01*
X69071717Y-116369288D01*
X69026485Y-116418747D01*
X68975629Y-116470273D01*
X68923904Y-116519309D01*
X68876061Y-116561298D01*
X68836855Y-116591685D01*
X68817696Y-116603328D01*
X68754959Y-116620574D01*
X68685088Y-116618753D01*
X68616961Y-116598512D01*
X68595045Y-116587120D01*
X68524273Y-116538396D01*
X68453555Y-116477454D01*
X68409538Y-116432140D01*
X68511912Y-116329766D01*
X68622821Y-116211219D01*
X68668683Y-116161751D01*
X68699652Y-116126597D01*
X68718455Y-116101779D01*
X68727819Y-116083314D01*
X68730471Y-116067222D01*
X68729781Y-116055111D01*
X68714611Y-116014245D01*
X68682094Y-115974649D01*
X68639455Y-115944059D01*
X68617545Y-115934858D01*
X68571284Y-115930437D01*
X68523896Y-115947690D01*
X68472387Y-115987812D01*
X68463823Y-115996174D01*
X68416662Y-116050794D01*
X68392137Y-116100436D01*
X68390171Y-116149272D01*
X68410688Y-116201476D01*
X68453611Y-116261224D01*
X68458880Y-116267478D01*
X68511912Y-116329766D01*
X68409538Y-116432140D01*
X68387295Y-116409241D01*
X68329904Y-116338704D01*
X68285787Y-116270789D01*
X68259353Y-116210442D01*
X68259323Y-116210338D01*
X68253965Y-116149039D01*
X68269807Y-116081477D01*
X68304686Y-116011342D01*
X68356434Y-115942323D01*
X68422884Y-115878110D01*
G37*
X68422884Y-115878110D02*
X68478622Y-115836918D01*
X68543963Y-115803124D01*
X68604972Y-115791991D01*
X68664751Y-115803975D01*
X68726398Y-115839531D01*
X68773936Y-115880225D01*
X68822771Y-115936513D01*
X68848098Y-115990978D01*
X68851270Y-116047005D01*
X68847919Y-116065420D01*
X68841465Y-116087903D01*
X68831464Y-116109377D01*
X68814973Y-116133752D01*
X68789043Y-116164937D01*
X68750729Y-116206843D01*
X68705068Y-116255026D01*
X68574550Y-116391726D01*
X68625092Y-116431565D01*
X68667480Y-116461855D01*
X68704915Y-116479382D01*
X68741084Y-116483118D01*
X68779672Y-116472037D01*
X68824363Y-116445109D01*
X68878843Y-116401309D01*
X68943349Y-116342831D01*
X69078053Y-116217107D01*
X69109484Y-116248538D01*
X69127801Y-116269112D01*
X69131353Y-116285869D01*
X69119794Y-116308109D01*
X69106573Y-116326449D01*
X69071717Y-116369288D01*
X69026485Y-116418747D01*
X68975629Y-116470273D01*
X68923904Y-116519309D01*
X68876061Y-116561298D01*
X68836855Y-116591685D01*
X68817696Y-116603328D01*
X68754959Y-116620574D01*
X68685088Y-116618753D01*
X68616961Y-116598512D01*
X68595045Y-116587120D01*
X68524273Y-116538396D01*
X68453555Y-116477454D01*
X68409538Y-116432140D01*
X68511912Y-116329766D01*
X68622821Y-116211219D01*
X68668683Y-116161751D01*
X68699652Y-116126597D01*
X68718455Y-116101779D01*
X68727819Y-116083314D01*
X68730471Y-116067222D01*
X68729781Y-116055111D01*
X68714611Y-116014245D01*
X68682094Y-115974649D01*
X68639455Y-115944059D01*
X68617545Y-115934858D01*
X68571284Y-115930437D01*
X68523896Y-115947690D01*
X68472387Y-115987812D01*
X68463823Y-115996174D01*
X68416662Y-116050794D01*
X68392137Y-116100436D01*
X68390171Y-116149272D01*
X68410688Y-116201476D01*
X68453611Y-116261224D01*
X68458880Y-116267478D01*
X68511912Y-116329766D01*
X68409538Y-116432140D01*
X68387295Y-116409241D01*
X68329904Y-116338704D01*
X68285787Y-116270789D01*
X68259353Y-116210442D01*
X68259323Y-116210338D01*
X68253965Y-116149039D01*
X68269807Y-116081477D01*
X68304686Y-116011342D01*
X68356434Y-115942323D01*
X68422884Y-115878110D01*
G36*
X67973482Y-117474343D02*
G01*
X67929294Y-117518531D01*
X67901904Y-117544320D01*
X67883576Y-117553958D01*
X67866046Y-117549871D01*
X67851668Y-117541324D01*
X67827923Y-117529120D01*
X67815695Y-117528551D01*
X67815491Y-117529025D01*
X67791939Y-117599425D01*
X67767042Y-117653737D01*
X67735870Y-117701026D01*
X67697435Y-117746092D01*
X67654129Y-117790269D01*
X67620070Y-117817668D01*
X67590055Y-117832403D01*
X67587136Y-117833319D01*
X67522456Y-117845551D01*
X67460560Y-117840684D01*
X67396110Y-117817423D01*
X67323763Y-117774468D01*
X67312212Y-117766465D01*
X67255122Y-117720348D01*
X67203243Y-117669845D01*
X67313433Y-117559655D01*
X67362772Y-117608234D01*
X67399125Y-117641644D01*
X67426856Y-117663269D01*
X67450331Y-117676486D01*
X67473916Y-117684680D01*
X67475383Y-117685074D01*
X67538871Y-117689767D01*
X67598634Y-117670375D01*
X67652843Y-117628137D01*
X67699677Y-117564297D01*
X67723461Y-117516180D01*
X67746251Y-117462638D01*
X67398300Y-117114688D01*
X67364173Y-117129952D01*
X67336356Y-117146379D01*
X67298876Y-117173486D01*
X67267257Y-117199170D01*
X67215357Y-117253258D01*
X67187348Y-117307216D01*
X67181939Y-117364273D01*
X67188015Y-117397705D01*
X67196020Y-117421431D01*
X67208854Y-117444794D01*
X67229897Y-117472159D01*
X67262531Y-117507891D01*
X67310135Y-117556357D01*
X67313433Y-117559655D01*
X67203243Y-117669845D01*
X67195117Y-117661936D01*
X67138254Y-117598009D01*
X67090596Y-117535351D01*
X67059731Y-117483925D01*
X67035479Y-117408527D01*
X67036064Y-117333612D01*
X67060929Y-117260200D01*
X67109514Y-117189313D01*
X67181263Y-117121972D01*
X67275619Y-117059197D01*
X67298656Y-117046474D01*
X67305345Y-117040915D01*
X67305289Y-117032269D01*
X67296238Y-117017647D01*
X67275941Y-116994155D01*
X67242147Y-116958901D01*
X67192606Y-116908995D01*
X67188314Y-116904701D01*
X67057495Y-116773883D01*
X67165258Y-116666120D01*
X67973482Y-117474343D01*
G37*
X67973482Y-117474343D02*
X67929294Y-117518531D01*
X67901904Y-117544320D01*
X67883576Y-117553958D01*
X67866046Y-117549871D01*
X67851668Y-117541324D01*
X67827923Y-117529120D01*
X67815695Y-117528551D01*
X67815491Y-117529025D01*
X67791939Y-117599425D01*
X67767042Y-117653737D01*
X67735870Y-117701026D01*
X67697435Y-117746092D01*
X67654129Y-117790269D01*
X67620070Y-117817668D01*
X67590055Y-117832403D01*
X67587136Y-117833319D01*
X67522456Y-117845551D01*
X67460560Y-117840684D01*
X67396110Y-117817423D01*
X67323763Y-117774468D01*
X67312212Y-117766465D01*
X67255122Y-117720348D01*
X67203243Y-117669845D01*
X67313433Y-117559655D01*
X67362772Y-117608234D01*
X67399125Y-117641644D01*
X67426856Y-117663269D01*
X67450331Y-117676486D01*
X67473916Y-117684680D01*
X67475383Y-117685074D01*
X67538871Y-117689767D01*
X67598634Y-117670375D01*
X67652843Y-117628137D01*
X67699677Y-117564297D01*
X67723461Y-117516180D01*
X67746251Y-117462638D01*
X67398300Y-117114688D01*
X67364173Y-117129952D01*
X67336356Y-117146379D01*
X67298876Y-117173486D01*
X67267257Y-117199170D01*
X67215357Y-117253258D01*
X67187348Y-117307216D01*
X67181939Y-117364273D01*
X67188015Y-117397705D01*
X67196020Y-117421431D01*
X67208854Y-117444794D01*
X67229897Y-117472159D01*
X67262531Y-117507891D01*
X67310135Y-117556357D01*
X67313433Y-117559655D01*
X67203243Y-117669845D01*
X67195117Y-117661936D01*
X67138254Y-117598009D01*
X67090596Y-117535351D01*
X67059731Y-117483925D01*
X67035479Y-117408527D01*
X67036064Y-117333612D01*
X67060929Y-117260200D01*
X67109514Y-117189313D01*
X67181263Y-117121972D01*
X67275619Y-117059197D01*
X67298656Y-117046474D01*
X67305345Y-117040915D01*
X67305289Y-117032269D01*
X67296238Y-117017647D01*
X67275941Y-116994155D01*
X67242147Y-116958901D01*
X67192606Y-116908995D01*
X67188314Y-116904701D01*
X67057495Y-116773883D01*
X67165258Y-116666120D01*
X67973482Y-117474343D01*
G36*
X66096608Y-118650757D02*
G01*
X66174026Y-118573339D01*
X66144889Y-118386949D01*
X66115754Y-118200559D01*
X66169572Y-118146740D01*
X66200955Y-118117225D01*
X66219185Y-118105388D01*
X66227316Y-118109350D01*
X66227800Y-118110963D01*
X66231320Y-118129328D01*
X66238081Y-118167901D01*
X66247252Y-118221819D01*
X66258000Y-118286221D01*
X66263518Y-118319690D01*
X66274899Y-118387247D01*
X66285417Y-118446483D01*
X66294179Y-118492593D01*
X66300287Y-118520768D01*
X66302035Y-118526554D01*
X66316174Y-118533870D01*
X66351393Y-118544820D01*
X66403801Y-118558404D01*
X66469501Y-118573625D01*
X66544602Y-118589485D01*
X66557775Y-118592124D01*
X66806311Y-118641514D01*
X66749777Y-118697497D01*
X66693246Y-118753480D01*
X66482991Y-118712836D01*
X66272738Y-118672192D01*
X66195391Y-118749539D01*
X66446838Y-119000987D01*
X66339075Y-119108750D01*
X65530852Y-118300527D01*
X65638615Y-118192763D01*
X66096608Y-118650757D01*
G37*
X66096608Y-118650757D02*
X66174026Y-118573339D01*
X66144889Y-118386949D01*
X66115754Y-118200559D01*
X66169572Y-118146740D01*
X66200955Y-118117225D01*
X66219185Y-118105388D01*
X66227316Y-118109350D01*
X66227800Y-118110963D01*
X66231320Y-118129328D01*
X66238081Y-118167901D01*
X66247252Y-118221819D01*
X66258000Y-118286221D01*
X66263518Y-118319690D01*
X66274899Y-118387247D01*
X66285417Y-118446483D01*
X66294179Y-118492593D01*
X66300287Y-118520768D01*
X66302035Y-118526554D01*
X66316174Y-118533870D01*
X66351393Y-118544820D01*
X66403801Y-118558404D01*
X66469501Y-118573625D01*
X66544602Y-118589485D01*
X66557775Y-118592124D01*
X66806311Y-118641514D01*
X66749777Y-118697497D01*
X66693246Y-118753480D01*
X66482991Y-118712836D01*
X66272738Y-118672192D01*
X66195391Y-118749539D01*
X66446838Y-119000987D01*
X66339075Y-119108750D01*
X65530852Y-118300527D01*
X65638615Y-118192763D01*
X66096608Y-118650757D01*
G36*
X65519053Y-118785272D02*
G01*
X65573584Y-118737619D01*
X65613057Y-118705419D01*
X65641112Y-118686938D01*
X65661392Y-118680437D01*
X65677537Y-118684177D01*
X65693186Y-118696424D01*
X65697132Y-118700293D01*
X65726614Y-118729775D01*
X65615377Y-118847535D01*
X65561696Y-118906039D01*
X65524741Y-118951734D01*
X65502553Y-118989018D01*
X65493177Y-119022290D01*
X65494652Y-119055948D01*
X65505022Y-119094390D01*
X65505230Y-119095011D01*
X65524962Y-119132082D01*
X65560159Y-119178707D01*
X65605633Y-119229659D01*
X65656195Y-119279704D01*
X65706658Y-119323615D01*
X65751832Y-119356159D01*
X65777302Y-119369289D01*
X65817569Y-119381019D01*
X65854402Y-119381826D01*
X65891781Y-119369872D01*
X65933688Y-119343320D01*
X65984104Y-119300329D01*
X66036499Y-119249613D01*
X66151574Y-119134606D01*
X66182357Y-119170965D01*
X66200877Y-119196062D01*
X66203120Y-119215757D01*
X66189257Y-119241301D01*
X66183543Y-119249566D01*
X66151250Y-119290507D01*
X66108361Y-119337823D01*
X66059713Y-119386924D01*
X66010144Y-119433218D01*
X65964493Y-119472113D01*
X65927600Y-119499017D01*
X65911741Y-119507472D01*
X65839503Y-119525129D01*
X65766572Y-119520233D01*
X65690193Y-119492268D01*
X65626272Y-119453982D01*
X65519108Y-119365456D01*
X65428285Y-119259864D01*
X65419105Y-119246815D01*
X65374342Y-119169875D01*
X65351054Y-119098325D01*
X65349757Y-119029786D01*
X65370964Y-118961884D01*
X65415193Y-118892244D01*
X65482954Y-118818489D01*
X65519053Y-118785272D01*
G37*
X65519053Y-118785272D02*
X65573584Y-118737619D01*
X65613057Y-118705419D01*
X65641112Y-118686938D01*
X65661392Y-118680437D01*
X65677537Y-118684177D01*
X65693186Y-118696424D01*
X65697132Y-118700293D01*
X65726614Y-118729775D01*
X65615377Y-118847535D01*
X65561696Y-118906039D01*
X65524741Y-118951734D01*
X65502553Y-118989018D01*
X65493177Y-119022290D01*
X65494652Y-119055948D01*
X65505022Y-119094390D01*
X65505230Y-119095011D01*
X65524962Y-119132082D01*
X65560159Y-119178707D01*
X65605633Y-119229659D01*
X65656195Y-119279704D01*
X65706658Y-119323615D01*
X65751832Y-119356159D01*
X65777302Y-119369289D01*
X65817569Y-119381019D01*
X65854402Y-119381826D01*
X65891781Y-119369872D01*
X65933688Y-119343320D01*
X65984104Y-119300329D01*
X66036499Y-119249613D01*
X66151574Y-119134606D01*
X66182357Y-119170965D01*
X66200877Y-119196062D01*
X66203120Y-119215757D01*
X66189257Y-119241301D01*
X66183543Y-119249566D01*
X66151250Y-119290507D01*
X66108361Y-119337823D01*
X66059713Y-119386924D01*
X66010144Y-119433218D01*
X65964493Y-119472113D01*
X65927600Y-119499017D01*
X65911741Y-119507472D01*
X65839503Y-119525129D01*
X65766572Y-119520233D01*
X65690193Y-119492268D01*
X65626272Y-119453982D01*
X65519108Y-119365456D01*
X65428285Y-119259864D01*
X65419105Y-119246815D01*
X65374342Y-119169875D01*
X65351054Y-119098325D01*
X65349757Y-119029786D01*
X65370964Y-118961884D01*
X65415193Y-118892244D01*
X65482954Y-118818489D01*
X65519053Y-118785272D01*
G36*
X64932164Y-119376720D02*
G01*
X64980926Y-119333822D01*
X65021148Y-119305578D01*
X65056895Y-119289729D01*
X65092230Y-119284017D01*
X65131216Y-119286185D01*
X65139328Y-119287294D01*
X65164737Y-119293164D01*
X65191586Y-119304638D01*
X65222317Y-119323680D01*
X65259370Y-119352254D01*
X65305184Y-119392321D01*
X65362199Y-119445845D01*
X65432855Y-119514789D01*
X65478824Y-119560399D01*
X65683516Y-119764308D01*
X65638615Y-119809210D01*
X65611489Y-119833315D01*
X65591370Y-119845710D01*
X65585317Y-119845715D01*
X65568417Y-119834724D01*
X65543827Y-119822457D01*
X65519815Y-119813850D01*
X65508979Y-119821542D01*
X65503365Y-119842958D01*
X65484040Y-119901240D01*
X65451341Y-119964854D01*
X65409709Y-120027663D01*
X65363584Y-120083529D01*
X65317407Y-120126312D01*
X65283442Y-120146981D01*
X65246321Y-120153986D01*
X65198183Y-120152475D01*
X65151510Y-120143575D01*
X65124909Y-120132685D01*
X65088382Y-120104318D01*
X65049444Y-120063971D01*
X65044548Y-120057777D01*
X65151556Y-119950769D01*
X65192803Y-119987010D01*
X65228070Y-120004310D01*
X65264553Y-120005444D01*
X65283082Y-120001473D01*
X65313604Y-119983552D01*
X65349640Y-119947197D01*
X65386989Y-119897443D01*
X65421445Y-119839324D01*
X65426108Y-119830189D01*
X65459010Y-119764308D01*
X65297365Y-119602664D01*
X65249524Y-119644626D01*
X65214260Y-119678671D01*
X65174508Y-119721547D01*
X65150333Y-119750006D01*
X65113487Y-119802648D01*
X65098004Y-119846618D01*
X65103915Y-119887030D01*
X65131251Y-119929001D01*
X65151556Y-119950769D01*
X65044548Y-120057777D01*
X65013616Y-120018631D01*
X64986415Y-119975289D01*
X64973362Y-119940935D01*
X64973333Y-119940739D01*
X64969915Y-119899854D01*
X64974089Y-119863213D01*
X64988064Y-119826638D01*
X65014050Y-119785947D01*
X65054259Y-119736962D01*
X65110899Y-119675501D01*
X65116918Y-119669173D01*
X65241799Y-119538118D01*
X65199852Y-119496436D01*
X65157586Y-119460270D01*
X65117575Y-119440558D01*
X65076766Y-119438084D01*
X65032103Y-119453631D01*
X64980530Y-119487984D01*
X64918996Y-119541925D01*
X64882042Y-119577981D01*
X64767530Y-119692466D01*
X64736270Y-119661206D01*
X64722164Y-119644580D01*
X64716036Y-119627840D01*
X64719597Y-119608127D01*
X64734561Y-119582580D01*
X64762640Y-119548341D01*
X64805546Y-119502549D01*
X64864992Y-119442343D01*
X64870803Y-119436529D01*
X64932164Y-119376720D01*
G37*
X64932164Y-119376720D02*
X64980926Y-119333822D01*
X65021148Y-119305578D01*
X65056895Y-119289729D01*
X65092230Y-119284017D01*
X65131216Y-119286185D01*
X65139328Y-119287294D01*
X65164737Y-119293164D01*
X65191586Y-119304638D01*
X65222317Y-119323680D01*
X65259370Y-119352254D01*
X65305184Y-119392321D01*
X65362199Y-119445845D01*
X65432855Y-119514789D01*
X65478824Y-119560399D01*
X65683516Y-119764308D01*
X65638615Y-119809210D01*
X65611489Y-119833315D01*
X65591370Y-119845710D01*
X65585317Y-119845715D01*
X65568417Y-119834724D01*
X65543827Y-119822457D01*
X65519815Y-119813850D01*
X65508979Y-119821542D01*
X65503365Y-119842958D01*
X65484040Y-119901240D01*
X65451341Y-119964854D01*
X65409709Y-120027663D01*
X65363584Y-120083529D01*
X65317407Y-120126312D01*
X65283442Y-120146981D01*
X65246321Y-120153986D01*
X65198183Y-120152475D01*
X65151510Y-120143575D01*
X65124909Y-120132685D01*
X65088382Y-120104318D01*
X65049444Y-120063971D01*
X65044548Y-120057777D01*
X65151556Y-119950769D01*
X65192803Y-119987010D01*
X65228070Y-120004310D01*
X65264553Y-120005444D01*
X65283082Y-120001473D01*
X65313604Y-119983552D01*
X65349640Y-119947197D01*
X65386989Y-119897443D01*
X65421445Y-119839324D01*
X65426108Y-119830189D01*
X65459010Y-119764308D01*
X65297365Y-119602664D01*
X65249524Y-119644626D01*
X65214260Y-119678671D01*
X65174508Y-119721547D01*
X65150333Y-119750006D01*
X65113487Y-119802648D01*
X65098004Y-119846618D01*
X65103915Y-119887030D01*
X65131251Y-119929001D01*
X65151556Y-119950769D01*
X65044548Y-120057777D01*
X65013616Y-120018631D01*
X64986415Y-119975289D01*
X64973362Y-119940935D01*
X64973333Y-119940739D01*
X64969915Y-119899854D01*
X64974089Y-119863213D01*
X64988064Y-119826638D01*
X65014050Y-119785947D01*
X65054259Y-119736962D01*
X65110899Y-119675501D01*
X65116918Y-119669173D01*
X65241799Y-119538118D01*
X65199852Y-119496436D01*
X65157586Y-119460270D01*
X65117575Y-119440558D01*
X65076766Y-119438084D01*
X65032103Y-119453631D01*
X64980530Y-119487984D01*
X64918996Y-119541925D01*
X64882042Y-119577981D01*
X64767530Y-119692466D01*
X64736270Y-119661206D01*
X64722164Y-119644580D01*
X64716036Y-119627840D01*
X64719597Y-119608127D01*
X64734561Y-119582580D01*
X64762640Y-119548341D01*
X64805546Y-119502549D01*
X64864992Y-119442343D01*
X64870803Y-119436529D01*
X64932164Y-119376720D01*
G36*
X64571659Y-119941736D02*
G01*
X64659573Y-120028292D01*
X64731297Y-120098674D01*
X64788719Y-120154554D01*
X64833725Y-120197605D01*
X64868204Y-120229499D01*
X64894042Y-120251907D01*
X64913125Y-120266501D01*
X64927340Y-120274953D01*
X64938574Y-120278935D01*
X64948713Y-120280118D01*
X64953613Y-120280183D01*
X64994501Y-120270107D01*
X65038089Y-120243425D01*
X65084175Y-120206676D01*
X65162661Y-120285163D01*
X65105763Y-120340518D01*
X65069492Y-120373469D01*
X65034927Y-120401064D01*
X65015513Y-120413843D01*
X64955288Y-120432216D01*
X64886551Y-120426851D01*
X64872149Y-120423053D01*
X64859573Y-120418093D01*
X64844134Y-120408955D01*
X64824007Y-120393975D01*
X64797369Y-120371490D01*
X64762394Y-120339839D01*
X64717260Y-120297359D01*
X64660141Y-120242388D01*
X64589213Y-120173264D01*
X64502653Y-120088322D01*
X64475107Y-120061222D01*
X64119822Y-119711557D01*
X64228097Y-119603282D01*
X64571659Y-119941736D01*
G37*
X64571659Y-119941736D02*
X64659573Y-120028292D01*
X64731297Y-120098674D01*
X64788719Y-120154554D01*
X64833725Y-120197605D01*
X64868204Y-120229499D01*
X64894042Y-120251907D01*
X64913125Y-120266501D01*
X64927340Y-120274953D01*
X64938574Y-120278935D01*
X64948713Y-120280118D01*
X64953613Y-120280183D01*
X64994501Y-120270107D01*
X65038089Y-120243425D01*
X65084175Y-120206676D01*
X65162661Y-120285163D01*
X65105763Y-120340518D01*
X65069492Y-120373469D01*
X65034927Y-120401064D01*
X65015513Y-120413843D01*
X64955288Y-120432216D01*
X64886551Y-120426851D01*
X64872149Y-120423053D01*
X64859573Y-120418093D01*
X64844134Y-120408955D01*
X64824007Y-120393975D01*
X64797369Y-120371490D01*
X64762394Y-120339839D01*
X64717260Y-120297359D01*
X64660141Y-120242388D01*
X64589213Y-120173264D01*
X64502653Y-120088322D01*
X64475107Y-120061222D01*
X64119822Y-119711557D01*
X64228097Y-119603282D01*
X64571659Y-119941736D01*
G36*
X63749831Y-120136784D02*
G01*
X63811122Y-120080242D01*
X63861669Y-120038862D01*
X63904465Y-120010671D01*
X63942507Y-119993699D01*
X63978789Y-119985972D01*
X64016308Y-119985519D01*
X64016434Y-119985527D01*
X64090191Y-120002330D01*
X64159923Y-120043262D01*
X64223636Y-120105323D01*
X64270029Y-120172933D01*
X64292004Y-120239249D01*
X64290297Y-120306494D01*
X64290278Y-120306596D01*
X64281031Y-120354059D01*
X64350526Y-120337845D01*
X64421735Y-120331258D01*
X64488881Y-120347029D01*
X64555871Y-120386276D01*
X64576040Y-120402387D01*
X64635354Y-120462940D01*
X64678329Y-120528907D01*
X64701805Y-120594869D01*
X64705197Y-120624054D01*
X64703481Y-120662774D01*
X64694665Y-120700292D01*
X64676789Y-120739534D01*
X64647892Y-120783432D01*
X64606012Y-120834913D01*
X64549189Y-120896907D01*
X64475461Y-120972344D01*
X64465061Y-120982764D01*
X64291577Y-121156248D01*
X63932366Y-120797038D01*
X64040129Y-120689275D01*
X64300557Y-120949702D01*
X64421101Y-120829158D01*
X64469822Y-120780123D01*
X64503415Y-120744860D01*
X64524845Y-120719310D01*
X64537076Y-120699417D01*
X64543071Y-120681124D01*
X64545796Y-120660372D01*
X64545984Y-120658218D01*
X64539417Y-120594948D01*
X64510643Y-120537701D01*
X64462799Y-120490817D01*
X64402612Y-120459855D01*
X64363058Y-120449479D01*
X64327189Y-120449363D01*
X64290938Y-120461444D01*
X64250240Y-120487654D01*
X64201027Y-120529928D01*
X64148780Y-120580624D01*
X64040129Y-120689275D01*
X63932366Y-120797038D01*
X63609077Y-120473749D01*
X63716840Y-120365985D01*
X63959307Y-120608452D01*
X64060202Y-120507292D01*
X64110115Y-120455080D01*
X64147022Y-120411918D01*
X64168277Y-120380990D01*
X64171589Y-120373454D01*
X64179405Y-120318704D01*
X64165366Y-120266310D01*
X64128259Y-120212700D01*
X64110576Y-120193965D01*
X64077382Y-120162174D01*
X64053179Y-120145011D01*
X64029700Y-120138465D01*
X63998682Y-120138524D01*
X63996594Y-120138639D01*
X63972990Y-120140502D01*
X63953746Y-120145041D01*
X63934461Y-120155283D01*
X63910733Y-120174255D01*
X63878159Y-120204981D01*
X63832335Y-120250490D01*
X63716840Y-120365985D01*
X63609077Y-120473749D01*
X63510294Y-120374966D01*
X63674798Y-120210462D01*
X63749831Y-120136784D01*
G37*
X63749831Y-120136784D02*
X63811122Y-120080242D01*
X63861669Y-120038862D01*
X63904465Y-120010671D01*
X63942507Y-119993699D01*
X63978789Y-119985972D01*
X64016308Y-119985519D01*
X64016434Y-119985527D01*
X64090191Y-120002330D01*
X64159923Y-120043262D01*
X64223636Y-120105323D01*
X64270029Y-120172933D01*
X64292004Y-120239249D01*
X64290297Y-120306494D01*
X64290278Y-120306596D01*
X64281031Y-120354059D01*
X64350526Y-120337845D01*
X64421735Y-120331258D01*
X64488881Y-120347029D01*
X64555871Y-120386276D01*
X64576040Y-120402387D01*
X64635354Y-120462940D01*
X64678329Y-120528907D01*
X64701805Y-120594869D01*
X64705197Y-120624054D01*
X64703481Y-120662774D01*
X64694665Y-120700292D01*
X64676789Y-120739534D01*
X64647892Y-120783432D01*
X64606012Y-120834913D01*
X64549189Y-120896907D01*
X64475461Y-120972344D01*
X64465061Y-120982764D01*
X64291577Y-121156248D01*
X63932366Y-120797038D01*
X64040129Y-120689275D01*
X64300557Y-120949702D01*
X64421101Y-120829158D01*
X64469822Y-120780123D01*
X64503415Y-120744860D01*
X64524845Y-120719310D01*
X64537076Y-120699417D01*
X64543071Y-120681124D01*
X64545796Y-120660372D01*
X64545984Y-120658218D01*
X64539417Y-120594948D01*
X64510643Y-120537701D01*
X64462799Y-120490817D01*
X64402612Y-120459855D01*
X64363058Y-120449479D01*
X64327189Y-120449363D01*
X64290938Y-120461444D01*
X64250240Y-120487654D01*
X64201027Y-120529928D01*
X64148780Y-120580624D01*
X64040129Y-120689275D01*
X63932366Y-120797038D01*
X63609077Y-120473749D01*
X63716840Y-120365985D01*
X63959307Y-120608452D01*
X64060202Y-120507292D01*
X64110115Y-120455080D01*
X64147022Y-120411918D01*
X64168277Y-120380990D01*
X64171589Y-120373454D01*
X64179405Y-120318704D01*
X64165366Y-120266310D01*
X64128259Y-120212700D01*
X64110576Y-120193965D01*
X64077382Y-120162174D01*
X64053179Y-120145011D01*
X64029700Y-120138465D01*
X63998682Y-120138524D01*
X63996594Y-120138639D01*
X63972990Y-120140502D01*
X63953746Y-120145041D01*
X63934461Y-120155283D01*
X63910733Y-120174255D01*
X63878159Y-120204981D01*
X63832335Y-120250490D01*
X63716840Y-120365985D01*
X63609077Y-120473749D01*
X63510294Y-120374966D01*
X63674798Y-120210462D01*
X63749831Y-120136784D01*
G36*
X66359181Y-117528628D02*
G01*
X66437725Y-117455494D01*
X66445524Y-117448348D01*
X66601414Y-117305629D01*
X66689305Y-117393521D01*
X66524381Y-117558445D01*
X66457416Y-117625525D01*
X66407361Y-117677862D01*
X66373534Y-117719030D01*
X66355255Y-117752608D01*
X66351841Y-117782172D01*
X66362611Y-117811301D01*
X66386885Y-117843572D01*
X66423979Y-117882562D01*
X66456469Y-117915027D01*
X66563581Y-118022139D01*
X66895851Y-117689869D01*
X66985653Y-117779672D01*
X66653384Y-118111941D01*
X66754940Y-118213497D01*
X66811914Y-118268203D01*
X66853692Y-118303131D01*
X66880634Y-118318578D01*
X66883643Y-118319268D01*
X66907739Y-118317694D01*
X66937506Y-118304996D01*
X66975225Y-118279469D01*
X67023178Y-118239409D01*
X67083646Y-118183109D01*
X67140349Y-118127442D01*
X67282002Y-117986218D01*
X67322006Y-118026221D01*
X67345967Y-118052020D01*
X67353222Y-118069583D01*
X67345648Y-118087983D01*
X67337252Y-118099840D01*
X67313548Y-118128915D01*
X67276993Y-118170092D01*
X67231648Y-118219156D01*
X67181576Y-118271899D01*
X67130839Y-118324107D01*
X67083501Y-118371569D01*
X67043621Y-118410073D01*
X67015261Y-118435409D01*
X67008785Y-118440401D01*
X66958376Y-118470125D01*
X66909572Y-118483305D01*
X66864532Y-118484734D01*
X66818094Y-118483197D01*
X66512721Y-118182982D01*
X66430380Y-118101991D01*
X66364295Y-118036737D01*
X66312607Y-117985150D01*
X66273458Y-117945160D01*
X66244992Y-117914697D01*
X66225349Y-117891694D01*
X66212673Y-117874078D01*
X66205104Y-117859781D01*
X66200787Y-117846732D01*
X66197861Y-117832862D01*
X66197705Y-117832045D01*
X66192023Y-117791136D01*
X66192862Y-117754154D01*
X66202062Y-117718255D01*
X66221455Y-117680597D01*
X66252883Y-117638335D01*
X66298179Y-117588627D01*
X66359181Y-117528628D01*
G37*
X66359181Y-117528628D02*
X66437725Y-117455494D01*
X66445524Y-117448348D01*
X66601414Y-117305629D01*
X66689305Y-117393521D01*
X66524381Y-117558445D01*
X66457416Y-117625525D01*
X66407361Y-117677862D01*
X66373534Y-117719030D01*
X66355255Y-117752608D01*
X66351841Y-117782172D01*
X66362611Y-117811301D01*
X66386885Y-117843572D01*
X66423979Y-117882562D01*
X66456469Y-117915027D01*
X66563581Y-118022139D01*
X66895851Y-117689869D01*
X66985653Y-117779672D01*
X66653384Y-118111941D01*
X66754940Y-118213497D01*
X66811914Y-118268203D01*
X66853692Y-118303131D01*
X66880634Y-118318578D01*
X66883643Y-118319268D01*
X66907739Y-118317694D01*
X66937506Y-118304996D01*
X66975225Y-118279469D01*
X67023178Y-118239409D01*
X67083646Y-118183109D01*
X67140349Y-118127442D01*
X67282002Y-117986218D01*
X67322006Y-118026221D01*
X67345967Y-118052020D01*
X67353222Y-118069583D01*
X67345648Y-118087983D01*
X67337252Y-118099840D01*
X67313548Y-118128915D01*
X67276993Y-118170092D01*
X67231648Y-118219156D01*
X67181576Y-118271899D01*
X67130839Y-118324107D01*
X67083501Y-118371569D01*
X67043621Y-118410073D01*
X67015261Y-118435409D01*
X67008785Y-118440401D01*
X66958376Y-118470125D01*
X66909572Y-118483305D01*
X66864532Y-118484734D01*
X66818094Y-118483197D01*
X66512721Y-118182982D01*
X66430380Y-118101991D01*
X66364295Y-118036737D01*
X66312607Y-117985150D01*
X66273458Y-117945160D01*
X66244992Y-117914697D01*
X66225349Y-117891694D01*
X66212673Y-117874078D01*
X66205104Y-117859781D01*
X66200787Y-117846732D01*
X66197861Y-117832862D01*
X66197705Y-117832045D01*
X66192023Y-117791136D01*
X66192862Y-117754154D01*
X66202062Y-117718255D01*
X66221455Y-117680597D01*
X66252883Y-117638335D01*
X66298179Y-117588627D01*
X66359181Y-117528628D01*
G36*
X68099197Y-116274240D02*
G01*
X68115853Y-116300340D01*
X68113555Y-116320959D01*
X68106117Y-116331782D01*
X68083662Y-116360776D01*
X68062016Y-116389985D01*
X68037944Y-116423315D01*
X68091691Y-116433605D01*
X68161330Y-116458178D01*
X68219440Y-116500400D01*
X68263103Y-116555767D01*
X68289401Y-116619780D01*
X68295415Y-116687942D01*
X68286536Y-116734028D01*
X68275225Y-116762702D01*
X68257894Y-116792570D01*
X68231238Y-116828207D01*
X68191953Y-116874185D01*
X68158441Y-116911390D01*
X68112992Y-116961710D01*
X68082264Y-116997535D01*
X68063578Y-117022870D01*
X68054254Y-117041725D01*
X68051615Y-117058106D01*
X68052301Y-117070167D01*
X68058728Y-117104334D01*
X68073157Y-117120007D01*
X68102729Y-117124077D01*
X68108185Y-117124113D01*
X68123974Y-117122598D01*
X68140287Y-117116215D01*
X68160664Y-117102200D01*
X68188641Y-117077793D01*
X68227761Y-117040234D01*
X68272125Y-116996194D01*
X68337197Y-116932662D01*
X68389439Y-116885827D01*
X68432676Y-116853208D01*
X68470736Y-116832331D01*
X68507445Y-116820715D01*
X68546630Y-116815882D01*
X68550855Y-116815676D01*
X68583942Y-116815329D01*
X68608790Y-116820107D01*
X68633016Y-116833527D01*
X68664233Y-116859116D01*
X68685009Y-116877723D01*
X68732612Y-116922759D01*
X68763652Y-116958709D01*
X68781873Y-116991747D01*
X68791014Y-117028047D01*
X68793938Y-117057475D01*
X68792711Y-117100100D01*
X68781901Y-117141788D01*
X68759429Y-117185871D01*
X68723211Y-117235683D01*
X68671170Y-117294556D01*
X68601904Y-117365155D01*
X68551547Y-117413710D01*
X68504112Y-117457317D01*
X68464082Y-117492001D01*
X68435942Y-117513787D01*
X68430238Y-117517353D01*
X68360501Y-117543747D01*
X68292916Y-117545530D01*
X68229881Y-117522989D01*
X68184518Y-117487813D01*
X68162259Y-117456433D01*
X68259557Y-117359136D01*
X68298708Y-117391530D01*
X68342835Y-117406225D01*
X68349336Y-117406492D01*
X68388600Y-117396527D01*
X68437672Y-117368966D01*
X68492212Y-117327311D01*
X68547882Y-117275061D01*
X68600342Y-117215717D01*
X68623345Y-117185411D01*
X68653730Y-117130990D01*
X68660505Y-117082754D01*
X68643484Y-117037074D01*
X68614004Y-117001314D01*
X68580152Y-116971693D01*
X68548494Y-116955461D01*
X68516045Y-116953740D01*
X68479817Y-116967649D01*
X68436825Y-116998307D01*
X68384085Y-117046833D01*
X68321915Y-117110840D01*
X68278490Y-117157314D01*
X68249688Y-117190135D01*
X68232515Y-117213950D01*
X68223981Y-117233408D01*
X68221092Y-117253153D01*
X68220823Y-117267820D01*
X68231544Y-117315685D01*
X68259557Y-117359136D01*
X68162259Y-117456433D01*
X68142819Y-117429025D01*
X68123892Y-117359605D01*
X68123977Y-117310745D01*
X68126712Y-117274408D01*
X68124102Y-117257680D01*
X68113790Y-117254949D01*
X68101856Y-117258014D01*
X68066649Y-117257454D01*
X68025557Y-117241228D01*
X67987923Y-117214008D01*
X67969156Y-117191723D01*
X67956601Y-117156947D01*
X67953058Y-117113465D01*
X67958330Y-117072252D01*
X67971792Y-117044713D01*
X67972230Y-117035818D01*
X67949389Y-117032963D01*
X67924064Y-117034069D01*
X67850026Y-117028256D01*
X67782760Y-117002323D01*
X67725455Y-116960047D01*
X67725171Y-116959695D01*
X67825489Y-116859377D01*
X67868914Y-116897892D01*
X67905601Y-116917228D01*
X67942003Y-116919913D01*
X67966444Y-116914568D01*
X68000050Y-116896899D01*
X68041434Y-116864437D01*
X68084202Y-116823465D01*
X68121957Y-116780267D01*
X68148304Y-116741126D01*
X68152933Y-116731345D01*
X68160728Y-116681226D01*
X68143859Y-116631178D01*
X68103004Y-116582942D01*
X68091153Y-116572976D01*
X68041809Y-116542812D01*
X67994841Y-116535193D01*
X67946382Y-116550469D01*
X67892561Y-116588988D01*
X67890242Y-116591017D01*
X67829001Y-116650765D01*
X67790701Y-116703218D01*
X67774781Y-116750710D01*
X67780678Y-116795572D01*
X67807830Y-116840135D01*
X67825489Y-116859377D01*
X67725171Y-116959695D01*
X67681299Y-116905208D01*
X67653476Y-116841581D01*
X67645175Y-116772946D01*
X67655227Y-116715407D01*
X67662830Y-116693061D01*
X67671545Y-116673110D01*
X67683790Y-116652572D01*
X67701984Y-116628464D01*
X67728545Y-116597805D01*
X67765892Y-116557613D01*
X67816443Y-116504905D01*
X67874408Y-116445147D01*
X68072248Y-116241571D01*
X68099197Y-116274240D01*
G37*
X68099197Y-116274240D02*
X68115853Y-116300340D01*
X68113555Y-116320959D01*
X68106117Y-116331782D01*
X68083662Y-116360776D01*
X68062016Y-116389985D01*
X68037944Y-116423315D01*
X68091691Y-116433605D01*
X68161330Y-116458178D01*
X68219440Y-116500400D01*
X68263103Y-116555767D01*
X68289401Y-116619780D01*
X68295415Y-116687942D01*
X68286536Y-116734028D01*
X68275225Y-116762702D01*
X68257894Y-116792570D01*
X68231238Y-116828207D01*
X68191953Y-116874185D01*
X68158441Y-116911390D01*
X68112992Y-116961710D01*
X68082264Y-116997535D01*
X68063578Y-117022870D01*
X68054254Y-117041725D01*
X68051615Y-117058106D01*
X68052301Y-117070167D01*
X68058728Y-117104334D01*
X68073157Y-117120007D01*
X68102729Y-117124077D01*
X68108185Y-117124113D01*
X68123974Y-117122598D01*
X68140287Y-117116215D01*
X68160664Y-117102200D01*
X68188641Y-117077793D01*
X68227761Y-117040234D01*
X68272125Y-116996194D01*
X68337197Y-116932662D01*
X68389439Y-116885827D01*
X68432676Y-116853208D01*
X68470736Y-116832331D01*
X68507445Y-116820715D01*
X68546630Y-116815882D01*
X68550855Y-116815676D01*
X68583942Y-116815329D01*
X68608790Y-116820107D01*
X68633016Y-116833527D01*
X68664233Y-116859116D01*
X68685009Y-116877723D01*
X68732612Y-116922759D01*
X68763652Y-116958709D01*
X68781873Y-116991747D01*
X68791014Y-117028047D01*
X68793938Y-117057475D01*
X68792711Y-117100100D01*
X68781901Y-117141788D01*
X68759429Y-117185871D01*
X68723211Y-117235683D01*
X68671170Y-117294556D01*
X68601904Y-117365155D01*
X68551547Y-117413710D01*
X68504112Y-117457317D01*
X68464082Y-117492001D01*
X68435942Y-117513787D01*
X68430238Y-117517353D01*
X68360501Y-117543747D01*
X68292916Y-117545530D01*
X68229881Y-117522989D01*
X68184518Y-117487813D01*
X68162259Y-117456433D01*
X68259557Y-117359136D01*
X68298708Y-117391530D01*
X68342835Y-117406225D01*
X68349336Y-117406492D01*
X68388600Y-117396527D01*
X68437672Y-117368966D01*
X68492212Y-117327311D01*
X68547882Y-117275061D01*
X68600342Y-117215717D01*
X68623345Y-117185411D01*
X68653730Y-117130990D01*
X68660505Y-117082754D01*
X68643484Y-117037074D01*
X68614004Y-117001314D01*
X68580152Y-116971693D01*
X68548494Y-116955461D01*
X68516045Y-116953740D01*
X68479817Y-116967649D01*
X68436825Y-116998307D01*
X68384085Y-117046833D01*
X68321915Y-117110840D01*
X68278490Y-117157314D01*
X68249688Y-117190135D01*
X68232515Y-117213950D01*
X68223981Y-117233408D01*
X68221092Y-117253153D01*
X68220823Y-117267820D01*
X68231544Y-117315685D01*
X68259557Y-117359136D01*
X68162259Y-117456433D01*
X68142819Y-117429025D01*
X68123892Y-117359605D01*
X68123977Y-117310745D01*
X68126712Y-117274408D01*
X68124102Y-117257680D01*
X68113790Y-117254949D01*
X68101856Y-117258014D01*
X68066649Y-117257454D01*
X68025557Y-117241228D01*
X67987923Y-117214008D01*
X67969156Y-117191723D01*
X67956601Y-117156947D01*
X67953058Y-117113465D01*
X67958330Y-117072252D01*
X67971792Y-117044713D01*
X67972230Y-117035818D01*
X67949389Y-117032963D01*
X67924064Y-117034069D01*
X67850026Y-117028256D01*
X67782760Y-117002323D01*
X67725455Y-116960047D01*
X67725171Y-116959695D01*
X67825489Y-116859377D01*
X67868914Y-116897892D01*
X67905601Y-116917228D01*
X67942003Y-116919913D01*
X67966444Y-116914568D01*
X68000050Y-116896899D01*
X68041434Y-116864437D01*
X68084202Y-116823465D01*
X68121957Y-116780267D01*
X68148304Y-116741126D01*
X68152933Y-116731345D01*
X68160728Y-116681226D01*
X68143859Y-116631178D01*
X68103004Y-116582942D01*
X68091153Y-116572976D01*
X68041809Y-116542812D01*
X67994841Y-116535193D01*
X67946382Y-116550469D01*
X67892561Y-116588988D01*
X67890242Y-116591017D01*
X67829001Y-116650765D01*
X67790701Y-116703218D01*
X67774781Y-116750710D01*
X67780678Y-116795572D01*
X67807830Y-116840135D01*
X67825489Y-116859377D01*
X67725171Y-116959695D01*
X67681299Y-116905208D01*
X67653476Y-116841581D01*
X67645175Y-116772946D01*
X67655227Y-116715407D01*
X67662830Y-116693061D01*
X67671545Y-116673110D01*
X67683790Y-116652572D01*
X67701984Y-116628464D01*
X67728545Y-116597805D01*
X67765892Y-116557613D01*
X67816443Y-116504905D01*
X67874408Y-116445147D01*
X68072248Y-116241571D01*
X68099197Y-116274240D01*
D12*
X83568000Y-152217000D02*
X83568000Y-150117000D01*
X115568000Y-152217000D02*
X83568000Y-152217000D01*
X115568000Y-150117000D02*
X115568000Y-152217000D01*
X83568000Y-150117000D02*
X115568000Y-150117000D01*
X83568000Y-109217000D02*
X83568000Y-107117000D01*
X115568000Y-109217000D02*
X83568000Y-109217000D01*
X115568000Y-107117000D02*
X115568000Y-109217000D01*
X83568000Y-107117000D02*
X115568000Y-107117000D01*
X124568000Y-107167000D02*
X124568000Y-152167000D01*
X77068000Y-104667000D02*
X122068000Y-104667000D01*
X74568000Y-152167000D02*
X74568000Y-107167000D01*
X122068000Y-154667000D02*
X77068000Y-154667000D01*
X74568000Y-152167000D02*
G75*
G03*
X77068000Y-154667000I2500000J0D01*
G01*
X77068000Y-104667000D02*
G75*
G03*
X74568000Y-107167000I0J-2500000D01*
G01*
X124568000Y-107167000D02*
G75*
G03*
X122068000Y-104667000I-2500000J0D01*
G01*
X122068000Y-154667000D02*
G75*
G03*
X124568000Y-152167000I0J2500000D01*
G01*
D13*
X64202000Y-162620000D02*
X64202000Y-161290000D01*
X65532000Y-162620000D02*
X64202000Y-162620000D01*
X64202000Y-160020000D02*
X64202000Y-157420000D01*
X66802000Y-160020000D02*
X64202000Y-160020000D01*
X66802000Y-162620000D02*
X66802000Y-160020000D01*
X64202000Y-157420000D02*
X127822000Y-157420000D01*
X66802000Y-162620000D02*
X127822000Y-162620000D01*
X127822000Y-162620000D02*
X127822000Y-157420000D01*
X126746000Y-150174000D02*
X125416000Y-150174000D01*
X125416000Y-150174000D02*
X125416000Y-148844000D01*
X128016000Y-150174000D02*
X128016000Y-147574000D01*
X128016000Y-147574000D02*
X125416000Y-147574000D01*
X125416000Y-147574000D02*
X125416000Y-111954000D01*
X130616000Y-111954000D02*
X125416000Y-111954000D01*
X130616000Y-150174000D02*
X130616000Y-111954000D01*
X130616000Y-150174000D02*
X128016000Y-150174000D01*
X65973000Y-155330000D02*
X64643000Y-155330000D01*
X65973000Y-154000000D02*
X65973000Y-155330000D01*
X63373000Y-155330000D02*
X60773000Y-155330000D01*
X63373000Y-152730000D02*
X63373000Y-155330000D01*
X65973000Y-152730000D02*
X63373000Y-152730000D01*
X60773000Y-155330000D02*
X60773000Y-122190000D01*
X65973000Y-152730000D02*
X65973000Y-122190000D01*
X65973000Y-122190000D02*
X60773000Y-122190000D01*
D14*
X98660857Y-113368666D02*
X99265619Y-113368666D01*
X98539904Y-113731523D02*
X98963238Y-112461523D01*
X99386571Y-113731523D01*
X100475142Y-113731523D02*
X99749428Y-113731523D01*
X100112285Y-113731523D02*
X100112285Y-112461523D01*
X99991333Y-112642952D01*
X99870380Y-112763904D01*
X99749428Y-112824380D01*
X62166666Y-159476380D02*
X62166666Y-160190666D01*
X62119047Y-160333523D01*
X62023809Y-160428761D01*
X61880952Y-160476380D01*
X61785714Y-160476380D01*
X63166666Y-160476380D02*
X62595238Y-160476380D01*
X62880952Y-160476380D02*
X62880952Y-159476380D01*
X62785714Y-159619238D01*
X62690476Y-159714476D01*
X62595238Y-159762095D01*
X127682666Y-151066380D02*
X127682666Y-151780666D01*
X127635047Y-151923523D01*
X127539809Y-152018761D01*
X127396952Y-152066380D01*
X127301714Y-152066380D01*
X128111238Y-151161619D02*
X128158857Y-151114000D01*
X128254095Y-151066380D01*
X128492190Y-151066380D01*
X128587428Y-151114000D01*
X128635047Y-151161619D01*
X128682666Y-151256857D01*
X128682666Y-151352095D01*
X128635047Y-151494952D01*
X128063619Y-152066380D01*
X128682666Y-152066380D01*
X63039666Y-155782380D02*
X63039666Y-156496666D01*
X62992047Y-156639523D01*
X62896809Y-156734761D01*
X62753952Y-156782380D01*
X62658714Y-156782380D01*
X63420619Y-155782380D02*
X64039666Y-155782380D01*
X63706333Y-156163333D01*
X63849190Y-156163333D01*
X63944428Y-156210952D01*
X63992047Y-156258571D01*
X64039666Y-156353809D01*
X64039666Y-156591904D01*
X63992047Y-156687142D01*
X63944428Y-156734761D01*
X63849190Y-156782380D01*
X63563476Y-156782380D01*
X63468238Y-156734761D01*
X63420619Y-156687142D01*
M02*
