G04 #@! TF.GenerationSoftware,KiCad,Pcbnew,5.1.7*
G04 #@! TF.CreationDate,2020-10-22T00:39:11+01:00*
G04 #@! TF.ProjectId,rc2014-icecore,72633230-3134-42d6-9963-65636f72652e,1*
G04 #@! TF.SameCoordinates,Original*
G04 #@! TF.FileFunction,Legend,Top*
G04 #@! TF.FilePolarity,Positive*
%FSLAX46Y46*%
G04 Gerber Fmt 4.6, Leading zero omitted, Abs format (unit mm)*
G04 Created by KiCad (PCBNEW 5.1.7) date 2020-10-22 00:39:11*
%MOMM*%
%LPD*%
G01*
G04 APERTURE LIST*
%ADD10C,0.190500*%
%ADD11C,0.120000*%
%ADD12C,0.150000*%
%ADD13C,0.200000*%
G04 APERTURE END LIST*
D10*
X150857857Y-157062714D02*
X150603857Y-156699857D01*
X150422428Y-157062714D02*
X150422428Y-156300714D01*
X150712714Y-156300714D01*
X150785285Y-156337000D01*
X150821571Y-156373285D01*
X150857857Y-156445857D01*
X150857857Y-156554714D01*
X150821571Y-156627285D01*
X150785285Y-156663571D01*
X150712714Y-156699857D01*
X150422428Y-156699857D01*
X151474714Y-157026428D02*
X151402142Y-157062714D01*
X151257000Y-157062714D01*
X151184428Y-157026428D01*
X151148142Y-156953857D01*
X151148142Y-156663571D01*
X151184428Y-156591000D01*
X151257000Y-156554714D01*
X151402142Y-156554714D01*
X151474714Y-156591000D01*
X151511000Y-156663571D01*
X151511000Y-156736142D01*
X151148142Y-156808714D01*
X151765000Y-156554714D02*
X151946428Y-157062714D01*
X152127857Y-156554714D01*
X153397857Y-157062714D02*
X152962428Y-157062714D01*
X153180142Y-157062714D02*
X153180142Y-156300714D01*
X153107571Y-156409571D01*
X153035000Y-156482142D01*
X152962428Y-156518428D01*
X145642052Y-161804446D02*
X145103237Y-161265631D01*
X145231526Y-161137342D01*
X145334158Y-161086026D01*
X145436789Y-161086026D01*
X145513763Y-161111684D01*
X145642052Y-161188657D01*
X145719026Y-161265631D01*
X145796000Y-161393920D01*
X145821657Y-161470894D01*
X145821657Y-161573525D01*
X145770342Y-161676157D01*
X145642052Y-161804446D01*
X145590737Y-160778131D02*
X145949947Y-160418921D01*
X146257841Y-161188657D01*
X143102052Y-161804446D02*
X142563237Y-161265631D01*
X142691526Y-161137342D01*
X142794158Y-161086026D01*
X142896789Y-161086026D01*
X142973763Y-161111684D01*
X143102052Y-161188657D01*
X143179026Y-161265631D01*
X143256000Y-161393920D01*
X143281657Y-161470894D01*
X143281657Y-161573525D01*
X143230342Y-161676157D01*
X143102052Y-161804446D01*
X143332973Y-160495895D02*
X143230342Y-160598526D01*
X143204684Y-160675500D01*
X143204684Y-160726816D01*
X143230342Y-160855105D01*
X143307315Y-160983394D01*
X143512578Y-161188657D01*
X143589552Y-161214315D01*
X143640868Y-161214315D01*
X143717841Y-161188657D01*
X143820473Y-161086026D01*
X143846131Y-161009052D01*
X143846131Y-160957737D01*
X143820473Y-160880763D01*
X143692183Y-160752474D01*
X143615210Y-160726816D01*
X143563894Y-160726816D01*
X143486920Y-160752474D01*
X143384289Y-160855105D01*
X143358631Y-160932079D01*
X143358631Y-160983394D01*
X143384289Y-161060368D01*
X140562052Y-161804446D02*
X140023237Y-161265631D01*
X140151526Y-161137342D01*
X140254158Y-161086026D01*
X140356789Y-161086026D01*
X140433763Y-161111684D01*
X140562052Y-161188657D01*
X140639026Y-161265631D01*
X140716000Y-161393920D01*
X140741657Y-161470894D01*
X140741657Y-161573525D01*
X140690342Y-161676157D01*
X140562052Y-161804446D01*
X140818631Y-160470237D02*
X140562052Y-160726816D01*
X140792973Y-161009052D01*
X140792973Y-160957737D01*
X140818631Y-160880763D01*
X140946920Y-160752474D01*
X141023894Y-160726816D01*
X141075210Y-160726816D01*
X141152183Y-160752474D01*
X141280473Y-160880763D01*
X141306131Y-160957737D01*
X141306131Y-161009052D01*
X141280473Y-161086026D01*
X141152183Y-161214315D01*
X141075210Y-161239973D01*
X141023894Y-161239973D01*
X138022052Y-161804446D02*
X137483237Y-161265631D01*
X137611526Y-161137342D01*
X137714158Y-161086026D01*
X137816789Y-161086026D01*
X137893763Y-161111684D01*
X138022052Y-161188657D01*
X138099026Y-161265631D01*
X138176000Y-161393920D01*
X138201657Y-161470894D01*
X138201657Y-161573525D01*
X138150342Y-161676157D01*
X138022052Y-161804446D01*
X138432578Y-160675500D02*
X138791788Y-161034710D01*
X138099026Y-160598526D02*
X138355605Y-161111684D01*
X138689157Y-160778131D01*
X135482052Y-161804446D02*
X134943237Y-161265631D01*
X135071526Y-161137342D01*
X135174158Y-161086026D01*
X135276789Y-161086026D01*
X135353763Y-161111684D01*
X135482052Y-161188657D01*
X135559026Y-161265631D01*
X135636000Y-161393920D01*
X135661657Y-161470894D01*
X135661657Y-161573525D01*
X135610342Y-161676157D01*
X135482052Y-161804446D01*
X135430737Y-160778131D02*
X135764289Y-160444579D01*
X135789947Y-160829447D01*
X135866920Y-160752474D01*
X135943894Y-160726816D01*
X135995210Y-160726816D01*
X136072183Y-160752474D01*
X136200473Y-160880763D01*
X136226131Y-160957737D01*
X136226131Y-161009052D01*
X136200473Y-161086026D01*
X136046525Y-161239973D01*
X135969552Y-161265631D01*
X135918236Y-161265631D01*
X132942052Y-161804446D02*
X132403237Y-161265631D01*
X132531526Y-161137342D01*
X132634158Y-161086026D01*
X132736789Y-161086026D01*
X132813763Y-161111684D01*
X132942052Y-161188657D01*
X133019026Y-161265631D01*
X133095999Y-161393920D01*
X133121657Y-161470894D01*
X133121657Y-161573525D01*
X133070342Y-161676157D01*
X132942052Y-161804446D01*
X132967710Y-160803789D02*
X132967710Y-160752474D01*
X132993368Y-160675500D01*
X133121657Y-160547211D01*
X133198631Y-160521553D01*
X133249947Y-160521553D01*
X133326920Y-160547211D01*
X133378236Y-160598526D01*
X133429552Y-160701158D01*
X133429552Y-161316947D01*
X133763104Y-160983394D01*
X130402052Y-161804446D02*
X129863237Y-161265631D01*
X129991526Y-161137342D01*
X130094158Y-161086026D01*
X130196789Y-161086026D01*
X130273763Y-161111684D01*
X130402052Y-161188657D01*
X130479026Y-161265631D01*
X130555999Y-161393920D01*
X130581657Y-161470894D01*
X130581657Y-161573525D01*
X130530342Y-161676157D01*
X130402052Y-161804446D01*
X131223104Y-160983394D02*
X130915210Y-161291289D01*
X131069157Y-161137342D02*
X130530342Y-160598526D01*
X130556000Y-160726816D01*
X130556000Y-160829447D01*
X130530342Y-160906421D01*
X127862052Y-161804446D02*
X127323237Y-161265631D01*
X127451526Y-161137342D01*
X127554158Y-161086026D01*
X127656789Y-161086026D01*
X127733763Y-161111684D01*
X127862052Y-161188657D01*
X127939026Y-161265631D01*
X128015999Y-161393920D01*
X128041657Y-161470894D01*
X128041657Y-161573525D01*
X127990342Y-161676157D01*
X127862052Y-161804446D01*
X127964684Y-160624184D02*
X128016000Y-160572868D01*
X128092973Y-160547211D01*
X128144289Y-160547211D01*
X128221262Y-160572868D01*
X128349552Y-160649842D01*
X128477841Y-160778131D01*
X128554815Y-160906421D01*
X128580473Y-160983394D01*
X128580473Y-161034710D01*
X128554815Y-161111684D01*
X128503499Y-161163000D01*
X128426525Y-161188657D01*
X128375210Y-161188657D01*
X128298236Y-161163000D01*
X128169947Y-161086026D01*
X128041657Y-160957737D01*
X127964684Y-160829447D01*
X127939026Y-160752474D01*
X127939026Y-160701158D01*
X127964684Y-160624184D01*
X99526934Y-161767249D02*
X99783513Y-161510670D01*
X99629565Y-161972512D02*
X99270355Y-161254092D01*
X99988776Y-161613302D01*
X99732197Y-160792250D02*
X99783513Y-160740934D01*
X99860486Y-160715276D01*
X99911802Y-160715276D01*
X99988776Y-160740934D01*
X100117065Y-160817908D01*
X100245354Y-160946197D01*
X100322328Y-161074487D01*
X100347986Y-161151460D01*
X100347986Y-161202776D01*
X100322328Y-161279750D01*
X100271012Y-161331065D01*
X100194039Y-161356723D01*
X100142723Y-161356723D01*
X100065749Y-161331065D01*
X99937460Y-161254092D01*
X99809171Y-161125802D01*
X99732197Y-160997513D01*
X99706539Y-160920539D01*
X99706539Y-160869224D01*
X99732197Y-160792250D01*
X96986934Y-161767249D02*
X97243513Y-161510670D01*
X97089565Y-161972512D02*
X96730355Y-161254092D01*
X97448776Y-161613302D01*
X97910617Y-161151460D02*
X97602723Y-161459355D01*
X97756670Y-161305407D02*
X97217855Y-160766592D01*
X97243513Y-160894881D01*
X97243513Y-160997513D01*
X97217855Y-161074487D01*
X94446934Y-161767249D02*
X94703513Y-161510670D01*
X94549565Y-161972512D02*
X94190355Y-161254092D01*
X94908776Y-161613302D01*
X94575223Y-160971855D02*
X94575223Y-160920539D01*
X94600881Y-160843566D01*
X94729171Y-160715276D01*
X94806144Y-160689618D01*
X94857460Y-160689618D01*
X94934434Y-160715276D01*
X94985749Y-160766592D01*
X95037065Y-160869224D01*
X95037065Y-161485013D01*
X95370617Y-161151460D01*
X91906934Y-161767249D02*
X92163513Y-161510670D01*
X92009565Y-161972512D02*
X91650355Y-161254092D01*
X92368776Y-161613302D01*
X91958250Y-160946197D02*
X92291802Y-160612645D01*
X92317460Y-160997513D01*
X92394434Y-160920539D01*
X92471407Y-160894881D01*
X92522723Y-160894881D01*
X92599697Y-160920539D01*
X92727986Y-161048829D01*
X92753644Y-161125802D01*
X92753644Y-161177118D01*
X92727986Y-161254092D01*
X92574039Y-161408039D01*
X92497065Y-161433697D01*
X92445749Y-161433697D01*
X89620934Y-161767249D02*
X89877513Y-161510670D01*
X89723565Y-161972512D02*
X89364355Y-161254092D01*
X90082776Y-161613302D01*
X90134091Y-160843566D02*
X90493302Y-161202776D01*
X89800539Y-160766592D02*
X90057118Y-161279750D01*
X90390670Y-160946197D01*
X86826934Y-161767249D02*
X87083513Y-161510670D01*
X86929565Y-161972512D02*
X86570355Y-161254092D01*
X87288776Y-161613302D01*
X87186144Y-160638303D02*
X86929565Y-160894881D01*
X87160486Y-161177118D01*
X87160486Y-161125802D01*
X87186144Y-161048829D01*
X87314434Y-160920539D01*
X87391407Y-160894881D01*
X87442723Y-160894881D01*
X87519697Y-160920539D01*
X87647986Y-161048829D01*
X87673644Y-161125802D01*
X87673644Y-161177118D01*
X87647986Y-161254092D01*
X87519697Y-161382381D01*
X87442723Y-161408039D01*
X87391407Y-161408039D01*
X84286934Y-161767249D02*
X84543513Y-161510670D01*
X84389565Y-161972512D02*
X84030355Y-161254092D01*
X84748776Y-161613302D01*
X84620486Y-160663961D02*
X84517855Y-160766592D01*
X84492197Y-160843566D01*
X84492197Y-160894881D01*
X84517855Y-161023171D01*
X84594828Y-161151460D01*
X84800091Y-161356723D01*
X84877065Y-161382381D01*
X84928381Y-161382381D01*
X85005354Y-161356723D01*
X85107986Y-161254092D01*
X85133644Y-161177118D01*
X85133644Y-161125802D01*
X85107986Y-161048829D01*
X84979697Y-160920539D01*
X84902723Y-160894881D01*
X84851407Y-160894881D01*
X84774434Y-160920539D01*
X84671802Y-161023171D01*
X84646144Y-161100144D01*
X84646144Y-161151460D01*
X84671802Y-161228434D01*
X81746934Y-161767249D02*
X82003513Y-161510670D01*
X81849565Y-161972512D02*
X81490355Y-161254092D01*
X82208776Y-161613302D01*
X81798250Y-160946197D02*
X82157460Y-160586987D01*
X82465354Y-161356723D01*
X79206934Y-161767249D02*
X79463513Y-161510670D01*
X79309565Y-161972512D02*
X78950355Y-161254092D01*
X79668776Y-161613302D01*
X79617460Y-161048829D02*
X79540486Y-161074487D01*
X79489171Y-161074487D01*
X79412197Y-161048829D01*
X79386539Y-161023171D01*
X79360881Y-160946197D01*
X79360881Y-160894881D01*
X79386539Y-160817908D01*
X79489171Y-160715276D01*
X79566144Y-160689618D01*
X79617460Y-160689618D01*
X79694434Y-160715276D01*
X79720091Y-160740934D01*
X79745749Y-160817908D01*
X79745749Y-160869224D01*
X79720091Y-160946197D01*
X79617460Y-161048829D01*
X79591802Y-161125802D01*
X79591802Y-161177118D01*
X79617460Y-161254092D01*
X79720091Y-161356723D01*
X79797065Y-161382381D01*
X79848381Y-161382381D01*
X79925354Y-161356723D01*
X80027986Y-161254092D01*
X80053644Y-161177118D01*
X80053644Y-161125802D01*
X80027986Y-161048829D01*
X79925354Y-160946197D01*
X79848381Y-160920539D01*
X79797065Y-160920539D01*
X79720091Y-160946197D01*
X76666934Y-161767249D02*
X76923513Y-161510670D01*
X76769565Y-161972512D02*
X76410355Y-161254092D01*
X77128776Y-161613302D01*
X77334039Y-161408039D02*
X77436670Y-161305407D01*
X77462328Y-161228434D01*
X77462328Y-161177118D01*
X77436670Y-161048829D01*
X77359697Y-160920539D01*
X77154434Y-160715276D01*
X77077460Y-160689618D01*
X77026144Y-160689618D01*
X76949171Y-160715276D01*
X76846539Y-160817908D01*
X76820881Y-160894881D01*
X76820881Y-160946197D01*
X76846539Y-161023171D01*
X76974828Y-161151460D01*
X77051802Y-161177118D01*
X77103118Y-161177118D01*
X77180091Y-161151460D01*
X77282723Y-161048829D01*
X77308381Y-160971855D01*
X77308381Y-160920539D01*
X77282723Y-160843566D01*
X73870355Y-161767249D02*
X74126934Y-161510670D01*
X73972987Y-161972512D02*
X73613776Y-161254091D01*
X74332197Y-161613302D01*
X74794039Y-161151460D02*
X74486144Y-161459354D01*
X74640091Y-161305407D02*
X74101276Y-160766592D01*
X74126934Y-160894881D01*
X74126934Y-160997513D01*
X74101276Y-161074486D01*
X74588776Y-160279092D02*
X74640091Y-160227776D01*
X74717065Y-160202119D01*
X74768381Y-160202119D01*
X74845354Y-160227776D01*
X74973644Y-160304750D01*
X75101933Y-160433039D01*
X75178907Y-160561329D01*
X75204565Y-160638302D01*
X75204565Y-160689618D01*
X75178907Y-160766592D01*
X75127591Y-160817908D01*
X75050617Y-160843565D01*
X74999302Y-160843565D01*
X74922328Y-160817908D01*
X74794039Y-160740934D01*
X74665749Y-160612645D01*
X74588776Y-160484355D01*
X74563118Y-160407382D01*
X74563118Y-160356066D01*
X74588776Y-160279092D01*
X71330355Y-161767249D02*
X71586934Y-161510670D01*
X71432987Y-161972512D02*
X71073776Y-161254091D01*
X71792197Y-161613302D01*
X72254039Y-161151460D02*
X71946144Y-161459354D01*
X72100091Y-161305407D02*
X71561276Y-160766592D01*
X71586934Y-160894881D01*
X71586934Y-160997513D01*
X71561276Y-161074486D01*
X72767196Y-160638302D02*
X72459302Y-160946197D01*
X72613249Y-160792250D02*
X72074434Y-160253434D01*
X72100091Y-160381724D01*
X72100091Y-160484355D01*
X72074434Y-160561329D01*
X68790355Y-161767249D02*
X69046934Y-161510670D01*
X68892987Y-161972512D02*
X68533776Y-161254091D01*
X69252197Y-161613302D01*
X69714039Y-161151460D02*
X69406144Y-161459354D01*
X69560091Y-161305407D02*
X69021276Y-160766592D01*
X69046934Y-160894881D01*
X69046934Y-160997513D01*
X69021276Y-161074486D01*
X69431802Y-160458697D02*
X69431802Y-160407382D01*
X69457460Y-160330408D01*
X69585749Y-160202119D01*
X69662723Y-160176461D01*
X69714039Y-160176461D01*
X69791012Y-160202119D01*
X69842328Y-160253434D01*
X69893644Y-160356066D01*
X69893644Y-160971855D01*
X70227196Y-160638302D01*
X66250355Y-161767249D02*
X66506934Y-161510670D01*
X66352987Y-161972512D02*
X65993776Y-161254091D01*
X66712197Y-161613302D01*
X67174039Y-161151460D02*
X66866144Y-161459354D01*
X67020091Y-161305407D02*
X66481276Y-160766592D01*
X66506934Y-160894881D01*
X66506934Y-160997513D01*
X66481276Y-161074486D01*
X66814828Y-160433039D02*
X67148381Y-160099487D01*
X67174039Y-160484355D01*
X67251012Y-160407382D01*
X67327986Y-160381724D01*
X67379302Y-160381724D01*
X67456275Y-160407382D01*
X67584565Y-160535671D01*
X67610223Y-160612645D01*
X67610223Y-160663960D01*
X67584565Y-160740934D01*
X67430617Y-160894881D01*
X67353644Y-160920539D01*
X67302328Y-160920539D01*
X63710355Y-161767249D02*
X63966934Y-161510670D01*
X63812987Y-161972512D02*
X63453776Y-161254091D01*
X64172197Y-161613302D01*
X64634039Y-161151460D02*
X64326144Y-161459354D01*
X64480091Y-161305407D02*
X63941276Y-160766592D01*
X63966934Y-160894881D01*
X63966934Y-160997513D01*
X63941276Y-161074486D01*
X64736670Y-160330408D02*
X65095880Y-160689618D01*
X64403118Y-160253434D02*
X64659697Y-160766592D01*
X64993249Y-160433039D01*
X61170355Y-161767249D02*
X61426934Y-161510670D01*
X61272987Y-161972512D02*
X60913776Y-161254091D01*
X61632197Y-161613302D01*
X62094039Y-161151460D02*
X61786144Y-161459354D01*
X61940091Y-161305407D02*
X61401276Y-160766592D01*
X61426934Y-160894881D01*
X61426934Y-160997513D01*
X61401276Y-161074486D01*
X62042723Y-160125145D02*
X61786144Y-160381724D01*
X62017065Y-160663960D01*
X62017065Y-160612645D01*
X62042723Y-160535671D01*
X62171012Y-160407382D01*
X62247986Y-160381724D01*
X62299302Y-160381724D01*
X62376275Y-160407382D01*
X62504565Y-160535671D01*
X62530223Y-160612645D01*
X62530223Y-160663960D01*
X62504565Y-160740934D01*
X62376275Y-160869223D01*
X62299302Y-160894881D01*
X62247986Y-160894881D01*
D11*
X116376000Y-153924000D02*
X116376000Y-157524000D01*
X116376000Y-153924000D02*
X116376000Y-151724000D01*
X123146000Y-153924000D02*
X123146000Y-156124000D01*
X123146000Y-153924000D02*
X123146000Y-151724000D01*
X106382000Y-153924000D02*
X106382000Y-151724000D01*
X106382000Y-153924000D02*
X106382000Y-156124000D01*
X99612000Y-153924000D02*
X99612000Y-151724000D01*
X99612000Y-153924000D02*
X99612000Y-157524000D01*
X73616000Y-153924000D02*
X73616000Y-151724000D01*
X73616000Y-153924000D02*
X73616000Y-156124000D01*
X66846000Y-153924000D02*
X66846000Y-151724000D01*
X66846000Y-153924000D02*
X66846000Y-157524000D01*
X83102000Y-153924000D02*
X83102000Y-157524000D01*
X83102000Y-153924000D02*
X83102000Y-151724000D01*
X89872000Y-153924000D02*
X89872000Y-156124000D01*
X89872000Y-153924000D02*
X89872000Y-151724000D01*
X139529000Y-153924000D02*
X139529000Y-151724000D01*
X139529000Y-153924000D02*
X139529000Y-156124000D01*
X132759000Y-153924000D02*
X132759000Y-151724000D01*
X132759000Y-153924000D02*
X132759000Y-157524000D01*
X147064000Y-151983221D02*
X147064000Y-152308779D01*
X148084000Y-151983221D02*
X148084000Y-152308779D01*
X157355000Y-151983221D02*
X157355000Y-152308779D01*
X156335000Y-151983221D02*
X156335000Y-152308779D01*
X64895000Y-151729221D02*
X64895000Y-152054779D01*
X65915000Y-151729221D02*
X65915000Y-152054779D01*
X82171000Y-151729221D02*
X82171000Y-152054779D01*
X81151000Y-151729221D02*
X81151000Y-152054779D01*
X97661000Y-151729221D02*
X97661000Y-152054779D01*
X98681000Y-151729221D02*
X98681000Y-152054779D01*
X115445000Y-151729221D02*
X115445000Y-152054779D01*
X114425000Y-151729221D02*
X114425000Y-152054779D01*
X130808000Y-151729221D02*
X130808000Y-152054779D01*
X131828000Y-151729221D02*
X131828000Y-152054779D01*
X141926000Y-157921000D02*
X144586000Y-157921000D01*
X141926000Y-152781000D02*
X141926000Y-157921000D01*
X144586000Y-152781000D02*
X144586000Y-157921000D01*
X141926000Y-152781000D02*
X144586000Y-152781000D01*
X141926000Y-151511000D02*
X141926000Y-150181000D01*
X141926000Y-150181000D02*
X143256000Y-150181000D01*
X148736000Y-156444000D02*
X149996000Y-156444000D01*
X155556000Y-156444000D02*
X154296000Y-156444000D01*
X148736000Y-152684000D02*
X148736000Y-156444000D01*
X155556000Y-150434000D02*
X155556000Y-156444000D01*
X64768000Y-156372779D02*
X64768000Y-156047221D01*
X65788000Y-156372779D02*
X65788000Y-156047221D01*
X64202000Y-143637000D02*
X64202000Y-142307000D01*
X64202000Y-142307000D02*
X65532000Y-142307000D01*
X64202000Y-144907000D02*
X66802000Y-144907000D01*
X66802000Y-144907000D02*
X66802000Y-142307000D01*
X66802000Y-142307000D02*
X127822000Y-142307000D01*
X127822000Y-147507000D02*
X127822000Y-142307000D01*
X64202000Y-147507000D02*
X127822000Y-147507000D01*
X64202000Y-147507000D02*
X64202000Y-144907000D01*
X137982000Y-146999000D02*
X137982000Y-144339000D01*
X135382000Y-146999000D02*
X137982000Y-146999000D01*
X135382000Y-144339000D02*
X137982000Y-144339000D01*
X135382000Y-146999000D02*
X135382000Y-144339000D01*
X134112000Y-146999000D02*
X132782000Y-146999000D01*
X132782000Y-146999000D02*
X132782000Y-145669000D01*
D12*
X114300095Y-156424380D02*
X114300095Y-157233904D01*
X114347714Y-157329142D01*
X114395333Y-157376761D01*
X114490571Y-157424380D01*
X114681047Y-157424380D01*
X114776285Y-157376761D01*
X114823904Y-157329142D01*
X114871523Y-157233904D01*
X114871523Y-156424380D01*
X115823904Y-156424380D02*
X115347714Y-156424380D01*
X115300095Y-156900571D01*
X115347714Y-156852952D01*
X115442952Y-156805333D01*
X115681047Y-156805333D01*
X115776285Y-156852952D01*
X115823904Y-156900571D01*
X115871523Y-156995809D01*
X115871523Y-157233904D01*
X115823904Y-157329142D01*
X115776285Y-157376761D01*
X115681047Y-157424380D01*
X115442952Y-157424380D01*
X115347714Y-157376761D01*
X115300095Y-157329142D01*
X97409095Y-156297380D02*
X97409095Y-157106904D01*
X97456714Y-157202142D01*
X97504333Y-157249761D01*
X97599571Y-157297380D01*
X97790047Y-157297380D01*
X97885285Y-157249761D01*
X97932904Y-157202142D01*
X97980523Y-157106904D01*
X97980523Y-156297380D01*
X98885285Y-156630714D02*
X98885285Y-157297380D01*
X98647190Y-156249761D02*
X98409095Y-156964047D01*
X99028142Y-156964047D01*
X66802095Y-158456380D02*
X66802095Y-159265904D01*
X66849714Y-159361142D01*
X66897333Y-159408761D01*
X66992571Y-159456380D01*
X67183047Y-159456380D01*
X67278285Y-159408761D01*
X67325904Y-159361142D01*
X67373523Y-159265904D01*
X67373523Y-158456380D01*
X67802095Y-158551619D02*
X67849714Y-158504000D01*
X67944952Y-158456380D01*
X68183047Y-158456380D01*
X68278285Y-158504000D01*
X68325904Y-158551619D01*
X68373523Y-158646857D01*
X68373523Y-158742095D01*
X68325904Y-158884952D01*
X67754476Y-159456380D01*
X68373523Y-159456380D01*
X81026095Y-156424380D02*
X81026095Y-157233904D01*
X81073714Y-157329142D01*
X81121333Y-157376761D01*
X81216571Y-157424380D01*
X81407047Y-157424380D01*
X81502285Y-157376761D01*
X81549904Y-157329142D01*
X81597523Y-157233904D01*
X81597523Y-156424380D01*
X81978476Y-156424380D02*
X82597523Y-156424380D01*
X82264190Y-156805333D01*
X82407047Y-156805333D01*
X82502285Y-156852952D01*
X82549904Y-156900571D01*
X82597523Y-156995809D01*
X82597523Y-157233904D01*
X82549904Y-157329142D01*
X82502285Y-157376761D01*
X82407047Y-157424380D01*
X82121333Y-157424380D01*
X82026095Y-157376761D01*
X81978476Y-157329142D01*
X130556095Y-156424380D02*
X130556095Y-157233904D01*
X130603714Y-157329142D01*
X130651333Y-157376761D01*
X130746571Y-157424380D01*
X130937047Y-157424380D01*
X131032285Y-157376761D01*
X131079904Y-157329142D01*
X131127523Y-157233904D01*
X131127523Y-156424380D01*
X132032285Y-156424380D02*
X131841809Y-156424380D01*
X131746571Y-156472000D01*
X131698952Y-156519619D01*
X131603714Y-156662476D01*
X131556095Y-156852952D01*
X131556095Y-157233904D01*
X131603714Y-157329142D01*
X131651333Y-157376761D01*
X131746571Y-157424380D01*
X131937047Y-157424380D01*
X132032285Y-157376761D01*
X132079904Y-157329142D01*
X132127523Y-157233904D01*
X132127523Y-156995809D01*
X132079904Y-156900571D01*
X132032285Y-156852952D01*
X131937047Y-156805333D01*
X131746571Y-156805333D01*
X131651333Y-156852952D01*
X131603714Y-156900571D01*
X131556095Y-156995809D01*
X147407333Y-155043142D02*
X147359714Y-155090761D01*
X147216857Y-155138380D01*
X147121619Y-155138380D01*
X146978761Y-155090761D01*
X146883523Y-154995523D01*
X146835904Y-154900285D01*
X146788285Y-154709809D01*
X146788285Y-154566952D01*
X146835904Y-154376476D01*
X146883523Y-154281238D01*
X146978761Y-154186000D01*
X147121619Y-154138380D01*
X147216857Y-154138380D01*
X147359714Y-154186000D01*
X147407333Y-154233619D01*
X148359714Y-155138380D02*
X147788285Y-155138380D01*
X148074000Y-155138380D02*
X148074000Y-154138380D01*
X147978761Y-154281238D01*
X147883523Y-154376476D01*
X147788285Y-154424095D01*
X156678333Y-155043142D02*
X156630714Y-155090761D01*
X156487857Y-155138380D01*
X156392619Y-155138380D01*
X156249761Y-155090761D01*
X156154523Y-154995523D01*
X156106904Y-154900285D01*
X156059285Y-154709809D01*
X156059285Y-154566952D01*
X156106904Y-154376476D01*
X156154523Y-154281238D01*
X156249761Y-154186000D01*
X156392619Y-154138380D01*
X156487857Y-154138380D01*
X156630714Y-154186000D01*
X156678333Y-154233619D01*
X157059285Y-154233619D02*
X157106904Y-154186000D01*
X157202142Y-154138380D01*
X157440238Y-154138380D01*
X157535476Y-154186000D01*
X157583095Y-154233619D01*
X157630714Y-154328857D01*
X157630714Y-154424095D01*
X157583095Y-154566952D01*
X157011666Y-155138380D01*
X157630714Y-155138380D01*
X63079333Y-152249142D02*
X63031714Y-152296761D01*
X62888857Y-152344380D01*
X62793619Y-152344380D01*
X62650761Y-152296761D01*
X62555523Y-152201523D01*
X62507904Y-152106285D01*
X62460285Y-151915809D01*
X62460285Y-151772952D01*
X62507904Y-151582476D01*
X62555523Y-151487238D01*
X62650761Y-151392000D01*
X62793619Y-151344380D01*
X62888857Y-151344380D01*
X63031714Y-151392000D01*
X63079333Y-151439619D01*
X63936476Y-151677714D02*
X63936476Y-152344380D01*
X63698380Y-151296761D02*
X63460285Y-152011047D01*
X64079333Y-152011047D01*
X81494333Y-155043142D02*
X81446714Y-155090761D01*
X81303857Y-155138380D01*
X81208619Y-155138380D01*
X81065761Y-155090761D01*
X80970523Y-154995523D01*
X80922904Y-154900285D01*
X80875285Y-154709809D01*
X80875285Y-154566952D01*
X80922904Y-154376476D01*
X80970523Y-154281238D01*
X81065761Y-154186000D01*
X81208619Y-154138380D01*
X81303857Y-154138380D01*
X81446714Y-154186000D01*
X81494333Y-154233619D01*
X82399095Y-154138380D02*
X81922904Y-154138380D01*
X81875285Y-154614571D01*
X81922904Y-154566952D01*
X82018142Y-154519333D01*
X82256238Y-154519333D01*
X82351476Y-154566952D01*
X82399095Y-154614571D01*
X82446714Y-154709809D01*
X82446714Y-154947904D01*
X82399095Y-155043142D01*
X82351476Y-155090761D01*
X82256238Y-155138380D01*
X82018142Y-155138380D01*
X81922904Y-155090761D01*
X81875285Y-155043142D01*
X98004333Y-154916142D02*
X97956714Y-154963761D01*
X97813857Y-155011380D01*
X97718619Y-155011380D01*
X97575761Y-154963761D01*
X97480523Y-154868523D01*
X97432904Y-154773285D01*
X97385285Y-154582809D01*
X97385285Y-154439952D01*
X97432904Y-154249476D01*
X97480523Y-154154238D01*
X97575761Y-154059000D01*
X97718619Y-154011380D01*
X97813857Y-154011380D01*
X97956714Y-154059000D01*
X98004333Y-154106619D01*
X98861476Y-154011380D02*
X98671000Y-154011380D01*
X98575761Y-154059000D01*
X98528142Y-154106619D01*
X98432904Y-154249476D01*
X98385285Y-154439952D01*
X98385285Y-154820904D01*
X98432904Y-154916142D01*
X98480523Y-154963761D01*
X98575761Y-155011380D01*
X98766238Y-155011380D01*
X98861476Y-154963761D01*
X98909095Y-154916142D01*
X98956714Y-154820904D01*
X98956714Y-154582809D01*
X98909095Y-154487571D01*
X98861476Y-154439952D01*
X98766238Y-154392333D01*
X98575761Y-154392333D01*
X98480523Y-154439952D01*
X98432904Y-154487571D01*
X98385285Y-154582809D01*
X114768333Y-155017642D02*
X114720714Y-155065261D01*
X114577857Y-155112880D01*
X114482619Y-155112880D01*
X114339761Y-155065261D01*
X114244523Y-154970023D01*
X114196904Y-154874785D01*
X114149285Y-154684309D01*
X114149285Y-154541452D01*
X114196904Y-154350976D01*
X114244523Y-154255738D01*
X114339761Y-154160500D01*
X114482619Y-154112880D01*
X114577857Y-154112880D01*
X114720714Y-154160500D01*
X114768333Y-154208119D01*
X115101666Y-154112880D02*
X115768333Y-154112880D01*
X115339761Y-155112880D01*
X131024333Y-154916142D02*
X130976714Y-154963761D01*
X130833857Y-155011380D01*
X130738619Y-155011380D01*
X130595761Y-154963761D01*
X130500523Y-154868523D01*
X130452904Y-154773285D01*
X130405285Y-154582809D01*
X130405285Y-154439952D01*
X130452904Y-154249476D01*
X130500523Y-154154238D01*
X130595761Y-154059000D01*
X130738619Y-154011380D01*
X130833857Y-154011380D01*
X130976714Y-154059000D01*
X131024333Y-154106619D01*
X131357666Y-154011380D02*
X131976714Y-154011380D01*
X131643380Y-154392333D01*
X131786238Y-154392333D01*
X131881476Y-154439952D01*
X131929095Y-154487571D01*
X131976714Y-154582809D01*
X131976714Y-154820904D01*
X131929095Y-154916142D01*
X131881476Y-154963761D01*
X131786238Y-155011380D01*
X131500523Y-155011380D01*
X131405285Y-154963761D01*
X131357666Y-154916142D01*
X142422666Y-158989780D02*
X142422666Y-159704066D01*
X142375047Y-159846923D01*
X142279809Y-159942161D01*
X142136952Y-159989780D01*
X142041714Y-159989780D01*
X142898857Y-159989780D02*
X142898857Y-158989780D01*
X143279809Y-158989780D01*
X143375047Y-159037400D01*
X143422666Y-159085019D01*
X143470285Y-159180257D01*
X143470285Y-159323114D01*
X143422666Y-159418352D01*
X143375047Y-159465971D01*
X143279809Y-159513590D01*
X142898857Y-159513590D01*
X144422666Y-159989780D02*
X143851238Y-159989780D01*
X144136952Y-159989780D02*
X144136952Y-158989780D01*
X144041714Y-159132638D01*
X143946476Y-159227876D01*
X143851238Y-159275495D01*
D13*
X151384095Y-159676380D02*
X151384095Y-160485904D01*
X151431714Y-160581142D01*
X151479333Y-160628761D01*
X151574571Y-160676380D01*
X151765047Y-160676380D01*
X151860285Y-160628761D01*
X151907904Y-160581142D01*
X151955523Y-160485904D01*
X151955523Y-159676380D01*
X152955523Y-160676380D02*
X152384095Y-160676380D01*
X152669809Y-160676380D02*
X152669809Y-159676380D01*
X152574571Y-159819238D01*
X152479333Y-159914476D01*
X152384095Y-159962095D01*
D12*
X117562380Y-153241333D02*
X118276666Y-153241333D01*
X118419523Y-153288952D01*
X118514761Y-153384190D01*
X118562380Y-153527047D01*
X118562380Y-153622285D01*
X117657619Y-152812761D02*
X117610000Y-152765142D01*
X117562380Y-152669904D01*
X117562380Y-152431809D01*
X117610000Y-152336571D01*
X117657619Y-152288952D01*
X117752857Y-152241333D01*
X117848095Y-152241333D01*
X117990952Y-152288952D01*
X118562380Y-152860380D01*
X118562380Y-152241333D01*
X61769666Y-158456380D02*
X61769666Y-159170666D01*
X61722047Y-159313523D01*
X61626809Y-159408761D01*
X61483952Y-159456380D01*
X61388714Y-159456380D01*
X62769666Y-159456380D02*
X62198238Y-159456380D01*
X62483952Y-159456380D02*
X62483952Y-158456380D01*
X62388714Y-158599238D01*
X62293476Y-158694476D01*
X62198238Y-158742095D01*
X63079333Y-156662380D02*
X62746000Y-156186190D01*
X62507904Y-156662380D02*
X62507904Y-155662380D01*
X62888857Y-155662380D01*
X62984095Y-155710000D01*
X63031714Y-155757619D01*
X63079333Y-155852857D01*
X63079333Y-155995714D01*
X63031714Y-156090952D01*
X62984095Y-156138571D01*
X62888857Y-156186190D01*
X62507904Y-156186190D01*
X64031714Y-156662380D02*
X63460285Y-156662380D01*
X63746000Y-156662380D02*
X63746000Y-155662380D01*
X63650761Y-155805238D01*
X63555523Y-155900476D01*
X63460285Y-155948095D01*
X62428666Y-144359380D02*
X62428666Y-145073666D01*
X62381047Y-145216523D01*
X62285809Y-145311761D01*
X62142952Y-145359380D01*
X62047714Y-145359380D01*
X62809619Y-144359380D02*
X63428666Y-144359380D01*
X63095333Y-144740333D01*
X63238190Y-144740333D01*
X63333428Y-144787952D01*
X63381047Y-144835571D01*
X63428666Y-144930809D01*
X63428666Y-145168904D01*
X63381047Y-145264142D01*
X63333428Y-145311761D01*
X63238190Y-145359380D01*
X62952476Y-145359380D01*
X62857238Y-145311761D01*
X62809619Y-145264142D01*
X129722666Y-145121380D02*
X129722666Y-145835666D01*
X129675047Y-145978523D01*
X129579809Y-146073761D01*
X129436952Y-146121380D01*
X129341714Y-146121380D01*
X130198857Y-146121380D02*
X130198857Y-145121380D01*
X130579809Y-145121380D01*
X130675047Y-145169000D01*
X130722666Y-145216619D01*
X130770285Y-145311857D01*
X130770285Y-145454714D01*
X130722666Y-145549952D01*
X130675047Y-145597571D01*
X130579809Y-145645190D01*
X130198857Y-145645190D01*
X131151238Y-145216619D02*
X131198857Y-145169000D01*
X131294095Y-145121380D01*
X131532190Y-145121380D01*
X131627428Y-145169000D01*
X131675047Y-145216619D01*
X131722666Y-145311857D01*
X131722666Y-145407095D01*
X131675047Y-145549952D01*
X131103619Y-146121380D01*
X131722666Y-146121380D01*
M02*
